<?xml version="1.0" encoding="utf-8"?>
<!-- Generator: Adobe Illustrator 22.0.1, SVG Export Plug-In . SVG Version: 6.00 Build 0)  -->
<svg version="1.1" id="Layer_1" xmlns="http://www.w3.org/2000/svg" xmlns:xlink="http://www.w3.org/1999/xlink" x="0px" y="0px"
	 viewBox="0 0 1280 731.2" style="enable-background:new 0 0 1280 731.2;" xml:space="preserve">
<style type="text/css">
	.st0{fill:#FFFFFF;}
</style>
<g>
	<path d="M1034.9,6.5c-0.6-0.3-1.4-0.4-2.3-0.4c-1.1,0-1.9,0.2-2.5,0.6s-0.8,0.9-0.8,1.5c0,0.9,0.7,1.6,2.1,2l4.2,1.2
		c1.6,0.4,2.7,1.1,3.5,2.1c0.8,1,1.1,2.1,1.1,3.4c0,1.2-0.3,2.3-1,3.2c-0.6,0.9-1.5,1.6-2.7,2.1c-1.2,0.5-2.6,0.7-4.2,0.7
		c-1.8,0-3.4-0.3-4.9-0.9s-2.5-1.4-3.2-2.5c-0.1-0.1-0.1-0.2-0.1-0.3c0-0.1,0.1-0.3,0.3-0.4l2-1.4c0.2-0.1,0.3-0.2,0.5-0.2
		c0.2,0,0.3,0.1,0.4,0.2c0.7,0.8,1.3,1.4,2,1.8s1.6,0.5,2.7,0.5c1.2,0,2.1-0.2,2.8-0.6c0.7-0.4,1-0.9,1-1.7c0-0.5-0.2-0.9-0.5-1.2
		c-0.3-0.3-0.9-0.6-1.7-0.9l-4-1.1c-1.5-0.4-2.7-1.1-3.5-2.1c-0.8-1-1.2-2.1-1.2-3.4c0-1.1,0.3-2.1,0.9-3s1.5-1.6,2.7-2.1
		c1.1-0.5,2.5-0.8,4-0.8c1.5,0,2.8,0.3,4.1,0.8c1.2,0.5,2.2,1.2,2.8,2c0.1,0.1,0.2,0.3,0.2,0.4s-0.1,0.2-0.2,0.3l-2.2,1.6
		c-0.1,0.1-0.2,0.1-0.2,0.1c-0.1,0-0.2-0.1-0.4-0.3C1036,7.2,1035.5,6.8,1034.9,6.5z"/>
	<path d="M1043.5,3.1h13.3c0.3,0,0.4,0.1,0.4,0.4l0,2.4c0,0.4-0.2,0.6-0.6,0.6h-8.4c-0.3,0-0.5,0.1-0.5,0.4v3.8
		c0,0.3,0.1,0.4,0.4,0.4h5.6c0.3,0,0.4,0.1,0.4,0.4v2.5c0,0.2-0.1,0.4-0.4,0.4h-5.7c-0.2,0-0.4,0.1-0.4,0.3V19c0,0.1,0,0.2,0.1,0.3
		c0,0.1,0.1,0.1,0.2,0.1h9c0.3,0,0.5,0.1,0.5,0.4v2.5c0,0.3-0.2,0.5-0.5,0.5h-13.3c-0.2,0-0.4,0-0.4-0.1c-0.1-0.1-0.1-0.2-0.1-0.4
		V3.6C1043.1,3.3,1043.2,3.1,1043.5,3.1z"/>
	<path d="M1060.8,3.1h3.8c0.3,0,0.4,0.2,0.4,0.5V19c0,0.1,0,0.2,0.1,0.3c0,0.1,0.1,0.1,0.2,0.1h8.4c0.3,0,0.5,0.1,0.5,0.4v2.5
		c0,0.1,0,0.3-0.1,0.3c-0.1,0.1-0.2,0.1-0.4,0.1h-12.7c-0.2,0-0.4,0-0.4-0.1c-0.1-0.1-0.1-0.2-0.1-0.4V3.6
		C1060.4,3.3,1060.5,3.1,1060.8,3.1z"/>
	<path d="M1077.3,3.1h13.1c0.3,0,0.4,0.1,0.4,0.4l0,2.4c0,0.4-0.2,0.6-0.5,0.6h-8.2c-0.2,0-0.3,0-0.4,0.1s-0.1,0.2-0.1,0.3V11
		c0,0.3,0.1,0.4,0.4,0.4h5.7c0.3,0,0.4,0.1,0.4,0.4v2.5c0,0.2-0.1,0.4-0.4,0.4h-5.8c-0.2,0-0.4,0.1-0.4,0.3v7c0,0.2-0.1,0.4-0.2,0.5
		s-0.3,0.1-0.5,0.1h-3.4c-0.2,0-0.4,0-0.4-0.1c-0.1-0.1-0.1-0.2-0.1-0.4V3.6C1076.9,3.3,1077.1,3.1,1077.3,3.1z"/>
	<path d="M1024.2,50.9c0-0.1,0-0.2,0.1-0.3l6.6-18.3c0.1-0.2,0.2-0.3,0.3-0.4c0.1-0.1,0.2-0.1,0.4-0.1h4c0.2,0,0.4,0.1,0.5,0.2
		c0.1,0.1,0.2,0.2,0.3,0.4l6.5,18.3c0,0.1,0.1,0.2,0.1,0.2c0,0.1,0,0.3-0.1,0.3s-0.2,0.1-0.3,0.1h-3.9c-0.3,0-0.4-0.1-0.5-0.4
		l-1.4-3.9c0-0.1-0.1-0.2-0.1-0.2c0,0-0.1-0.1-0.2-0.1h-6.4c-0.2,0-0.3,0.1-0.3,0.3l-1.4,3.9c-0.1,0.2-0.3,0.3-0.6,0.3h-3
		C1024.4,51.3,1024.2,51.2,1024.2,50.9z M1035.3,43.3c0.2,0,0.3-0.1,0.3-0.2c0-0.1,0-0.2,0-0.2l-2.2-6.2c-0.1-0.1-0.1-0.2-0.2-0.2
		c-0.1,0-0.1,0.1-0.2,0.2l-2.2,6.2c0,0.1-0.1,0.2-0.1,0.2c0,0.1,0.1,0.2,0.3,0.2H1035.3z"/>
	<path d="M1056.2,32.2c1.1,0.5,2.1,1.2,2.8,2.1c0.7,0.9,1.2,1.9,1.4,3c0,0.1,0.1,0.3,0.1,0.4c0,0.1,0,0.2-0.1,0.2s-0.1,0.1-0.2,0.1
		l-3.6,0.2c-0.2,0-0.3,0-0.3-0.1c0-0.1-0.1-0.2-0.1-0.3c-0.2-1-0.6-1.7-1.2-2.3c-0.6-0.6-1.4-0.8-2.3-0.8c-2.8,0-4.2,2.3-4.2,6.8
		c0,2.3,0.4,4,1.1,5.1s1.8,1.6,3.2,1.6c1.1,0,1.9-0.3,2.7-0.8c0.7-0.5,1.3-1.4,1.8-2.6c0.1-0.1,0.2-0.2,0.3-0.2c0.1,0,0.2,0,0.2,0
		l2.6,0.6c0.2,0.1,0.3,0.3,0.3,0.7c-0.2,0.8-0.6,1.6-1.2,2.5c-0.6,0.9-1.5,1.6-2.7,2.3c-1.2,0.7-2.6,1-4.2,1c-1.8,0-3.4-0.4-4.7-1.3
		c-1.3-0.9-2.4-2.1-3.1-3.6c-0.7-1.5-1.1-3.3-1.1-5.3c0-2,0.4-3.8,1.1-5.3c0.7-1.5,1.8-2.6,3.1-3.4c1.3-0.8,2.9-1.2,4.7-1.2
		C1053.9,31.5,1055.1,31.7,1056.2,32.2z"/>
	<path d="M1062.5,32.2c0-0.1,0-0.3,0.1-0.3c0.1-0.1,0.2-0.1,0.4-0.1h15.2c0.4,0,0.5,0.2,0.5,0.5v2.5c0,0.3-0.2,0.4-0.5,0.4h-4.9
		c-0.2,0-0.3,0.1-0.3,0.3v15.5c0,0.3-0.1,0.5-0.4,0.5h-3.8c-0.3,0-0.4-0.1-0.4-0.4V35.4c0-0.1,0-0.2-0.1-0.3c0-0.1-0.1-0.1-0.2-0.1
		h-5.1c-0.3,0-0.5-0.1-0.5-0.4V32.2z"/>
	<path d="M1095,49.8c-1.4,1.2-3.3,1.8-5.9,1.8c-2.8,0-4.8-0.7-6-2s-1.8-3.3-1.8-6V32.3c0-0.2,0-0.3,0.1-0.4s0.2-0.1,0.3-0.1h3.8
		c0.3,0,0.4,0.2,0.4,0.5v12c0,1.4,0.3,2.5,0.9,3.1c0.6,0.7,1.5,1,2.7,1c2.5,0,3.7-1.4,3.7-4.2V32.2c0-0.3,0.1-0.5,0.4-0.5h3
		c0.3,0,0.4,0.2,0.4,0.5v11.9C1097,46.7,1096.3,48.7,1095,49.8z"/>
	<path d="M1098.2,50.9c0-0.1,0-0.2,0.1-0.3l6.6-18.3c0.1-0.2,0.2-0.3,0.3-0.4c0.1-0.1,0.2-0.1,0.4-0.1h4c0.2,0,0.4,0.1,0.5,0.2
		c0.1,0.1,0.2,0.2,0.3,0.4l6.5,18.3c0,0.1,0.1,0.2,0.1,0.2c0,0.1,0,0.3-0.1,0.3s-0.2,0.1-0.3,0.1h-3.9c-0.3,0-0.4-0.1-0.5-0.4
		l-1.4-3.9c0-0.1-0.1-0.2-0.1-0.2c0,0-0.1-0.1-0.2-0.1h-6.4c-0.2,0-0.3,0.1-0.3,0.3l-1.4,3.9c-0.1,0.2-0.3,0.3-0.6,0.3h-3
		C1098.4,51.3,1098.2,51.2,1098.2,50.9z M1109.3,43.3c0.2,0,0.3-0.1,0.3-0.2c0-0.1,0-0.2,0-0.2l-2.2-6.2c-0.1-0.1-0.1-0.2-0.2-0.2
		c-0.1,0-0.1,0.1-0.2,0.2l-2.2,6.2c0,0.1-0.1,0.2-0.1,0.2c0,0.1,0.1,0.2,0.3,0.2H1109.3z"/>
	<path d="M1120,31.7h3.8c0.3,0,0.4,0.2,0.4,0.5v15.4c0,0.1,0,0.2,0.1,0.3c0,0.1,0.1,0.1,0.2,0.1h8.4c0.3,0,0.5,0.1,0.5,0.4v2.5
		c0,0.1,0,0.3-0.1,0.3c-0.1,0.1-0.2,0.1-0.4,0.1h-12.7c-0.2,0-0.4,0-0.4-0.1c-0.1-0.1-0.1-0.2-0.1-0.4V32.2
		C1119.6,31.9,1119.7,31.7,1120,31.7z"/>
	<path d="M1140.3,31.7c0.3,0,0.4,0.2,0.4,0.5v18.5c0,0.2-0.1,0.4-0.2,0.5s-0.3,0.1-0.6,0.1h-3.3c-0.2,0-0.4,0-0.4-0.1
		c-0.1-0.1-0.1-0.2-0.1-0.4V32.2c0-0.3,0.1-0.5,0.4-0.5H1140.3z"/>
	<path d="M1143.6,51.2c-0.1-0.1-0.1-0.2-0.1-0.4v-1c0-0.2,0-0.4,0.1-0.5c0-0.1,0.2-0.3,0.4-0.6l9-13.3c0.1-0.1,0.1-0.1,0.1-0.2
		c0-0.1-0.1-0.2-0.3-0.2h-8.1c-0.2,0-0.3,0-0.4-0.1c-0.1-0.1-0.1-0.2-0.1-0.4v-2.5c0-0.3,0.1-0.4,0.4-0.4h14.6c0.1,0,0.2,0,0.3,0.1
		c0.1,0.1,0.1,0.2,0.1,0.3v1.1c0,0.2,0,0.3-0.1,0.4c-0.1,0.1-0.1,0.3-0.3,0.5l-9.2,13.5c0,0-0.1,0.1-0.1,0.2c0,0.1,0.1,0.2,0.3,0.2
		h8.8c0.3,0,0.5,0.1,0.5,0.4v2.6c0,0.1,0,0.3-0.1,0.3c-0.1,0.1-0.2,0.1-0.4,0.1H1144C1143.8,51.3,1143.7,51.3,1143.6,51.2z"/>
	<path d="M1161.4,50.9c0-0.1,0-0.2,0.1-0.3l6.6-18.3c0.1-0.2,0.2-0.3,0.3-0.4c0.1-0.1,0.2-0.1,0.4-0.1h4c0.2,0,0.4,0.1,0.5,0.2
		c0.1,0.1,0.2,0.2,0.3,0.4l6.5,18.3c0,0.1,0.1,0.2,0.1,0.2c0,0.1,0,0.3-0.1,0.3s-0.2,0.1-0.3,0.1h-3.9c-0.3,0-0.4-0.1-0.5-0.4
		l-1.4-3.9c0-0.1-0.1-0.2-0.1-0.2c0,0-0.1-0.1-0.2-0.1h-6.4c-0.2,0-0.3,0.1-0.3,0.3l-1.4,3.9c-0.1,0.2-0.3,0.3-0.6,0.3h-3
		C1161.6,51.3,1161.4,51.2,1161.4,50.9z M1172.5,43.3c0.2,0,0.3-0.1,0.3-0.2c0-0.1,0-0.2,0-0.2l-2.2-6.2c-0.1-0.1-0.1-0.2-0.2-0.2
		c-0.1,0-0.1,0.1-0.2,0.2l-2.2,6.2c0,0.1-0.1,0.2-0.1,0.2c0,0.1,0.1,0.2,0.3,0.2H1172.5z"/>
	<path d="M1178.8,32.2c0-0.1,0-0.3,0.1-0.3c0.1-0.1,0.2-0.1,0.4-0.1h15.2c0.4,0,0.5,0.2,0.5,0.5v2.5c0,0.3-0.2,0.4-0.5,0.4h-4.9
		c-0.2,0-0.3,0.1-0.3,0.3v15.5c0,0.3-0.1,0.5-0.4,0.5h-3.8c-0.3,0-0.4-0.1-0.4-0.4V35.4c0-0.1,0-0.2-0.1-0.3c0-0.1-0.1-0.1-0.2-0.1
		h-5.1c-0.3,0-0.5-0.1-0.5-0.4V32.2z"/>
	<path d="M1201.9,31.7c0.3,0,0.4,0.2,0.4,0.5v18.5c0,0.2-0.1,0.4-0.2,0.5s-0.3,0.1-0.6,0.1h-3.3c-0.2,0-0.4,0-0.4-0.1
		c-0.1-0.1-0.1-0.2-0.1-0.4V32.2c0-0.3,0.1-0.5,0.4-0.5H1201.9z"/>
	<path d="M1209.6,50.4c-1.4-0.8-2.4-1.9-3.1-3.4c-0.7-1.5-1.1-3.3-1.1-5.3c0-2.1,0.4-3.9,1.1-5.4s1.8-2.7,3.2-3.5
		c1.4-0.8,3-1.2,4.8-1.2c1.8,0,3.4,0.4,4.8,1.2c1.4,0.8,2.4,2,3.1,3.5c0.7,1.5,1.1,3.3,1.1,5.4c0,2-0.4,3.8-1.1,5.3
		c-0.7,1.5-1.8,2.7-3.1,3.5c-1.4,0.8-2.9,1.2-4.8,1.2C1212.6,51.6,1211,51.2,1209.6,50.4z M1217.6,46.8c0.7-1.1,1-2.8,1-5.1
		c0-2.4-0.3-4.2-1-5.3s-1.7-1.7-3.2-1.7c-1.5,0-2.5,0.6-3.2,1.7s-1,2.9-1,5.3c0,2.4,0.3,4.1,1,5.1s1.7,1.6,3.2,1.6
		C1215.9,48.3,1217,47.8,1217.6,46.8z"/>
	<path d="M1242.5,31.7c0.2,0,0.3,0.1,0.3,0.4v18.8c0,0.1,0,0.2-0.1,0.3c-0.1,0.1-0.2,0.1-0.4,0.1h-2.7c-0.2,0-0.3,0-0.4-0.1
		c-0.1,0-0.2-0.1-0.3-0.3l-8.4-11.8c-0.1-0.1-0.1-0.1-0.2-0.1c-0.1,0-0.1,0.1-0.1,0.2v11.6v0.1c0,0.1,0,0.2-0.1,0.3
		c-0.1,0.1-0.2,0.1-0.4,0.1h-2.7c-0.4,0-0.5-0.1-0.5-0.4V32.2c0-0.3,0.2-0.5,0.5-0.5h3.2c0.2,0,0.4,0,0.4,0.1c0.1,0,0.2,0.2,0.3,0.3
		l7.8,11.1c0.1,0.1,0.2,0.2,0.3,0.2c0.1,0,0.1-0.1,0.1-0.3V32.2c0-0.3,0.2-0.5,0.5-0.5H1242.5z"/>
</g>
<g>
	<path d="M769.4,166.9h13.3c0.3,0,0.4,0.1,0.4,0.4l0,2.4c0,0.4-0.2,0.6-0.6,0.6h-8.4c-0.3,0-0.5,0.1-0.5,0.4v3.8
		c0,0.3,0.1,0.4,0.4,0.4h5.6c0.3,0,0.4,0.1,0.4,0.4v2.5c0,0.2-0.1,0.4-0.4,0.4H774c-0.2,0-0.4,0.1-0.4,0.3v4.1c0,0.1,0,0.2,0.1,0.3
		c0,0.1,0.1,0.1,0.2,0.1h9c0.3,0,0.5,0.1,0.5,0.4v2.5c0,0.3-0.2,0.5-0.5,0.5h-13.3c-0.2,0-0.4,0-0.4-0.1c-0.1-0.1-0.1-0.2-0.1-0.4
		v-18.5C769,167.1,769.1,166.9,769.4,166.9z"/>
	<path d="M795.9,170.3c-0.6-0.3-1.4-0.4-2.3-0.4c-1.1,0-1.9,0.2-2.5,0.6s-0.8,0.9-0.8,1.5c0,0.9,0.7,1.6,2.1,2l4.2,1.2
		c1.6,0.4,2.7,1.1,3.5,2.1c0.8,1,1.1,2.1,1.1,3.4c0,1.2-0.3,2.3-1,3.2c-0.6,0.9-1.5,1.6-2.7,2.1c-1.2,0.5-2.6,0.7-4.2,0.7
		c-1.8,0-3.4-0.3-4.9-0.9s-2.5-1.4-3.2-2.5c-0.1-0.1-0.1-0.2-0.1-0.3c0-0.1,0.1-0.3,0.3-0.4l2-1.4c0.2-0.1,0.3-0.2,0.5-0.2
		c0.2,0,0.3,0.1,0.4,0.2c0.7,0.8,1.3,1.4,2,1.8s1.6,0.5,2.7,0.5c1.2,0,2.1-0.2,2.8-0.6c0.7-0.4,1-0.9,1-1.7c0-0.5-0.2-0.9-0.5-1.2
		c-0.3-0.3-0.9-0.6-1.7-0.9l-4-1.1c-1.5-0.4-2.7-1.1-3.5-2.1c-0.8-1-1.2-2.1-1.2-3.4c0-1.1,0.3-2.1,0.9-3s1.5-1.6,2.7-2.1
		c1.1-0.5,2.5-0.8,4-0.8c1.5,0,2.8,0.3,4.1,0.8c1.2,0.5,2.2,1.2,2.8,2c0.1,0.1,0.2,0.3,0.2,0.4s-0.1,0.2-0.2,0.3l-2.2,1.6
		c-0.1,0.1-0.2,0.1-0.2,0.1c-0.1,0-0.2-0.1-0.4-0.3C797.1,171,796.5,170.6,795.9,170.3z"/>
	<path d="M803.2,167.4c0-0.1,0-0.3,0.1-0.3c0.1-0.1,0.2-0.1,0.4-0.1h15.2c0.4,0,0.5,0.2,0.5,0.5v2.5c0,0.3-0.2,0.4-0.5,0.4H814
		c-0.2,0-0.3,0.1-0.3,0.3V186c0,0.3-0.1,0.5-0.4,0.5h-3.8c-0.3,0-0.4-0.1-0.4-0.4v-15.5c0-0.1,0-0.2-0.1-0.3c0-0.1-0.1-0.1-0.2-0.1
		h-5.1c-0.3,0-0.5-0.1-0.5-0.4V167.4z"/>
	<path d="M822.6,166.9h13.3c0.3,0,0.4,0.1,0.4,0.4l0,2.4c0,0.4-0.2,0.6-0.6,0.6h-8.4c-0.3,0-0.5,0.1-0.5,0.4v3.8
		c0,0.3,0.1,0.4,0.4,0.4h5.6c0.3,0,0.4,0.1,0.4,0.4v2.5c0,0.2-0.1,0.4-0.4,0.4h-5.7c-0.2,0-0.4,0.1-0.4,0.3v4.1c0,0.1,0,0.2,0.1,0.3
		c0,0.1,0.1,0.1,0.2,0.1h9c0.3,0,0.5,0.1,0.5,0.4v2.5c0,0.3-0.2,0.5-0.5,0.5h-13.3c-0.2,0-0.4,0-0.4-0.1c-0.1-0.1-0.1-0.2-0.1-0.4
		v-18.5C822.1,167.1,822.3,166.9,822.6,166.9z"/>
	<path d="M839.8,166.9h13.3c0.3,0,0.4,0.1,0.4,0.4l0,2.4c0,0.4-0.2,0.6-0.6,0.6h-8.4c-0.3,0-0.5,0.1-0.5,0.4v3.8
		c0,0.3,0.1,0.4,0.4,0.4h5.6c0.3,0,0.4,0.1,0.4,0.4v2.5c0,0.2-0.1,0.4-0.4,0.4h-5.7c-0.2,0-0.4,0.1-0.4,0.3v4.1c0,0.1,0,0.2,0.1,0.3
		c0,0.1,0.1,0.1,0.2,0.1h9c0.3,0,0.5,0.1,0.5,0.4v2.5c0,0.3-0.2,0.5-0.5,0.5H840c-0.2,0-0.4,0-0.4-0.1c-0.1-0.1-0.1-0.2-0.1-0.4
		v-18.5C839.4,167.1,839.5,166.9,839.8,166.9z"/>
	<path d="M856.8,186.4c-0.1-0.1-0.1-0.3-0.1-0.4v-18.5c0-0.3,0.1-0.5,0.4-0.5h5.5c0.2,0,0.3,0,0.4,0.1c0.1,0.1,0.2,0.2,0.2,0.3
		l4,11.1c0.1,0.1,0.1,0.2,0.2,0.2c0.1,0,0.1-0.1,0.2-0.2l3.8-10.9c0.1-0.4,0.3-0.6,0.6-0.6h5.7c0.3,0,0.4,0.2,0.4,0.5v18.5
		c0,0.2-0.1,0.4-0.2,0.5c-0.1,0.1-0.3,0.1-0.5,0.1H874c-0.2,0-0.4,0-0.4-0.1c-0.1-0.1-0.1-0.2-0.1-0.4v-13.1c0-0.1,0-0.2-0.1-0.2
		c-0.1,0-0.1,0.1-0.2,0.2l-4.6,13.2c-0.1,0.3-0.3,0.4-0.6,0.4h-2.2c-0.3,0-0.5-0.1-0.6-0.4l-4.6-13c-0.1-0.1-0.1-0.2-0.2-0.2
		c-0.1,0-0.1,0.1-0.1,0.2v13c0,0.2,0,0.3-0.1,0.4s-0.2,0.1-0.4,0.1h-2.7C857,186.5,856.9,186.5,856.8,186.4z"/>
</g>
<g>
	<path d="M514.7,299.9h3.8c0.3,0,0.4,0.2,0.4,0.5v15.4c0,0.1,0,0.2,0.1,0.3c0,0.1,0.1,0.1,0.2,0.1h8.4c0.3,0,0.5,0.1,0.5,0.4v2.5
		c0,0.1,0,0.3-0.1,0.3c-0.1,0.1-0.2,0.1-0.4,0.1h-12.7c-0.2,0-0.4,0-0.4-0.1c-0.1-0.1-0.1-0.2-0.1-0.4v-18.5
		C514.3,300.1,514.4,299.9,514.7,299.9z"/>
	<path d="M532.8,318.6c-1.4-0.8-2.4-1.9-3.1-3.4c-0.7-1.5-1.1-3.3-1.1-5.3c0-2.1,0.4-3.9,1.1-5.4s1.8-2.7,3.2-3.5
		c1.4-0.8,3-1.2,4.8-1.2c1.8,0,3.4,0.4,4.8,1.2c1.4,0.8,2.4,2,3.1,3.5c0.7,1.5,1.1,3.3,1.1,5.4c0,2-0.4,3.8-1.1,5.3
		c-0.7,1.5-1.8,2.7-3.1,3.5c-1.4,0.8-2.9,1.2-4.8,1.2C535.7,319.8,534.1,319.4,532.8,318.6z M540.8,314.9c0.7-1.1,1-2.8,1-5.1
		c0-2.4-0.3-4.2-1-5.3s-1.7-1.7-3.2-1.7c-1.5,0-2.5,0.6-3.2,1.7s-1,2.9-1,5.3c0,2.4,0.3,4.1,1,5.1s1.7,1.6,3.2,1.6
		C539,316.5,540.1,316,540.8,314.9z"/>
	<path d="M565,300.1c0.1,0.1,0.1,0.3,0,0.4l-6.3,18.4c-0.1,0.4-0.4,0.6-0.8,0.6h-3.3c-0.4,0-0.7-0.2-0.8-0.6l-6.3-18.4l-0.1-0.2
		c0-0.1,0-0.2,0.1-0.3c0.1-0.1,0.2-0.1,0.3-0.1h3.8c0.3,0,0.5,0.1,0.6,0.4l4.3,13.4c0,0.1,0.1,0.2,0.1,0.2s0.1-0.1,0.2-0.2l4.2-13.3
		c0.1-0.3,0.3-0.4,0.6-0.4h3C564.8,299.9,564.9,300,565,300.1z"/>
	<path d="M568.1,299.9h13.3c0.3,0,0.4,0.1,0.4,0.4l0,2.4c0,0.4-0.2,0.6-0.6,0.6h-8.4c-0.3,0-0.5,0.1-0.5,0.4v3.8
		c0,0.3,0.1,0.4,0.4,0.4h5.6c0.3,0,0.4,0.1,0.4,0.4v2.5c0,0.2-0.1,0.4-0.4,0.4h-5.7c-0.2,0-0.4,0.1-0.4,0.3v4.1c0,0.1,0,0.2,0.1,0.3
		c0,0.1,0.1,0.1,0.2,0.1h9c0.3,0,0.5,0.1,0.5,0.4v2.5c0,0.3-0.2,0.5-0.5,0.5h-13.3c-0.2,0-0.4,0-0.4-0.1c-0.1-0.1-0.1-0.2-0.1-0.4
		v-18.5C567.7,300.1,567.8,299.9,568.1,299.9z"/>
</g>
<g>
	<path d="M267.7,437.6c-0.6-0.3-1.4-0.4-2.3-0.4c-1.1,0-1.9,0.2-2.5,0.6c-0.6,0.4-0.8,0.9-0.8,1.5c0,0.9,0.7,1.6,2.1,2l4.2,1.2
		c1.6,0.4,2.7,1.1,3.5,2.1c0.8,1,1.1,2.1,1.1,3.4c0,1.2-0.3,2.3-1,3.2c-0.6,0.9-1.5,1.6-2.7,2.1c-1.2,0.5-2.6,0.7-4.2,0.7
		c-1.8,0-3.4-0.3-4.9-0.9c-1.4-0.6-2.5-1.4-3.2-2.5c-0.1-0.1-0.1-0.2-0.1-0.3c0-0.1,0.1-0.3,0.3-0.4l2-1.4c0.2-0.1,0.3-0.2,0.5-0.2
		c0.2,0,0.3,0.1,0.4,0.2c0.7,0.8,1.3,1.4,2,1.8s1.6,0.5,2.7,0.5c1.2,0,2.1-0.2,2.8-0.6c0.7-0.4,1-0.9,1-1.7c0-0.5-0.2-0.9-0.5-1.2
		c-0.3-0.3-0.9-0.6-1.7-0.9l-4-1.1c-1.5-0.4-2.7-1.1-3.5-2.1c-0.8-1-1.2-2.1-1.2-3.4c0-1.1,0.3-2.1,0.9-3c0.6-0.9,1.5-1.6,2.7-2.1
		s2.5-0.8,4-0.8c1.5,0,2.8,0.3,4.1,0.8c1.2,0.5,2.2,1.2,2.8,2c0.1,0.1,0.2,0.3,0.2,0.4s-0.1,0.2-0.2,0.3L270,439
		c-0.1,0.1-0.2,0.1-0.2,0.1c-0.1,0-0.2-0.1-0.4-0.3C268.9,438.3,268.3,437.9,267.7,437.6z"/>
	<path d="M275,453.3c0-0.1,0-0.2,0.1-0.3l6.6-18.3c0.1-0.2,0.2-0.3,0.3-0.4s0.2-0.1,0.4-0.1h4c0.2,0,0.4,0.1,0.5,0.2
		c0.1,0.1,0.2,0.2,0.3,0.4l6.5,18.3c0,0.1,0.1,0.2,0.1,0.2c0,0.1,0,0.3-0.1,0.3s-0.2,0.1-0.3,0.1h-3.9c-0.3,0-0.4-0.1-0.5-0.4
		l-1.4-3.9c0-0.1-0.1-0.2-0.1-0.2c0,0-0.1-0.1-0.2-0.1h-6.4c-0.2,0-0.3,0.1-0.3,0.3l-1.4,3.9c-0.1,0.2-0.3,0.3-0.6,0.3h-3
		C275.1,453.8,275,453.6,275,453.3z M286.1,445.8c0.2,0,0.3-0.1,0.3-0.2c0-0.1,0-0.2,0-0.2l-2.2-6.2c-0.1-0.1-0.1-0.2-0.2-0.2
		c-0.1,0-0.1,0.1-0.2,0.2l-2.2,6.2c0,0.1-0.1,0.2-0.1,0.2c0,0.1,0.1,0.2,0.3,0.2H286.1z"/>
	<path d="M296.7,434.2h13.1c0.3,0,0.4,0.1,0.4,0.4l0,2.4c0,0.4-0.2,0.6-0.5,0.6h-8.2c-0.2,0-0.3,0-0.4,0.1s-0.1,0.2-0.1,0.3v4.1
		c0,0.3,0.1,0.4,0.4,0.4h5.7c0.3,0,0.4,0.1,0.4,0.4v2.5c0,0.2-0.1,0.4-0.4,0.4h-5.8c-0.2,0-0.4,0.1-0.4,0.3v7c0,0.2-0.1,0.4-0.2,0.5
		s-0.3,0.1-0.5,0.1h-3.4c-0.2,0-0.4,0-0.4-0.1c-0.1-0.1-0.1-0.2-0.1-0.4v-18.5C296.3,434.4,296.4,434.2,296.7,434.2z"/>
	<path d="M313.4,434.2h13.3c0.3,0,0.4,0.1,0.4,0.4l0,2.4c0,0.4-0.2,0.6-0.6,0.6h-8.4c-0.3,0-0.5,0.1-0.5,0.4v3.8
		c0,0.3,0.1,0.4,0.4,0.4h5.6c0.3,0,0.4,0.1,0.4,0.4v2.5c0,0.2-0.1,0.4-0.4,0.4H318c-0.2,0-0.4,0.1-0.4,0.3v4.1c0,0.1,0,0.2,0.1,0.3
		c0,0.1,0.1,0.1,0.2,0.1h9c0.3,0,0.5,0.1,0.5,0.4v2.5c0,0.3-0.2,0.5-0.5,0.5h-13.3c-0.2,0-0.4,0-0.4-0.1c-0.1-0.1-0.1-0.2-0.1-0.4
		v-18.5C313,434.4,313.1,434.2,313.4,434.2z"/>
	<path d="M329.3,434.7c0-0.1,0-0.3,0.1-0.3c0.1-0.1,0.2-0.1,0.4-0.1h15.2c0.4,0,0.5,0.2,0.5,0.5v2.5c0,0.3-0.2,0.4-0.5,0.4h-4.9
		c-0.2,0-0.3,0.1-0.3,0.3v15.5c0,0.3-0.1,0.5-0.4,0.5h-3.8c-0.3,0-0.4-0.1-0.4-0.4v-15.5c0-0.1,0-0.2-0.1-0.3s-0.1-0.1-0.2-0.1h-5.1
		c-0.3,0-0.5-0.1-0.5-0.4V434.7z"/>
	<path d="M365,434.5c0,0.1,0,0.2-0.1,0.3l-6.2,10.2c-0.1,0.2-0.2,0.3-0.2,0.5s0,0.5,0,0.9v6.9c0,0.4-0.2,0.6-0.7,0.6h-3.3
		c-0.2,0-0.4,0-0.4-0.1c-0.1-0.1-0.1-0.2-0.1-0.4v-7.1c0-0.2,0-0.4-0.1-0.5c0-0.1-0.1-0.3-0.3-0.5l-6.3-10.4
		c-0.1-0.1-0.1-0.2-0.1-0.3c0-0.1,0-0.2,0.1-0.2c0.1-0.1,0.2-0.1,0.4-0.1h4c0.2,0,0.4,0,0.5,0.1c0.1,0.1,0.2,0.2,0.3,0.4l3.9,6.9
		c0.1,0.2,0.2,0.3,0.3,0.3c0.1,0,0.2-0.1,0.2-0.2l3.9-6.9c0.1-0.2,0.2-0.3,0.3-0.4c0.1-0.1,0.3-0.1,0.5-0.1h3.2
		C364.8,434.2,365,434.3,365,434.5z"/>
</g>
<g>
	<path d="M15.9,576c-1.3,1-3,1.6-5.2,1.6h-4c-0.2,0-0.3,0.1-0.3,0.3v6.6c0,0.4-0.2,0.6-0.7,0.6H2.4c-0.2,0-0.4,0-0.4-0.1
		s-0.1-0.2-0.1-0.4v-18.6c0-0.3,0.1-0.5,0.4-0.5h7.9c1.5,0,2.8,0.2,3.9,0.7s2.1,1.1,2.7,2c0.7,0.9,1,2,1,3.4
		C17.9,573.4,17.2,574.9,15.9,576z M12.3,569.4c-0.6-0.5-1.4-0.7-2.4-0.7H7c-0.2,0-0.3,0-0.4,0.1s-0.1,0.2-0.1,0.4v4.5
		c0,0.2,0,0.3,0.1,0.4s0.1,0.1,0.3,0.1h3.2c0.9,0,1.7-0.2,2.2-0.7c0.5-0.5,0.8-1.2,0.8-2C13.1,570.6,12.8,569.9,12.3,569.4z"/>
	<path d="M25.7,576.7c-0.1,0-0.2,0-0.3,0.1c-0.1,0.1-0.1,0.1-0.1,0.2v7.4c0,0.2-0.1,0.4-0.2,0.5c-0.1,0.1-0.3,0.1-0.5,0.1h-3.3
		c-0.2,0-0.4,0-0.4-0.1c-0.1-0.1-0.1-0.2-0.1-0.4v-18.5c0-0.3,0.1-0.5,0.4-0.5h3.8c0.3,0,0.4,0.2,0.4,0.5v6.8c0,0.3,0.1,0.4,0.4,0.4
		h6.1c0.3,0,0.4-0.1,0.4-0.4v-6.8c0-0.3,0.1-0.5,0.4-0.5h3.8c0.3,0,0.4,0.2,0.4,0.5v18.5c0,0.4-0.2,0.6-0.6,0.6H33
		c-0.2,0-0.4,0-0.5-0.1c-0.1-0.1-0.2-0.2-0.2-0.5V577c0-0.1,0-0.2-0.1-0.3c-0.1-0.1-0.2-0.1-0.3-0.1H25.7z"/>
	<path d="M57.3,565.7c0,0.1,0,0.2-0.1,0.3L51,576.1c-0.1,0.2-0.2,0.3-0.2,0.5s0,0.5,0,0.9v6.9c0,0.4-0.2,0.6-0.7,0.6h-3.3
		c-0.2,0-0.4,0-0.4-0.1c-0.1-0.1-0.1-0.2-0.1-0.4v-7.1c0-0.2,0-0.4-0.1-0.5c0-0.1-0.1-0.3-0.3-0.5l-6.3-10.4
		c-0.1-0.1-0.1-0.2-0.1-0.3c0-0.1,0-0.2,0.1-0.2c0.1-0.1,0.2-0.1,0.4-0.1h4c0.2,0,0.4,0,0.5,0.1c0.1,0.1,0.2,0.2,0.3,0.4l3.9,6.9
		c0.1,0.2,0.2,0.3,0.3,0.3c0.1,0,0.2-0.1,0.2-0.2l3.9-6.9c0.1-0.2,0.2-0.3,0.3-0.4c0.1-0.1,0.3-0.1,0.5-0.1h3.2
		C57.2,565.4,57.3,565.5,57.3,565.7z"/>
	<path d="M68.5,568.9c-0.6-0.3-1.4-0.4-2.3-0.4c-1.1,0-1.9,0.2-2.5,0.6c-0.6,0.4-0.8,0.9-0.8,1.5c0,0.9,0.7,1.6,2.1,2l4.2,1.2
		c1.6,0.4,2.7,1.1,3.5,2.1c0.8,1,1.1,2.1,1.1,3.4c0,1.2-0.3,2.3-1,3.2c-0.6,0.9-1.5,1.6-2.7,2.1c-1.2,0.5-2.6,0.7-4.2,0.7
		c-1.8,0-3.4-0.3-4.9-0.9c-1.4-0.6-2.5-1.4-3.2-2.5c-0.1-0.1-0.1-0.2-0.1-0.3c0-0.1,0.1-0.3,0.3-0.4l2-1.4c0.2-0.1,0.3-0.2,0.5-0.2
		c0.2,0,0.3,0.1,0.4,0.2c0.7,0.8,1.3,1.4,2,1.8s1.6,0.5,2.7,0.5c1.2,0,2.1-0.2,2.8-0.6c0.7-0.4,1-0.9,1-1.7c0-0.5-0.2-0.9-0.5-1.2
		c-0.3-0.3-0.9-0.6-1.7-0.9l-4-1.1c-1.5-0.4-2.7-1.1-3.5-2.1c-0.8-1-1.2-2.1-1.2-3.4c0-1.1,0.3-2.1,0.9-3c0.6-0.9,1.5-1.6,2.7-2.1
		s2.5-0.8,4-0.8c1.5,0,2.8,0.3,4.1,0.8c1.2,0.5,2.2,1.2,2.8,2c0.1,0.1,0.2,0.3,0.2,0.4s-0.1,0.2-0.2,0.3l-2.2,1.6
		c-0.1,0.1-0.2,0.1-0.2,0.1c-0.1,0-0.2-0.1-0.4-0.3C69.6,569.6,69.1,569.2,68.5,568.9z"/>
	<path d="M80.9,565.4c0.3,0,0.4,0.2,0.4,0.5v18.5c0,0.2-0.1,0.4-0.2,0.5c-0.1,0.1-0.3,0.1-0.6,0.1h-3.3c-0.2,0-0.4,0-0.4-0.1
		c-0.1-0.1-0.1-0.2-0.1-0.4v-18.5c0-0.3,0.1-0.5,0.4-0.5H80.9z"/>
	<path d="M88.6,584.1c-1.4-0.8-2.4-1.9-3.1-3.4c-0.7-1.5-1.1-3.3-1.1-5.3c0-2.1,0.4-3.9,1.1-5.4s1.8-2.7,3.2-3.5
		c1.4-0.8,3-1.2,4.8-1.2c1.8,0,3.4,0.4,4.8,1.2c1.4,0.8,2.4,2,3.1,3.5c0.7,1.5,1.1,3.3,1.1,5.4c0,2-0.4,3.8-1.1,5.3
		c-0.7,1.5-1.8,2.7-3.1,3.5c-1.4,0.8-2.9,1.2-4.8,1.2C91.6,585.3,90,584.9,88.6,584.1z M96.6,580.5c0.7-1.1,1-2.8,1-5.1
		c0-2.4-0.3-4.2-1-5.3c-0.7-1.1-1.7-1.7-3.2-1.7c-1.5,0-2.5,0.6-3.2,1.7c-0.7,1.1-1,2.9-1,5.3c0,2.4,0.3,4.1,1,5.1
		c0.7,1.1,1.7,1.6,3.2,1.6C94.9,582.1,96,581.5,96.6,580.5z"/>
	<path d="M105.9,565.4h3.8c0.3,0,0.4,0.2,0.4,0.5v15.4c0,0.1,0,0.2,0.1,0.3c0,0.1,0.1,0.1,0.2,0.1h8.4c0.3,0,0.5,0.1,0.5,0.4v2.5
		c0,0.1,0,0.3-0.1,0.3c-0.1,0.1-0.2,0.1-0.4,0.1h-12.7c-0.2,0-0.4,0-0.4-0.1c-0.1-0.1-0.1-0.2-0.1-0.4v-18.5
		C105.5,565.6,105.6,565.4,105.9,565.4z"/>
	<path d="M124,584.1c-1.4-0.8-2.4-1.9-3.1-3.4c-0.7-1.5-1.1-3.3-1.1-5.3c0-2.1,0.4-3.9,1.1-5.4s1.8-2.7,3.2-3.5
		c1.4-0.8,3-1.2,4.8-1.2c1.8,0,3.4,0.4,4.8,1.2c1.4,0.8,2.4,2,3.1,3.5c0.7,1.5,1.1,3.3,1.1,5.4c0,2-0.4,3.8-1.1,5.3
		c-0.7,1.5-1.8,2.7-3.1,3.5c-1.4,0.8-2.9,1.2-4.8,1.2C126.9,585.3,125.3,584.9,124,584.1z M132,580.5c0.7-1.1,1-2.8,1-5.1
		c0-2.4-0.3-4.2-1-5.3c-0.7-1.1-1.7-1.7-3.2-1.7c-1.5,0-2.5,0.6-3.2,1.7c-0.7,1.1-1,2.9-1,5.3c0,2.4,0.3,4.1,1,5.1
		c0.7,1.1,1.7,1.6,3.2,1.6C130.2,582.1,131.3,581.5,132,580.5z"/>
	<path d="M144.3,584.1c-1.3-0.8-2.4-2-3.1-3.5c-0.7-1.5-1.1-3.3-1.1-5.2c0-2,0.4-3.8,1.1-5.4c0.8-1.5,1.8-2.7,3.2-3.5
		c1.4-0.8,3-1.2,4.8-1.2c1.4,0,2.6,0.3,3.8,0.8c1.1,0.5,2.1,1.2,2.8,2.1c0.7,0.9,1.2,1.8,1.3,2.7c0,0.1,0.1,0.2,0.1,0.4
		c0,0.2-0.1,0.3-0.3,0.3l-3.5,0.5c-0.1,0-0.2,0-0.3-0.1s-0.1-0.2-0.1-0.3c-0.2-0.9-0.6-1.7-1.2-2.3c-0.7-0.6-1.5-0.9-2.5-0.9
		c-1.4,0-2.4,0.5-3.1,1.6c-0.7,1.1-1.1,2.8-1.1,5.1c0,2.4,0.4,4.2,1.1,5.3c0.7,1.1,1.8,1.6,3.2,1.6c1.1,0,1.9-0.3,2.5-0.9
		c0.6-0.6,1-1.3,1.2-2.2l0.1-0.8c0,0,0-0.1,0-0.2c0-0.2-0.1-0.2-0.3-0.2h-3.2c-0.1,0-0.2,0-0.3-0.1s-0.1-0.2-0.1-0.3v-2
		c0-0.2,0.1-0.4,0.4-0.4l7.1,0c0.2,0,0.4,0.1,0.6,0.2s0.2,0.3,0.2,0.5v8.9c0,0.1,0,0.2-0.1,0.3s-0.2,0.1-0.3,0.1h-0.8
		c-0.3,0-0.5-0.1-0.7-0.4l-0.8-1.9c-0.1-0.1-0.1-0.1-0.3,0c-0.6,0.8-1.4,1.4-2.2,1.8c-0.9,0.5-2,0.7-3.3,0.7
		C147.2,585.3,145.6,584.9,144.3,584.1z"/>
	<path d="M164.9,565.4c0.3,0,0.4,0.2,0.4,0.5v18.5c0,0.2-0.1,0.4-0.2,0.5c-0.1,0.1-0.3,0.1-0.6,0.1h-3.3c-0.2,0-0.4,0-0.4-0.1
		c-0.1-0.1-0.1-0.2-0.1-0.4v-18.5c0-0.3,0.1-0.5,0.4-0.5H164.9z"/>
	<path d="M180.9,565.9c1.1,0.5,2.1,1.2,2.8,2.1c0.7,0.9,1.2,1.9,1.4,3c0,0.1,0.1,0.3,0.1,0.4c0,0.1,0,0.2-0.1,0.2s-0.1,0.1-0.2,0.1
		l-3.6,0.2c-0.2,0-0.3,0-0.3-0.1c0-0.1-0.1-0.2-0.1-0.3c-0.2-1-0.6-1.7-1.2-2.3c-0.6-0.6-1.4-0.8-2.3-0.8c-2.8,0-4.2,2.3-4.2,6.8
		c0,2.3,0.4,4,1.1,5.1c0.7,1.1,1.8,1.6,3.2,1.6c1.1,0,1.9-0.3,2.7-0.8c0.7-0.5,1.3-1.4,1.8-2.6c0.1-0.1,0.2-0.2,0.3-0.2
		c0.1,0,0.2,0,0.2,0l2.6,0.6c0.2,0.1,0.3,0.3,0.3,0.7c-0.2,0.8-0.6,1.6-1.2,2.5c-0.6,0.9-1.5,1.6-2.7,2.3c-1.2,0.7-2.6,1-4.2,1
		c-1.8,0-3.4-0.4-4.7-1.3c-1.3-0.9-2.4-2.1-3.1-3.6c-0.7-1.5-1.1-3.3-1.1-5.3c0-2,0.4-3.8,1.1-5.3c0.7-1.5,1.8-2.6,3.1-3.4
		c1.3-0.8,2.9-1.2,4.7-1.2C178.6,565.2,179.8,565.4,180.9,565.9z"/>
	<path d="M186.5,584.6c0-0.1,0-0.2,0.1-0.3l6.6-18.3c0.1-0.2,0.2-0.3,0.3-0.4s0.2-0.1,0.4-0.1h4c0.2,0,0.4,0.1,0.5,0.2
		c0.1,0.1,0.2,0.2,0.3,0.4l6.5,18.3c0,0.1,0.1,0.2,0.1,0.2c0,0.1,0,0.3-0.1,0.3s-0.2,0.1-0.3,0.1h-3.9c-0.3,0-0.4-0.1-0.5-0.4
		l-1.4-3.9c0-0.1-0.1-0.2-0.1-0.2c0,0-0.1-0.1-0.2-0.1h-6.4c-0.2,0-0.3,0.1-0.3,0.3l-1.4,3.9c-0.1,0.2-0.3,0.3-0.6,0.3h-3
		C186.6,585,186.5,584.9,186.5,584.6z M197.5,577c0.2,0,0.3-0.1,0.3-0.2c0-0.1,0-0.2,0-0.2l-2.2-6.2c-0.1-0.1-0.1-0.2-0.2-0.2
		c-0.1,0-0.1,0.1-0.2,0.2l-2.2,6.2c0,0.1-0.1,0.2-0.1,0.2c0,0.1,0.1,0.2,0.3,0.2H197.5z"/>
	<path d="M208.2,565.4h3.8c0.3,0,0.4,0.2,0.4,0.5v15.4c0,0.1,0,0.2,0.1,0.3c0,0.1,0.1,0.1,0.2,0.1h8.4c0.3,0,0.5,0.1,0.5,0.4v2.5
		c0,0.1,0,0.3-0.1,0.3c-0.1,0.1-0.2,0.1-0.4,0.1h-12.7c-0.2,0-0.4,0-0.4-0.1c-0.1-0.1-0.1-0.2-0.1-0.4v-18.5
		C207.8,565.6,207.9,565.4,208.2,565.4z"/>
</g>
<g>
	<g>
		<rect x="0" y="597.9" width="256.2" height="133.3"/>
	</g>
	<g>
		<rect x="256.2" y="464.6" width="256.2" height="266.6"/>
	</g>
	<g>
		<rect x="512.4" y="331.2" width="256.2" height="400"/>
	</g>
	<g>
		<rect x="767.2" y="197.9" width="256.2" height="533.3"/>
	</g>
	<g>
		<rect x="1023.4" y="64.6" width="256.2" height="666.6"/>
	</g>
</g>
</svg>
