<?xml version="1.0" encoding="utf-8"?>
<!-- Generator: Adobe Illustrator 22.0.1, SVG Export Plug-In . SVG Version: 6.00 Build 0)  -->
<svg version="1.1" id="Layer_1" xmlns="http://www.w3.org/2000/svg" xmlns:xlink="http://www.w3.org/1999/xlink" x="0px" y="0px"
	 viewBox="0 0 1006.6 694.9" style="enable-background:new 0 0 1006.6 694.9;" xml:space="preserve">
<style type="text/css">
	.st0{fill:#FFFFFF;}
</style>
<g>
	<rect x="0.6" width="1005.9" height="694.9"/>
</g>
<g>
	<rect x="0.6" y="348.4" class="st0" width="288.3" height="305.2"/>
</g>
<g>
	<path d="M193.9,519.9c0,1.6-1.6,2.4-4.9,2.4h-33.7c-3.9,0-6.8-1.4-8.5-4.1L131,495.1c-0.1-0.3-0.5-0.8-1.1-1.7
		c-0.6-0.9-1.2-1.3-1.7-1.3c-0.7,0-1.6,0.9-2.8,2.8l-15.8,23.3c-1.8,2.7-4.6,4.1-8.5,4.1H79.6c-4.1,0-6.1-1.2-6.1-3.7
		c0-1.8,1.1-4,3.2-6.7l30.6-40c1.1-1.5,1.6-2.6,1.6-3.5c0-0.9-0.6-2.2-1.8-3.9L76,421.9c-0.7-1.1-1-2.1-1-3c0-1.2,0.4-2.2,1.2-2.9
		c0.8-0.7,2-1.1,3.7-1.1h32.3c2.3,0,4,0.3,5.2,0.9c1.1,0.6,2.2,1.7,3.1,3.1l13.2,19.9c0.7,1.1,1.3,1.6,1.8,1.6
		c0.7,0,1.3-0.5,1.8-1.6l12.2-19.9c0.9-1.5,2-2.5,3.1-3.1c1.1-0.6,2.9-0.9,5.2-0.9h23.5c2.8,0,4.3,0.8,4.3,2.4c0,0.8-0.5,2-1.4,3.5
		l-27.6,37.7c-0.9,1.4-1.4,2.5-1.4,3.5c0,1.1,0.5,2.4,1.6,3.9l34.1,47.9C192.9,516.4,193.9,518.5,193.9,519.9z"/>
</g>
<g>
	<rect x="704.4" y="78.4" class="st0" width="302.1" height="575.2"/>
</g>
<g>
	<rect x="0.6" y="653.6" class="st0" width="1005.9" height="41.3"/>
</g>
<g>
	<path d="M923.4,147.8c0,0.4-0.3,1.1-0.8,2.1l-45.5,73.6c-0.9,1.3-1.5,2.7-1.7,4.3c-0.2,1.6-0.3,4.4-0.3,8.6v47.9
		c0,2.1-0.5,3.5-1.6,4.4c-1,0.8-2.7,1.3-4.9,1.3H836c-1.9,0-3.3-0.4-4-1.2c-0.7-0.8-1.1-2-1.1-3.7v-51.2c0-1.8-0.2-3.3-0.6-4.4
		c-0.4-1.1-1.1-2.5-2.1-4.2l-45.5-74.4c-0.5-0.9-0.8-1.8-0.8-2.5c0-1.9,1.4-2.9,4.3-2.9h39.1c1.8,0,3.1,0.3,4,0.8
		c0.8,0.5,1.7,1.6,2.6,3.3l23.9,43.2c0.6,1.3,1.2,1.9,1.6,1.9c0.6,0,1.2-0.6,1.8-1.8l23.6-43.4c0.8-1.7,1.6-2.8,2.5-3.3
		c0.9-0.5,2.3-0.8,4.1-0.8h30.6C922.2,145.4,923.4,146.2,923.4,147.8z"/>
</g>
<g>
	<path d="M787,607.4c-0.2,0-0.3,0-0.4,0.1s-0.1,0.2-0.1,0.3v8.4c0,0.4-0.1,0.6-0.3,0.7c-0.2,0.1-0.5,0.2-0.8,0.2h-5.5
		c-0.3,0-0.6-0.1-0.7-0.2s-0.2-0.3-0.2-0.6v-23.1c0-0.2,0.1-0.4,0.2-0.6c0.1-0.1,0.3-0.2,0.5-0.2h6.3c0.2,0,0.3,0.1,0.4,0.2
		c0.1,0.1,0.2,0.3,0.2,0.5v7.7c0,0.4,0.2,0.7,0.6,0.7h5.6c0.4,0,0.6-0.2,0.6-0.7v-7.7c0-0.2,0.1-0.4,0.2-0.5
		c0.1-0.1,0.3-0.2,0.4-0.2h6.3c0.2,0,0.4,0.1,0.5,0.2c0.1,0.1,0.2,0.3,0.2,0.6v23.1c0,0.3-0.1,0.5-0.2,0.6s-0.4,0.2-0.7,0.2h-5.5
		c-0.4,0-0.7-0.1-0.8-0.2s-0.3-0.4-0.3-0.7v-8.4c0-0.1,0-0.2-0.1-0.3s-0.2-0.1-0.4-0.1H787z"/>
	<path d="M813.9,592.6c0.4,0,0.6,0.2,0.6,0.7v23c0,0.4-0.1,0.6-0.3,0.7c-0.2,0.1-0.5,0.2-0.8,0.2h-5.5c-0.3,0-0.6-0.1-0.7-0.2
		s-0.2-0.3-0.2-0.6v-23.1c0-0.2,0.1-0.4,0.2-0.6c0.1-0.1,0.3-0.2,0.5-0.2H813.9z"/>
	<path d="M825.4,616c-1.8-1.1-3.1-2.5-4.1-4.4s-1.4-4.1-1.4-6.5c0-2.5,0.5-4.8,1.5-6.7c1-1.9,2.4-3.4,4.3-4.5s3.9-1.6,6.3-1.6
		c1.9,0,3.6,0.3,5.1,1c1.5,0.7,2.7,1.6,3.6,2.7c0.9,1.1,1.5,2.3,1.8,3.5c0.1,0.3,0.1,0.5,0.1,0.6c0,0.2,0,0.3-0.1,0.4
		c-0.1,0.1-0.2,0.1-0.4,0.1l-5.7,0.9c-0.2,0-0.4,0-0.5-0.1c-0.1-0.1-0.1-0.3-0.2-0.5c-0.2-1-0.6-1.9-1.2-2.5c-0.7-0.7-1.5-1-2.6-1
		c-1.3,0-2.3,0.6-3,1.7c-0.7,1.1-1,3-1,5.7c0,2.8,0.4,4.8,1.1,5.9c0.7,1.1,1.8,1.7,3.2,1.7c1.8,0,3-0.8,3.6-2.3l0.1-0.3l0.1-0.3
		c0-0.2-0.1-0.3-0.4-0.3h-3.1c-0.2,0-0.4-0.1-0.5-0.2c-0.1-0.1-0.1-0.3-0.1-0.6v-3.2c0-0.4,0.2-0.6,0.7-0.6l9.3,0.1
		c0.4,0,0.7,0.1,0.9,0.3s0.3,0.4,0.3,0.7v10.9c0,0.2-0.1,0.3-0.2,0.4c-0.1,0.1-0.2,0.2-0.4,0.2H841c-0.4,0-0.8-0.2-1.1-0.6l-1.3-1.9
		c0-0.1-0.1-0.1-0.1-0.1c0,0-0.1,0.1-0.2,0.2c-0.6,0.6-1.1,1-1.6,1.4c-0.5,0.4-1.2,0.7-2.1,1c-0.9,0.3-1.9,0.4-3.1,0.4
		C829.2,617.6,827.1,617.1,825.4,616z"/>
	<path d="M856.6,607.4c-0.2,0-0.3,0-0.4,0.1s-0.1,0.2-0.1,0.3v8.4c0,0.4-0.1,0.6-0.3,0.7c-0.2,0.1-0.5,0.2-0.8,0.2h-5.5
		c-0.3,0-0.6-0.1-0.7-0.2s-0.2-0.3-0.2-0.6v-23.1c0-0.2,0.1-0.4,0.2-0.6c0.1-0.1,0.3-0.2,0.5-0.2h6.3c0.2,0,0.3,0.1,0.4,0.2
		c0.1,0.1,0.2,0.3,0.2,0.5v7.7c0,0.4,0.2,0.7,0.6,0.7h5.6c0.4,0,0.6-0.2,0.6-0.7v-7.7c0-0.2,0.1-0.4,0.2-0.5
		c0.1-0.1,0.3-0.2,0.4-0.2h6.3c0.2,0,0.4,0.1,0.5,0.2c0.1,0.1,0.2,0.3,0.2,0.6v23.1c0,0.3-0.1,0.5-0.2,0.6s-0.4,0.2-0.7,0.2h-5.5
		c-0.4,0-0.7-0.1-0.8-0.2s-0.3-0.4-0.3-0.7v-8.4c0-0.1,0-0.2-0.1-0.3s-0.2-0.1-0.4-0.1H856.6z"/>
	<path d="M877.1,592.6h17.9c0.4,0,0.6,0.2,0.6,0.7l0,3.9c0,0.6-0.3,0.9-0.9,0.9h-10c-0.5,0-0.8,0.2-0.8,0.6v2.8
		c0,0.2,0.1,0.4,0.2,0.5c0.1,0.1,0.3,0.2,0.4,0.2h6c0.5,0,0.7,0.2,0.7,0.7v4.1c0,0.4-0.2,0.6-0.6,0.6h-6.1c-0.2,0-0.3,0-0.4,0.1
		c-0.1,0.1-0.1,0.2-0.1,0.3v3.3c0,0.2,0,0.3,0.1,0.4c0.1,0.1,0.2,0.1,0.3,0.1h10.8c0.5,0,0.7,0.2,0.7,0.6v4.1c0,0.2-0.1,0.4-0.2,0.5
		s-0.3,0.2-0.6,0.2h-17.8c-0.3,0-0.6-0.1-0.7-0.2s-0.2-0.3-0.2-0.6v-23.1C876.5,592.9,876.7,592.6,877.1,592.6z"/>
	<path d="M923.1,616.6c0,0.2-0.1,0.4-0.2,0.5c-0.1,0.1-0.3,0.2-0.5,0.2H916c-0.5,0-0.8-0.2-0.9-0.7L912,608
		c-0.1-0.2-0.2-0.3-0.3-0.4c-0.2-0.1-0.4-0.1-0.7-0.1h-1.5c-0.1,0-0.2,0-0.3,0.1c-0.1,0.1-0.1,0.2-0.1,0.2v8.5
		c0,0.4-0.1,0.6-0.3,0.7c-0.2,0.1-0.5,0.2-0.8,0.2h-5.6c-0.3,0-0.6-0.1-0.7-0.2c-0.1-0.1-0.2-0.3-0.2-0.6v-23.1
		c0-0.5,0.2-0.8,0.6-0.8h11.1c3.2,0,5.7,0.6,7.5,1.8c1.8,1.2,2.7,3,2.7,5.2c0,1.5-0.4,2.9-1.2,4.1c-0.8,1.2-1.9,2-3.1,2.5
		c-0.1,0.1-0.2,0.2-0.2,0.3c0,0.1,0,0.2,0.1,0.3l4.2,9.3C923.1,616.3,923.1,616.4,923.1,616.6z M914.8,601.9c0.5-0.4,0.7-1,0.7-1.7
		c0-0.8-0.3-1.5-0.8-1.9s-1.2-0.7-2-0.7h-2.9c-0.3,0-0.5,0-0.6,0.2c-0.1,0.1-0.2,0.3-0.2,0.5v3.6c0,0.2,0,0.4,0.1,0.5
		c0.1,0.1,0.2,0.2,0.4,0.2h3.3C913.7,602.5,914.4,602.3,914.8,601.9z"/>
	<path d="M800.3,628.6c0.3,0,0.5,0.2,0.5,0.6v23.5c0,0.2-0.1,0.3-0.2,0.4c-0.1,0.1-0.3,0.2-0.5,0.2h-4.6c-0.2,0-0.4,0-0.5-0.1
		c-0.1-0.1-0.3-0.2-0.4-0.4l-9.1-12.4c-0.1-0.1-0.2-0.2-0.2-0.1c-0.1,0-0.1,0.1-0.1,0.2v12.1c0,0.3,0,0.5-0.1,0.6
		c-0.1,0.1-0.3,0.2-0.6,0.2h-4.5c-0.6,0-0.8-0.2-0.8-0.7v-23.2c0-0.5,0.2-0.8,0.7-0.8h5.4c0.3,0,0.5,0,0.6,0.1
		c0.1,0.1,0.3,0.2,0.5,0.5l8,11.1c0.1,0.2,0.3,0.3,0.4,0.3c0.1,0,0.2-0.1,0.2-0.4v-10.9c0-0.5,0.2-0.7,0.7-0.7H800.3z"/>
	<path d="M807.5,628.6h17.9c0.4,0,0.6,0.2,0.6,0.7l0,3.9c0,0.6-0.3,0.9-0.9,0.9h-10c-0.5,0-0.8,0.2-0.8,0.6v2.8
		c0,0.2,0.1,0.4,0.2,0.5c0.1,0.1,0.3,0.2,0.4,0.2h6c0.5,0,0.7,0.2,0.7,0.7v4.1c0,0.4-0.2,0.6-0.6,0.6H815c-0.2,0-0.3,0-0.4,0.1
		c-0.1,0.1-0.1,0.2-0.1,0.3v3.3c0,0.2,0,0.3,0.1,0.4c0.1,0.1,0.2,0.1,0.3,0.1h10.8c0.5,0,0.7,0.2,0.7,0.6v4.1c0,0.2-0.1,0.4-0.2,0.5
		s-0.3,0.2-0.6,0.2h-17.8c-0.3,0-0.6-0.1-0.7-0.2s-0.2-0.3-0.2-0.6v-23.1C806.9,628.9,807.1,628.6,807.5,628.6z"/>
	<path d="M832.5,628.6h17.9c0.4,0,0.6,0.2,0.6,0.7l0,3.9c0,0.6-0.3,0.9-0.9,0.9h-10c-0.5,0-0.8,0.2-0.8,0.6v2.8
		c0,0.2,0.1,0.4,0.2,0.5c0.1,0.1,0.3,0.2,0.4,0.2h6c0.5,0,0.7,0.2,0.7,0.7v4.1c0,0.4-0.2,0.6-0.6,0.6h-6.1c-0.2,0-0.3,0-0.4,0.1
		c-0.1,0.1-0.1,0.2-0.1,0.3v3.3c0,0.2,0,0.3,0.1,0.4c0.1,0.1,0.2,0.1,0.3,0.1h10.8c0.5,0,0.7,0.2,0.7,0.6v4.1c0,0.2-0.1,0.4-0.2,0.5
		s-0.3,0.2-0.6,0.2h-17.8c-0.3,0-0.6-0.1-0.7-0.2s-0.2-0.3-0.2-0.6v-23.1C831.8,628.9,832.1,628.6,832.5,628.6z"/>
	<path d="M861.6,628.6c2.6,0,4.3,0,4.9,0c4.3,0.2,7.6,1.3,9.8,3.5c2.2,2.2,3.3,5.1,3.3,8.7c0,2.4-0.5,4.6-1.5,6.4s-2.5,3.3-4.5,4.4
		c-2,1.1-4.4,1.6-7.2,1.6h-8.7c-0.3,0-0.6-0.1-0.7-0.2c-0.2-0.2-0.2-0.4-0.2-0.8v-22.8c0-0.3,0.1-0.5,0.2-0.6s0.4-0.2,0.7-0.2H861.6
		z M864.4,634c-0.1,0.1-0.1,0.2-0.1,0.4v13.3c0,0.2,0,0.3,0.1,0.4s0.2,0.1,0.4,0.1h0.2c2.2,0,3.9-0.6,5-1.7c1.1-1.1,1.7-3,1.7-5.6
		c0-2.2-0.4-3.9-1.3-5s-2.1-1.7-3.8-1.9l-2-0.1C864.6,633.9,864.5,633.9,864.4,634z"/>
	<path d="M898.1,633.9c-0.6-0.3-1.5-0.5-2.6-0.5c-1.2,0-2,0.2-2.6,0.5c-0.6,0.3-0.8,0.7-0.8,1.2c0,0.8,0.7,1.4,2.1,1.7l5.5,1.4
		c2,0.5,3.5,1.4,4.6,2.7c1,1.3,1.5,2.8,1.5,4.6c0,1.6-0.4,3.1-1.3,4.3s-2.1,2.2-3.7,2.8c-1.6,0.7-3.5,1-5.6,1
		c-2.4,0-4.7-0.4-6.7-1.2c-2-0.8-3.4-1.9-4.2-3.2c-0.1-0.2-0.2-0.4-0.2-0.5c0-0.2,0.1-0.4,0.4-0.6l3.4-2.4c0.2-0.2,0.5-0.2,0.7-0.2
		c0.2,0,0.4,0.1,0.6,0.3c0.8,1,1.5,1.7,2.3,2.1c0.8,0.4,1.8,0.6,3.1,0.6c1.2,0,2.2-0.2,2.9-0.5c0.7-0.3,1.1-0.8,1.1-1.4
		c0-0.4-0.2-0.8-0.5-1.1c-0.4-0.3-0.9-0.5-1.6-0.7l-5.1-1.2c-2-0.5-3.6-1.4-4.8-2.7s-1.8-2.9-1.8-4.6c0-1.4,0.4-2.8,1.3-4
		c0.8-1.2,2-2.2,3.6-2.9c1.6-0.7,3.3-1,5.4-1c2,0,3.8,0.3,5.5,1c1.7,0.7,2.9,1.5,3.7,2.6c0.2,0.2,0.2,0.4,0.2,0.6
		c0,0.2-0.1,0.3-0.2,0.4l-3.6,2.6c-0.1,0.1-0.2,0.1-0.4,0.1c-0.2,0-0.4-0.1-0.6-0.4C899.2,634.7,898.7,634.2,898.1,633.9z"/>
</g>
<g>
	<path d="M72.2,592.8c0.1-0.1,0.3-0.2,0.5-0.2h6.3c0.4,0,0.6,0.2,0.6,0.7v18c0,0.2,0,0.3,0.1,0.4c0.1,0.1,0.2,0.1,0.3,0.1h10
		c0.5,0,0.8,0.2,0.8,0.6v4.1c0,0.2-0.1,0.4-0.2,0.5c-0.1,0.1-0.3,0.2-0.6,0.2h-17c-0.3,0-0.6-0.1-0.7-0.2s-0.2-0.3-0.2-0.6v-23.1
		C72,593.2,72.1,593,72.2,592.8z"/>
	<path d="M99,616.1c-1.8-1-3.2-2.5-4.2-4.4c-1-1.9-1.5-4.1-1.5-6.7s0.5-4.8,1.5-6.7c1-1.9,2.4-3.4,4.2-4.5c1.8-1.1,3.9-1.6,6.3-1.6
		c2.4,0,4.5,0.5,6.2,1.6c1.8,1.1,3.2,2.5,4.2,4.5c1,1.9,1.5,4.1,1.5,6.7c0,2.5-0.5,4.7-1.5,6.6c-1,1.9-2.4,3.4-4.2,4.4
		c-1.8,1-3.9,1.5-6.3,1.5C102.9,617.6,100.8,617.1,99,616.1z M107.6,611.7c0.6-0.5,1-1.2,1.3-2.3c0.3-1.1,0.4-2.5,0.4-4.3
		c0-2.7-0.3-4.7-0.9-5.9c-0.6-1.2-1.6-1.8-3.1-1.8c-1.4,0-2.5,0.6-3.1,1.8c-0.6,1.2-0.9,3.2-0.9,5.9c0,1.8,0.1,3.2,0.4,4.3
		c0.3,1.1,0.7,1.8,1.3,2.3c0.6,0.5,1.4,0.7,2.4,0.7C106.3,612.4,107.1,612.2,107.6,611.7z"/>
	<path d="M155,592.9c0.2,0.2,0.3,0.4,0.3,0.7c0,0.1,0,0.2-0.1,0.4l-6.7,22.5c-0.1,0.3-0.3,0.5-0.4,0.6c-0.2,0.1-0.4,0.2-0.8,0.2
		h-4.6c-0.6,0-1-0.3-1.2-0.8l-3.5-11.7c-0.1-0.3-0.1-0.4-0.2-0.4c-0.1,0-0.2,0.2-0.3,0.5l-3.4,11.6c-0.1,0.3-0.2,0.5-0.4,0.6
		c-0.2,0.1-0.4,0.2-0.8,0.2h-4.8c-0.3,0-0.6-0.1-0.8-0.2c-0.2-0.1-0.3-0.3-0.4-0.6l-6.8-22.5c0-0.2-0.1-0.3-0.1-0.4
		c0-0.3,0.1-0.5,0.3-0.7c0.2-0.2,0.4-0.2,0.8-0.2h5.5c0.3,0,0.6,0.1,0.7,0.2c0.2,0.1,0.3,0.3,0.3,0.5l3.5,12.3
		c0.1,0.3,0.1,0.4,0.2,0.4c0.1,0,0.1-0.1,0.2-0.3l3.5-12.5c0.1-0.5,0.5-0.7,1.1-0.7h4.7c0.3,0,0.6,0.1,0.7,0.2
		c0.2,0.1,0.3,0.3,0.3,0.5l3.7,12.6c0,0.1,0.1,0.2,0.2,0.2c0.1,0,0.1,0,0.2-0.2l3.4-12.7c0.1-0.5,0.5-0.7,1.1-0.7h3.9
		C154.5,592.6,154.8,592.7,155,592.9z"/>
	<path d="M161.1,592.6h17.9c0.4,0,0.6,0.2,0.6,0.7l0,3.9c0,0.6-0.3,0.9-0.9,0.9h-10c-0.5,0-0.8,0.2-0.8,0.6v2.8
		c0,0.2,0.1,0.4,0.2,0.5c0.1,0.1,0.3,0.2,0.4,0.2h6c0.5,0,0.7,0.2,0.7,0.7v4.1c0,0.4-0.2,0.6-0.6,0.6h-6.1c-0.2,0-0.3,0-0.4,0.1
		c-0.1,0.1-0.1,0.2-0.1,0.3v3.3c0,0.2,0,0.3,0.1,0.4c0.1,0.1,0.2,0.1,0.3,0.1h10.8c0.5,0,0.7,0.2,0.7,0.6v4.1c0,0.2-0.1,0.4-0.2,0.5
		c-0.1,0.1-0.3,0.2-0.6,0.2h-17.8c-0.3,0-0.6-0.1-0.7-0.2s-0.2-0.3-0.2-0.6v-23.1C160.5,592.9,160.7,592.6,161.1,592.6z"/>
	<path d="M207.1,616.6c0,0.2-0.1,0.4-0.2,0.5c-0.1,0.1-0.3,0.2-0.5,0.2H200c-0.5,0-0.8-0.2-0.9-0.7l-3.1-8.6
		c-0.1-0.2-0.2-0.3-0.3-0.4c-0.2-0.1-0.4-0.1-0.7-0.1h-1.5c-0.1,0-0.2,0-0.3,0.1c-0.1,0.1-0.1,0.2-0.1,0.2v8.5
		c0,0.4-0.1,0.6-0.3,0.7c-0.2,0.1-0.5,0.2-0.8,0.2h-5.6c-0.3,0-0.6-0.1-0.7-0.2c-0.1-0.1-0.2-0.3-0.2-0.6v-23.1
		c0-0.5,0.2-0.8,0.6-0.8h11.1c3.2,0,5.7,0.6,7.5,1.8c1.8,1.2,2.7,3,2.7,5.2c0,1.5-0.4,2.9-1.2,4.1c-0.8,1.2-1.9,2-3.1,2.5
		c-0.1,0.1-0.2,0.2-0.2,0.3c0,0.1,0,0.2,0.1,0.3l4.2,9.3C207,616.3,207.1,616.4,207.1,616.6z M198.8,601.9c0.5-0.4,0.7-1,0.7-1.7
		c0-0.8-0.3-1.5-0.8-1.9c-0.5-0.5-1.2-0.7-2-0.7h-2.9c-0.3,0-0.5,0-0.6,0.2c-0.1,0.1-0.2,0.3-0.2,0.5v3.6c0,0.2,0,0.4,0.1,0.5
		c0.1,0.1,0.2,0.2,0.4,0.2h3.3C197.7,602.5,198.4,602.3,198.8,601.9z"/>
	<path d="M93.3,628.6c0.3,0,0.5,0.2,0.5,0.6v23.5c0,0.2-0.1,0.3-0.2,0.4c-0.1,0.1-0.3,0.2-0.5,0.2h-4.6c-0.2,0-0.4,0-0.5-0.1
		c-0.1-0.1-0.3-0.2-0.4-0.4l-9.1-12.4c-0.1-0.1-0.2-0.2-0.2-0.1c-0.1,0-0.1,0.1-0.1,0.2v12.1c0,0.3,0,0.5-0.1,0.6
		c-0.1,0.1-0.3,0.2-0.6,0.2h-4.5c-0.6,0-0.8-0.2-0.8-0.7v-23.2c0-0.5,0.2-0.8,0.7-0.8h5.4c0.3,0,0.5,0,0.6,0.1
		c0.1,0.1,0.3,0.2,0.5,0.5l8,11.1c0.1,0.2,0.3,0.3,0.4,0.3s0.2-0.1,0.2-0.4v-10.9c0-0.5,0.2-0.7,0.7-0.7H93.3z"/>
	<path d="M100.6,628.6h17.9c0.4,0,0.6,0.2,0.6,0.7l0,3.9c0,0.6-0.3,0.9-0.9,0.9h-10c-0.5,0-0.8,0.2-0.8,0.6v2.8
		c0,0.2,0.1,0.4,0.2,0.5c0.1,0.1,0.3,0.2,0.4,0.2h6c0.5,0,0.7,0.2,0.7,0.7v4.1c0,0.4-0.2,0.6-0.6,0.6H108c-0.2,0-0.3,0-0.4,0.1
		c-0.1,0.1-0.1,0.2-0.1,0.3v3.3c0,0.2,0,0.3,0.1,0.4c0.1,0.1,0.2,0.1,0.3,0.1h10.8c0.5,0,0.7,0.2,0.7,0.6v4.1c0,0.2-0.1,0.4-0.2,0.5
		c-0.1,0.1-0.3,0.2-0.6,0.2h-17.8c-0.3,0-0.6-0.1-0.7-0.2s-0.2-0.3-0.2-0.6v-23.1C100,628.9,100.2,628.6,100.6,628.6z"/>
	<path d="M125.5,628.6h17.9c0.4,0,0.6,0.2,0.6,0.7l0,3.9c0,0.6-0.3,0.9-0.9,0.9h-10c-0.5,0-0.8,0.2-0.8,0.6v2.8
		c0,0.2,0.1,0.4,0.2,0.5c0.1,0.1,0.3,0.2,0.4,0.2h6c0.5,0,0.7,0.2,0.7,0.7v4.1c0,0.4-0.2,0.6-0.6,0.6H133c-0.2,0-0.3,0-0.4,0.1
		c-0.1,0.1-0.1,0.2-0.1,0.3v3.3c0,0.2,0,0.3,0.1,0.4c0.1,0.1,0.2,0.1,0.3,0.1h10.8c0.5,0,0.7,0.2,0.7,0.6v4.1c0,0.2-0.1,0.4-0.2,0.5
		c-0.1,0.1-0.3,0.2-0.6,0.2h-17.8c-0.3,0-0.6-0.1-0.7-0.2s-0.2-0.3-0.2-0.6v-23.1C124.9,628.9,125.1,628.6,125.5,628.6z"/>
	<path d="M154.7,628.6c2.6,0,4.3,0,4.9,0c4.3,0.2,7.6,1.3,9.8,3.5c2.2,2.2,3.3,5.1,3.3,8.7c0,2.4-0.5,4.6-1.5,6.4s-2.5,3.3-4.5,4.4
		c-2,1.1-4.4,1.6-7.2,1.6h-8.7c-0.3,0-0.6-0.1-0.7-0.2c-0.2-0.2-0.2-0.4-0.2-0.8v-22.8c0-0.3,0.1-0.5,0.2-0.6s0.4-0.2,0.7-0.2H154.7
		z M157.5,634c-0.1,0.1-0.1,0.2-0.1,0.4v13.3c0,0.2,0,0.3,0.1,0.4c0.1,0.1,0.2,0.1,0.4,0.1h0.2c2.2,0,3.9-0.6,5-1.7
		c1.1-1.1,1.7-3,1.7-5.6c0-2.2-0.4-3.9-1.3-5c-0.9-1.1-2.1-1.7-3.8-1.9l-2-0.1C157.6,633.9,157.6,633.9,157.5,634z"/>
	<path d="M191.1,633.9c-0.6-0.3-1.5-0.5-2.6-0.5c-1.2,0-2,0.2-2.6,0.5c-0.6,0.3-0.8,0.7-0.8,1.2c0,0.8,0.7,1.4,2.1,1.7l5.5,1.4
		c2,0.5,3.5,1.4,4.6,2.7s1.5,2.8,1.5,4.6c0,1.6-0.4,3.1-1.3,4.3s-2.1,2.2-3.7,2.8c-1.6,0.7-3.5,1-5.6,1c-2.4,0-4.7-0.4-6.7-1.2
		c-2-0.8-3.4-1.9-4.2-3.2c-0.1-0.2-0.2-0.4-0.2-0.5c0-0.2,0.1-0.4,0.4-0.6l3.4-2.4c0.2-0.2,0.5-0.2,0.7-0.2c0.2,0,0.4,0.1,0.6,0.3
		c0.8,1,1.5,1.7,2.3,2.1c0.8,0.4,1.8,0.6,3.1,0.6c1.2,0,2.2-0.2,2.9-0.5c0.7-0.3,1.1-0.8,1.1-1.4c0-0.4-0.2-0.8-0.5-1.1
		c-0.4-0.3-0.9-0.5-1.6-0.7l-5.1-1.2c-2-0.5-3.6-1.4-4.8-2.7c-1.2-1.3-1.8-2.9-1.8-4.6c0-1.4,0.4-2.8,1.3-4c0.8-1.2,2-2.2,3.6-2.9
		c1.6-0.7,3.3-1,5.4-1c2,0,3.8,0.3,5.6,1c1.7,0.7,2.9,1.5,3.7,2.6c0.2,0.2,0.2,0.4,0.2,0.6c0,0.2-0.1,0.3-0.2,0.4l-3.6,2.6
		c-0.1,0.1-0.2,0.1-0.4,0.1c-0.2,0-0.4-0.1-0.6-0.4C192.3,634.7,191.7,634.2,191.1,633.9z"/>
</g>
<g>
	<path class="st0" d="M3.1,300.3v-18.5c0-0.1,0-0.2,0.1-0.3c0-0.1,0.1-0.1,0.2-0.1h2.5c0.1,0,0.2,0,0.3,0.1c0.1,0,0.1,0.1,0.1,0.2
		l5.7,14.8c0.1,0.2,0.1,0.2,0.2,0.2c0.1,0,0.2-0.1,0.2-0.3l5.7-14.8c0.1-0.2,0.2-0.3,0.4-0.3h2.6c0.2,0,0.3,0.1,0.3,0.3v18.5
		c0,0.3-0.1,0.4-0.4,0.4h-1.7c-0.3,0-0.4-0.1-0.4-0.3v-14.8c0-0.1,0-0.1,0-0.1s-0.1,0-0.1,0.1l-5.7,14.8c-0.1,0.2-0.3,0.3-0.5,0.3
		h-1.2c-0.3,0-0.4-0.1-0.5-0.3l-5.6-14.7c0-0.1,0-0.1-0.1-0.1s-0.1,0-0.1,0.1v14.6c0,0.1,0,0.2-0.1,0.3s-0.1,0.1-0.3,0.1H3.5
		C3.2,300.7,3.1,300.6,3.1,300.3z"/>
	<path class="st0" d="M25.2,300.6c-0.1-0.1-0.1-0.2,0-0.3l6.7-18.4c0.1-0.1,0.1-0.2,0.2-0.3c0.1-0.1,0.2-0.1,0.3-0.1h2
		c0.3,0,0.5,0.1,0.6,0.4l6.6,18.4l0,0.1c0,0.2-0.1,0.3-0.3,0.3h-1.8c-0.2,0-0.3-0.1-0.4-0.3l-1.8-5c0-0.1-0.1-0.1-0.1-0.2
		s-0.1-0.1-0.2-0.1h-7.5c-0.2,0-0.3,0.1-0.3,0.2l-1.8,5c-0.1,0.2-0.2,0.2-0.4,0.2h-1.6C25.4,300.7,25.3,300.6,25.2,300.6z
		 M36.4,293.2c0.2,0,0.3-0.1,0.2-0.3l-3.1-8.5c-0.1-0.2-0.1-0.2-0.2-0.2s-0.1,0.1-0.2,0.2l-3.2,8.6l-0.1,0.2c0,0.1,0.1,0.1,0.2,0.1
		H36.4z"/>
	<path class="st0" d="M59.7,281.5c0.1,0,0.2,0,0.2,0.1c0,0,0.1,0.1,0.1,0.2v18.6c0,0.2-0.1,0.3-0.3,0.3h-1.3c-0.1,0-0.2,0-0.3,0
		s-0.2-0.1-0.2-0.2l-10-14.5c-0.1-0.1-0.1-0.2-0.2-0.2c-0.1,0-0.1,0.1-0.1,0.2v14.4c0,0.2-0.1,0.3-0.4,0.3h-1.4
		c-0.2,0-0.3-0.1-0.3-0.3v-18.5c0-0.1,0-0.2,0.1-0.3c0-0.1,0.1-0.1,0.3-0.1h1.5c0.1,0,0.2,0,0.3,0.1c0.1,0,0.1,0.1,0.2,0.2l9.7,14.2
		c0.1,0.1,0.2,0.2,0.2,0.2c0.1,0,0.2-0.1,0.2-0.2v-14.1c0-0.2,0.1-0.3,0.3-0.3H59.7z"/>
	<path class="st0" d="M63.6,300.6c-0.1-0.1-0.1-0.2,0-0.3l6.7-18.4c0.1-0.1,0.1-0.2,0.2-0.3c0.1-0.1,0.2-0.1,0.3-0.1h2
		c0.3,0,0.5,0.1,0.6,0.4l6.6,18.4l0,0.1c0,0.2-0.1,0.3-0.3,0.3H78c-0.2,0-0.3-0.1-0.4-0.3l-1.8-5c0-0.1-0.1-0.1-0.1-0.2
		s-0.1-0.1-0.2-0.1H68c-0.2,0-0.3,0.1-0.3,0.2l-1.8,5c-0.1,0.2-0.2,0.2-0.4,0.2h-1.6C63.8,300.7,63.7,300.6,63.6,300.6z M74.8,293.2
		c0.2,0,0.3-0.1,0.2-0.3l-3.1-8.5c-0.1-0.2-0.1-0.2-0.2-0.2s-0.1,0.1-0.2,0.2l-3.2,8.6l-0.1,0.2c0,0.1,0.1,0.1,0.2,0.1H74.8z"/>
	<path class="st0" d="M85.6,299.8c-1.2-0.8-2.1-1.9-2.8-3.4c-0.6-1.5-1-3.2-1-5.2c0-2.1,0.3-3.8,1-5.3c0.7-1.5,1.6-2.6,2.8-3.4
		c1.2-0.8,2.7-1.2,4.3-1.2c1.2,0,2.3,0.2,3.3,0.7c1,0.5,1.9,1.1,2.5,1.9c0.7,0.8,1.1,1.6,1.2,2.5v0.2c0,0.1,0,0.1,0,0.2
		s-0.1,0.1-0.2,0.1l-1.9,0.3h-0.1c-0.1,0-0.2-0.1-0.2-0.3c-0.2-1.1-0.7-1.9-1.6-2.7s-1.9-1.1-3.1-1.1c-1.8,0-3.1,0.7-4.1,2
		c-0.9,1.3-1.4,3.3-1.4,5.9c0,2.7,0.5,4.7,1.4,6c0.9,1.3,2.3,2,4.1,2c1.1,0,2-0.2,2.7-0.7c0.8-0.5,1.3-1.1,1.7-1.8s0.6-1.5,0.7-2.2
		v-1.6v-0.1c0-0.2-0.1-0.2-0.3-0.2h-4.2c-0.2,0-0.3-0.1-0.3-0.3v-1.1c0-0.2,0.1-0.2,0.3-0.2l6.4,0c0.3,0,0.4,0.1,0.4,0.3v9.1
		c0,0.2-0.1,0.3-0.3,0.3h-0.6c-0.1,0-0.2,0-0.3-0.1c-0.1,0-0.1-0.1-0.2-0.3l-0.3-2.4c0-0.1,0-0.1-0.1-0.1s-0.1,0-0.1,0.1
		c-0.6,0.9-1.3,1.6-2.2,2.1c-0.9,0.5-2.1,0.8-3.4,0.8C88.2,300.9,86.8,300.5,85.6,299.8z"/>
	<path class="st0" d="M101.9,281.6c0-0.1,0.1-0.1,0.2-0.1h11.6c0.2,0,0.3,0.1,0.3,0.3v1.3c0,0.2-0.1,0.3-0.3,0.3h-9
		c-0.1,0-0.2,0-0.3,0.1c0,0-0.1,0.1-0.1,0.2v6.1c0,0.2,0.1,0.3,0.3,0.3h6.7c0.2,0,0.3,0.1,0.3,0.3v1.4c0,0.2-0.1,0.2-0.3,0.2h-6.7
		c-0.2,0-0.3,0.1-0.3,0.3v6.3c0,0.1,0,0.2,0.1,0.2s0.1,0.1,0.2,0.1h9.5c0.1,0,0.2,0,0.2,0.1c0,0,0.1,0.1,0.1,0.2v1.4
		c0,0.2-0.1,0.3-0.3,0.3h-11.9c-0.1,0-0.2,0-0.3-0.1s-0.1-0.1-0.1-0.3v-18.5C101.8,281.7,101.8,281.6,101.9,281.6z"/>
	<path class="st0" d="M118,300.3v-18.5c0-0.1,0-0.2,0.1-0.3c0-0.1,0.1-0.1,0.2-0.1h2.5c0.1,0,0.2,0,0.3,0.1c0.1,0,0.1,0.1,0.1,0.2
		l5.7,14.8c0.1,0.2,0.1,0.2,0.2,0.2c0.1,0,0.2-0.1,0.2-0.3l5.7-14.8c0.1-0.2,0.2-0.3,0.4-0.3h2.6c0.2,0,0.3,0.1,0.3,0.3v18.5
		c0,0.3-0.1,0.4-0.4,0.4h-1.7c-0.3,0-0.4-0.1-0.4-0.3v-14.8c0-0.1,0-0.1,0-0.1s-0.1,0-0.1,0.1l-5.7,14.8c-0.1,0.2-0.3,0.3-0.5,0.3
		h-1.2c-0.3,0-0.4-0.1-0.5-0.3l-5.6-14.7c0-0.1,0-0.1-0.1-0.1s-0.1,0-0.1,0.1v14.6c0,0.1,0,0.2-0.1,0.3s-0.1,0.1-0.3,0.1h-1.4
		C118.2,300.7,118,300.6,118,300.3z"/>
	<path class="st0" d="M141.6,281.6c0-0.1,0.1-0.1,0.2-0.1h11.6c0.2,0,0.3,0.1,0.3,0.3v1.3c0,0.2-0.1,0.3-0.3,0.3h-9
		c-0.1,0-0.2,0-0.3,0.1c0,0-0.1,0.1-0.1,0.2v6.1c0,0.2,0.1,0.3,0.3,0.3h6.7c0.2,0,0.3,0.1,0.3,0.3v1.4c0,0.2-0.1,0.2-0.3,0.2h-6.7
		c-0.2,0-0.3,0.1-0.3,0.3v6.3c0,0.1,0,0.2,0.1,0.2s0.1,0.1,0.2,0.1h9.5c0.1,0,0.2,0,0.2,0.1c0,0,0.1,0.1,0.1,0.2v1.4
		c0,0.2-0.1,0.3-0.3,0.3h-11.9c-0.1,0-0.2,0-0.3-0.1s-0.1-0.1-0.1-0.3v-18.5C141.5,281.7,141.5,281.6,141.6,281.6z"/>
	<path class="st0" d="M172,281.5c0.1,0,0.2,0,0.2,0.1c0,0,0.1,0.1,0.1,0.2v18.6c0,0.2-0.1,0.3-0.3,0.3h-1.3c-0.1,0-0.2,0-0.3,0
		s-0.2-0.1-0.2-0.2l-10-14.5c-0.1-0.1-0.1-0.2-0.2-0.2c-0.1,0-0.1,0.1-0.1,0.2v14.4c0,0.2-0.1,0.3-0.4,0.3h-1.4
		c-0.2,0-0.3-0.1-0.3-0.3v-18.5c0-0.1,0-0.2,0.1-0.3c0-0.1,0.1-0.1,0.3-0.1h1.5c0.1,0,0.2,0,0.3,0.1c0.1,0,0.1,0.1,0.2,0.2l9.7,14.2
		c0.1,0.1,0.2,0.2,0.2,0.2c0.1,0,0.2-0.1,0.2-0.2v-14.1c0-0.2,0.1-0.3,0.3-0.3H172z"/>
	<path class="st0" d="M175.9,281.8c0-0.2,0.1-0.3,0.3-0.3h13.9c0.2,0,0.3,0.1,0.3,0.3v1.3c0,0.1,0,0.2-0.1,0.2s-0.1,0.1-0.2,0.1
		h-5.3c-0.1,0-0.2,0-0.2,0.1c0,0-0.1,0.1-0.1,0.2v16.7c0,0.2-0.1,0.3-0.3,0.3h-1.9c-0.2,0-0.3-0.1-0.3-0.3v-16.7
		c0-0.1,0-0.2-0.1-0.2c0,0-0.1-0.1-0.2-0.1h-5.6c-0.1,0-0.2,0-0.2-0.1s-0.1-0.1-0.1-0.2V281.8z"/>
	<path class="st0" d="M3.2,330.8c-0.1-0.1-0.1-0.1-0.1-0.2V312c0-0.2,0.1-0.4,0.3-0.4h6c2.3,0,4.1,0.4,5.3,1.3
		c1.3,0.9,1.9,2.1,1.9,3.7c0,1.1-0.3,1.9-0.8,2.6c-0.6,0.7-1.4,1.3-2.6,1.7c-0.1,0-0.1,0.1-0.1,0.1s0,0.1,0.1,0.1
		c2.6,0.7,3.9,2.2,3.9,4.6c0,1.7-0.6,3-1.9,3.8s-3.1,1.3-5.6,1.3H3.4C3.3,330.9,3.3,330.8,3.2,330.8z M9.8,320.2
		c1.2,0,2.2-0.3,3.1-0.8c0.8-0.5,1.3-1.4,1.3-2.5c0-1.1-0.4-2-1.2-2.6s-2-0.9-3.4-0.9H5.9c-0.2,0-0.3,0.1-0.3,0.3v6.1
		c0,0.2,0.1,0.3,0.2,0.3H9.8z M9.5,329.1c1.7,0,3-0.3,3.8-0.8c0.8-0.6,1.2-1.4,1.2-2.6c0-1.2-0.4-2.1-1.3-2.7
		c-0.9-0.6-2-0.9-3.4-0.9H6c-0.1,0-0.2,0-0.3,0.1c-0.1,0-0.1,0.1-0.1,0.2v6.3c0,0.1,0,0.2,0.1,0.3s0.1,0.1,0.2,0.1H9.5z"/>
	<path class="st0" d="M34.2,311.8c0,0.1,0,0.2,0,0.3L28,322.3c-0.1,0.1-0.1,0.2-0.1,0.3s0,0.3,0,0.5v7.2c0,0.2,0,0.3-0.1,0.3
		c-0.1,0.1-0.2,0.1-0.4,0.1h-1.6c-0.3,0-0.4-0.1-0.4-0.4v-7.2c0-0.2,0-0.3,0-0.4c0-0.1-0.1-0.2-0.2-0.3L19,312.1
		c-0.1-0.1-0.1-0.2-0.1-0.2c0-0.1,0.1-0.2,0.4-0.2h1.9c0.2,0,0.3,0,0.3,0.1c0.1,0,0.1,0.1,0.2,0.2l4.8,8.3c0.1,0.2,0.2,0.3,0.3,0.3
		c0.1,0,0.2-0.1,0.3-0.3l4.8-8.3c0.1-0.1,0.1-0.2,0.2-0.2c0.1,0,0.2-0.1,0.3-0.1H34C34.1,311.7,34.2,311.7,34.2,311.8z"/>
	<path class="st0" d="M53.9,312.1c1,0.5,1.9,1.1,2.5,1.9s1.1,1.7,1.2,2.6l0,0.2c0,0.1,0,0.1-0.1,0.2s-0.1,0.1-0.1,0.1l-1.9,0.2h-0.1
		c-0.1,0-0.1,0-0.1-0.1c0,0-0.1-0.1-0.1-0.2c-0.3-1.1-0.8-2-1.6-2.7s-1.8-1-3-1c-1.8,0-3.2,0.7-4.2,2c-1,1.3-1.4,3.3-1.4,6
		c0,2.6,0.5,4.6,1.4,5.9c1,1.3,2.4,2,4.3,2c1.2,0,2.2-0.3,3.1-0.9c0.8-0.6,1.5-1.5,2-2.8c0-0.1,0.1-0.2,0.3-0.1l1.5,0.4
		c0.1,0,0.2,0.2,0.1,0.4c-0.3,0.9-0.7,1.7-1.3,2.4c-0.6,0.8-1.4,1.4-2.4,1.9s-2.1,0.7-3.3,0.7c-1.7,0-3.2-0.4-4.4-1.2
		c-1.2-0.8-2.2-1.9-2.8-3.4c-0.7-1.5-1-3.2-1-5.3s0.3-3.8,1-5.3s1.6-2.6,2.8-3.4c1.2-0.8,2.7-1.2,4.3-1.2
		C51.8,311.4,52.9,311.7,53.9,312.1z"/>
	<path class="st0" d="M64.7,330c-1.2-0.8-2.2-1.9-2.8-3.3c-0.7-1.5-1-3.2-1-5.3c0-2.1,0.3-3.9,1-5.4c0.7-1.5,1.6-2.6,2.8-3.4
		c1.2-0.8,2.7-1.2,4.4-1.2c1.7,0,3.1,0.4,4.4,1.2c1.2,0.8,2.2,1.9,2.8,3.4c0.7,1.5,1,3.3,1,5.4c0,2.1-0.3,3.8-1,5.3
		c-0.7,1.5-1.6,2.6-2.8,3.4c-1.2,0.8-2.7,1.2-4.4,1.2S65.9,330.8,64.7,330z M73.3,327.3c0.9-1.3,1.4-3.3,1.4-6
		c0-2.7-0.5-4.7-1.4-6.1c-0.9-1.3-2.3-2-4.2-2c-1.9,0-3.3,0.7-4.2,2c-0.9,1.3-1.4,3.3-1.4,6.1c0,2.7,0.5,4.7,1.4,6
		c0.9,1.3,2.4,1.9,4.3,1.9C71,329.2,72.4,328.6,73.3,327.3z"/>
	<path class="st0" d="M95.7,311.7c0.1,0,0.2,0,0.2,0.1c0,0,0.1,0.1,0.1,0.2v18.6c0,0.2-0.1,0.3-0.3,0.3h-1.3c-0.1,0-0.2,0-0.3,0
		s-0.2-0.1-0.2-0.2l-10-14.5c-0.1-0.1-0.1-0.2-0.2-0.2c-0.1,0-0.1,0.1-0.1,0.2v14.4c0,0.2-0.1,0.3-0.4,0.3h-1.4
		c-0.2,0-0.3-0.1-0.3-0.3V312c0-0.1,0-0.2,0.1-0.3c0-0.1,0.1-0.1,0.3-0.1h1.5c0.1,0,0.2,0,0.3,0.1c0.1,0,0.1,0.1,0.2,0.2l9.7,14.2
		c0.1,0.1,0.2,0.2,0.2,0.2c0.1,0,0.2-0.1,0.2-0.2V312c0-0.2,0.1-0.3,0.3-0.3H95.7z"/>
	<path class="st0" d="M99.6,312c0-0.2,0.1-0.3,0.3-0.3h13.9c0.2,0,0.3,0.1,0.3,0.3v1.3c0,0.1,0,0.2-0.1,0.2s-0.1,0.1-0.2,0.1h-5.3
		c-0.1,0-0.2,0-0.2,0.1c0,0-0.1,0.1-0.1,0.2v16.7c0,0.2-0.1,0.3-0.3,0.3h-1.9c-0.2,0-0.3-0.1-0.3-0.3v-16.7c0-0.1,0-0.2-0.1-0.2
		c0,0-0.1-0.1-0.2-0.1h-5.6c-0.1,0-0.2,0-0.2-0.1s-0.1-0.1-0.1-0.2V312z"/>
	<path class="st0" d="M131.5,330.6c0,0.2-0.1,0.3-0.3,0.3h-1.9c-0.2,0-0.3-0.1-0.4-0.3l-3.3-8.2c-0.1-0.1-0.1-0.2-0.2-0.2
		s-0.2-0.1-0.4-0.1h-4.4c-0.2,0-0.3,0.1-0.3,0.3v8.1c0,0.2,0,0.3-0.1,0.3c-0.1,0.1-0.2,0.1-0.3,0.1h-1.7c-0.1,0-0.2,0-0.3-0.1
		s-0.1-0.1-0.1-0.3V312c0-0.1,0-0.2,0.1-0.3c0-0.1,0.1-0.1,0.2-0.1h7.2c2.1,0,3.6,0.4,4.8,1.3c1.1,0.8,1.7,2.1,1.7,3.7
		c0,1.4-0.4,2.5-1.1,3.3s-1.6,1.4-2.7,1.7c-0.1,0-0.1,0.1-0.1,0.1c0,0.1,0,0.1,0,0.2l3.6,8.5C131.5,330.4,131.5,330.5,131.5,330.6z
		 M128,319.5c0.8-0.6,1.1-1.4,1.1-2.6c0-1.1-0.3-2-1-2.5s-1.7-0.9-3-0.9h-4.6c-0.2,0-0.4,0.1-0.4,0.3v6.2c0,0.2,0.1,0.3,0.2,0.3h4.1
		C126.1,320.3,127.2,320,128,319.5z"/>
	<path class="st0" d="M138.7,330c-1.2-0.8-2.2-1.9-2.8-3.3c-0.7-1.5-1-3.2-1-5.3c0-2.1,0.3-3.9,1-5.4c0.7-1.5,1.6-2.6,2.8-3.4
		c1.2-0.8,2.7-1.2,4.4-1.2c1.7,0,3.1,0.4,4.4,1.2c1.2,0.8,2.2,1.9,2.8,3.4c0.7,1.5,1,3.3,1,5.4c0,2.1-0.3,3.8-1,5.3
		c-0.7,1.5-1.6,2.6-2.8,3.4c-1.2,0.8-2.7,1.2-4.4,1.2S140,330.8,138.7,330z M147.4,327.3c0.9-1.3,1.4-3.3,1.4-6
		c0-2.7-0.5-4.7-1.4-6.1c-0.9-1.3-2.3-2-4.2-2c-1.9,0-3.3,0.7-4.2,2c-0.9,1.3-1.4,3.3-1.4,6.1c0,2.7,0.5,4.7,1.4,6
		c0.9,1.3,2.4,1.9,4.3,1.9C145,329.2,146.4,328.6,147.4,327.3z"/>
	<path class="st0" d="M155.8,311.7h1.9c0.2,0,0.3,0.1,0.3,0.3v16.7c0,0.1,0,0.2,0.1,0.2s0.1,0.1,0.2,0.1h9c0.1,0,0.2,0,0.2,0.1
		s0.1,0.1,0.1,0.2v1.4c0,0.2-0.1,0.3-0.3,0.3h-11.3c-0.1,0-0.2,0-0.3-0.1s-0.1-0.1-0.1-0.3V312C155.5,311.8,155.6,311.7,155.8,311.7
		z"/>
</g>
<g>
	<path class="st0" d="M706.9,25.3V6.9c0-0.1,0-0.2,0.1-0.3s0.1-0.1,0.2-0.1h2.5c0.1,0,0.2,0,0.3,0.1c0.1,0,0.1,0.1,0.1,0.2l5.7,14.8
		c0.1,0.2,0.1,0.2,0.2,0.2c0.1,0,0.2-0.1,0.2-0.3l5.7-14.8c0.1-0.2,0.2-0.3,0.4-0.3h2.6c0.2,0,0.3,0.1,0.3,0.3v18.5
		c0,0.3-0.1,0.4-0.4,0.4h-1.7c-0.3,0-0.4-0.1-0.4-0.3V10.6c0-0.1,0-0.1,0-0.1c0,0-0.1,0-0.1,0.1l-5.7,14.8c-0.1,0.2-0.3,0.3-0.5,0.3
		h-1.2c-0.3,0-0.4-0.1-0.5-0.3l-5.6-14.7c0-0.1,0-0.1-0.1-0.1c0,0-0.1,0-0.1,0.1v14.6c0,0.1,0,0.2-0.1,0.3s-0.1,0.1-0.3,0.1h-1.4
		C707.1,25.7,706.9,25.6,706.9,25.3z"/>
	<path class="st0" d="M729.1,25.6c-0.1-0.1-0.1-0.2,0-0.3l6.7-18.4c0.1-0.1,0.1-0.2,0.2-0.3c0.1-0.1,0.2-0.1,0.3-0.1h2
		c0.3,0,0.5,0.1,0.6,0.4l6.6,18.4l0,0.1c0,0.2-0.1,0.3-0.3,0.3h-1.8c-0.2,0-0.3-0.1-0.4-0.3l-1.8-5c0-0.1-0.1-0.1-0.1-0.2
		c0,0-0.1-0.1-0.2-0.1h-7.5c-0.2,0-0.3,0.1-0.3,0.2l-1.8,5c-0.1,0.2-0.2,0.2-0.4,0.2h-1.6C729.2,25.7,729.1,25.7,729.1,25.6z
		 M740.2,18.3c0.2,0,0.3-0.1,0.2-0.3l-3.1-8.5c-0.1-0.2-0.1-0.2-0.2-0.2c-0.1,0-0.1,0.1-0.2,0.2l-3.2,8.6l-0.1,0.2
		c0,0.1,0.1,0.1,0.2,0.1H740.2z"/>
	<path class="st0" d="M763.5,6.5c0.1,0,0.2,0,0.2,0.1c0,0,0.1,0.1,0.1,0.2v18.6c0,0.2-0.1,0.3-0.3,0.3h-1.3c-0.1,0-0.2,0-0.3,0
		c-0.1,0-0.2-0.1-0.2-0.2l-10-14.5c-0.1-0.1-0.1-0.2-0.2-0.2c-0.1,0-0.1,0.1-0.1,0.2v14.4c0,0.2-0.1,0.3-0.4,0.3h-1.5
		c-0.2,0-0.3-0.1-0.3-0.3V6.9c0-0.1,0-0.2,0.1-0.3s0.1-0.1,0.3-0.1h1.5c0.1,0,0.2,0,0.3,0.1c0.1,0,0.1,0.1,0.2,0.2l9.7,14.2
		c0.1,0.1,0.2,0.2,0.2,0.2c0.1,0,0.2-0.1,0.2-0.2V6.8c0-0.2,0.1-0.3,0.3-0.3H763.5z"/>
	<path class="st0" d="M767.5,25.6c-0.1-0.1-0.1-0.2,0-0.3l6.7-18.4c0.1-0.1,0.1-0.2,0.2-0.3c0.1-0.1,0.2-0.1,0.3-0.1h2
		c0.3,0,0.5,0.1,0.6,0.4l6.6,18.4l0,0.1c0,0.2-0.1,0.3-0.3,0.3h-1.8c-0.2,0-0.3-0.1-0.4-0.3l-1.8-5c0-0.1-0.1-0.1-0.1-0.2
		c0,0-0.1-0.1-0.2-0.1h-7.5c-0.2,0-0.3,0.1-0.3,0.2l-1.8,5c-0.1,0.2-0.2,0.2-0.4,0.2h-1.6C767.6,25.7,767.5,25.7,767.5,25.6z
		 M778.7,18.3c0.2,0,0.3-0.1,0.2-0.3l-3.1-8.5c-0.1-0.2-0.1-0.2-0.2-0.2c-0.1,0-0.1,0.1-0.2,0.2l-3.2,8.6l-0.1,0.2
		c0,0.1,0.1,0.1,0.2,0.1H778.7z"/>
	<path class="st0" d="M789.4,24.8c-1.2-0.8-2.1-1.9-2.8-3.4c-0.6-1.5-1-3.2-1-5.2c0-2.1,0.3-3.8,1-5.3c0.7-1.5,1.6-2.6,2.8-3.4
		c1.2-0.8,2.7-1.2,4.3-1.2c1.2,0,2.3,0.2,3.3,0.7c1,0.5,1.9,1.1,2.5,1.9c0.7,0.8,1.1,1.6,1.2,2.5v0.2c0,0.1,0,0.1,0,0.2
		c0,0-0.1,0.1-0.2,0.1l-1.9,0.3h-0.1c-0.1,0-0.2-0.1-0.2-0.3c-0.2-1.1-0.7-1.9-1.6-2.7c-0.9-0.7-1.9-1.1-3.1-1.1
		c-1.8,0-3.1,0.7-4.1,2c-0.9,1.3-1.4,3.3-1.4,5.9c0,2.7,0.5,4.7,1.4,6c0.9,1.3,2.3,2,4.1,2c1.1,0,2-0.2,2.7-0.7
		c0.8-0.5,1.3-1.1,1.7-1.8c0.4-0.7,0.6-1.5,0.7-2.2v-1.6v-0.1c0-0.2-0.1-0.2-0.3-0.2h-4.2c-0.2,0-0.3-0.1-0.3-0.3v-1.1
		c0-0.2,0.1-0.2,0.3-0.2l6.4,0c0.3,0,0.4,0.1,0.4,0.3v9.1c0,0.2-0.1,0.3-0.3,0.3h-0.6c-0.1,0-0.2,0-0.3-0.1c-0.1,0-0.1-0.1-0.2-0.3
		l-0.3-2.4c0-0.1,0-0.1-0.1-0.1s-0.1,0-0.1,0.1c-0.6,0.9-1.3,1.6-2.2,2.1s-2.1,0.8-3.4,0.8C792.1,26,790.6,25.6,789.4,24.8z"/>
	<path class="st0" d="M805.7,6.6c0-0.1,0.1-0.1,0.2-0.1h11.6c0.2,0,0.3,0.1,0.3,0.3v1.3c0,0.2-0.1,0.3-0.3,0.3h-9
		c-0.1,0-0.2,0-0.3,0.1c0,0-0.1,0.1-0.1,0.2v6.1c0,0.2,0.1,0.3,0.3,0.3h6.7c0.2,0,0.3,0.1,0.3,0.3v1.4c0,0.2-0.1,0.2-0.3,0.2h-6.7
		c-0.2,0-0.3,0.1-0.3,0.3v6.3c0,0.1,0,0.2,0.1,0.2c0,0,0.1,0.1,0.2,0.1h9.5c0.1,0,0.2,0,0.2,0.1s0.1,0.1,0.1,0.2v1.4
		c0,0.2-0.1,0.3-0.3,0.3H806c-0.1,0-0.2,0-0.3-0.1s-0.1-0.1-0.1-0.3V6.9C805.6,6.7,805.6,6.6,805.7,6.6z"/>
	<path class="st0" d="M821.9,25.3V6.9c0-0.1,0-0.2,0.1-0.3s0.1-0.1,0.2-0.1h2.5c0.1,0,0.2,0,0.3,0.1c0.1,0,0.1,0.1,0.1,0.2l5.7,14.8
		c0.1,0.2,0.1,0.2,0.2,0.2c0.1,0,0.2-0.1,0.2-0.3L837,6.8c0.1-0.2,0.2-0.3,0.4-0.3h2.6c0.2,0,0.3,0.1,0.3,0.3v18.5
		c0,0.3-0.1,0.4-0.4,0.4h-1.7c-0.3,0-0.4-0.1-0.4-0.3V10.6c0-0.1,0-0.1,0-0.1c0,0-0.1,0-0.1,0.1L832,25.4c-0.1,0.2-0.3,0.3-0.5,0.3
		h-1.2c-0.3,0-0.4-0.1-0.5-0.3l-5.6-14.7c0-0.1,0-0.1-0.1-0.1c0,0-0.1,0-0.1,0.1v14.6c0,0.1,0,0.2-0.1,0.3s-0.1,0.1-0.3,0.1h-1.4
		C822,25.7,821.9,25.6,821.9,25.3z"/>
	<path class="st0" d="M845.4,6.6c0-0.1,0.1-0.1,0.2-0.1h11.6c0.2,0,0.3,0.1,0.3,0.3v1.3c0,0.2-0.1,0.3-0.3,0.3h-9
		c-0.1,0-0.2,0-0.3,0.1c0,0-0.1,0.1-0.1,0.2v6.1c0,0.2,0.1,0.3,0.3,0.3h6.7c0.2,0,0.3,0.1,0.3,0.3v1.4c0,0.2-0.1,0.2-0.3,0.2h-6.7
		c-0.2,0-0.3,0.1-0.3,0.3v6.3c0,0.1,0,0.2,0.1,0.2c0,0,0.1,0.1,0.2,0.1h9.5c0.1,0,0.2,0,0.2,0.1s0.1,0.1,0.1,0.2v1.4
		c0,0.2-0.1,0.3-0.3,0.3h-11.9c-0.1,0-0.2,0-0.3-0.1s-0.1-0.1-0.1-0.3V6.9C845.3,6.7,845.3,6.6,845.4,6.6z"/>
	<path class="st0" d="M875.9,6.5c0.1,0,0.2,0,0.2,0.1c0,0,0.1,0.1,0.1,0.2v18.6c0,0.2-0.1,0.3-0.3,0.3h-1.3c-0.1,0-0.2,0-0.3,0
		c-0.1,0-0.2-0.1-0.2-0.2L864,11c-0.1-0.1-0.1-0.2-0.2-0.2c-0.1,0-0.1,0.1-0.1,0.2v14.4c0,0.2-0.1,0.3-0.4,0.3h-1.5
		c-0.2,0-0.3-0.1-0.3-0.3V6.9c0-0.1,0-0.2,0.1-0.3s0.1-0.1,0.3-0.1h1.5c0.1,0,0.2,0,0.3,0.1c0.1,0,0.1,0.1,0.2,0.2l9.7,14.2
		c0.1,0.1,0.2,0.2,0.2,0.2c0.1,0,0.2-0.1,0.2-0.2V6.8c0-0.2,0.1-0.3,0.3-0.3H875.9z"/>
	<path class="st0" d="M879.7,6.8c0-0.2,0.1-0.3,0.3-0.3H894c0.2,0,0.3,0.1,0.3,0.3v1.3c0,0.1,0,0.2-0.1,0.2s-0.1,0.1-0.2,0.1h-5.3
		c-0.1,0-0.2,0-0.2,0.1c0,0-0.1,0.1-0.1,0.2v16.7c0,0.2-0.1,0.3-0.3,0.3h-1.9c-0.2,0-0.3-0.1-0.3-0.3V8.7c0-0.1,0-0.2-0.1-0.2
		c0,0-0.1-0.1-0.2-0.1h-5.6c-0.1,0-0.2,0-0.2-0.1s-0.1-0.1-0.1-0.2V6.8z"/>
	<path class="st0" d="M707,58c-0.1-0.1-0.1-0.1-0.1-0.2V39.2c0-0.2,0.1-0.4,0.3-0.4h6c2.3,0,4.1,0.4,5.3,1.3s1.9,2.1,1.9,3.7
		c0,1.1-0.3,1.9-0.8,2.6c-0.6,0.7-1.4,1.3-2.6,1.7c-0.1,0-0.1,0.1-0.1,0.1s0,0.1,0.1,0.1c2.6,0.7,3.9,2.2,3.9,4.6
		c0,1.7-0.6,3-1.9,3.8s-3.1,1.3-5.6,1.3h-6.2C707.2,58.1,707.1,58,707,58z M713.6,47.4c1.2,0,2.2-0.3,3.1-0.8
		c0.8-0.5,1.3-1.4,1.3-2.5c0-1.1-0.4-2-1.2-2.6c-0.8-0.6-2-0.9-3.4-0.9h-3.5c-0.2,0-0.3,0.1-0.3,0.3v6.1c0,0.2,0.1,0.3,0.2,0.3
		H713.6z M713.3,56.3c1.7,0,3-0.3,3.8-0.8c0.8-0.6,1.2-1.4,1.2-2.6c0-1.2-0.4-2.1-1.3-2.7c-0.9-0.6-2-0.9-3.4-0.9h-3.8
		c-0.1,0-0.2,0-0.3,0.1c-0.1,0-0.1,0.1-0.1,0.2v6.3c0,0.1,0,0.2,0.1,0.3c0,0.1,0.1,0.1,0.2,0.1H713.3z"/>
	<path class="st0" d="M738.1,39c0,0.1,0,0.2,0,0.3l-6.2,10.3c-0.1,0.1-0.1,0.2-0.1,0.3c0,0.1,0,0.3,0,0.5v7.2c0,0.2,0,0.3-0.1,0.3
		c-0.1,0.1-0.2,0.1-0.4,0.1h-1.6c-0.3,0-0.4-0.1-0.4-0.4v-7.2c0-0.2,0-0.3,0-0.4c0-0.1-0.1-0.2-0.2-0.3l-6.2-10.5
		c-0.1-0.1-0.1-0.2-0.1-0.2c0-0.1,0.1-0.2,0.4-0.2h1.9c0.2,0,0.3,0,0.3,0.1c0.1,0,0.1,0.1,0.2,0.2l4.8,8.3c0.1,0.2,0.2,0.3,0.3,0.3
		c0.1,0,0.2-0.1,0.3-0.3l4.8-8.3c0.1-0.1,0.1-0.2,0.2-0.2c0.1,0,0.2-0.1,0.3-0.1h1.6C737.9,38.9,738,38.9,738.1,39z"/>
	<path class="st0" d="M750.2,57.2c-1.2-0.8-2.2-1.9-2.8-3.3c-0.7-1.5-1-3.2-1-5.3c0-2.1,0.3-3.9,1-5.4c0.7-1.5,1.6-2.6,2.8-3.4
		c1.2-0.8,2.7-1.2,4.4-1.2c1.7,0,3.1,0.4,4.4,1.2c1.2,0.8,2.2,1.9,2.8,3.4c0.7,1.5,1,3.3,1,5.4c0,2.1-0.3,3.8-1,5.3
		c-0.7,1.5-1.6,2.6-2.8,3.4c-1.2,0.8-2.7,1.2-4.4,1.2S751.4,57.9,750.2,57.2z M758.8,54.5c0.9-1.3,1.4-3.3,1.4-6
		c0-2.7-0.5-4.7-1.4-6.1c-0.9-1.3-2.3-2-4.2-2c-1.9,0-3.3,0.7-4.2,2c-0.9,1.3-1.4,3.3-1.4,6.1c0,2.7,0.5,4.7,1.4,6s2.4,1.9,4.3,1.9
		C756.5,56.4,757.9,55.8,758.8,54.5z"/>
	<path class="st0" d="M767.1,58c-0.1-0.1-0.1-0.1-0.1-0.2V39.2c0-0.2,0.1-0.4,0.3-0.4h6c2.3,0,4.1,0.4,5.3,1.3s1.9,2.1,1.9,3.7
		c0,1.1-0.3,1.9-0.8,2.6c-0.6,0.7-1.4,1.3-2.6,1.7c-0.1,0-0.1,0.1-0.1,0.1s0,0.1,0.1,0.1c2.6,0.7,3.9,2.2,3.9,4.6
		c0,1.7-0.6,3-1.9,3.8s-3.1,1.3-5.6,1.3h-6.2C767.2,58.1,767.1,58,767.1,58z M773.6,47.4c1.2,0,2.2-0.3,3.1-0.8
		c0.8-0.5,1.3-1.4,1.3-2.5c0-1.1-0.4-2-1.2-2.6c-0.8-0.6-2-0.9-3.4-0.9h-3.5c-0.2,0-0.3,0.1-0.3,0.3v6.1c0,0.2,0.1,0.3,0.2,0.3
		H773.6z M773.3,56.3c1.7,0,3-0.3,3.8-0.8c0.8-0.6,1.2-1.4,1.2-2.6c0-1.2-0.4-2.1-1.3-2.7c-0.9-0.6-2-0.9-3.4-0.9h-3.8
		c-0.1,0-0.2,0-0.3,0.1c-0.1,0-0.1,0.1-0.1,0.2v6.3c0,0.1,0,0.2,0.1,0.3c0,0.1,0.1,0.1,0.2,0.1H773.3z"/>
	<path class="st0" d="M790,57.2c-0.7,0.7-1.7,1.1-3.1,1.1c-0.8,0-1.4-0.1-2-0.3c-0.5-0.2-0.9-0.3-0.9-0.3c-0.2-0.1-0.3-0.2-0.3-0.5
		l0.2-1.4c0-0.2,0.1-0.3,0.3-0.2c0.1,0,0.2,0.1,0.5,0.2c0.2,0.1,0.5,0.2,0.8,0.2c0.3,0.1,0.6,0.1,0.9,0.1c0.8,0,1.4-0.2,1.7-0.6
		c0.3-0.4,0.5-1.2,0.5-2.3V39.2c0-0.2,0.1-0.3,0.3-0.3h1.9c0.2,0,0.3,0.1,0.3,0.3v14.6C791,55.4,790.6,56.5,790,57.2z"/>
	<path class="st0" d="M796,38.9c0-0.1,0.1-0.1,0.2-0.1h11.6c0.2,0,0.3,0.1,0.3,0.3v1.3c0,0.2-0.1,0.3-0.3,0.3h-9
		c-0.1,0-0.2,0-0.3,0.1c0,0-0.1,0.1-0.1,0.2v6.1c0,0.2,0.1,0.3,0.3,0.3h6.7c0.2,0,0.3,0.1,0.3,0.3v1.4c0,0.2-0.1,0.2-0.3,0.2h-6.7
		c-0.2,0-0.3,0.1-0.3,0.3v6.3c0,0.1,0,0.2,0.1,0.2c0,0,0.1,0.1,0.2,0.1h9.5c0.1,0,0.2,0,0.2,0.1s0.1,0.1,0.1,0.2v1.4
		c0,0.2-0.1,0.3-0.3,0.3h-11.9c-0.1,0-0.2,0-0.3-0.1s-0.1-0.1-0.1-0.3V39.2C795.9,39.1,795.9,39,796,38.9z"/>
	<path class="st0" d="M821.5,39.3c1,0.5,1.9,1.1,2.5,1.9s1.1,1.7,1.2,2.6l0,0.2c0,0.1,0,0.1-0.1,0.2c0,0-0.1,0.1-0.1,0.1l-1.9,0.2
		h-0.1c-0.1,0-0.1,0-0.1-0.1c0,0-0.1-0.1-0.1-0.2c-0.3-1.1-0.8-2-1.6-2.7c-0.8-0.7-1.8-1-3-1c-1.8,0-3.2,0.7-4.2,2
		c-1,1.3-1.4,3.3-1.4,6c0,2.6,0.5,4.6,1.4,5.9c1,1.3,2.4,2,4.3,2c1.2,0,2.2-0.3,3.1-0.9c0.8-0.6,1.5-1.5,2-2.8
		c0-0.1,0.1-0.2,0.3-0.1l1.5,0.4c0.1,0,0.2,0.2,0.1,0.4c-0.3,0.9-0.7,1.7-1.3,2.4c-0.6,0.8-1.4,1.4-2.4,1.9s-2.1,0.7-3.3,0.7
		c-1.7,0-3.2-0.4-4.4-1.2c-1.2-0.8-2.2-1.9-2.8-3.4c-0.7-1.5-1-3.2-1-5.3s0.3-3.8,1-5.3c0.6-1.5,1.6-2.6,2.8-3.4
		c1.2-0.8,2.7-1.2,4.3-1.2C819.4,38.6,820.4,38.8,821.5,39.3z"/>
	<path class="st0" d="M827.8,39.2c0-0.2,0.1-0.3,0.3-0.3h13.9c0.2,0,0.3,0.1,0.3,0.3v1.3c0,0.1,0,0.2-0.1,0.2s-0.1,0.1-0.2,0.1h-5.3
		c-0.1,0-0.2,0-0.2,0.1c0,0-0.1,0.1-0.1,0.2v16.7c0,0.2-0.1,0.3-0.3,0.3h-1.9c-0.2,0-0.3-0.1-0.3-0.3V41c0-0.1,0-0.2-0.1-0.2
		c0,0-0.1-0.1-0.2-0.1h-5.6c-0.1,0-0.2,0-0.2-0.1s-0.1-0.1-0.1-0.2V39.2z"/>
	<path class="st0" d="M848.1,38.9c0.2,0,0.3,0.1,0.3,0.3v18.4c0,0.2,0,0.3-0.1,0.3c-0.1,0.1-0.2,0.1-0.4,0.1h-1.6
		c-0.2,0-0.3,0-0.3-0.1s-0.1-0.1-0.1-0.3V39.2c0-0.2,0.1-0.4,0.3-0.4H848.1z"/>
	<path class="st0" d="M868,39c0,0.1,0,0.2,0,0.2l-6.5,18.5c-0.1,0.1-0.1,0.2-0.2,0.3c-0.1,0.1-0.2,0.1-0.4,0.1h-1.8
		c-0.3,0-0.6-0.1-0.6-0.4l-6.4-18.5c0,0,0-0.1,0-0.1c0-0.2,0.1-0.3,0.3-0.3h1.8c0.2,0,0.4,0.1,0.4,0.3l5.4,15.7
		c0.1,0.2,0.1,0.2,0.2,0.2c0.1,0,0.1-0.1,0.2-0.3l5.5-15.7c0.1-0.2,0.2-0.3,0.4-0.3h1.5C867.9,38.9,868,38.9,868,39z"/>
	<path class="st0" d="M871.8,38.9c0-0.1,0.1-0.1,0.2-0.1h11.6c0.2,0,0.3,0.1,0.3,0.3v1.3c0,0.2-0.1,0.3-0.3,0.3h-9
		c-0.1,0-0.2,0-0.3,0.1c0,0-0.1,0.1-0.1,0.2v6.1c0,0.2,0.1,0.3,0.3,0.3h6.7c0.2,0,0.3,0.1,0.3,0.3v1.4c0,0.2-0.1,0.2-0.3,0.2h-6.7
		c-0.2,0-0.3,0.1-0.3,0.3v6.3c0,0.1,0,0.2,0.1,0.2c0,0,0.1,0.1,0.2,0.1h9.5c0.1,0,0.2,0,0.2,0.1s0.1,0.1,0.1,0.2v1.4
		c0,0.2-0.1,0.3-0.3,0.3h-11.9c-0.1,0-0.2,0-0.3-0.1s-0.1-0.1-0.1-0.3V39.2C871.7,39.1,871.8,39,871.8,38.9z"/>
	<path class="st0" d="M894,40.5c-1.3,0-2.3,0.3-3.1,0.9c-0.7,0.6-1.1,1.4-1.1,2.4c0,1.3,0.9,2.3,2.8,3l3.8,1.2
		c1.5,0.5,2.6,1.2,3.3,2s1,1.9,1,3.1c0,1.7-0.6,3-1.8,3.9c-1.2,0.9-2.9,1.4-5,1.4c-1.6,0-2.9-0.3-4.1-0.8c-1.2-0.6-2.1-1.4-2.9-2.4
		c-0.1-0.1-0.1-0.2-0.1-0.3c0-0.1,0.1-0.2,0.3-0.4l0.9-0.6c0.2-0.1,0.3-0.2,0.4-0.2c0.1,0,0.2,0.1,0.3,0.2c0.7,0.9,1.5,1.6,2.2,2
		c0.7,0.4,1.7,0.6,2.9,0.6c1.5,0,2.6-0.3,3.4-0.8c0.8-0.5,1.2-1.3,1.2-2.4c0-0.7-0.2-1.2-0.6-1.7s-1.2-0.9-2.3-1.3l-3.9-1.3
		c-1.4-0.5-2.4-1.1-3-2c-0.6-0.9-1-1.8-1-2.9c0-1.1,0.3-2,0.8-2.8c0.5-0.8,1.3-1.4,2.3-1.9s2.1-0.7,3.4-0.7c1.3,0,2.4,0.2,3.4,0.7
		c1,0.4,1.9,1.1,2.6,1.9c0.1,0.1,0.1,0.2,0.1,0.3c0,0.1,0,0.2-0.1,0.2l-1.2,0.9c-0.1,0.1-0.1,0.1-0.2,0.1s-0.2-0.1-0.3-0.2
		C897.3,41.1,895.8,40.5,894,40.5z"/>
</g>
</svg>
