<?xml version="1.0" encoding="utf-8"?>
<!-- Generator: Adobe Illustrator 22.0.1, SVG Export Plug-In . SVG Version: 6.00 Build 0)  -->
<svg version="1.1" id="Layer_1" xmlns="http://www.w3.org/2000/svg" xmlns:xlink="http://www.w3.org/1999/xlink" x="0px" y="0px"
	 viewBox="0 0 1280 545.8" style="enable-background:new 0 0 1280 545.8;" xml:space="preserve">
<style type="text/css">
	.st0{fill:#FFFFFF;}
</style>
<g>
	<rect x="89.9" y="32.2" width="389.8" height="479.3"/>
	<path class="st0" d="M480.2,511.9H89.4V31.7h390.8V511.9z M90.4,510.9h388.8V32.7H90.4V510.9z"/>
</g>
<g>
	<path class="st0" d="M133,390.1c-0.2,0-0.4,0.1-0.5,0.2c-0.1,0.1-0.2,0.3-0.2,0.4v13.9c0,0.4-0.1,0.7-0.3,0.9
		c-0.2,0.2-0.6,0.3-1,0.3h-6.2c-0.4,0-0.7-0.1-0.8-0.2s-0.2-0.4-0.2-0.8v-34.7c0-0.6,0.3-0.9,0.8-0.9h7.1c0.5,0,0.8,0.3,0.8,0.9
		v12.7c0,0.6,0.2,0.8,0.7,0.8h11.4c0.5,0,0.8-0.3,0.8-0.8V370c0-0.6,0.2-0.9,0.7-0.9h7.1c0.6,0,0.8,0.3,0.8,0.9v34.7
		c0,0.7-0.4,1-1.1,1h-6.3c-0.5,0-0.8-0.1-1-0.2c-0.2-0.2-0.3-0.5-0.3-0.9v-13.9c0-0.2-0.1-0.4-0.2-0.5c-0.1-0.1-0.3-0.2-0.5-0.2H133
		z"/>
	<path class="st0" d="M192.2,369.6c0,0.1,0,0.3-0.1,0.5l-11.6,19c-0.2,0.3-0.3,0.6-0.3,0.9c0,0.3,0,0.9,0,1.8v12.9
		c0,0.8-0.5,1.2-1.4,1.2h-6.2c-0.4,0-0.7-0.1-0.8-0.2s-0.2-0.4-0.2-0.8v-13.3c0-0.4,0-0.7-0.1-0.9c-0.1-0.2-0.2-0.5-0.5-0.9
		l-11.7-19.4c-0.1-0.3-0.2-0.4-0.2-0.5c0-0.2,0.1-0.3,0.2-0.4c0.2-0.1,0.4-0.2,0.7-0.2h7.4c0.4,0,0.7,0.1,0.9,0.2
		c0.2,0.1,0.4,0.4,0.5,0.7l7.3,12.9c0.2,0.4,0.4,0.5,0.5,0.5c0.2,0,0.3-0.1,0.4-0.4l7.2-13c0.2-0.4,0.4-0.6,0.6-0.7
		c0.2-0.1,0.5-0.2,0.9-0.2h5.9C192,369.1,192.2,369.3,192.2,369.6z"/>
	<path class="st0" d="M200,404c-2.5-1.5-4.4-3.7-5.8-6.5c-1.4-2.8-2-6.1-2-9.8c0-3.8,0.7-7.2,2.1-10c1.4-2.9,3.4-5.1,6-6.6
		c2.6-1.5,5.5-2.3,8.9-2.3c2.6,0,4.9,0.5,7,1.5c2.1,1,3.9,2.3,5.2,3.9c1.3,1.6,2.2,3.3,2.5,5.1c0.1,0.2,0.1,0.4,0.1,0.7
		c0,0.4-0.2,0.6-0.6,0.6l-6.5,1c-0.3,0-0.4-0.1-0.5-0.2c-0.1-0.1-0.2-0.3-0.2-0.6c-0.3-1.7-1.1-3.1-2.3-4.3
		c-1.2-1.1-2.8-1.7-4.7-1.7c-2.5,0-4.5,1-5.8,3c-1.3,2-2,5.2-2,9.6c0,4.6,0.7,7.9,2.1,9.9c1.4,2,3.4,3,6,3c2,0,3.6-0.5,4.7-1.6
		c1.2-1.1,2-2.4,2.3-4l0.1-1.4c0-0.1,0-0.2,0-0.3c0-0.3-0.2-0.4-0.5-0.4h-6c-0.3,0-0.5-0.1-0.6-0.2c-0.1-0.1-0.2-0.3-0.2-0.6v-3.7
		c0-0.5,0.3-0.7,0.8-0.7l13.2,0c0.5,0,0.8,0.1,1.1,0.3c0.2,0.2,0.4,0.5,0.4,0.9v16.7c0,0.2-0.1,0.4-0.2,0.5s-0.3,0.2-0.5,0.2h-1.6
		c-0.6,0-1-0.3-1.3-0.8l-1.4-3.6c-0.1-0.2-0.3-0.2-0.5,0c-1.2,1.4-2.5,2.6-4.1,3.5c-1.6,0.9-3.7,1.3-6.3,1.3
		C205.4,406.3,202.5,405.5,200,404z"/>
	<path class="st0" d="M238.6,369.1c0.5,0,0.8,0.3,0.8,0.9v34.6c0,0.4-0.1,0.7-0.3,0.9c-0.2,0.2-0.5,0.3-1,0.3h-6.2
		c-0.4,0-0.7-0.1-0.8-0.2s-0.2-0.4-0.2-0.8v-34.7c0-0.6,0.3-0.9,0.8-0.9H238.6z"/>
	<path class="st0" d="M247.1,369.1H272c0.5,0,0.7,0.3,0.7,0.8l0,4.4c0,0.7-0.3,1-1,1h-15.8c-0.6,0-0.9,0.3-0.9,0.8v7.2
		c0,0.6,0.2,0.8,0.7,0.8h10.5c0.6,0,0.8,0.3,0.8,0.8v4.7c0,0.5-0.3,0.7-0.8,0.7h-10.6c-0.5,0-0.7,0.2-0.7,0.6v7.8
		c0,0.2,0,0.4,0.1,0.5c0.1,0.1,0.2,0.1,0.4,0.1h16.9c0.6,0,0.9,0.2,0.9,0.7v4.7c0,0.6-0.3,0.9-1,0.9h-24.9c-0.4,0-0.7-0.1-0.8-0.2
		s-0.2-0.4-0.2-0.8v-34.7C246.3,369.4,246.5,369.1,247.1,369.1z"/>
	<path class="st0" d="M308.6,369.1c0.4,0,0.6,0.2,0.6,0.7V405c0,0.2-0.1,0.4-0.3,0.6c-0.2,0.1-0.4,0.2-0.7,0.2h-5
		c-0.3,0-0.5,0-0.7-0.1c-0.2-0.1-0.3-0.2-0.5-0.5l-15.8-22.1c-0.1-0.2-0.3-0.2-0.4-0.2c-0.1,0-0.2,0.1-0.2,0.3v21.8v0.1
		c0,0.3-0.1,0.5-0.2,0.6c-0.1,0.1-0.4,0.2-0.8,0.2h-5.1c-0.7,0-1-0.3-1-0.8v-34.9c0-0.6,0.3-0.9,0.9-0.9h6c0.4,0,0.7,0,0.8,0.1
		c0.2,0.1,0.4,0.3,0.6,0.6l14.5,20.7c0.2,0.3,0.4,0.4,0.5,0.4c0.2,0,0.2-0.2,0.2-0.5V370c0-0.6,0.3-0.9,0.9-0.9H308.6z"/>
	<path class="st0" d="M316.9,369.1h24.9c0.5,0,0.7,0.3,0.7,0.8l0,4.4c0,0.7-0.3,1-1,1h-15.8c-0.6,0-0.9,0.3-0.9,0.8v7.2
		c0,0.6,0.2,0.8,0.7,0.8H336c0.6,0,0.8,0.3,0.8,0.8v4.7c0,0.5-0.3,0.7-0.8,0.7h-10.6c-0.5,0-0.7,0.2-0.7,0.6v7.8
		c0,0.2,0,0.4,0.1,0.5c0.1,0.1,0.2,0.1,0.4,0.1h16.9c0.6,0,0.9,0.2,0.9,0.7v4.7c0,0.6-0.3,0.9-1,0.9h-24.9c-0.4,0-0.7-0.1-0.8-0.2
		s-0.2-0.4-0.2-0.8v-34.7C316.1,369.4,316.4,369.1,316.9,369.1z"/>
	<path class="st0" d="M124.5,433.2H149c0.5,0,0.7,0.3,0.7,0.8l0,4.4c0,0.7-0.3,1-1,1h-15.4c-0.3,0-0.6,0.1-0.7,0.2s-0.2,0.3-0.2,0.6
		v7.7c0,0.5,0.2,0.8,0.7,0.8h10.7c0.5,0,0.8,0.3,0.8,0.8v4.7c0,0.5-0.2,0.7-0.7,0.7h-10.8c-0.5,0-0.7,0.2-0.7,0.6v13.1
		c0,0.4-0.1,0.7-0.3,0.9c-0.2,0.2-0.5,0.2-1,0.2h-6.3c-0.4,0-0.7-0.1-0.8-0.2s-0.2-0.4-0.2-0.8v-34.7
		C123.7,433.5,124,433.2,124.5,433.2z"/>
	<path class="st0" d="M148,469c0-0.3,0-0.5,0.1-0.6l12.3-34.3c0.1-0.4,0.3-0.6,0.5-0.8c0.2-0.1,0.5-0.2,0.8-0.2h7.4
		c0.4,0,0.7,0.1,0.9,0.3s0.4,0.5,0.5,0.8l12.2,34.3c0.1,0.2,0.1,0.3,0.1,0.4c0,0.3-0.1,0.5-0.2,0.6c-0.1,0.2-0.3,0.2-0.5,0.2h-7.3
		c-0.5,0-0.8-0.2-0.9-0.7l-2.6-7.2c-0.1-0.2-0.1-0.3-0.2-0.4c-0.1-0.1-0.2-0.1-0.4-0.1h-12.1c-0.3,0-0.5,0.2-0.6,0.5l-2.6,7.3
		c-0.2,0.4-0.5,0.6-1,0.6h-5.7C148.2,469.8,148,469.6,148,469z M168.8,454.8c0.3,0,0.5-0.1,0.5-0.4c0-0.2,0-0.3,0-0.4l-4.2-11.6
		c-0.1-0.2-0.2-0.3-0.3-0.3c-0.1,0-0.2,0.1-0.3,0.3l-4.2,11.5c-0.1,0.2-0.1,0.3-0.1,0.4c0,0.3,0.2,0.4,0.5,0.4H168.8z"/>
	<path class="st0" d="M207.9,434.1c2.1,1,3.8,2.3,5.2,3.9c1.4,1.6,2.2,3.5,2.6,5.5c0.1,0.2,0.1,0.5,0.1,0.8c0,0.2,0,0.3-0.1,0.4
		c-0.1,0.1-0.2,0.1-0.4,0.1l-6.7,0.4c-0.3,0-0.5,0-0.6-0.1c-0.1-0.1-0.2-0.3-0.2-0.6c-0.4-1.8-1.1-3.2-2.2-4.3
		c-1.1-1.1-2.5-1.6-4.4-1.6c-5.3,0-7.9,4.2-7.9,12.7c0,4.4,0.7,7.6,2,9.6c1.3,2,3.3,3,6,3c2,0,3.7-0.5,5-1.5s2.5-2.6,3.3-4.8
		c0.1-0.2,0.3-0.3,0.6-0.3c0.2,0,0.3,0,0.4,0l4.8,1c0.5,0.2,0.6,0.6,0.5,1.2c-0.3,1.4-1.1,3-2.3,4.6s-2.9,3.1-5.1,4.3
		c-2.2,1.2-4.8,1.8-7.8,1.8c-3.4,0-6.4-0.8-8.9-2.4c-2.5-1.6-4.5-3.8-5.8-6.7c-1.4-2.9-2-6.2-2-10c0-3.8,0.7-7,2-9.8
		c1.4-2.8,3.3-5,5.8-6.5c2.5-1.5,5.5-2.2,8.9-2.2C203.5,432.7,205.8,433.2,207.9,434.1z"/>
	<path class="st0" d="M219.6,434.1c0-0.3,0.1-0.5,0.3-0.6c0.2-0.2,0.4-0.2,0.7-0.2h28.4c0.7,0,1,0.3,1,0.9v4.6
		c0,0.5-0.3,0.7-0.9,0.7h-9.2c-0.4,0-0.5,0.2-0.5,0.5v29c0,0.6-0.3,0.9-0.8,0.9h-7.1c-0.5,0-0.7-0.3-0.7-0.8v-29
		c0-0.2,0-0.4-0.1-0.5c-0.1-0.1-0.2-0.1-0.4-0.1h-9.5c-0.6,0-0.9-0.2-0.9-0.7V434.1z"/>
	<path class="st0" d="M259.5,468.1c-2.6-1.5-4.5-3.6-5.9-6.5c-1.4-2.8-2.1-6.1-2.1-10c0-3.9,0.7-7.3,2.1-10.1c1.4-2.8,3.4-5,5.9-6.6
		c2.6-1.5,5.5-2.3,9-2.3c3.4,0,6.4,0.8,8.9,2.3c2.5,1.5,4.5,3.7,5.9,6.6c1.4,2.9,2.1,6.2,2.1,10.1c0,3.8-0.7,7.1-2.1,10
		c-1.4,2.8-3.3,5-5.9,6.5c-2.5,1.5-5.5,2.3-8.9,2.3C265.1,470.3,262,469.6,259.5,468.1z M274.5,461.3c1.2-2,1.9-5.2,1.9-9.6
		c0-4.5-0.6-7.8-1.9-9.9c-1.3-2.1-3.2-3.1-5.9-3.1c-2.7,0-4.7,1-6,3.1c-1.3,2.1-1.9,5.4-1.9,9.9c0,4.4,0.6,7.6,1.9,9.6
		c1.3,2,3.3,3,6,3C271.2,464.3,273.2,463.3,274.5,461.3z"/>
	<path class="st0" d="M320.9,469c0,0.3-0.1,0.5-0.2,0.6c-0.2,0.2-0.4,0.2-0.6,0.2h-7.3c-0.6,0-0.9-0.3-1.1-0.9l-5.3-13.8
		c-0.1-0.3-0.2-0.4-0.4-0.5c-0.2-0.1-0.5-0.1-0.9-0.1h-4.7c-0.2,0-0.3,0.1-0.4,0.2c-0.1,0.1-0.1,0.2-0.1,0.4v13.7
		c0,0.4-0.1,0.7-0.3,0.9c-0.2,0.2-0.6,0.3-1,0.3h-6.3c-0.4,0-0.7-0.1-0.8-0.2s-0.2-0.4-0.2-0.7v-34.8c0-0.6,0.3-0.9,0.8-0.9h15.4
		c4.4,0,7.9,0.9,10.3,2.6c2.4,1.7,3.7,4.2,3.7,7.5c0,2.4-0.6,4.5-1.9,6.2c-1.3,1.7-2.9,2.9-4.8,3.6c-0.3,0.1-0.3,0.3-0.2,0.7
		l6.5,14.8C320.9,468.7,320.9,468.9,320.9,469z M310.8,447.4c1-0.8,1.5-2,1.5-3.5c0-1.6-0.5-2.8-1.5-3.6c-1-0.8-2.4-1.3-4.1-1.3
		h-6.1c-0.4,0-0.6,0.1-0.7,0.2c-0.1,0.1-0.2,0.3-0.2,0.6v8c0,0.3,0,0.5,0.1,0.6c0.1,0.1,0.3,0.2,0.5,0.2h6.1
		C308.4,448.6,309.8,448.2,310.8,447.4z"/>
	<path class="st0" d="M344.9,439.6c-1.1-0.5-2.5-0.8-4.3-0.8c-2,0-3.5,0.4-4.6,1.1s-1.6,1.7-1.6,2.9c0,1.7,1.3,3,4,3.8l7.8,2.2
		c2.9,0.8,5.1,2.1,6.5,3.9s2.2,3.9,2.2,6.4c0,2.3-0.6,4.3-1.8,6s-2.9,3-5.1,3.9s-4.8,1.4-7.8,1.4c-3.4,0-6.4-0.6-9.1-1.7
		s-4.7-2.7-5.9-4.7c-0.1-0.2-0.2-0.4-0.2-0.6c0-0.3,0.2-0.5,0.5-0.8l3.8-2.6c0.3-0.2,0.6-0.3,0.9-0.3c0.3,0,0.5,0.1,0.7,0.4
		c1.2,1.6,2.5,2.7,3.7,3.4c1.3,0.7,2.9,1,5,1c2.2,0,3.9-0.3,5.2-1c1.3-0.7,1.9-1.7,1.9-3.1c0-0.9-0.3-1.6-0.9-2.3
		c-0.6-0.6-1.7-1.2-3.2-1.6l-7.5-2.1c-2.8-0.8-5-2.1-6.6-4c-1.5-1.9-2.3-4-2.3-6.4c0-2.1,0.6-4,1.8-5.7c1.2-1.7,2.8-3,5-4
		c2.1-1,4.6-1.5,7.4-1.5c2.8,0,5.3,0.5,7.6,1.4c2.3,0.9,4.1,2.2,5.3,3.8c0.2,0.3,0.3,0.5,0.3,0.7c0,0.2-0.1,0.4-0.3,0.5l-4.2,3.1
		c-0.2,0.1-0.3,0.2-0.4,0.2c-0.2,0-0.4-0.2-0.8-0.5C346.9,440.9,346,440.1,344.9,439.6z"/>
</g>
<g>
	<rect x="803.5" y="46.3" width="389.8" height="479.3"/>
	<path class="st0" d="M1193.8,526.1H803V45.8h390.8V526.1z M804,525.1h388.8V46.8H804V525.1z"/>
</g>
<g>
	<path class="st0" d="M833.6,488.3c-0.2-0.2-0.3-0.5-0.3-0.8v-34.6c0-0.6,0.3-0.9,0.8-0.9h10.2c0.4,0,0.6,0,0.8,0.1
		c0.2,0.1,0.3,0.3,0.4,0.6l7.5,20.7c0.1,0.3,0.2,0.4,0.3,0.4s0.2-0.1,0.3-0.4l7.1-20.3c0.2-0.8,0.6-1.1,1.1-1.1h10.6
		c0.5,0,0.7,0.3,0.7,0.9v34.6c0,0.4-0.1,0.7-0.3,0.9c-0.2,0.2-0.5,0.3-0.9,0.3h-6.4c-0.4,0-0.7-0.1-0.8-0.2s-0.2-0.4-0.2-0.8V463
		c0-0.2,0-0.3-0.1-0.3c-0.1,0-0.2,0.1-0.3,0.4l-8.7,24.8c-0.2,0.5-0.5,0.8-1,0.8h-4.1c-0.6,0-1-0.3-1.1-0.8l-8.6-24.4
		c-0.1-0.3-0.2-0.4-0.3-0.4c-0.1,0-0.2,0.1-0.2,0.4v24.3c0,0.4-0.1,0.6-0.2,0.7s-0.4,0.2-0.7,0.2h-5
		C834,488.6,833.8,488.5,833.6,488.3z"/>
	<path class="st0" d="M886.9,486.8c-2.6-1.5-4.5-3.6-5.9-6.5c-1.4-2.8-2.1-6.1-2.1-10c0-3.9,0.7-7.3,2.1-10.1c1.4-2.8,3.4-5,5.9-6.6
		c2.6-1.5,5.5-2.3,9-2.3c3.4,0,6.4,0.8,8.9,2.3c2.5,1.5,4.5,3.7,5.9,6.6c1.4,2.9,2.1,6.2,2.1,10.1c0,3.8-0.7,7.1-2.1,10
		c-1.4,2.8-3.3,5-5.9,6.5c-2.5,1.5-5.5,2.3-8.9,2.3C892.5,489.1,889.5,488.3,886.9,486.8z M901.9,480c1.2-2,1.9-5.2,1.9-9.6
		c0-4.5-0.6-7.8-1.9-9.9c-1.3-2.1-3.2-3.1-5.9-3.1c-2.7,0-4.7,1-6,3.1c-1.3,2.1-1.9,5.4-1.9,9.9c0,4.4,0.6,7.6,1.9,9.6
		c1.3,2,3.3,3,6,3C898.7,483,900.7,482,901.9,480z"/>
	<path class="st0" d="M914.4,452.8c0-0.3,0.1-0.5,0.3-0.6c0.2-0.2,0.4-0.2,0.7-0.2h28.4c0.7,0,1,0.3,1,0.9v4.6
		c0,0.5-0.3,0.7-0.9,0.7h-9.2c-0.4,0-0.5,0.2-0.5,0.5v29c0,0.6-0.3,0.9-0.8,0.9h-7.1c-0.5,0-0.7-0.3-0.7-0.8v-29
		c0-0.2,0-0.4-0.1-0.5c-0.1-0.1-0.2-0.1-0.4-0.1h-9.5c-0.6,0-0.9-0.2-0.9-0.7V452.8z"/>
	<path class="st0" d="M957.8,451.9c0.5,0,0.8,0.3,0.8,0.9v34.6c0,0.4-0.1,0.7-0.3,0.9c-0.2,0.2-0.5,0.3-1,0.3H951
		c-0.4,0-0.7-0.1-0.8-0.2s-0.2-0.4-0.2-0.8v-34.7c0-0.6,0.3-0.9,0.8-0.9H957.8z"/>
	<path class="st0" d="M996.6,452.3c0.1,0.2,0.2,0.5,0,0.8l-11.9,34.5c-0.2,0.7-0.7,1-1.5,1H977c-0.8,0-1.3-0.3-1.6-1l-11.8-34.5
		l-0.1-0.4c0-0.2,0.1-0.4,0.2-0.6c0.2-0.1,0.4-0.2,0.6-0.2h7.1c0.5,0,0.9,0.3,1,0.8l8.1,25c0,0.2,0.1,0.3,0.2,0.3s0.2-0.1,0.3-0.4
		l7.9-25c0.2-0.6,0.5-0.8,1.1-0.8h5.6C996.2,451.9,996.4,452,996.6,452.3z"/>
	<path class="st0" d="M995,487.7c0-0.3,0-0.5,0.1-0.6l12.3-34.3c0.1-0.4,0.3-0.6,0.5-0.8c0.2-0.1,0.5-0.2,0.8-0.2h7.4
		c0.4,0,0.7,0.1,0.9,0.3s0.4,0.5,0.5,0.8l12.2,34.3c0.1,0.2,0.1,0.3,0.1,0.4c0,0.3-0.1,0.5-0.2,0.6c-0.1,0.2-0.3,0.2-0.5,0.2h-7.3
		c-0.5,0-0.8-0.2-0.9-0.7l-2.6-7.2c-0.1-0.2-0.1-0.3-0.2-0.4c-0.1-0.1-0.2-0.1-0.4-0.1h-12.1c-0.3,0-0.5,0.2-0.6,0.5l-2.6,7.3
		c-0.2,0.4-0.5,0.6-1,0.6h-5.7C995.3,488.6,995,488.3,995,487.7z M1015.8,473.6c0.3,0,0.5-0.1,0.5-0.4c0-0.2,0-0.3,0-0.4l-4.2-11.6
		c-0.1-0.2-0.2-0.3-0.3-0.3c-0.1,0-0.2,0.1-0.3,0.3l-4.2,11.5c-0.1,0.2-0.1,0.3-0.1,0.4c0,0.3,0.2,0.4,0.5,0.4H1015.8z"/>
	<path class="st0" d="M1027.4,452.8c0-0.3,0.1-0.5,0.3-0.6c0.2-0.2,0.4-0.2,0.7-0.2h28.4c0.7,0,1,0.3,1,0.9v4.6
		c0,0.5-0.3,0.7-0.9,0.7h-9.2c-0.4,0-0.5,0.2-0.5,0.5v29c0,0.6-0.3,0.9-0.8,0.9h-7.1c-0.5,0-0.7-0.3-0.7-0.8v-29
		c0-0.2,0-0.4-0.1-0.5c-0.1-0.1-0.2-0.1-0.4-0.1h-9.5c-0.6,0-0.9-0.2-0.9-0.7V452.8z"/>
	<path class="st0" d="M1067.4,486.8c-2.6-1.5-4.5-3.6-5.9-6.5c-1.4-2.8-2.1-6.1-2.1-10c0-3.9,0.7-7.3,2.1-10.1
		c1.4-2.8,3.4-5,5.9-6.6c2.6-1.5,5.5-2.3,9-2.3c3.4,0,6.4,0.8,8.9,2.3c2.5,1.5,4.5,3.7,5.9,6.6c1.4,2.9,2.1,6.2,2.1,10.1
		c0,3.8-0.7,7.1-2.1,10c-1.4,2.8-3.3,5-5.9,6.5c-2.5,1.5-5.5,2.3-8.9,2.3C1072.9,489.1,1069.9,488.3,1067.4,486.8z M1082.3,480
		c1.2-2,1.9-5.2,1.9-9.6c0-4.5-0.6-7.8-1.9-9.9c-1.3-2.1-3.2-3.1-5.9-3.1c-2.7,0-4.7,1-6,3.1c-1.3,2.1-1.9,5.4-1.9,9.9
		c0,4.4,0.6,7.6,1.9,9.6c1.3,2,3.3,3,6,3C1079.1,483,1081.1,482,1082.3,480z"/>
	<path class="st0" d="M1128.8,487.7c0,0.3-0.1,0.5-0.2,0.6c-0.2,0.2-0.4,0.2-0.6,0.2h-7.3c-0.6,0-0.9-0.3-1.1-0.9l-5.3-13.8
		c-0.1-0.3-0.2-0.4-0.4-0.5c-0.2-0.1-0.5-0.1-0.9-0.1h-4.7c-0.2,0-0.3,0.1-0.4,0.2c-0.1,0.1-0.1,0.2-0.1,0.4v13.7
		c0,0.4-0.1,0.7-0.3,0.9c-0.2,0.2-0.6,0.3-1,0.3h-6.3c-0.4,0-0.7-0.1-0.8-0.2s-0.2-0.4-0.2-0.7v-34.8c0-0.6,0.3-0.9,0.8-0.9h15.4
		c4.4,0,7.9,0.9,10.3,2.6c2.4,1.7,3.7,4.2,3.7,7.5c0,2.4-0.6,4.5-1.9,6.2c-1.3,1.7-2.9,2.9-4.8,3.6c-0.3,0.1-0.3,0.3-0.2,0.7
		l6.5,14.8C1128.8,487.5,1128.8,487.6,1128.8,487.7z M1118.7,466.1c1-0.8,1.5-2,1.5-3.5c0-1.6-0.5-2.8-1.5-3.6
		c-1-0.8-2.4-1.3-4.1-1.3h-6.1c-0.4,0-0.6,0.1-0.7,0.2c-0.1,0.1-0.2,0.3-0.2,0.6v8c0,0.3,0,0.5,0.1,0.6c0.1,0.1,0.3,0.2,0.5,0.2h6.1
		C1116.3,467.3,1117.7,466.9,1118.7,466.1z"/>
	<path class="st0" d="M1152.7,458.3c-1.1-0.5-2.5-0.8-4.3-0.8c-2,0-3.5,0.4-4.6,1.1s-1.6,1.7-1.6,2.9c0,1.7,1.3,3,4,3.8l7.8,2.2
		c2.9,0.8,5.1,2.1,6.5,3.9s2.2,3.9,2.2,6.4c0,2.3-0.6,4.3-1.8,6s-2.9,3-5.1,3.9s-4.8,1.4-7.8,1.4c-3.4,0-6.4-0.6-9.1-1.7
		s-4.7-2.7-5.9-4.7c-0.1-0.2-0.2-0.4-0.2-0.6c0-0.3,0.2-0.5,0.5-0.8l3.8-2.6c0.3-0.2,0.6-0.3,0.9-0.3c0.3,0,0.5,0.1,0.7,0.4
		c1.2,1.6,2.5,2.7,3.7,3.4c1.3,0.7,2.9,1,5,1c2.2,0,3.9-0.3,5.2-1c1.3-0.7,1.9-1.7,1.9-3.1c0-0.9-0.3-1.6-0.9-2.3
		c-0.6-0.6-1.7-1.2-3.2-1.6l-7.5-2.1c-2.8-0.8-5-2.1-6.6-4c-1.5-1.9-2.3-4-2.3-6.4c0-2.1,0.6-4,1.8-5.7c1.2-1.7,2.8-3,5-4
		c2.1-1,4.6-1.5,7.4-1.5c2.8,0,5.3,0.5,7.6,1.4c2.3,0.9,4.1,2.2,5.3,3.8c0.2,0.3,0.3,0.5,0.3,0.7c0,0.2-0.1,0.4-0.3,0.5l-4.2,3.1
		c-0.2,0.1-0.3,0.2-0.4,0.2c-0.2,0-0.4-0.2-0.8-0.5C1154.8,459.6,1153.8,458.9,1152.7,458.3z"/>
</g>
<g>
	<path d="M2.1,368.9c0-0.2,0.1-0.4,0.4-0.4h20.2c0.1,0,0.2,0.1,0.3,0.2c0.1,0.1,0.1,0.2,0.1,0.4v2.9c0,0.2,0,0.3-0.1,0.4
		s-0.1,0.2-0.3,0.3l-12.7,9c-0.1,0.1-0.1,0.1-0.1,0.2s0.1,0.1,0.2,0.1h12.5h0.1c0.2,0,0.3,0,0.3,0.1c0.1,0.1,0.1,0.2,0.1,0.4v2.9
		c0,0.4-0.2,0.6-0.5,0.6h-20c-0.4,0-0.5-0.2-0.5-0.5v-3.4c0-0.2,0-0.4,0.1-0.5s0.2-0.2,0.4-0.3l11.9-8.3c0.2-0.1,0.2-0.2,0.2-0.3
		c0-0.1-0.1-0.1-0.3-0.1H2.6c-0.3,0-0.5-0.2-0.5-0.5V368.9z"/>
	<path d="M22.1,360.7c-0.9,1.5-2.1,2.6-3.7,3.4s-3.5,1.2-5.7,1.2c-2.2,0-4.2-0.4-5.8-1.2s-2.9-1.9-3.8-3.4c-0.9-1.5-1.3-3.2-1.3-5.1
		c0-1.9,0.4-3.6,1.3-5.1s2.1-2.6,3.8-3.4s3.6-1.2,5.8-1.2c2.2,0,4.1,0.4,5.7,1.2c1.6,0.8,2.9,1.9,3.7,3.4s1.3,3.2,1.3,5.1
		C23.4,357.6,23,359.3,22.1,360.7z M18.2,352.2c-1.1-0.7-3-1.1-5.5-1.1c-2.6,0-4.5,0.4-5.7,1.1c-1.2,0.7-1.8,1.9-1.8,3.4
		c0,1.6,0.6,2.7,1.8,3.4c1.2,0.7,3.1,1.1,5.7,1.1c2.5,0,4.4-0.4,5.5-1.1c1.1-0.7,1.7-1.9,1.7-3.5C19.9,354,19.4,352.9,18.2,352.2z"
		/>
	<path d="M2.1,329.9c0.1-3.7,1.1-6.5,2.9-8.4c1.8-1.8,4.3-2.8,7.5-2.8c3.3,0,5.9,1,7.8,2.9c1.9,1.9,2.8,4.7,2.8,8.4v6.2
		c0,0.2-0.1,0.4-0.2,0.5c-0.1,0.1-0.3,0.2-0.5,0.2H2.7c-0.2,0-0.4,0-0.4-0.1s-0.1-0.3-0.1-0.5C2.1,333.1,2.1,331,2.1,329.9z
		 M6,331.8h13.2c0.2,0,0.3,0,0.3-0.1s0.1-0.1,0.1-0.3v-0.5c0-2.4-0.6-4.1-1.7-5.3c-1.1-1.1-2.9-1.7-5.5-1.7c-2.4,0-4.1,0.5-5.1,1.4
		c-1,1-1.6,2.5-1.7,4.5l-0.1,1.7C5.6,331.8,5.7,331.8,6,331.8z"/>
	<path d="M2.1,311c0-0.3,0.2-0.5,0.5-0.5h19.8c0.2,0,0.4,0.1,0.5,0.2c0.1,0.1,0.2,0.3,0.2,0.6v3.6c0,0.2,0,0.4-0.1,0.5
		s-0.2,0.1-0.5,0.1H2.6c-0.4,0-0.5-0.2-0.5-0.5V311z"/>
	<path d="M5.8,296.2c-0.3,0.6-0.5,1.5-0.5,2.5c0,1.2,0.2,2,0.6,2.6c0.4,0.6,1,0.9,1.6,0.9c1,0,1.7-0.8,2.2-2.3l1.3-4.5
		c0.5-1.7,1.2-2.9,2.2-3.8c1-0.8,2.2-1.2,3.7-1.2c1.3,0,2.5,0.3,3.4,1c1,0.7,1.7,1.7,2.3,2.9c0.5,1.3,0.8,2.8,0.8,4.5
		c0,1.9-0.3,3.7-1,5.2c-0.7,1.5-1.5,2.7-2.7,3.4c-0.1,0.1-0.3,0.1-0.4,0.1c-0.2,0-0.3-0.1-0.5-0.3l-1.5-2.2
		c-0.1-0.2-0.2-0.4-0.2-0.5c0-0.2,0.1-0.3,0.2-0.4c0.9-0.7,1.5-1.4,1.9-2.1c0.4-0.7,0.6-1.7,0.6-2.9c0-1.3-0.2-2.3-0.6-3
		c-0.4-0.7-1-1.1-1.8-1.1c-0.5,0-0.9,0.2-1.3,0.5c-0.4,0.4-0.7,1-0.9,1.8l-1.2,4.3c-0.5,1.6-1.2,2.9-2.3,3.8
		c-1.1,0.9-2.3,1.3-3.6,1.3c-1.2,0-2.3-0.3-3.3-1s-1.7-1.6-2.3-2.8c-0.6-1.2-0.8-2.6-0.8-4.3c0-1.6,0.3-3,0.8-4.4
		c0.5-1.3,1.3-2.3,2.2-3c0.2-0.1,0.3-0.2,0.4-0.2s0.2,0.1,0.3,0.2l1.8,2.4c0.1,0.1,0.1,0.2,0.1,0.3c0,0.1-0.1,0.2-0.3,0.5
		C6.5,295,6.1,295.6,5.8,296.2z"/>
	<path d="M5.8,277c-0.3,0.6-0.5,1.5-0.5,2.5c0,1.2,0.2,2,0.6,2.6c0.4,0.6,1,0.9,1.6,0.9c1,0,1.7-0.8,2.2-2.3l1.3-4.5
		c0.5-1.7,1.2-2.9,2.2-3.8c1-0.8,2.2-1.2,3.7-1.2c1.3,0,2.5,0.3,3.4,1c1,0.7,1.7,1.7,2.3,2.9c0.5,1.3,0.8,2.8,0.8,4.5
		c0,1.9-0.3,3.7-1,5.2c-0.7,1.6-1.5,2.7-2.7,3.4c-0.1,0.1-0.3,0.1-0.4,0.1c-0.2,0-0.3-0.1-0.5-0.3l-1.5-2.2
		c-0.1-0.2-0.2-0.4-0.2-0.5c0-0.2,0.1-0.3,0.2-0.4c0.9-0.7,1.5-1.4,1.9-2.1c0.4-0.7,0.6-1.7,0.6-2.9c0-1.3-0.2-2.3-0.6-3
		c-0.4-0.7-1-1.1-1.8-1.1c-0.5,0-0.9,0.2-1.3,0.5c-0.4,0.4-0.7,1-0.9,1.8l-1.2,4.3c-0.5,1.6-1.2,2.9-2.3,3.8
		c-1.1,0.9-2.3,1.3-3.6,1.3c-1.2,0-2.3-0.3-3.3-1c-1-0.7-1.7-1.6-2.3-2.8c-0.6-1.2-0.8-2.6-0.8-4.3c0-1.6,0.3-3,0.8-4.4
		c0.5-1.3,1.3-2.3,2.2-3c0.2-0.1,0.3-0.2,0.4-0.2s0.2,0.1,0.3,0.2l1.8,2.4c0.1,0.1,0.1,0.2,0.1,0.3c0,0.1-0.1,0.2-0.3,0.5
		C6.5,275.8,6.1,276.4,5.8,277z"/>
	<path d="M22.6,269.2c-0.2,0-0.3,0-0.3-0.1l-19.6-7.1c-0.2-0.1-0.4-0.2-0.4-0.3c-0.1-0.1-0.1-0.3-0.1-0.5v-4.3
		c0-0.2,0.1-0.4,0.2-0.5c0.1-0.2,0.3-0.3,0.5-0.3l19.6-7c0.1,0,0.2-0.1,0.3-0.1c0.2,0,0.3,0,0.4,0.1c0.1,0.1,0.1,0.2,0.1,0.3v4.2
		c0,0.3-0.1,0.5-0.4,0.5l-4.1,1.5c-0.1,0-0.2,0.1-0.2,0.1c0,0-0.1,0.1-0.1,0.2v6.9c0,0.2,0.1,0.3,0.3,0.4l4.2,1.5
		c0.2,0.1,0.4,0.3,0.4,0.6v3.3C23.1,269.1,23,269.2,22.6,269.2z M14.5,257.3c0-0.2-0.1-0.3-0.2-0.3c-0.1,0-0.2,0-0.3,0l-6.6,2.4
		c-0.1,0.1-0.2,0.1-0.2,0.2c0,0.1,0.1,0.1,0.2,0.2l6.6,2.4c0.1,0,0.2,0.1,0.3,0.1c0.2,0,0.2-0.1,0.2-0.3V257.3z"/>
	<path d="M2.6,250.6c-0.2,0-0.3-0.1-0.4-0.2c-0.1-0.1-0.1-0.2-0.1-0.4v-16.3c0-0.4,0.2-0.6,0.5-0.6h2.6c0.3,0,0.4,0.2,0.4,0.5v5.3
		c0,0.2,0.1,0.3,0.3,0.3h16.6c0.4,0,0.5,0.2,0.5,0.5v4.1c0,0.3-0.2,0.4-0.5,0.4H6c-0.1,0-0.2,0-0.3,0.1s-0.1,0.1-0.1,0.2v5.5
		c0,0.4-0.1,0.5-0.4,0.5H2.6z"/>
	<path d="M2.1,225.8c0-0.3,0.2-0.5,0.5-0.5h19.8c0.2,0,0.4,0.1,0.5,0.2c0.1,0.1,0.2,0.3,0.2,0.6v3.6c0,0.2,0,0.4-0.1,0.5
		c-0.1,0.1-0.2,0.1-0.5,0.1H2.6c-0.4,0-0.5-0.2-0.5-0.5V225.8z"/>
	<path d="M5.8,211c-0.3,0.6-0.5,1.5-0.5,2.5c0,1.2,0.2,2,0.6,2.6c0.4,0.6,1,0.9,1.6,0.9c1,0,1.7-0.8,2.2-2.3l1.3-4.5
		c0.5-1.7,1.2-2.9,2.2-3.8c1-0.8,2.2-1.2,3.7-1.2c1.3,0,2.5,0.3,3.4,1c1,0.7,1.7,1.7,2.3,2.9c0.5,1.3,0.8,2.8,0.8,4.5
		c0,1.9-0.3,3.7-1,5.2c-0.7,1.6-1.5,2.7-2.7,3.4c-0.1,0.1-0.3,0.1-0.4,0.1c-0.2,0-0.3-0.1-0.5-0.3l-1.5-2.2
		c-0.1-0.2-0.2-0.4-0.2-0.5c0-0.2,0.1-0.3,0.2-0.4c0.9-0.7,1.5-1.4,1.9-2.1c0.4-0.7,0.6-1.7,0.6-2.9c0-1.3-0.2-2.3-0.6-3
		c-0.4-0.7-1-1.1-1.8-1.1c-0.5,0-0.9,0.2-1.3,0.5c-0.4,0.4-0.7,1-0.9,1.8l-1.2,4.3c-0.5,1.6-1.2,2.9-2.3,3.8
		c-1.1,0.9-2.3,1.3-3.6,1.3c-1.2,0-2.3-0.3-3.3-1c-1-0.7-1.7-1.6-2.3-2.8c-0.6-1.2-0.8-2.6-0.8-4.3c0-1.6,0.3-3,0.8-4.4
		c0.5-1.3,1.3-2.3,2.2-3c0.2-0.1,0.3-0.2,0.4-0.2s0.2,0.1,0.3,0.2l1.8,2.4c0.1,0.1,0.1,0.2,0.1,0.3c0,0.1-0.1,0.2-0.3,0.5
		C6.5,209.8,6.1,210.3,5.8,211z"/>
	<path d="M2.1,201.7v-14.1c0-0.3,0.2-0.4,0.5-0.4l2.6,0c0.4,0,0.6,0.2,0.6,0.6v8.8c0,0.2,0,0.3,0.1,0.4c0.1,0.1,0.2,0.1,0.3,0.1h4.4
		c0.3,0,0.5-0.1,0.5-0.4v-6.2c0-0.3,0.2-0.5,0.5-0.5h2.7c0.3,0,0.4,0.1,0.4,0.4v6.2c0,0.3,0.1,0.4,0.4,0.4h7.5
		c0.2,0,0.4,0.1,0.5,0.2c0.1,0.1,0.1,0.3,0.1,0.6v3.6c0,0.2,0,0.4-0.1,0.5c-0.1,0.1-0.2,0.1-0.5,0.1H2.6
		C2.3,202.2,2.1,202,2.1,201.7z"/>
	<path d="M22.6,188.2c-0.2,0-0.3,0-0.3-0.1l-19.6-7.1c-0.2-0.1-0.4-0.2-0.4-0.3c-0.1-0.1-0.1-0.3-0.1-0.5v-4.3
		c0-0.2,0.1-0.4,0.2-0.5c0.1-0.2,0.3-0.3,0.5-0.3l19.6-7c0.1,0,0.2-0.1,0.3-0.1c0.2,0,0.3,0,0.4,0.1c0.1,0.1,0.1,0.2,0.1,0.3v4.2
		c0,0.3-0.1,0.5-0.4,0.5l-4.1,1.5c-0.1,0-0.2,0.1-0.2,0.1c0,0-0.1,0.1-0.1,0.2v6.9c0,0.2,0.1,0.3,0.3,0.4l4.2,1.5
		c0.2,0.1,0.4,0.3,0.4,0.6v3.3C23.1,188.1,23,188.2,22.6,188.2z M14.5,176.3c0-0.2-0.1-0.3-0.2-0.3c-0.1,0-0.2,0-0.3,0l-6.6,2.4
		c-0.1,0.1-0.2,0.1-0.2,0.2c0,0.1,0.1,0.1,0.2,0.2l6.6,2.4c0.1,0,0.2,0.1,0.3,0.1c0.2,0,0.2-0.1,0.2-0.3V176.3z"/>
	<path d="M2.6,153.9c0.5-1.2,1.3-2.2,2.2-3c0.9-0.8,2-1.3,3.2-1.5c0.1,0,0.3-0.1,0.5-0.1c0.1,0,0.2,0,0.2,0.1c0,0.1,0.1,0.1,0.1,0.3
		l0.3,3.8c0,0.2,0,0.3-0.1,0.3c-0.1,0-0.2,0.1-0.3,0.1c-1,0.2-1.9,0.6-2.5,1.2s-0.9,1.5-0.9,2.5c0,3,2.4,4.5,7.3,4.5
		c2.5,0,4.3-0.4,5.5-1.1c1.2-0.8,1.7-1.9,1.7-3.5c0-1.1-0.3-2.1-0.9-2.9c-0.6-0.8-1.5-1.4-2.8-1.9c-0.1-0.1-0.2-0.2-0.2-0.4
		c0-0.1,0-0.2,0-0.3l0.6-2.8c0.1-0.3,0.3-0.4,0.7-0.3c0.8,0.2,1.7,0.6,2.6,1.3s1.8,1.7,2.5,2.9s1,2.7,1,4.5c0,1.9-0.5,3.6-1.4,5.1
		c-0.9,1.4-2.2,2.6-3.9,3.3c-1.7,0.8-3.6,1.2-5.7,1.2c-2.2,0-4-0.4-5.6-1.2c-1.6-0.8-2.8-1.9-3.7-3.3s-1.3-3.1-1.3-5.1
		C1.8,156.4,2.1,155.1,2.6,153.9z"/>
	<path d="M2.6,147.2c-0.2,0-0.3-0.1-0.4-0.2c-0.1-0.1-0.1-0.2-0.1-0.4v-16.3c0-0.4,0.2-0.6,0.5-0.6h2.6c0.3,0,0.4,0.2,0.4,0.5v5.3
		c0,0.2,0.1,0.3,0.3,0.3h16.6c0.4,0,0.5,0.2,0.5,0.5v4.1c0,0.3-0.2,0.4-0.5,0.4H6c-0.1,0-0.2,0-0.3,0.1s-0.1,0.1-0.1,0.2v5.5
		c0,0.4-0.1,0.5-0.4,0.5H2.6z"/>
	<path d="M2.1,122.3c0-0.3,0.2-0.5,0.5-0.5h19.8c0.2,0,0.4,0.1,0.5,0.2c0.1,0.1,0.2,0.3,0.2,0.6v3.6c0,0.2,0,0.4-0.1,0.5
		c-0.1,0.1-0.2,0.1-0.5,0.1H2.6c-0.4,0-0.5-0.2-0.5-0.5V122.3z"/>
	<path d="M22.1,114.1c-0.9,1.5-2.1,2.6-3.7,3.4s-3.5,1.2-5.7,1.2c-2.2,0-4.2-0.4-5.8-1.2c-1.6-0.8-2.9-1.9-3.8-3.4
		c-0.9-1.5-1.3-3.2-1.3-5.1c0-1.9,0.4-3.6,1.3-5.1c0.9-1.5,2.1-2.6,3.8-3.4s3.6-1.2,5.8-1.2c2.2,0,4.1,0.4,5.7,1.2
		c1.6,0.8,2.9,1.9,3.7,3.4c0.9,1.5,1.3,3.2,1.3,5.1C23.4,110.9,23,112.6,22.1,114.1z M18.2,105.5c-1.1-0.7-3-1.1-5.5-1.1
		c-2.6,0-4.5,0.4-5.7,1.1c-1.2,0.7-1.8,1.9-1.8,3.4c0,1.6,0.6,2.7,1.8,3.4c1.2,0.7,3.1,1.1,5.7,1.1c2.5,0,4.4-0.4,5.5-1.1
		c1.1-0.7,1.7-1.9,1.7-3.5C19.9,107.3,19.4,106.2,18.2,105.5z"/>
	<path d="M2.1,78.8c0-0.2,0.1-0.4,0.4-0.4h20.2c0.1,0,0.2,0.1,0.3,0.2c0.1,0.1,0.1,0.2,0.1,0.4v2.9c0,0.2,0,0.3-0.1,0.4
		c0,0.1-0.1,0.2-0.3,0.3l-12.7,9c-0.1,0.1-0.1,0.1-0.1,0.2c0,0.1,0.1,0.1,0.2,0.1h12.5h0.1c0.2,0,0.3,0,0.3,0.1
		c0.1,0.1,0.1,0.2,0.1,0.4v2.9c0,0.4-0.2,0.6-0.5,0.6h-20c-0.4,0-0.5-0.2-0.5-0.5V92c0-0.2,0-0.4,0.1-0.5c0-0.1,0.2-0.2,0.4-0.3
		l11.9-8.3c0.2-0.1,0.2-0.2,0.2-0.3c0-0.1-0.1-0.1-0.3-0.1H2.6c-0.3,0-0.5-0.2-0.5-0.5V78.8z"/>
</g>
<g>
	<path class="st0" d="M127.8,69.6c-0.7,0-1.3,0.1-1.8,0.4s-0.7,0.6-0.7,1.1c0,0.3,0.1,0.5,0.3,0.7c0.2,0.2,0.6,0.4,1.3,0.6l3.3,0.8
		c1.5,0.4,2.6,0.9,3.3,1.7c0.7,0.8,1,1.7,1,2.8c0,1.5-0.6,2.7-1.9,3.5c-1.2,0.9-2.9,1.3-4.9,1.3c-1.6,0-3-0.3-4.2-0.9
		c-1.2-0.6-2-1.3-2.5-2.3c-0.1-0.1-0.1-0.3-0.1-0.4c0-0.1,0.1-0.2,0.2-0.3l1.9-1c0.2-0.1,0.3-0.1,0.4-0.1s0.2,0,0.3,0.1
		c0.4,0.6,0.9,1.1,1.5,1.4c0.6,0.4,1.4,0.5,2.4,0.5c0.9,0,1.6-0.1,2.2-0.4c0.6-0.3,0.8-0.7,0.8-1.2c0-0.3-0.1-0.6-0.4-0.9
		c-0.3-0.2-0.8-0.4-1.4-0.6l-2.9-0.6c-2.9-0.6-4.3-2.1-4.3-4.3c0-0.9,0.3-1.8,0.8-2.5c0.5-0.7,1.3-1.3,2.2-1.7
		c1-0.4,2.1-0.6,3.4-0.6c1.4,0,2.6,0.3,3.7,0.8c1.1,0.5,1.8,1.2,2.3,1.9c0.1,0.2,0.2,0.3,0.2,0.4c0,0.1-0.1,0.2-0.2,0.3l-2,1
		c-0.1,0-0.1,0.1-0.2,0.1c-0.2,0-0.3-0.1-0.4-0.2C130.3,70.1,129.2,69.6,127.8,69.6z"/>
	<path class="st0" d="M140.7,82.5c-1.4,0-2.5-0.4-3.4-1.1s-1.2-1.8-1.2-3c0-1.6,0.7-2.9,2.2-3.8c1.5-1,3.5-1.5,6-1.5l1-0.1
		c0.1,0,0.2,0,0.3-0.1c0.1-0.1,0.1-0.2,0.1-0.3v-0.6c0-0.7-0.2-1.3-0.6-1.7c-0.4-0.4-1-0.6-1.8-0.6c-1.3,0-2.3,0.6-2.9,1.7
		c-0.1,0.2-0.2,0.3-0.4,0.3c-0.1,0-0.2,0-0.3,0l-2.8-0.7c-0.2,0-0.3-0.1-0.3-0.3c0-0.1,0-0.3,0.1-0.4c0.5-1.1,1.3-1.9,2.4-2.5
		c1.2-0.5,2.6-0.8,4.3-0.8c2.2,0,3.9,0.4,4.9,1.2c1,0.8,1.5,2,1.5,3.5v10c0,0.2,0,0.4-0.1,0.5c-0.1,0.1-0.2,0.1-0.4,0.1h-2.9
		c-0.2,0-0.3-0.1-0.4-0.2s-0.1-0.3-0.2-0.6l0-0.6c0-0.2-0.1-0.3-0.2-0.3c-0.1,0-0.2,0.1-0.4,0.2C143.9,81.9,142.4,82.5,140.7,82.5z
		 M145.6,75.2c-0.1-0.1-0.2-0.1-0.3-0.1l-0.8,0.1c-1.1,0.1-2.1,0.3-2.9,0.8c-0.8,0.5-1.3,1.1-1.3,1.9c0,0.6,0.2,1,0.6,1.3
		c0.4,0.3,0.9,0.5,1.6,0.5c0.9,0,1.6-0.3,2.2-0.8c0.6-0.5,0.9-1,0.9-1.5v-1.8C145.7,75.4,145.7,75.3,145.6,75.2z"/>
	<path class="st0" d="M157.2,81.6c0,0.2-0.1,0.4-0.2,0.5s-0.3,0.2-0.6,0.2h-3c-0.2,0-0.4,0-0.5-0.1c-0.1-0.1-0.1-0.2-0.1-0.5
		l0.1-19.9c0-0.4,0.2-0.5,0.5-0.5h3.4c0.3,0,0.4,0.2,0.4,0.5V81.6z"/>
	<path class="st0" d="M164.2,82.5c-1.4,0-2.5-0.4-3.4-1.1s-1.2-1.8-1.2-3c0-1.6,0.7-2.9,2.2-3.8c1.5-1,3.5-1.5,6-1.5l1-0.1
		c0.1,0,0.2,0,0.3-0.1c0.1-0.1,0.1-0.2,0.1-0.3v-0.6c0-0.7-0.2-1.3-0.6-1.7c-0.4-0.4-1-0.6-1.8-0.6c-1.3,0-2.3,0.6-2.9,1.7
		c-0.1,0.2-0.2,0.3-0.4,0.3c-0.1,0-0.2,0-0.3,0l-2.8-0.7c-0.2,0-0.3-0.1-0.3-0.3c0-0.1,0-0.3,0.1-0.4c0.5-1.1,1.3-1.9,2.4-2.5
		c1.2-0.5,2.6-0.8,4.3-0.8c2.2,0,3.9,0.4,4.9,1.2c1,0.8,1.5,2,1.5,3.5v10c0,0.2,0,0.4-0.1,0.5c-0.1,0.1-0.2,0.1-0.4,0.1h-2.9
		c-0.2,0-0.3-0.1-0.4-0.2s-0.1-0.3-0.2-0.6l0-0.6c0-0.2-0.1-0.3-0.2-0.3c-0.1,0-0.2,0.1-0.4,0.2C167.4,81.9,165.9,82.5,164.2,82.5z
		 M169.1,75.2c-0.1-0.1-0.2-0.1-0.3-0.1l-0.8,0.1c-1.1,0.1-2.1,0.3-2.9,0.8c-0.8,0.5-1.3,1.1-1.3,1.9c0,0.6,0.2,1,0.6,1.3
		c0.4,0.3,0.9,0.5,1.6,0.5c0.9,0,1.6-0.3,2.2-0.8c0.6-0.5,0.9-1,0.9-1.5v-1.8C169.2,75.4,169.2,75.3,169.1,75.2z"/>
	<path class="st0" d="M176.3,81.7V67.8c0-0.4,0.2-0.5,0.5-0.5h3.3c0.3,0,0.5,0.2,0.5,0.5v1.7c0,0.1,0,0.1,0.1,0.2
		c0,0,0.1,0.1,0.1,0.1c0.1,0,0.1,0,0.2-0.1c0.6-0.8,1.2-1.4,2-1.8c0.8-0.5,1.5-0.7,2.2-0.7c0.7,0,1,0.2,1,0.5v3.3
		c0,0.1,0,0.2-0.1,0.3c-0.1,0.1-0.2,0.1-0.3,0.1c-0.6-0.2-1.3-0.2-2-0.2c-0.5,0-1,0.1-1.4,0.4c-0.5,0.2-0.9,0.5-1.2,0.9
		c-0.3,0.4-0.5,0.8-0.5,1.2v8.3c0,0.4-0.2,0.7-0.7,0.7h-3C176.5,82.2,176.3,82.1,176.3,81.7z"/>
	<path class="st0" d="M188.5,86.8c-0.2-0.1-0.4-0.2-0.4-0.4v-2.2c0-0.3,0.3-0.5,0.8-0.5h1.9c0.6,0,1.1-0.2,1.5-0.6
		c0.4-0.4,0.6-0.9,0.6-1.3c0-0.2,0-0.3-0.1-0.5l-5.4-13.4c0-0.1-0.1-0.2-0.1-0.2c0-0.1,0-0.2,0.1-0.3c0.1-0.1,0.2-0.1,0.4-0.1h3.6
		c0.1,0,0.3,0,0.4,0.1s0.2,0.2,0.2,0.4l3.1,8.4c0.1,0.2,0.1,0.3,0.2,0.3c0.1,0,0.2-0.1,0.3-0.3l3.1-8.4c0.1-0.3,0.3-0.5,0.6-0.5h2.4
		c0.1,0,0.2,0,0.3,0.1s0.1,0.2,0.1,0.3c0,0,0,0.1-0.1,0.2l-5.8,14.4c-0.5,1.3-1.1,2.3-1.7,2.9c-0.6,0.7-1.3,1.1-2,1.4
		s-1.8,0.4-3,0.4C189.2,86.9,188.7,86.9,188.5,86.8z"/>
	<path class="st0" d="M132.9,108.6c1.1,0.8,1.8,1.9,2.2,3c0,0.2,0.1,0.2,0.1,0.3c0,0.2-0.1,0.3-0.4,0.3l-3,0.3h-0.1
		c-0.2,0-0.3-0.1-0.3-0.3c-0.3-0.7-0.7-1.2-1-1.5c-0.3-0.3-0.8-0.5-1.5-0.5c-1,0-1.8,0.4-2.4,1.2c-0.6,0.8-0.9,2.1-0.9,3.7
		c0,1.7,0.3,2.9,0.9,3.7c0.6,0.8,1.5,1.2,2.6,1.2c0.8,0,1.4-0.2,1.9-0.6c0.5-0.4,1-1,1.4-1.8c0.1-0.1,0.1-0.1,0.2-0.2
		c0.1,0,0.2,0,0.3,0l2.1,0.5c0.2,0,0.3,0.1,0.3,0.3l-0.1,0.3c-0.4,1.1-1.1,2.1-2.2,3c-1.1,0.9-2.5,1.3-4.3,1.3c-1.5,0-2.8-0.3-3.9-1
		c-1.1-0.7-2-1.6-2.7-2.7s-1-2.5-1-4c0-1.5,0.3-2.9,1-4.1c0.7-1.2,1.5-2.1,2.7-2.8c1.1-0.7,2.4-1,3.9-1
		C130.4,107.3,131.8,107.8,132.9,108.6z"/>
	<path class="st0" d="M140.4,122c-1.1-0.7-2-1.6-2.7-2.7s-1-2.5-1-4c0-1.5,0.3-2.9,1-4.1c0.7-1.2,1.6-2.1,2.7-2.8
		c1.2-0.7,2.5-1,3.9-1c1.5,0,2.8,0.3,4,1c1.2,0.7,2,1.6,2.7,2.8c0.6,1.2,0.9,2.5,0.9,4.1c0,1.5-0.3,2.8-1,4s-1.5,2.1-2.7,2.7
		c-1.2,0.7-2.5,1-4,1S141.6,122.6,140.4,122z M146.8,118.8c0.5-0.8,0.8-2,0.8-3.7c0-1.6-0.3-2.9-0.8-3.7c-0.5-0.8-1.3-1.3-2.4-1.3
		s-1.8,0.4-2.4,1.3c-0.5,0.8-0.8,2.1-0.8,3.7c0,1.6,0.3,2.8,0.8,3.7c0.5,0.8,1.3,1.2,2.4,1.2S146.2,119.6,146.8,118.8z"/>
	<path class="st0" d="M154.6,122.5c-0.1-0.1-0.1-0.2-0.1-0.4v-13.9c0-0.2,0-0.3,0.1-0.4c0.1-0.1,0.2-0.1,0.3-0.1h3.4
		c0.3,0,0.4,0.2,0.4,0.5v1.4c0,0.2,0,0.2,0.1,0.2c0.1,0,0.1,0,0.2-0.1c0.8-0.7,1.6-1.3,2.3-1.7s1.6-0.6,2.4-0.6c1,0,1.9,0.2,2.6,0.7
		c0.7,0.5,1.2,1.1,1.5,1.9c0,0.1,0.1,0.1,0.1,0.1c0.1,0,0.2,0,0.3-0.1c0.7-0.8,1.5-1.4,2.4-1.9s1.8-0.7,2.6-0.7
		c1.3,0,2.4,0.4,3.2,1.2c0.8,0.8,1.2,1.9,1.2,3.3V122c0,0.5-0.2,0.7-0.7,0.7h-3.1c-0.2,0-0.3,0-0.4-0.1c-0.1-0.1-0.1-0.2-0.1-0.4
		v-9.6c0-0.6-0.2-1.1-0.5-1.5c-0.3-0.4-0.8-0.5-1.4-0.5c-0.5,0-1,0.1-1.5,0.4c-0.5,0.3-0.9,0.6-1.2,1c-0.1,0.1-0.2,0.3-0.2,0.4
		c0,0.1-0.1,0.3-0.1,0.4v9.2c0,0.5-0.2,0.7-0.7,0.7h-3.1c-0.2,0-0.3,0-0.4-0.1c-0.1-0.1-0.1-0.2-0.1-0.4v-9.6c0-0.6-0.2-1.1-0.5-1.5
		c-0.3-0.4-0.8-0.5-1.5-0.5c-0.5,0-1.1,0.1-1.5,0.4c-0.5,0.3-1,0.7-1.5,1.3v9.8c0,0.2-0.1,0.4-0.2,0.5s-0.3,0.2-0.6,0.2h-3
		C154.8,122.7,154.7,122.6,154.6,122.5z"/>
	<path class="st0" d="M184.7,107.8c0.1,0.1,0.1,0.2,0.1,0.4v0.9c0,0.1,0,0.2,0.1,0.2c0.1,0,0.2,0,0.3-0.1c0.6-0.5,1.2-1,1.8-1.3
		s1.4-0.5,2.3-0.5c1.7,0,3.1,0.7,4.2,2s1.6,3.2,1.6,5.7c0,2.6-0.6,4.6-1.7,5.9s-2.6,2-4.4,2c-1.5,0-2.8-0.5-3.8-1.4
		c-0.2-0.2-0.3-0.2-0.4-0.2c-0.1,0-0.1,0.1-0.1,0.4v5.2c0,0.3-0.1,0.5-0.4,0.5h-3.5c-0.1,0-0.2,0-0.3-0.1s-0.1-0.2-0.1-0.4v-18.6
		c0-0.2,0.1-0.4,0.2-0.5c0.1-0.1,0.3-0.1,0.5-0.1h3.1C184.5,107.6,184.6,107.7,184.7,107.8z M186.1,119.8c0.4,0.2,0.9,0.4,1.4,0.4
		c2.2,0,3.2-1.7,3.2-5.2c0-1.7-0.3-3-0.8-3.7c-0.5-0.7-1.3-1.1-2.3-1.1c-0.8,0-1.4,0.2-2,0.7c-0.5,0.5-0.8,1-0.8,1.6v6.4
		C185.3,119.2,185.7,119.6,186.1,119.8z"/>
	<path class="st0" d="M201.6,122.9c-1.4,0-2.5-0.4-3.4-1.1s-1.2-1.8-1.2-3c0-1.6,0.7-2.9,2.2-3.8c1.5-1,3.5-1.5,6-1.5l1-0.1
		c0.1,0,0.2,0,0.3-0.1c0.1-0.1,0.1-0.2,0.1-0.3v-0.6c0-0.7-0.2-1.3-0.6-1.7c-0.4-0.4-1-0.6-1.8-0.6c-1.3,0-2.3,0.6-2.9,1.7
		c-0.1,0.2-0.2,0.3-0.4,0.3c-0.1,0-0.2,0-0.3,0l-2.8-0.7c-0.2,0-0.3-0.1-0.3-0.3c0-0.1,0-0.3,0.1-0.4c0.5-1.1,1.3-1.9,2.4-2.5
		c1.2-0.5,2.6-0.8,4.3-0.8c2.2,0,3.9,0.4,4.9,1.2c1,0.8,1.5,2,1.5,3.5v10c0,0.2,0,0.4-0.1,0.5c-0.1,0.1-0.2,0.1-0.4,0.1h-2.9
		c-0.2,0-0.3-0.1-0.4-0.2s-0.1-0.3-0.2-0.6l0-0.6c0-0.2-0.1-0.3-0.2-0.3c-0.1,0-0.2,0.1-0.4,0.2
		C204.8,122.4,203.3,122.9,201.6,122.9z M206.5,115.6c-0.1-0.1-0.2-0.1-0.3-0.1l-0.8,0.1c-1.1,0.1-2.1,0.3-2.9,0.8
		c-0.8,0.5-1.3,1.1-1.3,1.9c0,0.6,0.2,1,0.6,1.3c0.4,0.3,0.9,0.5,1.6,0.5c0.9,0,1.6-0.3,2.2-0.8c0.6-0.5,0.9-1,0.9-1.5V116
		C206.6,115.8,206.6,115.7,206.5,115.6z"/>
	<path class="st0" d="M213.9,122.5c-0.1-0.1-0.1-0.2-0.1-0.4v-13.9c0-0.4,0.2-0.5,0.5-0.5h3.4c0.3,0,0.4,0.2,0.4,0.5v1.4
		c0,0.2,0,0.2,0.1,0.2c0.1,0,0.1,0,0.2-0.1c0.8-0.7,1.5-1.3,2.3-1.7c0.8-0.4,1.6-0.6,2.5-0.6c1.4,0,2.5,0.4,3.3,1.2
		c0.8,0.8,1.2,1.9,1.2,3.3V122c0,0.5-0.2,0.7-0.7,0.7h-3.1c-0.2,0-0.4,0-0.4-0.1s-0.1-0.2-0.1-0.4v-9.6c0-0.6-0.2-1.1-0.5-1.5
		c-0.3-0.3-0.9-0.5-1.5-0.5c-0.6,0-1.1,0.1-1.6,0.4c-0.5,0.3-1,0.7-1.5,1.3v9.8c0,0.2-0.1,0.4-0.2,0.5s-0.3,0.2-0.6,0.2h-3
		C214.1,122.7,213.9,122.6,213.9,122.5z"/>
	<path class="st0" d="M230.7,127.2c-0.2-0.1-0.4-0.2-0.4-0.4v-2.2c0-0.3,0.3-0.5,0.8-0.5h1.9c0.6,0,1.1-0.2,1.5-0.6
		c0.4-0.4,0.6-0.9,0.6-1.3c0-0.2,0-0.3-0.1-0.5l-5.4-13.4c0-0.1-0.1-0.2-0.1-0.2c0-0.1,0-0.2,0.1-0.3c0.1-0.1,0.2-0.1,0.4-0.1h3.6
		c0.1,0,0.3,0,0.4,0.1s0.2,0.2,0.2,0.4l3.1,8.4c0.1,0.2,0.1,0.3,0.2,0.3c0.1,0,0.2-0.1,0.3-0.3l3.1-8.4c0.1-0.3,0.3-0.5,0.6-0.5h2.4
		c0.1,0,0.2,0,0.3,0.1s0.1,0.2,0.1,0.3c0,0,0,0.1-0.1,0.2l-5.8,14.4c-0.5,1.3-1.1,2.3-1.7,2.9c-0.6,0.7-1.3,1.1-2,1.4
		s-1.8,0.4-3,0.4C231.4,127.3,230.9,127.3,230.7,127.2z"/>
	<path class="st0" d="M256.7,107.8c0.1,0.1,0.1,0.2,0.1,0.4v0.9c0,0.1,0,0.2,0.1,0.2c0.1,0,0.2,0,0.3-0.1c0.6-0.5,1.2-1,1.8-1.3
		s1.4-0.5,2.3-0.5c1.7,0,3.1,0.7,4.2,2s1.6,3.2,1.6,5.7c0,2.6-0.6,4.6-1.7,5.9s-2.6,2-4.4,2c-1.5,0-2.8-0.5-3.8-1.4
		c-0.2-0.2-0.3-0.2-0.4-0.2c-0.1,0-0.1,0.1-0.1,0.4v5.2c0,0.3-0.1,0.5-0.4,0.5h-3.5c-0.1,0-0.2,0-0.3-0.1s-0.1-0.2-0.1-0.4v-18.6
		c0-0.2,0.1-0.4,0.2-0.5c0.1-0.1,0.3-0.1,0.5-0.1h3.1C256.5,107.6,256.7,107.7,256.7,107.8z M258.1,119.8c0.4,0.2,0.9,0.4,1.4,0.4
		c2.2,0,3.2-1.7,3.2-5.2c0-1.7-0.3-3-0.8-3.7c-0.5-0.7-1.3-1.1-2.3-1.1c-0.8,0-1.4,0.2-2,0.7c-0.5,0.5-0.8,1-0.8,1.6v6.4
		C257.3,119.2,257.7,119.6,258.1,119.8z"/>
	<path class="st0" d="M272.7,122c-1.1-0.7-2-1.6-2.7-2.7s-1-2.5-1-4c0-1.5,0.3-2.9,1-4.1c0.7-1.2,1.6-2.1,2.7-2.8
		c1.2-0.7,2.5-1,3.9-1c1.5,0,2.8,0.3,4,1c1.2,0.7,2,1.6,2.7,2.8c0.6,1.2,0.9,2.5,0.9,4.1c0,1.5-0.3,2.8-1,4s-1.5,2.1-2.7,2.7
		c-1.2,0.7-2.5,1-4,1S273.9,122.6,272.7,122z M279.1,118.8c0.5-0.8,0.8-2,0.8-3.7c0-1.6-0.3-2.9-0.8-3.7c-0.5-0.8-1.3-1.3-2.4-1.3
		s-1.8,0.4-2.4,1.3c-0.5,0.8-0.8,2.1-0.8,3.7c0,1.6,0.3,2.8,0.8,3.7c0.5,0.8,1.3,1.2,2.4,1.2S278.5,119.6,279.1,118.8z"/>
	<path class="st0" d="M291.1,122c0,0.2-0.1,0.4-0.2,0.5s-0.3,0.2-0.6,0.2h-3c-0.2,0-0.4,0-0.5-0.1c-0.1-0.1-0.1-0.2-0.1-0.5
		l0.1-19.9c0-0.4,0.2-0.5,0.5-0.5h3.4c0.3,0,0.4,0.2,0.4,0.5V122z"/>
	<path class="st0" d="M298.7,105.1c0,0.5-0.3,0.7-0.8,0.7h-3.1c-0.2,0-0.4-0.1-0.5-0.2c-0.1-0.1-0.1-0.3-0.1-0.5v-3
		c0-0.4,0.2-0.6,0.5-0.6h3.5c0.1,0,0.2,0,0.3,0.1c0.1,0.1,0.1,0.2,0.1,0.4V105.1z M298.6,122c0,0.2-0.1,0.4-0.2,0.5
		s-0.3,0.2-0.6,0.2h-3c-0.2,0-0.4,0-0.5-0.1c-0.1-0.1-0.1-0.2-0.1-0.5v-13.9c0-0.4,0.2-0.5,0.5-0.5h3.5c0.3,0,0.4,0.2,0.4,0.5V122z"
		/>
	<path class="st0" d="M312.8,108.6c1.1,0.8,1.8,1.9,2.2,3c0,0.2,0.1,0.2,0.1,0.3c0,0.2-0.1,0.3-0.4,0.3l-3,0.3h-0.1
		c-0.2,0-0.3-0.1-0.3-0.3c-0.3-0.7-0.7-1.2-1-1.5c-0.3-0.3-0.8-0.5-1.5-0.5c-1,0-1.8,0.4-2.4,1.2c-0.6,0.8-0.9,2.1-0.9,3.7
		c0,1.7,0.3,2.9,0.9,3.7c0.6,0.8,1.5,1.2,2.6,1.2c0.8,0,1.4-0.2,1.9-0.6c0.5-0.4,1-1,1.4-1.8c0.1-0.1,0.1-0.1,0.2-0.2
		c0.1,0,0.2,0,0.3,0l2.1,0.5c0.2,0,0.3,0.1,0.3,0.3l-0.1,0.3c-0.4,1.1-1.1,2.1-2.2,3c-1.1,0.9-2.5,1.3-4.3,1.3c-1.5,0-2.8-0.3-3.9-1
		c-1.1-0.7-2-1.6-2.7-2.7s-1-2.5-1-4c0-1.5,0.3-2.9,1-4.1c0.7-1.2,1.5-2.1,2.7-2.8c1.1-0.7,2.4-1,3.9-1
		C310.3,107.3,311.7,107.8,312.8,108.6z"/>
	<path class="st0" d="M317.5,127.2c-0.2-0.1-0.4-0.2-0.4-0.4v-2.2c0-0.3,0.3-0.5,0.8-0.5h1.9c0.6,0,1.1-0.2,1.5-0.6
		c0.4-0.4,0.6-0.9,0.6-1.3c0-0.2,0-0.3-0.1-0.5l-5.4-13.4c0-0.1-0.1-0.2-0.1-0.2c0-0.1,0-0.2,0.1-0.3c0.1-0.1,0.2-0.1,0.4-0.1h3.6
		c0.1,0,0.3,0,0.4,0.1s0.2,0.2,0.2,0.4l3.1,8.4c0.1,0.2,0.1,0.3,0.2,0.3c0.1,0,0.2-0.1,0.3-0.3l3.1-8.4c0.1-0.3,0.3-0.5,0.6-0.5h2.4
		c0.1,0,0.2,0,0.3,0.1s0.1,0.2,0.1,0.3c0,0,0,0.1-0.1,0.2l-5.8,14.4c-0.5,1.3-1.1,2.3-1.7,2.9c-0.6,0.7-1.3,1.1-2,1.4
		s-1.8,0.4-3,0.4C318.2,127.3,317.7,127.3,317.5,127.2z"/>
	<path class="st0" d="M122.5,163.1c-0.2,0-0.4-0.1-0.5-0.2s-0.2-0.3-0.2-0.5v-19.9c0-0.2,0-0.3,0.1-0.4c0.1-0.1,0.2-0.1,0.4-0.1h3.5
		c0.3,0,0.4,0.2,0.4,0.5v6.6c0,0.2,0.1,0.3,0.2,0.3c0.1,0,0.2,0,0.3-0.1c1.1-1.1,2.5-1.6,4-1.6c1.9,0,3.3,0.7,4.4,2.1
		c1,1.4,1.5,3.3,1.5,5.6c0,2.4-0.6,4.4-1.7,5.8c-1.1,1.4-2.7,2.1-4.8,2.1c-1,0-1.8-0.2-2.6-0.7c-0.8-0.4-1.4-1-1.9-1.6
		c-0.1-0.1-0.2-0.1-0.2-0.1c-0.1,0-0.1,0.1-0.1,0.2l-0.3,1.4c-0.1,0.2-0.1,0.4-0.2,0.4c-0.1,0.1-0.2,0.1-0.4,0.1H122.5z
		 M126.2,157.9c0,0.8,0.3,1.5,0.8,2c0.6,0.5,1.2,0.8,2,0.8c2.1,0,3.1-1.7,3.1-5.2c0-1.7-0.3-3-0.8-3.8s-1.3-1.2-2.3-1.2
		c-1.1,0-2.1,0.5-2.9,1.5V157.9z"/>
	<path class="st0" d="M144,159.4c0.7,0.7,1.6,1,2.7,1c0.7,0,1.3-0.1,1.9-0.4c0.6-0.3,1.2-0.8,1.7-1.5c0.1-0.1,0.2-0.1,0.2-0.1
		c0.1,0,0.2,0,0.3,0.1l2,0.9c0.1,0.1,0.2,0.2,0.2,0.3c0,0.1,0,0.2-0.1,0.3c-0.9,1.3-1.9,2.2-2.9,2.7c-1,0.5-2.3,0.8-3.9,0.8
		c-1.5,0-2.8-0.3-3.9-1s-2.1-1.5-2.8-2.7c-0.7-1.1-1-2.5-1-3.9c0-1.6,0.3-3,1-4.2c0.7-1.2,1.6-2.2,2.8-2.8c1.2-0.7,2.4-1,3.8-1
		c1.4,0,2.7,0.3,3.8,0.9c1.1,0.6,2,1.5,2.6,2.7s0.9,2.6,0.9,4.3c0,0.2,0,0.4-0.1,0.5c0,0.1-0.2,0.2-0.4,0.2h-9.6
		c-0.2,0-0.3,0.2-0.3,0.5C142.9,157.9,143.3,158.8,144,159.4z M148.6,154c0.2,0,0.3,0,0.4-0.1c0.1,0,0.1-0.2,0.1-0.3
		c0-0.5-0.1-1-0.3-1.5c-0.2-0.5-0.6-0.9-1-1.2s-1-0.5-1.6-0.5c-0.9,0-1.7,0.3-2.3,1c-0.6,0.7-0.9,1.5-0.9,2.6L148.6,154z"/>
	<path class="st0" d="M155.8,162.9c-0.1-0.1-0.1-0.2-0.1-0.4v-13.9c0-0.4,0.2-0.5,0.5-0.5h3.4c0.3,0,0.4,0.2,0.4,0.5v1.4
		c0,0.2,0,0.2,0.1,0.2c0.1,0,0.1,0,0.2-0.1c0.8-0.7,1.5-1.3,2.3-1.7c0.8-0.4,1.6-0.6,2.5-0.6c1.4,0,2.5,0.4,3.3,1.2
		c0.8,0.8,1.2,1.9,1.2,3.3v10.1c0,0.5-0.2,0.7-0.7,0.7h-3.1c-0.2,0-0.4,0-0.4-0.1s-0.1-0.2-0.1-0.4v-9.6c0-0.6-0.2-1.1-0.5-1.5
		c-0.3-0.3-0.9-0.5-1.5-0.5c-0.6,0-1.1,0.1-1.6,0.4c-0.5,0.3-1,0.7-1.5,1.3v9.8c0,0.2-0.1,0.4-0.2,0.5s-0.3,0.2-0.6,0.2h-3
		C156.1,163.1,155.9,163,155.8,162.9z"/>
	<path class="st0" d="M177.5,159.4c0.7,0.7,1.6,1,2.7,1c0.7,0,1.3-0.1,1.9-0.4c0.6-0.3,1.2-0.8,1.7-1.5c0.1-0.1,0.2-0.1,0.2-0.1
		c0.1,0,0.2,0,0.3,0.1l2,0.9c0.1,0.1,0.2,0.2,0.2,0.3c0,0.1,0,0.2-0.1,0.3c-0.9,1.3-1.9,2.2-2.9,2.7c-1,0.5-2.3,0.8-3.9,0.8
		c-1.5,0-2.8-0.3-3.9-1s-2.1-1.5-2.8-2.7c-0.7-1.1-1-2.5-1-3.9c0-1.6,0.3-3,1-4.2c0.7-1.2,1.6-2.2,2.8-2.8c1.2-0.7,2.4-1,3.8-1
		c1.4,0,2.7,0.3,3.8,0.9c1.1,0.6,2,1.5,2.6,2.7s0.9,2.6,0.9,4.3c0,0.2,0,0.4-0.1,0.5c0,0.1-0.2,0.2-0.4,0.2h-9.6
		c-0.2,0-0.3,0.2-0.3,0.5C176.4,157.9,176.8,158.8,177.5,159.4z M182.1,154c0.2,0,0.3,0,0.4-0.1c0.1,0,0.1-0.2,0.1-0.3
		c0-0.5-0.1-1-0.3-1.5c-0.2-0.5-0.6-0.9-1-1.2s-1-0.5-1.6-0.5c-0.9,0-1.7,0.3-2.3,1c-0.6,0.7-0.9,1.5-0.9,2.6L182.1,154z"/>
	<path class="st0" d="M198.3,148.2c0.1,0.1,0.1,0.2,0.1,0.3v2.1c0,0.3-0.2,0.4-0.5,0.4h-2.4c-0.2,0-0.3,0.1-0.3,0.3v11.2
		c0,0.4-0.2,0.5-0.5,0.5h-3.5c-0.3,0-0.4-0.2-0.4-0.5v-11.3c0-0.2-0.1-0.3-0.2-0.3h-2c-0.3,0-0.5-0.1-0.5-0.4v-2.1
		c0-0.1,0-0.2,0.1-0.3c0.1-0.1,0.2-0.1,0.4-0.1h1.9c0.1,0,0.2,0,0.3-0.1c0-0.1,0.1-0.2,0.1-0.3v-1.7c0-1.2,0.4-2.2,1.1-2.8
		c0.7-0.7,1.7-1,3-1h2.9c0.4,0,0.6,0.2,0.6,0.6l0,1.8c0,0.3-0.1,0.5-0.4,0.5h-1.5c-0.4,0-0.8,0.2-1,0.5c-0.3,0.3-0.4,0.7-0.4,1.2
		v1.1c0,0.2,0.1,0.3,0.3,0.3h2.4C198.1,148,198.2,148.1,198.3,148.2z M205,145.5c0,0.5-0.3,0.7-0.8,0.7h-3.1c-0.2,0-0.4-0.1-0.5-0.2
		c-0.1-0.1-0.1-0.3-0.1-0.5v-3c0-0.4,0.2-0.6,0.5-0.6h3.5c0.1,0,0.2,0,0.3,0.1c0.1,0.1,0.1,0.2,0.1,0.4V145.5z M205,162.4
		c0,0.2-0.1,0.4-0.2,0.5c-0.1,0.1-0.3,0.2-0.6,0.2h-3c-0.2,0-0.4,0-0.5-0.1s-0.1-0.2-0.1-0.5v-13.9c0-0.4,0.2-0.5,0.5-0.5h3.5
		c0.3,0,0.4,0.2,0.4,0.5V162.4z"/>
	<path class="st0" d="M214.4,151.1c-0.2,0-0.3,0.1-0.3,0.3v6.8c0,0.6,0.2,1.1,0.5,1.4c0.3,0.3,0.8,0.4,1.4,0.4h1.5
		c0.1,0,0.2,0,0.3,0.1c0.1,0.1,0.1,0.2,0.1,0.4l0,1.7c0,0.4-0.2,0.6-0.6,0.7c-0.8,0.1-1.9,0.2-3.4,0.2c-1.3,0-2.4-0.3-3.1-0.9
		c-0.7-0.6-1.1-1.5-1.1-2.7v-7.9c0-0.3-0.1-0.4-0.4-0.4h-1.7c-0.4,0-0.5-0.2-0.5-0.5v-2.1c0-0.3,0.2-0.4,0.5-0.4h2
		c0.2,0,0.2-0.1,0.3-0.3l0.4-4.3c0-0.3,0.2-0.5,0.4-0.5h3.1c0.1,0,0.2,0,0.3,0.1c0.1,0.1,0.1,0.2,0.1,0.4v4.3c0,0.2,0.1,0.3,0.3,0.3
		h3c0.3,0,0.5,0.2,0.5,0.5v2.1c0,0.3-0.2,0.5-0.6,0.5H214.4z"/>
	<path class="st0" d="M226.3,150.4c-0.7,0-1.3,0.1-1.8,0.4s-0.7,0.6-0.7,1.1c0,0.3,0.1,0.5,0.3,0.7c0.2,0.2,0.6,0.4,1.3,0.6l3.3,0.8
		c1.5,0.4,2.6,0.9,3.3,1.7c0.7,0.8,1,1.7,1,2.8c0,1.5-0.6,2.7-1.9,3.5c-1.2,0.9-2.9,1.3-4.9,1.3c-1.6,0-3-0.3-4.2-0.9
		c-1.2-0.6-2-1.3-2.5-2.3c-0.1-0.1-0.1-0.3-0.1-0.4c0-0.1,0.1-0.2,0.2-0.3l1.9-1c0.2-0.1,0.3-0.1,0.4-0.1s0.2,0,0.3,0.1
		c0.4,0.6,0.9,1.1,1.5,1.4c0.6,0.4,1.4,0.5,2.4,0.5c0.9,0,1.6-0.1,2.2-0.4c0.6-0.3,0.8-0.7,0.8-1.2c0-0.3-0.1-0.6-0.4-0.9
		c-0.3-0.2-0.8-0.4-1.4-0.6l-2.9-0.6c-2.9-0.6-4.3-2.1-4.3-4.3c0-0.9,0.3-1.8,0.8-2.5c0.5-0.7,1.3-1.3,2.2-1.7
		c1-0.4,2.1-0.6,3.4-0.6c1.4,0,2.6,0.3,3.7,0.8c1.1,0.5,1.8,1.2,2.3,1.9c0.1,0.2,0.2,0.3,0.2,0.4c0,0.1-0.1,0.2-0.2,0.3l-2,1
		c-0.1,0-0.1,0.1-0.2,0.1c-0.2,0-0.3-0.1-0.4-0.2C228.9,150.9,227.8,150.4,226.3,150.4z"/>
	<path class="st0" d="M127.8,190.8c-0.7,0-1.3,0.1-1.8,0.4s-0.7,0.6-0.7,1.1c0,0.3,0.1,0.5,0.3,0.7c0.2,0.2,0.6,0.4,1.3,0.6l3.3,0.8
		c1.5,0.4,2.6,0.9,3.3,1.7c0.7,0.8,1,1.7,1,2.8c0,1.5-0.6,2.7-1.9,3.5c-1.2,0.9-2.9,1.3-4.9,1.3c-1.6,0-3-0.3-4.2-0.9
		c-1.2-0.6-2-1.3-2.5-2.3c-0.1-0.1-0.1-0.3-0.1-0.4c0-0.1,0.1-0.2,0.2-0.3l1.9-1c0.2-0.1,0.3-0.1,0.4-0.1s0.2,0,0.3,0.1
		c0.4,0.6,0.9,1.1,1.5,1.4c0.6,0.4,1.4,0.5,2.4,0.5c0.9,0,1.6-0.1,2.2-0.4c0.6-0.3,0.8-0.7,0.8-1.2c0-0.3-0.1-0.6-0.4-0.9
		c-0.3-0.2-0.8-0.4-1.4-0.6l-2.9-0.6c-2.9-0.6-4.3-2.1-4.3-4.3c0-0.9,0.3-1.8,0.8-2.5c0.5-0.7,1.3-1.3,2.2-1.7
		c1-0.4,2.1-0.6,3.4-0.6c1.4,0,2.6,0.3,3.7,0.8c1.1,0.5,1.8,1.2,2.3,1.9c0.1,0.2,0.2,0.3,0.2,0.4c0,0.1-0.1,0.2-0.2,0.3l-2,1
		c-0.1,0-0.1,0.1-0.2,0.1c-0.2,0-0.3-0.1-0.4-0.2C130.3,191.4,129.2,190.8,127.8,190.8z"/>
	<path class="st0" d="M141.7,199.8c0.7,0.7,1.6,1,2.7,1c0.7,0,1.3-0.1,1.9-0.4c0.6-0.3,1.2-0.8,1.7-1.5c0.1-0.1,0.2-0.1,0.2-0.1
		c0.1,0,0.2,0,0.3,0.1l2,0.9c0.1,0.1,0.2,0.2,0.2,0.3c0,0.1,0,0.2-0.1,0.3c-0.9,1.3-1.9,2.2-2.9,2.7c-1,0.5-2.3,0.8-3.9,0.8
		c-1.5,0-2.8-0.3-3.9-1s-2.1-1.5-2.8-2.7c-0.7-1.1-1-2.5-1-3.9c0-1.6,0.3-3,1-4.2c0.7-1.2,1.6-2.2,2.8-2.8c1.2-0.7,2.4-1,3.8-1
		c1.4,0,2.7,0.3,3.8,0.9c1.1,0.6,2,1.5,2.6,2.7s0.9,2.6,0.9,4.3c0,0.2,0,0.4-0.1,0.5c0,0.1-0.2,0.2-0.4,0.2H141
		c-0.2,0-0.3,0.2-0.3,0.5C140.7,198.3,141,199.2,141.7,199.8z M146.4,194.4c0.2,0,0.3,0,0.4-0.1c0.1,0,0.1-0.2,0.1-0.3
		c0-0.5-0.1-1-0.3-1.5c-0.2-0.5-0.6-0.9-1-1.2s-1-0.5-1.6-0.5c-0.9,0-1.7,0.3-2.3,1c-0.6,0.7-0.9,1.5-0.9,2.6L146.4,194.4z"/>
	<path class="st0" d="M164.5,189.4c1.1,0.8,1.8,1.9,2.2,3c0,0.2,0.1,0.2,0.1,0.3c0,0.2-0.1,0.3-0.4,0.3l-3,0.3h-0.1
		c-0.2,0-0.3-0.1-0.3-0.3c-0.3-0.7-0.7-1.2-1-1.5c-0.3-0.3-0.8-0.5-1.5-0.5c-1,0-1.8,0.4-2.4,1.2c-0.6,0.8-0.9,2.1-0.9,3.7
		c0,1.7,0.3,2.9,0.9,3.7c0.6,0.8,1.5,1.2,2.6,1.2c0.8,0,1.4-0.2,1.9-0.6c0.5-0.4,1-1,1.4-1.8c0.1-0.1,0.1-0.1,0.2-0.2
		c0.1,0,0.2,0,0.3,0l2.1,0.5c0.2,0,0.3,0.1,0.3,0.3l-0.1,0.3c-0.4,1.1-1.1,2.1-2.2,3c-1.1,0.9-2.5,1.3-4.3,1.3c-1.5,0-2.8-0.3-3.9-1
		c-1.1-0.7-2-1.6-2.7-2.7s-1-2.5-1-4c0-1.5,0.3-2.9,1-4.1c0.7-1.2,1.5-2.1,2.7-2.8c1.1-0.7,2.4-1,3.9-1
		C162,188.2,163.4,188.6,164.5,189.4z"/>
	<path class="st0" d="M178.4,199v-9.8c0-0.4,0.2-0.7,0.7-0.7h3.1c0.2,0,0.4,0,0.5,0.1c0.1,0.1,0.1,0.2,0.1,0.5l-0.1,13.9
		c0,0.2,0,0.3-0.1,0.4s-0.2,0.1-0.3,0.1h-3.4c-0.3,0-0.4-0.2-0.4-0.5v-1.4c0-0.1,0-0.2-0.1-0.2s-0.1,0-0.2,0.1
		c-0.8,0.8-1.6,1.4-2.4,1.7c-0.8,0.3-1.6,0.5-2.5,0.5c-1.3,0-2.3-0.4-3.1-1.2c-0.8-0.8-1.2-1.9-1.2-3.3v-10.1c0-0.5,0.2-0.7,0.7-0.7
		h3.1c0.4,0,0.5,0.2,0.5,0.6v9.5c0,0.6,0.2,1.1,0.5,1.5c0.4,0.4,0.8,0.6,1.4,0.6C176.3,200.6,177.4,200.1,178.4,199z"/>
	<path class="st0" d="M185.9,202.9V189c0-0.4,0.2-0.5,0.5-0.5h3.3c0.3,0,0.5,0.2,0.5,0.5v1.7c0,0.1,0,0.1,0.1,0.2
		c0,0,0.1,0.1,0.1,0.1c0.1,0,0.1,0,0.2-0.1c0.6-0.8,1.2-1.4,2-1.8c0.8-0.5,1.5-0.7,2.2-0.7c0.7,0,1,0.2,1,0.5v3.3
		c0,0.1,0,0.2-0.1,0.3c-0.1,0.1-0.2,0.1-0.3,0.1c-0.6-0.2-1.3-0.2-2-0.2c-0.5,0-1,0.1-1.4,0.4c-0.5,0.2-0.9,0.5-1.2,0.9
		c-0.3,0.4-0.5,0.8-0.5,1.2v8.3c0,0.4-0.2,0.7-0.7,0.7h-3C186.1,203.5,185.9,203.3,185.9,202.9z"/>
	<path class="st0" d="M202.4,185.9c0,0.5-0.3,0.7-0.8,0.7h-3.1c-0.2,0-0.4-0.1-0.5-0.2c-0.1-0.1-0.1-0.3-0.1-0.5v-3
		c0-0.4,0.2-0.6,0.5-0.6h3.5c0.1,0,0.2,0,0.3,0.1c0.1,0.1,0.1,0.2,0.1,0.4V185.9z M202.3,202.8c0,0.2-0.1,0.4-0.2,0.5
		s-0.3,0.2-0.6,0.2h-3c-0.2,0-0.4,0-0.5-0.1c-0.1-0.1-0.1-0.2-0.1-0.5V189c0-0.4,0.2-0.5,0.5-0.5h3.5c0.3,0,0.4,0.2,0.4,0.5V202.8z"
		/>
	<path class="st0" d="M211.8,191.5c-0.2,0-0.3,0.1-0.3,0.3v6.8c0,0.6,0.2,1.1,0.5,1.4c0.3,0.3,0.8,0.4,1.4,0.4h1.5
		c0.1,0,0.2,0,0.3,0.1c0.1,0.1,0.1,0.2,0.1,0.4l0,1.7c0,0.4-0.2,0.6-0.6,0.7c-0.8,0.1-1.9,0.2-3.4,0.2c-1.3,0-2.4-0.3-3.1-0.9
		c-0.7-0.6-1.1-1.5-1.1-2.7v-7.9c0-0.3-0.1-0.4-0.4-0.4H205c-0.4,0-0.5-0.2-0.5-0.5v-2.1c0-0.3,0.2-0.4,0.5-0.4h2
		c0.2,0,0.2-0.1,0.3-0.3l0.4-4.3c0-0.3,0.2-0.5,0.4-0.5h3.1c0.1,0,0.2,0,0.3,0.1c0.1,0.1,0.1,0.2,0.1,0.4v4.3c0,0.2,0.1,0.3,0.3,0.3
		h3c0.3,0,0.5,0.2,0.5,0.5v2.1c0,0.3-0.2,0.5-0.6,0.5H211.8z"/>
	<path class="st0" d="M217.8,208.1c-0.2-0.1-0.4-0.2-0.4-0.4v-2.2c0-0.3,0.3-0.5,0.8-0.5h1.9c0.6,0,1.1-0.2,1.5-0.6
		c0.4-0.4,0.6-0.9,0.6-1.3c0-0.2,0-0.3-0.1-0.5l-5.4-13.4c0-0.1-0.1-0.2-0.1-0.2c0-0.1,0-0.2,0.1-0.3c0.1-0.1,0.2-0.1,0.4-0.1h3.6
		c0.1,0,0.3,0,0.4,0.1s0.2,0.2,0.2,0.4l3.1,8.4c0.1,0.2,0.1,0.3,0.2,0.3c0.1,0,0.2-0.1,0.3-0.3l3.1-8.4c0.1-0.3,0.3-0.5,0.6-0.5h2.4
		c0.1,0,0.2,0,0.3,0.1s0.1,0.2,0.1,0.3c0,0,0,0.1-0.1,0.2l-5.8,14.4c-0.5,1.3-1.1,2.3-1.7,2.9c-0.6,0.7-1.3,1.1-2,1.4
		s-1.8,0.4-3,0.4C218.5,208.2,218,208.1,217.8,208.1z"/>
</g>
<g>
	<path class="st0" d="M832.6,98.3V84.4c0-0.4,0.2-0.5,0.5-0.5h3.3c0.3,0,0.5,0.2,0.5,0.5V86c0,0.1,0,0.1,0.1,0.2
		c0,0,0.1,0.1,0.1,0.1c0.1,0,0.1,0,0.2-0.1c0.6-0.8,1.2-1.4,2-1.8c0.8-0.5,1.5-0.7,2.2-0.7c0.7,0,1,0.2,1,0.5v3.3
		c0,0.1,0,0.2-0.1,0.3c-0.1,0.1-0.2,0.1-0.3,0.1c-0.6-0.2-1.3-0.2-2-0.2c-0.5,0-1,0.1-1.4,0.4c-0.5,0.2-0.9,0.5-1.2,0.9
		c-0.3,0.4-0.5,0.8-0.5,1.2v8.3c0,0.4-0.2,0.7-0.7,0.7h-3C832.8,98.9,832.6,98.7,832.6,98.3z"/>
	<path class="st0" d="M849.1,95.2c0.7,0.7,1.6,1,2.7,1c0.7,0,1.3-0.1,1.9-0.4c0.6-0.3,1.2-0.8,1.7-1.5c0.1-0.1,0.2-0.1,0.2-0.1
		c0.1,0,0.2,0,0.3,0.1l2,0.9c0.1,0.1,0.2,0.2,0.2,0.3c0,0.1,0,0.2-0.1,0.3c-0.9,1.3-1.9,2.2-2.9,2.7c-1,0.5-2.3,0.8-3.9,0.8
		c-1.5,0-2.8-0.3-3.9-1s-2.1-1.5-2.8-2.7c-0.7-1.1-1-2.5-1-3.9c0-1.6,0.3-3,1-4.2c0.7-1.2,1.6-2.2,2.8-2.8c1.2-0.7,2.4-1,3.8-1
		c1.4,0,2.7,0.3,3.8,0.9c1.1,0.6,2,1.5,2.6,2.7s0.9,2.6,0.9,4.3c0,0.2,0,0.4-0.1,0.5c0,0.1-0.2,0.2-0.4,0.2h-9.6
		c-0.2,0-0.3,0.2-0.3,0.5C848,93.7,848.4,94.5,849.1,95.2z M853.7,89.8c0.2,0,0.3,0,0.4-0.1c0.1,0,0.1-0.2,0.1-0.3
		c0-0.5-0.1-1-0.3-1.5c-0.2-0.5-0.6-0.9-1-1.2s-1-0.5-1.6-0.5c-0.9,0-1.7,0.3-2.3,1c-0.6,0.7-0.9,1.5-0.9,2.6L853.7,89.8z"/>
	<path class="st0" d="M871.9,84.8c1.1,0.8,1.8,1.9,2.2,3c0,0.2,0.1,0.2,0.1,0.3c0,0.2-0.1,0.3-0.4,0.3l-3,0.3h-0.1
		c-0.2,0-0.3-0.1-0.3-0.3c-0.3-0.7-0.7-1.2-1-1.5c-0.3-0.3-0.8-0.5-1.5-0.5c-1,0-1.8,0.4-2.4,1.2c-0.6,0.8-0.9,2.1-0.9,3.7
		c0,1.7,0.3,2.9,0.9,3.7c0.6,0.8,1.5,1.2,2.6,1.2c0.8,0,1.4-0.2,1.9-0.6c0.5-0.4,1-1,1.4-1.8c0.1-0.1,0.1-0.1,0.2-0.2
		c0.1,0,0.2,0,0.3,0l2.1,0.5c0.2,0,0.3,0.1,0.3,0.3l-0.1,0.3c-0.4,1.1-1.1,2.1-2.2,3c-1.1,0.9-2.5,1.3-4.3,1.3c-1.5,0-2.8-0.3-3.9-1
		c-1.1-0.7-2-1.6-2.7-2.7s-1-2.5-1-4c0-1.5,0.3-2.9,1-4.1c0.7-1.2,1.5-2.1,2.7-2.8c1.1-0.7,2.4-1,3.9-1
		C869.4,83.6,870.8,84,871.9,84.8z"/>
	<path class="st0" d="M879.4,98.2c-1.1-0.7-2-1.6-2.7-2.7s-1-2.5-1-4c0-1.5,0.3-2.9,1-4.1c0.7-1.2,1.6-2.1,2.7-2.8
		c1.2-0.7,2.5-1,3.9-1c1.5,0,2.8,0.3,4,1c1.2,0.7,2,1.6,2.7,2.8c0.6,1.2,0.9,2.5,0.9,4.1c0,1.5-0.3,2.8-1,4s-1.5,2.1-2.7,2.7
		c-1.2,0.7-2.5,1-4,1S880.5,98.8,879.4,98.2z M885.8,95c0.5-0.8,0.8-2,0.8-3.7c0-1.6-0.3-2.9-0.8-3.7c-0.5-0.8-1.3-1.3-2.4-1.3
		s-1.8,0.4-2.4,1.3c-0.5,0.8-0.8,2.1-0.8,3.7c0,1.6,0.3,2.8,0.8,3.7c0.5,0.8,1.3,1.2,2.4,1.2S885.2,95.9,885.8,95z"/>
	<path class="st0" d="M909.2,83.8v1.9c0,0.5-0.2,0.7-0.7,0.7c-0.3-0.1-0.6-0.1-0.8-0.1c-0.2,0-0.3,0-0.5,0.1
		c-0.5,0.1-0.7,0.3-0.6,0.7c0.2,0.5,0.3,0.9,0.3,1.3c0,0.9-0.3,1.7-0.8,2.4c-0.5,0.7-1.3,1.3-2.3,1.7c-1,0.4-2.3,0.6-3.7,0.6
		c-1.1,0-1.8,0.1-2.3,0.3c-0.5,0.2-0.8,0.4-0.8,0.7c0,0.2,0.1,0.4,0.4,0.5c0.3,0.1,0.7,0.2,1.4,0.2l4.1,0.2c1.9,0.1,3.3,0.5,4.2,1.2
		c0.9,0.7,1.4,1.7,1.4,2.9c0,1.5-0.7,2.7-2.1,3.5c-1.4,0.9-3.4,1.3-6,1.3c-5.5,0-8.2-1.2-8.2-3.7c0-0.6,0.2-1.1,0.7-1.5
		c0.5-0.4,1.1-0.8,2-1.1c0.1,0,0.2-0.1,0.2-0.1s-0.1-0.1-0.2-0.2c-1.1-0.5-1.6-1.2-1.6-2.1c0-0.5,0.3-1,0.8-1.4
		c0.5-0.4,1.2-0.8,2-1.1c0.2-0.1,0.2-0.2,0.1-0.3c-1.8-0.9-2.8-2.1-2.8-3.9c0-1.4,0.6-2.6,1.9-3.4c1.2-0.9,3-1.3,5.3-1.3
		c1.9,0,3.5,0.4,4.5,1.3c0.1,0.1,0.3,0.1,0.4,0.1c0.2,0,0.3-0.1,0.4-0.2c0.4-0.4,0.8-0.8,1.4-1.1c0.6-0.3,1.1-0.5,1.5-0.5
		C909,83.2,909.2,83.4,909.2,83.8z M897.9,98c-0.6,0-1.1,0.1-1.6,0.4s-0.7,0.7-0.7,1.2c0,0.7,0.4,1.2,1.2,1.6c0.8,0.4,2,0.5,3.8,0.5
		c1.3,0,2.2-0.2,2.9-0.5c0.7-0.4,1-0.8,1-1.5c0-0.4-0.2-0.8-0.6-1c-0.4-0.3-0.9-0.4-1.7-0.5L897.9,98z M902.2,90.1
		c0.5-0.4,0.7-1,0.7-1.7c0-0.8-0.2-1.4-0.7-1.9c-0.5-0.5-1.2-0.7-2.2-0.7c-0.9,0-1.6,0.2-2.1,0.7c-0.5,0.5-0.8,1.1-0.8,1.9
		c0,0.7,0.3,1.3,0.8,1.7c0.5,0.4,1.2,0.7,2.1,0.7C901,90.8,901.7,90.6,902.2,90.1z"/>
	<path class="st0" d="M911.5,98.7c-0.1-0.1-0.1-0.2-0.1-0.4V84.4c0-0.4,0.2-0.5,0.5-0.5h3.4c0.3,0,0.4,0.2,0.4,0.5v1.4
		c0,0.2,0,0.2,0.1,0.2c0.1,0,0.1,0,0.2-0.1c0.8-0.7,1.5-1.3,2.3-1.7c0.8-0.4,1.6-0.6,2.5-0.6c1.4,0,2.5,0.4,3.3,1.2
		c0.8,0.8,1.2,1.9,1.2,3.3v10.1c0,0.5-0.2,0.7-0.7,0.7h-3.1c-0.2,0-0.4,0-0.4-0.1s-0.1-0.2-0.1-0.4v-9.6c0-0.6-0.2-1.1-0.5-1.5
		c-0.3-0.3-0.9-0.5-1.5-0.5c-0.6,0-1.1,0.1-1.6,0.4c-0.5,0.3-1,0.7-1.5,1.3v9.8c0,0.2-0.1,0.4-0.2,0.5s-0.3,0.2-0.6,0.2h-3
		C911.8,98.9,911.6,98.8,911.5,98.7z"/>
	<path class="st0" d="M932.7,81.3c0,0.5-0.3,0.7-0.8,0.7h-3.1c-0.2,0-0.4-0.1-0.5-0.2c-0.1-0.1-0.1-0.3-0.1-0.5v-3
		c0-0.4,0.2-0.6,0.5-0.6h3.5c0.1,0,0.2,0,0.3,0.1c0.1,0.1,0.1,0.2,0.1,0.4V81.3z M932.6,98.2c0,0.2-0.1,0.4-0.2,0.5
		s-0.3,0.2-0.6,0.2h-3c-0.2,0-0.4,0-0.5-0.1c-0.1-0.1-0.1-0.2-0.1-0.5V84.4c0-0.4,0.2-0.5,0.5-0.5h3.5c0.3,0,0.4,0.2,0.4,0.5V98.2z"
		/>
	<path class="st0" d="M942.1,86.8c-0.2,0-0.3,0.1-0.3,0.3V94c0,0.6,0.2,1.1,0.5,1.4c0.3,0.3,0.8,0.4,1.4,0.4h1.5
		c0.1,0,0.2,0,0.3,0.1c0.1,0.1,0.1,0.2,0.1,0.4l0,1.7c0,0.4-0.2,0.6-0.6,0.7c-0.8,0.1-1.9,0.2-3.4,0.2c-1.3,0-2.4-0.3-3.1-0.9
		c-0.7-0.6-1.1-1.5-1.1-2.7v-7.9c0-0.3-0.1-0.4-0.4-0.4h-1.7c-0.4,0-0.5-0.2-0.5-0.5v-2.1c0-0.3,0.2-0.4,0.5-0.4h2
		c0.2,0,0.2-0.1,0.3-0.3l0.4-4.3c0-0.3,0.2-0.5,0.4-0.5h3.1c0.1,0,0.2,0,0.3,0.1c0.1,0.1,0.1,0.2,0.1,0.4v4.3c0,0.2,0.1,0.3,0.3,0.3
		h3c0.3,0,0.5,0.2,0.5,0.5v2.1c0,0.3-0.2,0.5-0.6,0.5H942.1z"/>
	<path class="st0" d="M952.4,81.3c0,0.5-0.3,0.7-0.8,0.7h-3.1c-0.2,0-0.4-0.1-0.5-0.2c-0.1-0.1-0.1-0.3-0.1-0.5v-3
		c0-0.4,0.2-0.6,0.5-0.6h3.5c0.1,0,0.2,0,0.3,0.1c0.1,0.1,0.1,0.2,0.1,0.4V81.3z M952.4,98.2c0,0.2-0.1,0.4-0.2,0.5
		s-0.3,0.2-0.6,0.2h-3c-0.2,0-0.4,0-0.5-0.1c-0.1-0.1-0.1-0.2-0.1-0.5V84.4c0-0.4,0.2-0.5,0.5-0.5h3.5c0.3,0,0.4,0.2,0.4,0.5V98.2z"
		/>
	<path class="st0" d="M958.5,98.2c-1.1-0.7-2-1.6-2.7-2.7s-1-2.5-1-4c0-1.5,0.3-2.9,1-4.1c0.7-1.2,1.6-2.1,2.7-2.8
		c1.2-0.7,2.5-1,3.9-1c1.5,0,2.8,0.3,4,1c1.2,0.7,2,1.6,2.7,2.8c0.6,1.2,0.9,2.5,0.9,4.1c0,1.5-0.3,2.8-1,4s-1.5,2.1-2.7,2.7
		c-1.2,0.7-2.5,1-4,1S959.6,98.8,958.5,98.2z M964.9,95c0.5-0.8,0.8-2,0.8-3.7c0-1.6-0.3-2.9-0.8-3.7c-0.5-0.8-1.3-1.3-2.4-1.3
		s-1.8,0.4-2.4,1.3c-0.5,0.8-0.8,2.1-0.8,3.7c0,1.6,0.3,2.8,0.8,3.7c0.5,0.8,1.3,1.2,2.4,1.2S964.3,95.9,964.9,95z"/>
	<path class="st0" d="M972.7,98.7c-0.1-0.1-0.1-0.2-0.1-0.4V84.4c0-0.4,0.2-0.5,0.5-0.5h3.4c0.3,0,0.4,0.2,0.4,0.5v1.4
		c0,0.2,0,0.2,0.1,0.2c0.1,0,0.1,0,0.2-0.1c0.8-0.7,1.5-1.3,2.3-1.7c0.8-0.4,1.6-0.6,2.5-0.6c1.4,0,2.5,0.4,3.3,1.2
		c0.8,0.8,1.2,1.9,1.2,3.3v10.1c0,0.5-0.2,0.7-0.7,0.7h-3.1c-0.2,0-0.4,0-0.4-0.1s-0.1-0.2-0.1-0.4v-9.6c0-0.6-0.2-1.1-0.5-1.5
		c-0.3-0.3-0.9-0.5-1.5-0.5c-0.6,0-1.1,0.1-1.6,0.4c-0.5,0.3-1,0.7-1.5,1.3v9.8c0,0.2-0.1,0.4-0.2,0.5s-0.3,0.2-0.6,0.2h-3
		C972.9,98.9,972.8,98.8,972.7,98.7z"/>
	<path class="st0" d="M838.6,126.6c-0.7,0-1.3,0.1-1.8,0.4s-0.7,0.6-0.7,1.1c0,0.3,0.1,0.5,0.3,0.7c0.2,0.2,0.6,0.4,1.3,0.6l3.3,0.8
		c1.5,0.4,2.6,0.9,3.3,1.7c0.7,0.8,1,1.7,1,2.8c0,1.5-0.6,2.7-1.9,3.5c-1.2,0.9-2.9,1.3-4.9,1.3c-1.6,0-3-0.3-4.2-0.9
		c-1.2-0.6-2-1.3-2.5-2.3c-0.1-0.1-0.1-0.3-0.1-0.4c0-0.1,0.1-0.2,0.2-0.3l1.9-1c0.2-0.1,0.3-0.1,0.4-0.1s0.2,0,0.3,0.1
		c0.4,0.6,0.9,1.1,1.5,1.4c0.6,0.4,1.4,0.5,2.4,0.5c0.9,0,1.6-0.1,2.2-0.4c0.6-0.3,0.8-0.7,0.8-1.2c0-0.3-0.1-0.6-0.4-0.9
		c-0.3-0.2-0.8-0.4-1.4-0.6l-2.9-0.6c-2.9-0.6-4.3-2.1-4.3-4.3c0-0.9,0.3-1.8,0.8-2.5c0.5-0.7,1.3-1.3,2.2-1.7
		c1-0.4,2.1-0.6,3.4-0.6c1.4,0,2.6,0.3,3.7,0.8c1.1,0.5,1.8,1.2,2.3,1.9c0.1,0.2,0.2,0.3,0.2,0.4c0,0.1-0.1,0.2-0.2,0.3l-2,1
		c-0.1,0-0.1,0.1-0.2,0.1c-0.2,0-0.3-0.1-0.4-0.2C841.1,127.2,840,126.6,838.6,126.6z"/>
	<path class="st0" d="M852.5,135.6c0.7,0.7,1.6,1,2.7,1c0.7,0,1.3-0.1,1.9-0.4c0.6-0.3,1.2-0.8,1.7-1.5c0.1-0.1,0.2-0.1,0.2-0.1
		c0.1,0,0.2,0,0.3,0.1l2,0.9c0.1,0.1,0.2,0.2,0.2,0.3c0,0.1,0,0.2-0.1,0.3c-0.9,1.3-1.9,2.2-2.9,2.7c-1,0.5-2.3,0.8-3.9,0.8
		c-1.5,0-2.8-0.3-3.9-1s-2.1-1.5-2.8-2.7c-0.7-1.1-1-2.5-1-3.9c0-1.6,0.3-3,1-4.2c0.7-1.2,1.6-2.2,2.8-2.8c1.2-0.7,2.4-1,3.8-1
		c1.4,0,2.7,0.3,3.8,0.9c1.1,0.6,2,1.5,2.6,2.7s0.9,2.6,0.9,4.3c0,0.2,0,0.4-0.1,0.5c0,0.1-0.2,0.2-0.4,0.2h-9.6
		c-0.2,0-0.3,0.2-0.3,0.5C851.5,134.1,851.8,135,852.5,135.6z M857.2,130.2c0.2,0,0.3,0,0.4-0.1c0.1,0,0.1-0.2,0.1-0.3
		c0-0.5-0.1-1-0.3-1.5c-0.2-0.5-0.6-0.9-1-1.2s-1-0.5-1.6-0.5c-0.9,0-1.7,0.3-2.3,1c-0.6,0.7-0.9,1.5-0.9,2.6L857.2,130.2z"/>
	<path class="st0" d="M864.4,139.2c-0.1-0.1-0.1-0.2-0.1-0.4v-13.9c0-0.4,0.2-0.5,0.5-0.5h3.4c0.3,0,0.4,0.2,0.4,0.5v1.4
		c0,0.2,0,0.2,0.1,0.2c0.1,0,0.1,0,0.2-0.1c0.8-0.7,1.5-1.3,2.3-1.7c0.8-0.4,1.6-0.6,2.5-0.6c1.4,0,2.5,0.4,3.3,1.2
		c0.8,0.8,1.2,1.9,1.2,3.3v10.1c0,0.5-0.2,0.7-0.7,0.7h-3.1c-0.2,0-0.4,0-0.4-0.1s-0.1-0.2-0.1-0.4v-9.6c0-0.6-0.2-1.1-0.5-1.5
		c-0.3-0.3-0.9-0.5-1.5-0.5c-0.6,0-1.1,0.1-1.6,0.4c-0.5,0.3-1,0.7-1.5,1.3v9.8c0,0.2-0.1,0.4-0.2,0.5s-0.3,0.2-0.6,0.2h-3
		C864.6,139.3,864.5,139.2,864.4,139.2z"/>
	<path class="st0" d="M887.1,126.6c-0.7,0-1.3,0.1-1.8,0.4s-0.7,0.6-0.7,1.1c0,0.3,0.1,0.5,0.3,0.7c0.2,0.2,0.6,0.4,1.3,0.6l3.3,0.8
		c1.5,0.4,2.6,0.9,3.3,1.7c0.7,0.8,1,1.7,1,2.8c0,1.5-0.6,2.7-1.9,3.5c-1.2,0.9-2.9,1.3-4.9,1.3c-1.6,0-3-0.3-4.2-0.9
		c-1.2-0.6-2-1.3-2.5-2.3c-0.1-0.1-0.1-0.3-0.1-0.4c0-0.1,0.1-0.2,0.2-0.3l1.9-1c0.2-0.1,0.3-0.1,0.4-0.1s0.2,0,0.3,0.1
		c0.4,0.6,0.9,1.1,1.5,1.4c0.6,0.4,1.4,0.5,2.4,0.5c0.9,0,1.6-0.1,2.2-0.4c0.6-0.3,0.8-0.7,0.8-1.2c0-0.3-0.1-0.6-0.4-0.9
		c-0.3-0.2-0.8-0.4-1.4-0.6l-2.9-0.6c-2.9-0.6-4.3-2.1-4.3-4.3c0-0.9,0.3-1.8,0.8-2.5c0.5-0.7,1.3-1.3,2.2-1.7
		c1-0.4,2.1-0.6,3.4-0.6c1.4,0,2.6,0.3,3.7,0.8c1.1,0.5,1.8,1.2,2.3,1.9c0.1,0.2,0.2,0.3,0.2,0.4c0,0.1-0.1,0.2-0.2,0.3l-2,1
		c-0.1,0-0.1,0.1-0.2,0.1c-0.2,0-0.3-0.1-0.4-0.2C889.6,127.2,888.5,126.6,887.1,126.6z"/>
	<path class="st0" d="M901.1,135.6c0.7,0.7,1.6,1,2.7,1c0.7,0,1.3-0.1,1.9-0.4c0.6-0.3,1.2-0.8,1.7-1.5c0.1-0.1,0.2-0.1,0.2-0.1
		c0.1,0,0.2,0,0.3,0.1l2,0.9c0.1,0.1,0.2,0.2,0.2,0.3c0,0.1,0,0.2-0.1,0.3c-0.9,1.3-1.9,2.2-2.9,2.7c-1,0.5-2.3,0.8-3.9,0.8
		c-1.5,0-2.8-0.3-3.9-1s-2.1-1.5-2.8-2.7c-0.7-1.1-1-2.5-1-3.9c0-1.6,0.3-3,1-4.2c0.7-1.2,1.6-2.2,2.8-2.8c1.2-0.7,2.4-1,3.8-1
		c1.4,0,2.7,0.3,3.8,0.9c1.1,0.6,2,1.5,2.6,2.7s0.9,2.6,0.9,4.3c0,0.2,0,0.4-0.1,0.5c0,0.1-0.2,0.2-0.4,0.2h-9.6
		c-0.2,0-0.3,0.2-0.3,0.5C900,134.1,900.4,135,901.1,135.6z M905.7,130.2c0.2,0,0.3,0,0.4-0.1c0.1,0,0.1-0.2,0.1-0.3
		c0-0.5-0.1-1-0.3-1.5c-0.2-0.5-0.6-0.9-1-1.2s-1-0.5-1.6-0.5c-0.9,0-1.7,0.3-2.3,1c-0.6,0.7-0.9,1.5-0.9,2.6L905.7,130.2z"/>
	<path class="st0" d="M922.5,139.6c-1.4,0-2.5-0.4-3.4-1.1s-1.2-1.8-1.2-3c0-1.6,0.7-2.9,2.2-3.8c1.5-1,3.5-1.5,6-1.5l1-0.1
		c0.1,0,0.2,0,0.3-0.1c0.1-0.1,0.1-0.2,0.1-0.3V129c0-0.7-0.2-1.3-0.6-1.7c-0.4-0.4-1-0.6-1.8-0.6c-1.3,0-2.3,0.6-2.9,1.7
		c-0.1,0.2-0.2,0.3-0.4,0.3c-0.1,0-0.2,0-0.3,0l-2.8-0.7c-0.2,0-0.3-0.1-0.3-0.3c0-0.1,0-0.3,0.1-0.4c0.5-1.1,1.3-1.9,2.4-2.5
		c1.2-0.5,2.6-0.8,4.3-0.8c2.2,0,3.9,0.4,4.9,1.2c1,0.8,1.5,2,1.5,3.5v10c0,0.2,0,0.4-0.1,0.5c-0.1,0.1-0.2,0.1-0.4,0.1h-2.9
		c-0.2,0-0.3-0.1-0.4-0.2s-0.1-0.3-0.2-0.6l0-0.6c0-0.2-0.1-0.3-0.2-0.3c-0.1,0-0.2,0.1-0.4,0.2C925.7,139,924.2,139.6,922.5,139.6z
		 M927.4,132.2c-0.1-0.1-0.2-0.1-0.3-0.1l-0.8,0.1c-1.1,0.1-2.1,0.3-2.9,0.8c-0.8,0.5-1.3,1.1-1.3,1.9c0,0.6,0.2,1,0.6,1.3
		c0.4,0.3,0.9,0.5,1.6,0.5c0.9,0,1.6-0.3,2.2-0.8c0.6-0.5,0.9-1,0.9-1.5v-1.8C927.5,132.4,927.4,132.3,927.4,132.2z"/>
	<path class="st0" d="M945.6,125.2c1.1,0.8,1.8,1.9,2.2,3c0,0.2,0.1,0.2,0.1,0.3c0,0.2-0.1,0.3-0.4,0.3l-3,0.3h-0.1
		c-0.2,0-0.3-0.1-0.3-0.3c-0.3-0.7-0.7-1.2-1-1.5c-0.3-0.3-0.8-0.5-1.5-0.5c-1,0-1.8,0.4-2.4,1.2c-0.6,0.8-0.9,2.1-0.9,3.7
		c0,1.7,0.3,2.9,0.9,3.7c0.6,0.8,1.5,1.2,2.6,1.2c0.8,0,1.4-0.2,1.9-0.6c0.5-0.4,1-1,1.4-1.8c0.1-0.1,0.1-0.1,0.2-0.2
		c0.1,0,0.2,0,0.3,0l2.1,0.5c0.2,0,0.3,0.1,0.3,0.3l-0.1,0.3c-0.4,1.1-1.1,2.1-2.2,3c-1.1,0.9-2.5,1.3-4.3,1.3c-1.5,0-2.8-0.3-3.9-1
		c-1.1-0.7-2-1.6-2.7-2.7s-1-2.5-1-4c0-1.5,0.3-2.9,1-4.1c0.7-1.2,1.5-2.1,2.7-2.8c1.1-0.7,2.4-1,3.9-1
		C943.1,124,944.5,124.4,945.6,125.2z"/>
	<path class="st0" d="M950.4,139.2c-0.1-0.1-0.1-0.2-0.1-0.4v-19.9c0-0.4,0.2-0.5,0.5-0.5h3.4c0.3,0,0.4,0.2,0.4,0.5v7.3
		c0,0.2,0,0.2,0.1,0.2c0.1,0,0.1,0,0.2-0.1c0.9-0.8,1.7-1.3,2.4-1.6c0.7-0.3,1.5-0.5,2.4-0.5c1.4,0,2.5,0.4,3.3,1.2
		c0.8,0.8,1.2,1.9,1.2,3.3v10.1c0,0.5-0.2,0.7-0.7,0.7h-3.1c-0.2,0-0.4,0-0.4-0.1s-0.1-0.2-0.1-0.4v-9.6c0-0.6-0.2-1.1-0.5-1.5
		c-0.3-0.3-0.9-0.5-1.5-0.5c-0.6,0-1.1,0.1-1.6,0.4c-0.5,0.3-1,0.7-1.5,1.3v9.8c0,0.2-0.1,0.4-0.2,0.5s-0.3,0.2-0.6,0.2h-3
		C950.6,139.3,950.5,139.2,950.4,139.2z"/>
	<path class="st0" d="M971.6,121.7c0,0.5-0.3,0.7-0.8,0.7h-3.1c-0.2,0-0.4-0.1-0.5-0.2c-0.1-0.1-0.1-0.3-0.1-0.5v-3
		c0-0.4,0.2-0.6,0.5-0.6h3.5c0.1,0,0.2,0,0.3,0.1c0.1,0.1,0.1,0.2,0.1,0.4V121.7z M971.5,138.6c0,0.2-0.1,0.4-0.2,0.5
		s-0.3,0.2-0.6,0.2h-3c-0.2,0-0.4,0-0.5-0.1c-0.1-0.1-0.1-0.2-0.1-0.5v-13.9c0-0.4,0.2-0.5,0.5-0.5h3.5c0.3,0,0.4,0.2,0.4,0.5V138.6
		z"/>
	<path class="st0" d="M979.5,135.6c0.7,0.7,1.6,1,2.7,1c0.7,0,1.3-0.1,1.9-0.4c0.6-0.3,1.2-0.8,1.7-1.5c0.1-0.1,0.2-0.1,0.2-0.1
		c0.1,0,0.2,0,0.3,0.1l2,0.9c0.1,0.1,0.2,0.2,0.2,0.3c0,0.1,0,0.2-0.1,0.3c-0.9,1.3-1.9,2.2-2.9,2.7c-1,0.5-2.3,0.8-3.9,0.8
		c-1.5,0-2.8-0.3-3.9-1s-2.1-1.5-2.8-2.7c-0.7-1.1-1-2.5-1-3.9c0-1.6,0.3-3,1-4.2c0.7-1.2,1.6-2.2,2.8-2.8c1.2-0.7,2.4-1,3.8-1
		c1.4,0,2.7,0.3,3.8,0.9c1.1,0.6,2,1.5,2.6,2.7s0.9,2.6,0.9,4.3c0,0.2,0,0.4-0.1,0.5c0,0.1-0.2,0.2-0.4,0.2h-9.6
		c-0.2,0-0.3,0.2-0.3,0.5C978.5,134.1,978.8,135,979.5,135.6z M984.2,130.2c0.2,0,0.3,0,0.4-0.1c0.1,0,0.1-0.2,0.1-0.3
		c0-0.5-0.1-1-0.3-1.5c-0.2-0.5-0.6-0.9-1-1.2s-1-0.5-1.6-0.5c-0.9,0-1.7,0.3-2.3,1c-0.6,0.7-0.9,1.5-0.9,2.6L984.2,130.2z"/>
	<path class="st0" d="M1005.3,124.5c0.1,0.1,0.1,0.3,0,0.5l-5.6,13.8c-0.2,0.4-0.5,0.6-0.9,0.6h-2c-0.4,0-0.7-0.2-0.9-0.6l-5.6-13.8
		c0-0.1-0.1-0.2-0.1-0.2c0-0.1,0-0.2,0.1-0.3c0.1-0.1,0.2-0.1,0.3-0.1h3.6c0.3,0,0.5,0.2,0.6,0.5l3.3,8.4c0.1,0.2,0.2,0.3,0.2,0.3
		c0.1,0,0.2-0.1,0.2-0.3l3.2-8.4c0.1-0.3,0.3-0.5,0.6-0.5h2.4C1005.1,124.3,1005.2,124.3,1005.3,124.5z"/>
	<path class="st0" d="M1011.5,135.6c0.7,0.7,1.6,1,2.7,1c0.7,0,1.3-0.1,1.9-0.4c0.6-0.3,1.2-0.8,1.7-1.5c0.1-0.1,0.2-0.1,0.2-0.1
		c0.1,0,0.2,0,0.3,0.1l2,0.9c0.1,0.1,0.2,0.2,0.2,0.3c0,0.1,0,0.2-0.1,0.3c-0.9,1.3-1.9,2.2-2.9,2.7c-1,0.5-2.3,0.8-3.9,0.8
		c-1.5,0-2.8-0.3-3.9-1s-2.1-1.5-2.8-2.7c-0.7-1.1-1-2.5-1-3.9c0-1.6,0.3-3,1-4.2c0.7-1.2,1.6-2.2,2.8-2.8c1.2-0.7,2.4-1,3.8-1
		c1.4,0,2.7,0.3,3.8,0.9c1.1,0.6,2,1.5,2.6,2.7s0.9,2.6,0.9,4.3c0,0.2,0,0.4-0.1,0.5c0,0.1-0.2,0.2-0.4,0.2h-9.6
		c-0.2,0-0.3,0.2-0.3,0.5C1010.5,134.1,1010.8,135,1011.5,135.6z M1016.2,130.2c0.2,0,0.3,0,0.4-0.1c0.1,0,0.1-0.2,0.1-0.3
		c0-0.5-0.1-1-0.3-1.5c-0.2-0.5-0.6-0.9-1-1.2s-1-0.5-1.6-0.5c-0.9,0-1.7,0.3-2.3,1c-0.6,0.7-0.9,1.5-0.9,2.6L1016.2,130.2z"/>
	<path class="st0" d="M1023.4,139.2c-0.1-0.1-0.1-0.2-0.1-0.4v-13.9c0-0.2,0-0.3,0.1-0.4c0.1-0.1,0.2-0.1,0.3-0.1h3.4
		c0.3,0,0.4,0.2,0.4,0.5v1.4c0,0.2,0,0.2,0.1,0.2c0.1,0,0.1,0,0.2-0.1c0.8-0.7,1.6-1.3,2.3-1.7s1.6-0.6,2.4-0.6c1,0,1.9,0.2,2.6,0.7
		c0.7,0.5,1.2,1.1,1.5,1.9c0,0.1,0.1,0.1,0.1,0.1c0.1,0,0.2,0,0.3-0.1c0.7-0.8,1.5-1.4,2.4-1.9s1.8-0.7,2.6-0.7
		c1.3,0,2.4,0.4,3.2,1.2c0.8,0.8,1.2,1.9,1.2,3.3v10.1c0,0.5-0.2,0.7-0.7,0.7h-3.1c-0.2,0-0.3,0-0.4-0.1c-0.1-0.1-0.1-0.2-0.1-0.4
		v-9.6c0-0.6-0.2-1.1-0.5-1.5c-0.3-0.4-0.8-0.5-1.4-0.5c-0.5,0-1,0.1-1.5,0.4c-0.5,0.3-0.9,0.6-1.2,1c-0.1,0.1-0.2,0.3-0.2,0.4
		c0,0.1-0.1,0.3-0.1,0.4v9.2c0,0.5-0.2,0.7-0.7,0.7h-3.1c-0.2,0-0.3,0-0.4-0.1c-0.1-0.1-0.1-0.2-0.1-0.4v-9.6c0-0.6-0.2-1.1-0.5-1.5
		c-0.3-0.4-0.8-0.5-1.5-0.5c-0.5,0-1.1,0.1-1.5,0.4c-0.5,0.3-1,0.7-1.5,1.3v9.8c0,0.2-0.1,0.4-0.2,0.5s-0.3,0.2-0.6,0.2h-3
		C1023.7,139.3,1023.5,139.2,1023.4,139.2z"/>
	<path class="st0" d="M1054.2,135.6c0.7,0.7,1.6,1,2.7,1c0.7,0,1.3-0.1,1.9-0.4c0.6-0.3,1.2-0.8,1.7-1.5c0.1-0.1,0.2-0.1,0.2-0.1
		c0.1,0,0.2,0,0.3,0.1l2,0.9c0.1,0.1,0.2,0.2,0.2,0.3c0,0.1,0,0.2-0.1,0.3c-0.9,1.3-1.9,2.2-2.9,2.7c-1,0.5-2.3,0.8-3.9,0.8
		c-1.5,0-2.8-0.3-3.9-1s-2.1-1.5-2.8-2.7c-0.7-1.1-1-2.5-1-3.9c0-1.6,0.3-3,1-4.2c0.7-1.2,1.6-2.2,2.8-2.8c1.2-0.7,2.4-1,3.8-1
		c1.4,0,2.7,0.3,3.8,0.9c1.1,0.6,2,1.5,2.6,2.7s0.9,2.6,0.9,4.3c0,0.2,0,0.4-0.1,0.5c0,0.1-0.2,0.2-0.4,0.2h-9.6
		c-0.2,0-0.3,0.2-0.3,0.5C1053.1,134.1,1053.5,135,1054.2,135.6z M1058.8,130.2c0.2,0,0.3,0,0.4-0.1c0.1,0,0.1-0.2,0.1-0.3
		c0-0.5-0.1-1-0.3-1.5c-0.2-0.5-0.6-0.9-1-1.2s-1-0.5-1.6-0.5c-0.9,0-1.7,0.3-2.3,1c-0.6,0.7-0.9,1.5-0.9,2.6L1058.8,130.2z"/>
	<path class="st0" d="M1066.1,139.2c-0.1-0.1-0.1-0.2-0.1-0.4v-13.9c0-0.4,0.2-0.5,0.5-0.5h3.4c0.3,0,0.4,0.2,0.4,0.5v1.4
		c0,0.2,0,0.2,0.1,0.2c0.1,0,0.1,0,0.2-0.1c0.8-0.7,1.5-1.3,2.3-1.7c0.8-0.4,1.6-0.6,2.5-0.6c1.4,0,2.5,0.4,3.3,1.2
		c0.8,0.8,1.2,1.9,1.2,3.3v10.1c0,0.5-0.2,0.7-0.7,0.7h-3.1c-0.2,0-0.4,0-0.4-0.1s-0.1-0.2-0.1-0.4v-9.6c0-0.6-0.2-1.1-0.5-1.5
		c-0.3-0.3-0.9-0.5-1.5-0.5c-0.6,0-1.1,0.1-1.6,0.4c-0.5,0.3-1,0.7-1.5,1.3v9.8c0,0.2-0.1,0.4-0.2,0.5s-0.3,0.2-0.6,0.2h-3
		C1066.3,139.3,1066.2,139.2,1066.1,139.2z"/>
	<path class="st0" d="M1089.2,127.3c-0.2,0-0.3,0.1-0.3,0.3v6.8c0,0.6,0.2,1.1,0.5,1.4c0.3,0.3,0.8,0.4,1.4,0.4h1.5
		c0.1,0,0.2,0,0.3,0.1c0.1,0.1,0.1,0.2,0.1,0.4l0,1.7c0,0.4-0.2,0.6-0.6,0.7c-0.8,0.1-1.9,0.2-3.4,0.2c-1.3,0-2.4-0.3-3.1-0.9
		c-0.7-0.6-1.1-1.5-1.1-2.7v-7.9c0-0.3-0.1-0.4-0.4-0.4h-1.7c-0.4,0-0.5-0.2-0.5-0.5v-2.1c0-0.3,0.2-0.4,0.5-0.4h2
		c0.2,0,0.2-0.1,0.3-0.3l0.4-4.3c0-0.3,0.2-0.5,0.4-0.5h3.1c0.1,0,0.2,0,0.3,0.1c0.1,0.1,0.1,0.2,0.1,0.4v4.3c0,0.2,0.1,0.3,0.3,0.3
		h3c0.3,0,0.5,0.2,0.5,0.5v2.1c0,0.3-0.2,0.5-0.6,0.5H1089.2z"/>
	<path class="st0" d="M832.6,179.1v-13.9c0-0.4,0.2-0.5,0.5-0.5h3.3c0.3,0,0.5,0.2,0.5,0.5v1.7c0,0.1,0,0.1,0.1,0.2
		c0,0,0.1,0.1,0.1,0.1c0.1,0,0.1,0,0.2-0.1c0.6-0.8,1.2-1.4,2-1.8c0.8-0.5,1.5-0.7,2.2-0.7c0.7,0,1,0.2,1,0.5v3.3
		c0,0.1,0,0.2-0.1,0.3c-0.1,0.1-0.2,0.1-0.3,0.1c-0.6-0.2-1.3-0.2-2-0.2c-0.5,0-1,0.1-1.4,0.4c-0.5,0.2-0.9,0.5-1.2,0.9
		c-0.3,0.4-0.5,0.8-0.5,1.2v8.3c0,0.4-0.2,0.7-0.7,0.7h-3C832.8,179.7,832.6,179.5,832.6,179.1z"/>
	<path class="st0" d="M849.1,176c0.7,0.7,1.6,1,2.7,1c0.7,0,1.3-0.1,1.9-0.4c0.6-0.3,1.2-0.8,1.7-1.5c0.1-0.1,0.2-0.1,0.2-0.1
		c0.1,0,0.2,0,0.3,0.1l2,0.9c0.1,0.1,0.2,0.2,0.2,0.3c0,0.1,0,0.2-0.1,0.3c-0.9,1.3-1.9,2.2-2.9,2.7c-1,0.5-2.3,0.8-3.9,0.8
		c-1.5,0-2.8-0.3-3.9-1s-2.1-1.5-2.8-2.7c-0.7-1.1-1-2.5-1-3.9c0-1.6,0.3-3,1-4.2c0.7-1.2,1.6-2.2,2.8-2.8c1.2-0.7,2.4-1,3.8-1
		c1.4,0,2.7,0.3,3.8,0.9c1.1,0.6,2,1.5,2.6,2.7s0.9,2.6,0.9,4.3c0,0.2,0,0.4-0.1,0.5c0,0.1-0.2,0.2-0.4,0.2h-9.6
		c-0.2,0-0.3,0.2-0.3,0.5C848,174.5,848.4,175.4,849.1,176z M853.7,170.6c0.2,0,0.3,0,0.4-0.1c0.1,0,0.1-0.2,0.1-0.3
		c0-0.5-0.1-1-0.3-1.5c-0.2-0.5-0.6-0.9-1-1.2s-1-0.5-1.6-0.5c-0.9,0-1.7,0.3-2.3,1c-0.6,0.7-0.9,1.5-0.9,2.6L853.7,170.6z"/>
	<path class="st0" d="M866.8,167.1c-0.7,0-1.3,0.1-1.8,0.4s-0.7,0.6-0.7,1.1c0,0.3,0.1,0.5,0.3,0.7c0.2,0.2,0.6,0.4,1.3,0.6l3.3,0.8
		c1.5,0.4,2.6,0.9,3.3,1.7c0.7,0.8,1,1.7,1,2.8c0,1.5-0.6,2.7-1.9,3.5c-1.2,0.9-2.9,1.3-4.9,1.3c-1.6,0-3-0.3-4.2-0.9
		c-1.2-0.6-2-1.3-2.5-2.3c-0.1-0.1-0.1-0.3-0.1-0.4c0-0.1,0.1-0.2,0.2-0.3l1.9-1c0.2-0.1,0.3-0.1,0.4-0.1s0.2,0,0.3,0.1
		c0.4,0.6,0.9,1.1,1.5,1.4c0.6,0.4,1.4,0.5,2.4,0.5c0.9,0,1.6-0.1,2.2-0.4c0.6-0.3,0.8-0.7,0.8-1.2c0-0.3-0.1-0.6-0.4-0.9
		c-0.3-0.2-0.8-0.4-1.4-0.6l-2.9-0.6c-2.9-0.6-4.3-2.1-4.3-4.3c0-0.9,0.3-1.8,0.8-2.5c0.5-0.7,1.3-1.3,2.2-1.7
		c1-0.4,2.1-0.6,3.4-0.6c1.4,0,2.6,0.3,3.7,0.8c1.1,0.5,1.8,1.2,2.3,1.9c0.1,0.2,0.2,0.3,0.2,0.4c0,0.1-0.1,0.2-0.2,0.3l-2,1
		c-0.1,0-0.1,0.1-0.2,0.1c-0.2,0-0.3-0.1-0.4-0.2C869.3,167.6,868.2,167.1,866.8,167.1z"/>
	<path class="st0" d="M880.1,164.8c0.1,0.1,0.1,0.2,0.1,0.4v0.9c0,0.1,0,0.2,0.1,0.2c0.1,0,0.2,0,0.3-0.1c0.6-0.5,1.2-1,1.8-1.3
		s1.4-0.5,2.3-0.5c1.7,0,3.1,0.7,4.2,2s1.6,3.2,1.6,5.7c0,2.6-0.6,4.6-1.7,5.9s-2.6,2-4.4,2c-1.5,0-2.8-0.5-3.8-1.4
		c-0.2-0.2-0.3-0.2-0.4-0.2c-0.1,0-0.1,0.1-0.1,0.4v5.2c0,0.3-0.1,0.5-0.4,0.5h-3.5c-0.1,0-0.2,0-0.3-0.1s-0.1-0.2-0.1-0.4v-18.6
		c0-0.2,0.1-0.4,0.2-0.5c0.1-0.1,0.3-0.1,0.5-0.1h3.1C879.8,164.7,880,164.7,880.1,164.8z M881.5,176.9c0.4,0.2,0.9,0.4,1.4,0.4
		c2.2,0,3.2-1.7,3.2-5.2c0-1.7-0.3-3-0.8-3.7c-0.5-0.7-1.3-1.1-2.3-1.1c-0.8,0-1.4,0.2-2,0.7c-0.5,0.5-0.8,1-0.8,1.6v6.4
		C880.6,176.3,881.1,176.6,881.5,176.9z"/>
	<path class="st0" d="M896.1,179c-1.1-0.7-2-1.6-2.7-2.7s-1-2.5-1-4c0-1.5,0.3-2.9,1-4.1c0.7-1.2,1.6-2.1,2.7-2.8
		c1.2-0.7,2.5-1,3.9-1c1.5,0,2.8,0.3,4,1c1.2,0.7,2,1.6,2.7,2.8c0.6,1.2,0.9,2.5,0.9,4.1c0,1.5-0.3,2.8-1,4s-1.5,2.1-2.7,2.7
		c-1.2,0.7-2.5,1-4,1S897.2,179.7,896.1,179z M902.4,175.9c0.5-0.8,0.8-2,0.8-3.7c0-1.6-0.3-2.9-0.8-3.7c-0.5-0.8-1.3-1.3-2.4-1.3
		s-1.8,0.4-2.4,1.3c-0.5,0.8-0.8,2.1-0.8,3.7c0,1.6,0.3,2.8,0.8,3.7c0.5,0.8,1.3,1.2,2.4,1.2S901.9,176.7,902.4,175.9z"/>
	<path class="st0" d="M910.2,179.6c-0.1-0.1-0.1-0.2-0.1-0.4v-13.9c0-0.4,0.2-0.5,0.5-0.5h3.4c0.3,0,0.4,0.2,0.4,0.5v1.4
		c0,0.2,0,0.2,0.1,0.2c0.1,0,0.1,0,0.2-0.1c0.8-0.7,1.5-1.3,2.3-1.7c0.8-0.4,1.6-0.6,2.5-0.6c1.4,0,2.5,0.4,3.3,1.2
		c0.8,0.8,1.2,1.9,1.2,3.3V179c0,0.5-0.2,0.7-0.7,0.7h-3.1c-0.2,0-0.4,0-0.4-0.1s-0.1-0.2-0.1-0.4v-9.6c0-0.6-0.2-1.1-0.5-1.5
		c-0.3-0.3-0.9-0.5-1.5-0.5c-0.6,0-1.1,0.1-1.6,0.4c-0.5,0.3-1,0.7-1.5,1.3v9.8c0,0.2-0.1,0.4-0.2,0.5s-0.3,0.2-0.6,0.2h-3
		C910.5,179.7,910.3,179.7,910.2,179.6z"/>
	<path class="st0" d="M932.9,167.1c-0.7,0-1.3,0.1-1.8,0.4s-0.7,0.6-0.7,1.1c0,0.3,0.1,0.5,0.3,0.7c0.2,0.2,0.6,0.4,1.3,0.6l3.3,0.8
		c1.5,0.4,2.6,0.9,3.3,1.7c0.7,0.8,1,1.7,1,2.8c0,1.5-0.6,2.7-1.9,3.5c-1.2,0.9-2.9,1.3-4.9,1.3c-1.6,0-3-0.3-4.2-0.9
		c-1.2-0.6-2-1.3-2.5-2.3c-0.1-0.1-0.1-0.3-0.1-0.4c0-0.1,0.1-0.2,0.2-0.3l1.9-1c0.2-0.1,0.3-0.1,0.4-0.1s0.2,0,0.3,0.1
		c0.4,0.6,0.9,1.1,1.5,1.4c0.6,0.4,1.4,0.5,2.4,0.5c0.9,0,1.6-0.1,2.2-0.4c0.6-0.3,0.8-0.7,0.8-1.2c0-0.3-0.1-0.6-0.4-0.9
		c-0.3-0.2-0.8-0.4-1.4-0.6l-2.9-0.6c-2.9-0.6-4.3-2.1-4.3-4.3c0-0.9,0.3-1.8,0.8-2.5c0.5-0.7,1.3-1.3,2.2-1.7
		c1-0.4,2.1-0.6,3.4-0.6c1.4,0,2.6,0.3,3.7,0.8c1.1,0.5,1.8,1.2,2.3,1.9c0.1,0.2,0.2,0.3,0.2,0.4c0,0.1-0.1,0.2-0.2,0.3l-2,1
		c-0.1,0-0.1,0.1-0.2,0.1c-0.2,0-0.3-0.1-0.4-0.2C935.5,167.6,934.4,167.1,932.9,167.1z"/>
	<path class="st0" d="M946.4,162.2c0,0.5-0.3,0.7-0.8,0.7h-3.1c-0.2,0-0.4-0.1-0.5-0.2c-0.1-0.1-0.1-0.3-0.1-0.5v-3
		c0-0.4,0.2-0.6,0.5-0.6h3.5c0.1,0,0.2,0,0.3,0.1c0.1,0.1,0.1,0.2,0.1,0.4V162.2z M946.4,179c0,0.2-0.1,0.4-0.2,0.5
		s-0.3,0.2-0.6,0.2h-3c-0.2,0-0.4,0-0.5-0.1c-0.1-0.1-0.1-0.2-0.1-0.5v-13.9c0-0.4,0.2-0.5,0.5-0.5h3.5c0.3,0,0.4,0.2,0.4,0.5V179z"
		/>
	<path class="st0" d="M950.2,179.7c-0.2,0-0.4-0.1-0.5-0.2s-0.2-0.3-0.2-0.5v-19.9c0-0.2,0-0.3,0.1-0.4c0.1-0.1,0.2-0.1,0.4-0.1h3.5
		c0.3,0,0.4,0.2,0.4,0.5v6.6c0,0.2,0.1,0.3,0.2,0.3c0.1,0,0.2,0,0.3-0.1c1.1-1.1,2.5-1.6,4-1.6c1.9,0,3.3,0.7,4.4,2.1
		c1,1.4,1.5,3.3,1.5,5.6c0,2.4-0.6,4.4-1.7,5.8c-1.1,1.4-2.7,2.1-4.8,2.1c-1,0-1.8-0.2-2.6-0.7c-0.8-0.4-1.4-1-1.9-1.6
		c-0.1-0.1-0.2-0.1-0.2-0.1c-0.1,0-0.1,0.1-0.1,0.2l-0.3,1.4c-0.1,0.2-0.1,0.4-0.2,0.4c-0.1,0.1-0.2,0.1-0.4,0.1H950.2z
		 M953.9,174.5c0,0.8,0.3,1.5,0.8,2c0.6,0.5,1.2,0.8,2,0.8c2.1,0,3.1-1.7,3.1-5.2c0-1.7-0.3-3-0.8-3.8s-1.3-1.2-2.3-1.2
		c-1.1,0-2.1,0.5-2.9,1.5V174.5z"/>
	<path class="st0" d="M971.2,162.2c0,0.5-0.3,0.7-0.8,0.7h-3.1c-0.2,0-0.4-0.1-0.5-0.2c-0.1-0.1-0.1-0.3-0.1-0.5v-3
		c0-0.4,0.2-0.6,0.5-0.6h3.5c0.1,0,0.2,0,0.3,0.1c0.1,0.1,0.1,0.2,0.1,0.4V162.2z M971.2,179c0,0.2-0.1,0.4-0.2,0.5
		s-0.3,0.2-0.6,0.2h-3c-0.2,0-0.4,0-0.5-0.1c-0.1-0.1-0.1-0.2-0.1-0.5v-13.9c0-0.4,0.2-0.5,0.5-0.5h3.5c0.3,0,0.4,0.2,0.4,0.5V179z"
		/>
	<path class="st0" d="M978.7,179c0,0.2-0.1,0.4-0.2,0.5s-0.3,0.2-0.6,0.2h-3c-0.2,0-0.4,0-0.5-0.1c-0.1-0.1-0.1-0.2-0.1-0.5
		l0.1-19.9c0-0.4,0.2-0.5,0.5-0.5h3.4c0.3,0,0.4,0.2,0.4,0.5V179z"/>
	<path class="st0" d="M986.3,162.2c0,0.5-0.3,0.7-0.8,0.7h-3.1c-0.2,0-0.4-0.1-0.5-0.2c-0.1-0.1-0.1-0.3-0.1-0.5v-3
		c0-0.4,0.2-0.6,0.5-0.6h3.5c0.1,0,0.2,0,0.3,0.1c0.1,0.1,0.1,0.2,0.1,0.4V162.2z M986.2,179c0,0.2-0.1,0.4-0.2,0.5
		s-0.3,0.2-0.6,0.2h-3c-0.2,0-0.4,0-0.5-0.1c-0.1-0.1-0.1-0.2-0.1-0.5v-13.9c0-0.4,0.2-0.5,0.5-0.5h3.5c0.3,0,0.4,0.2,0.4,0.5V179z"
		/>
	<path class="st0" d="M995.7,167.7c-0.2,0-0.3,0.1-0.3,0.3v6.8c0,0.6,0.2,1.1,0.5,1.4c0.3,0.3,0.8,0.4,1.4,0.4h1.5
		c0.1,0,0.2,0,0.3,0.1c0.1,0.1,0.1,0.2,0.1,0.4l0,1.7c0,0.4-0.2,0.6-0.6,0.7c-0.8,0.1-1.9,0.2-3.4,0.2c-1.3,0-2.4-0.3-3.1-0.9
		c-0.7-0.6-1.1-1.5-1.1-2.7v-7.9c0-0.3-0.1-0.4-0.4-0.4h-1.7c-0.4,0-0.5-0.2-0.5-0.5v-2.1c0-0.3,0.2-0.4,0.5-0.4h2
		c0.2,0,0.2-0.1,0.3-0.3l0.4-4.3c0-0.3,0.2-0.5,0.4-0.5h3.1c0.1,0,0.2,0,0.3,0.1c0.1,0.1,0.1,0.2,0.1,0.4v4.3c0,0.2,0.1,0.3,0.3,0.3
		h3c0.3,0,0.5,0.2,0.5,0.5v2.1c0,0.3-0.2,0.5-0.6,0.5H995.7z"/>
	<path class="st0" d="M1001.7,184.3c-0.2-0.1-0.4-0.2-0.4-0.4v-2.2c0-0.3,0.3-0.5,0.8-0.5h1.9c0.6,0,1.1-0.2,1.5-0.6
		c0.4-0.4,0.6-0.9,0.6-1.3c0-0.2,0-0.3-0.1-0.5l-5.4-13.4c0-0.1-0.1-0.2-0.1-0.2c0-0.1,0-0.2,0.1-0.3c0.1-0.1,0.2-0.1,0.4-0.1h3.6
		c0.1,0,0.3,0,0.4,0.1s0.2,0.2,0.2,0.4l3.1,8.4c0.1,0.2,0.1,0.3,0.2,0.3c0.1,0,0.2-0.1,0.3-0.3l3.1-8.4c0.1-0.3,0.3-0.5,0.6-0.5h2.4
		c0.1,0,0.2,0,0.3,0.1s0.1,0.2,0.1,0.3c0,0,0,0.1-0.1,0.2l-5.8,14.4c-0.5,1.3-1.1,2.3-1.7,2.9c-0.6,0.7-1.3,1.1-2,1.4
		s-1.8,0.4-3,0.4C1002.4,184.4,1001.9,184.4,1001.7,184.3z"/>
	<path class="st0" d="M848.4,205.1v1.9c0,0.5-0.2,0.7-0.7,0.7c-0.3-0.1-0.6-0.1-0.8-0.1c-0.2,0-0.3,0-0.5,0.1
		c-0.5,0.1-0.7,0.3-0.6,0.7c0.2,0.5,0.3,0.9,0.3,1.3c0,0.9-0.3,1.7-0.8,2.4c-0.5,0.7-1.3,1.3-2.3,1.7c-1,0.4-2.3,0.6-3.7,0.6
		c-1.1,0-1.8,0.1-2.3,0.3c-0.5,0.2-0.8,0.4-0.8,0.7c0,0.2,0.1,0.4,0.4,0.5c0.3,0.1,0.7,0.2,1.4,0.2l4.1,0.2c1.9,0.1,3.3,0.5,4.2,1.2
		c0.9,0.7,1.4,1.7,1.4,2.9c0,1.5-0.7,2.7-2.1,3.5c-1.4,0.9-3.4,1.3-6,1.3c-5.5,0-8.2-1.2-8.2-3.7c0-0.6,0.2-1.1,0.7-1.5
		c0.5-0.4,1.1-0.8,2-1.1c0.1,0,0.2-0.1,0.2-0.1s-0.1-0.1-0.2-0.2c-1.1-0.5-1.6-1.2-1.6-2.1c0-0.5,0.3-1,0.8-1.4
		c0.5-0.4,1.2-0.8,2-1.1c0.2-0.1,0.2-0.2,0.1-0.3c-1.8-0.9-2.8-2.1-2.8-3.9c0-1.4,0.6-2.6,1.9-3.4c1.2-0.9,3-1.3,5.3-1.3
		c1.9,0,3.5,0.4,4.5,1.3c0.1,0.1,0.3,0.1,0.4,0.1c0.2,0,0.3-0.1,0.4-0.2c0.4-0.4,0.8-0.8,1.4-1.1c0.6-0.3,1.1-0.5,1.5-0.5
		C848.2,204.4,848.4,204.7,848.4,205.1z M837.1,219.3c-0.6,0-1.1,0.1-1.6,0.4s-0.7,0.7-0.7,1.2c0,0.7,0.4,1.2,1.2,1.6
		c0.8,0.4,2,0.5,3.8,0.5c1.3,0,2.2-0.2,2.9-0.5c0.7-0.4,1-0.8,1-1.5c0-0.4-0.2-0.8-0.6-1c-0.4-0.3-0.9-0.4-1.7-0.5L837.1,219.3z
		 M841.4,211.4c0.5-0.4,0.7-1,0.7-1.7c0-0.8-0.2-1.4-0.7-1.9c-0.5-0.5-1.2-0.7-2.2-0.7c-0.9,0-1.6,0.2-2.1,0.7
		c-0.5,0.5-0.8,1.1-0.8,1.9c0,0.7,0.3,1.3,0.8,1.7c0.5,0.4,1.2,0.7,2.1,0.7C840.2,212,840.9,211.8,841.4,211.4z"/>
	<path class="st0" d="M850.6,219.6v-13.9c0-0.4,0.2-0.5,0.5-0.5h3.3c0.3,0,0.5,0.2,0.5,0.5v1.7c0,0.1,0,0.1,0.1,0.2
		c0,0,0.1,0.1,0.1,0.1c0.1,0,0.1,0,0.2-0.1c0.6-0.8,1.2-1.4,2-1.8c0.8-0.5,1.5-0.7,2.2-0.7c0.7,0,1,0.2,1,0.5v3.3
		c0,0.1,0,0.2-0.1,0.3c-0.1,0.1-0.2,0.1-0.3,0.1c-0.6-0.2-1.3-0.2-2-0.2c-0.5,0-1,0.1-1.4,0.4c-0.5,0.2-0.9,0.5-1.2,0.9
		c-0.3,0.4-0.5,0.8-0.5,1.2v8.3c0,0.4-0.2,0.7-0.7,0.7h-3C850.8,220.1,850.6,219.9,850.6,219.6z"/>
	<path class="st0" d="M865.1,219.4c-1.1-0.7-2-1.6-2.7-2.7s-1-2.5-1-4c0-1.5,0.3-2.9,1-4.1c0.7-1.2,1.6-2.1,2.7-2.8
		c1.2-0.7,2.5-1,3.9-1c1.5,0,2.8,0.3,4,1c1.2,0.7,2,1.6,2.7,2.8c0.6,1.2,0.9,2.5,0.9,4.1c0,1.5-0.3,2.8-1,4s-1.5,2.1-2.7,2.7
		c-1.2,0.7-2.5,1-4,1S866.3,220.1,865.1,219.4z M871.5,216.3c0.5-0.8,0.8-2,0.8-3.7c0-1.6-0.3-2.9-0.8-3.7c-0.5-0.8-1.3-1.3-2.4-1.3
		s-1.8,0.4-2.4,1.3c-0.5,0.8-0.8,2.1-0.8,3.7c0,1.6,0.3,2.8,0.8,3.7c0.5,0.8,1.3,1.2,2.4,1.2S870.9,217.1,871.5,216.3z"/>
	<path class="st0" d="M900,205.2c0.1,0.1,0.1,0.2,0.1,0.3c0,0,0,0.1-0.1,0.2l-4.6,13.9c-0.1,0.2-0.1,0.3-0.2,0.4
		c-0.1,0.1-0.2,0.1-0.4,0.1h-2.3c-0.2,0-0.4,0-0.5-0.1s-0.2-0.2-0.3-0.4l-2.4-7.8c-0.1-0.2-0.1-0.3-0.2-0.3c-0.1,0-0.1,0.1-0.2,0.3
		l-2.5,7.9c0,0.2-0.1,0.3-0.2,0.4c-0.1,0.1-0.2,0.1-0.4,0.1h-2.4c-0.2,0-0.4,0-0.5-0.1c-0.1-0.1-0.2-0.2-0.2-0.4l-4.6-13.8
		c0,0,0-0.1,0-0.2c0-0.1,0-0.2,0.1-0.3c0.1-0.1,0.2-0.1,0.4-0.1h3.3c0.1,0,0.3,0,0.4,0.1c0.1,0.1,0.2,0.2,0.2,0.4l2.5,8
		c0.1,0.2,0.1,0.3,0.2,0.3s0.1-0.1,0.2-0.3l2.4-8c0-0.1,0.1-0.2,0.2-0.3s0.2-0.1,0.4-0.1h2.4c0.2,0,0.3,0,0.4,0.1
		c0.1,0.1,0.2,0.2,0.2,0.3l2.5,8c0.1,0.2,0.1,0.3,0.2,0.3c0.1,0,0.2-0.1,0.2-0.3l2.4-8c0.1-0.3,0.3-0.5,0.7-0.5h2.2
		C899.8,205.1,900,205.1,900,205.2z"/>
	<path class="st0" d="M908.6,208.1c-0.2,0-0.3,0.1-0.3,0.3v6.8c0,0.6,0.2,1.1,0.5,1.4c0.3,0.3,0.8,0.4,1.4,0.4h1.5
		c0.1,0,0.2,0,0.3,0.1c0.1,0.1,0.1,0.2,0.1,0.4l0,1.7c0,0.4-0.2,0.6-0.6,0.7c-0.8,0.1-1.9,0.2-3.4,0.2c-1.3,0-2.4-0.3-3.1-0.9
		c-0.7-0.6-1.1-1.5-1.1-2.7v-7.9c0-0.3-0.1-0.4-0.4-0.4h-1.7c-0.4,0-0.5-0.2-0.5-0.5v-2.1c0-0.3,0.2-0.4,0.5-0.4h2
		c0.2,0,0.2-0.1,0.3-0.3l0.4-4.3c0-0.3,0.2-0.5,0.4-0.5h3.1c0.1,0,0.2,0,0.3,0.1c0.1,0.1,0.1,0.2,0.1,0.4v4.3c0,0.2,0.1,0.3,0.3,0.3
		h3c0.3,0,0.5,0.2,0.5,0.5v2.1c0,0.3-0.2,0.5-0.6,0.5H908.6z"/>
	<path class="st0" d="M914.7,220c-0.1-0.1-0.1-0.2-0.1-0.4v-19.9c0-0.4,0.2-0.5,0.5-0.5h3.4c0.3,0,0.4,0.2,0.4,0.5v7.3
		c0,0.2,0,0.2,0.1,0.2c0.1,0,0.1,0,0.2-0.1c0.9-0.8,1.7-1.3,2.4-1.6c0.7-0.3,1.5-0.5,2.4-0.5c1.4,0,2.5,0.4,3.3,1.2
		c0.8,0.8,1.2,1.9,1.2,3.3v10.1c0,0.5-0.2,0.7-0.7,0.7h-3.1c-0.2,0-0.4,0-0.4-0.1s-0.1-0.2-0.1-0.4V210c0-0.6-0.2-1.1-0.5-1.5
		c-0.3-0.3-0.9-0.5-1.5-0.5c-0.6,0-1.1,0.1-1.6,0.4c-0.5,0.3-1,0.7-1.5,1.3v9.8c0,0.2-0.1,0.4-0.2,0.5s-0.3,0.2-0.6,0.2h-3
		C915,220.1,914.8,220.1,914.7,220z"/>
</g>
<g>
	<path d="M1276.3,231.5c0,0.2-0.1,0.4-0.4,0.4h-20.2c-0.1,0-0.2-0.1-0.3-0.2c-0.1-0.1-0.1-0.2-0.1-0.4v-2.9c0-0.2,0-0.3,0.1-0.4
		c0-0.1,0.1-0.2,0.3-0.3l12.7-9c0.1-0.1,0.1-0.1,0.1-0.2c0-0.1-0.1-0.1-0.2-0.1h-12.5h-0.1c-0.2,0-0.3,0-0.3-0.1
		c-0.1-0.1-0.1-0.2-0.1-0.4v-2.9c0-0.4,0.2-0.6,0.5-0.6h20c0.4,0,0.5,0.2,0.5,0.5v3.4c0,0.2,0,0.4-0.1,0.5c0,0.1-0.2,0.2-0.4,0.3
		l-11.9,8.3c-0.2,0.1-0.2,0.2-0.2,0.3c0,0.1,0.1,0.1,0.3,0.1h11.7c0.3,0,0.5,0.2,0.5,0.5V231.5z"/>
	<path d="M1256.3,239.7c0.9-1.5,2.1-2.6,3.7-3.4s3.5-1.2,5.7-1.2c2.2,0,4.2,0.4,5.8,1.2c1.6,0.8,2.9,1.9,3.8,3.4
		c0.9,1.5,1.3,3.2,1.3,5.1c0,1.9-0.4,3.6-1.3,5.1c-0.9,1.5-2.1,2.6-3.8,3.4s-3.6,1.2-5.8,1.2c-2.2,0-4.1-0.4-5.7-1.2
		c-1.6-0.8-2.9-1.9-3.7-3.4c-0.9-1.5-1.3-3.2-1.3-5.1C1255,242.9,1255.5,241.2,1256.3,239.7z M1260.2,248.3c1.1,0.7,3,1.1,5.5,1.1
		c2.6,0,4.5-0.4,5.7-1.1c1.2-0.7,1.8-1.9,1.8-3.4c0-1.6-0.6-2.7-1.8-3.4c-1.2-0.7-3.1-1.1-5.7-1.1c-2.5,0-4.4,0.4-5.5,1.1
		c-1.1,0.7-1.7,1.9-1.7,3.5C1258.5,246.4,1259.1,247.6,1260.2,248.3z"/>
	<path d="M1272.7,274c0.3-0.6,0.5-1.5,0.5-2.5c0-1.2-0.2-2-0.6-2.6c-0.4-0.6-1-0.9-1.6-0.9c-1,0-1.7,0.8-2.2,2.3l-1.3,4.5
		c-0.5,1.7-1.2,2.9-2.2,3.8c-1,0.8-2.2,1.2-3.7,1.2c-1.3,0-2.5-0.3-3.4-1c-1-0.7-1.7-1.7-2.3-2.9c-0.5-1.3-0.8-2.8-0.8-4.5
		c0-1.9,0.3-3.7,1-5.2c0.7-1.6,1.5-2.7,2.7-3.4c0.1-0.1,0.3-0.1,0.4-0.1c0.2,0,0.3,0.1,0.5,0.3l1.5,2.2c0.1,0.2,0.2,0.4,0.2,0.5
		c0,0.2-0.1,0.3-0.2,0.4c-0.9,0.7-1.5,1.4-1.9,2.1c-0.4,0.7-0.6,1.7-0.6,2.9c0,1.3,0.2,2.3,0.6,3c0.4,0.7,1,1.1,1.8,1.1
		c0.5,0,0.9-0.2,1.3-0.5c0.4-0.4,0.7-1,0.9-1.8l1.2-4.3c0.5-1.6,1.2-2.9,2.3-3.8c1.1-0.9,2.3-1.3,3.6-1.3c1.2,0,2.3,0.3,3.3,1
		c1,0.7,1.7,1.6,2.3,2.8c0.6,1.2,0.8,2.6,0.8,4.3c0,1.6-0.3,3-0.8,4.4c-0.5,1.3-1.3,2.3-2.2,3c-0.2,0.1-0.3,0.2-0.4,0.2
		s-0.2-0.1-0.3-0.2l-1.8-2.4c-0.1-0.1-0.1-0.2-0.1-0.3c0-0.1,0.1-0.2,0.3-0.5C1271.9,275.2,1272.4,274.7,1272.7,274z"/>
	<path d="M1255.8,281.8c0.2,0,0.3,0,0.3,0.1l19.6,7.1c0.2,0.1,0.4,0.2,0.4,0.3c0.1,0.1,0.1,0.3,0.1,0.5v4.3c0,0.2-0.1,0.4-0.2,0.5
		c-0.1,0.2-0.3,0.3-0.5,0.3l-19.6,7c-0.1,0-0.2,0.1-0.3,0.1c-0.2,0-0.3,0-0.4-0.1s-0.1-0.2-0.1-0.3v-4.2c0-0.3,0.1-0.5,0.4-0.5
		l4.1-1.5c0.1,0,0.2-0.1,0.2-0.1c0,0,0.1-0.1,0.1-0.2v-6.9c0-0.2-0.1-0.3-0.3-0.4l-4.2-1.5c-0.2-0.1-0.4-0.3-0.4-0.6v-3.3
		C1255.3,281.9,1255.5,281.8,1255.8,281.8z M1263.9,293.7c0,0.2,0.1,0.3,0.2,0.3c0.1,0,0.2,0,0.3,0l6.6-2.4c0.1-0.1,0.2-0.1,0.2-0.2
		c0-0.1-0.1-0.1-0.2-0.2l-6.6-2.4c-0.1,0-0.2-0.1-0.3-0.1c-0.2,0-0.2,0.1-0.2,0.3V293.7z"/>
	<path d="M1275.8,300.4c0.2,0,0.3,0.1,0.4,0.2c0.1,0.1,0.1,0.2,0.1,0.4v16.3c0,0.4-0.2,0.6-0.5,0.6h-2.6c-0.3,0-0.4-0.2-0.4-0.5V312
		c0-0.2-0.1-0.3-0.3-0.3h-16.6c-0.4,0-0.5-0.2-0.5-0.5v-4.1c0-0.3,0.2-0.4,0.5-0.4h16.6c0.1,0,0.2,0,0.3-0.1s0.1-0.1,0.1-0.2v-5.5
		c0-0.4,0.1-0.5,0.4-0.5H1275.8z"/>
	<path d="M1276.3,325.2c0,0.3-0.2,0.5-0.5,0.5H1256c-0.2,0-0.4-0.1-0.5-0.2c-0.1-0.1-0.2-0.3-0.2-0.6v-3.6c0-0.2,0-0.4,0.1-0.5
		s0.2-0.1,0.5-0.1h19.9c0.4,0,0.5,0.2,0.5,0.5V325.2z"/>
	<path d="M1272.7,340.1c0.3-0.6,0.5-1.5,0.5-2.5c0-1.2-0.2-2-0.6-2.6c-0.4-0.6-1-0.9-1.6-0.9c-1,0-1.7,0.8-2.2,2.3l-1.3,4.5
		c-0.5,1.7-1.2,2.9-2.2,3.8s-2.2,1.2-3.7,1.2c-1.3,0-2.5-0.3-3.4-1c-1-0.7-1.7-1.7-2.3-2.9c-0.5-1.3-0.8-2.8-0.8-4.5
		c0-1.9,0.3-3.7,1-5.2c0.7-1.5,1.5-2.7,2.7-3.4c0.1-0.1,0.3-0.1,0.4-0.1c0.2,0,0.3,0.1,0.5,0.3l1.5,2.2c0.1,0.2,0.2,0.4,0.2,0.5
		c0,0.2-0.1,0.3-0.2,0.4c-0.9,0.7-1.5,1.4-1.9,2.1c-0.4,0.7-0.6,1.7-0.6,2.9c0,1.3,0.2,2.3,0.6,3c0.4,0.7,1,1.1,1.8,1.1
		c0.5,0,0.9-0.2,1.3-0.5c0.4-0.4,0.7-1,0.9-1.8l1.2-4.3c0.5-1.6,1.2-2.9,2.3-3.8c1.1-0.9,2.3-1.3,3.6-1.3c1.2,0,2.3,0.3,3.3,1
		s1.7,1.6,2.3,2.8c0.6,1.2,0.8,2.6,0.8,4.3c0,1.6-0.3,3-0.8,4.4c-0.5,1.3-1.3,2.3-2.2,3c-0.2,0.1-0.3,0.2-0.4,0.2s-0.2-0.1-0.3-0.2
		l-1.8-2.4c-0.1-0.1-0.1-0.2-0.1-0.3c0-0.1,0.1-0.2,0.3-0.5C1271.9,341.3,1272.4,340.7,1272.7,340.1z"/>
	<path d="M1276.3,349.3v14.1c0,0.3-0.2,0.4-0.5,0.4l-2.6,0c-0.4,0-0.6-0.2-0.6-0.6v-8.8c0-0.2,0-0.3-0.1-0.4
		c-0.1-0.1-0.2-0.1-0.3-0.1h-4.4c-0.3,0-0.5,0.1-0.5,0.4v6.2c0,0.3-0.2,0.5-0.5,0.5h-2.7c-0.3,0-0.4-0.1-0.4-0.4v-6.2
		c0-0.3-0.1-0.4-0.4-0.4h-7.5c-0.2,0-0.4-0.1-0.5-0.2s-0.1-0.3-0.1-0.6v-3.6c0-0.2,0-0.4,0.1-0.5s0.2-0.1,0.5-0.1h19.9
		C1276.2,348.9,1276.3,349,1276.3,349.3z"/>
	<path d="M1255.8,362.8c0.2,0,0.3,0,0.3,0.1l19.6,7.1c0.2,0.1,0.4,0.2,0.4,0.3c0.1,0.1,0.1,0.3,0.1,0.5v4.3c0,0.2-0.1,0.4-0.2,0.5
		c-0.1,0.2-0.3,0.3-0.5,0.3l-19.6,7c-0.1,0-0.2,0.1-0.3,0.1c-0.2,0-0.3,0-0.4-0.1s-0.1-0.2-0.1-0.3v-4.2c0-0.3,0.1-0.5,0.4-0.5
		l4.1-1.5c0.1,0,0.2-0.1,0.2-0.1c0,0,0.1-0.1,0.1-0.2v-6.9c0-0.2-0.1-0.3-0.3-0.4l-4.2-1.5c-0.2-0.1-0.4-0.3-0.4-0.6v-3.3
		C1255.3,362.9,1255.5,362.8,1255.8,362.8z M1263.9,374.7c0,0.2,0.1,0.3,0.2,0.3c0.1,0,0.2,0,0.3,0l6.6-2.4c0.1-0.1,0.2-0.1,0.2-0.2
		c0-0.1-0.1-0.1-0.2-0.2l-6.6-2.4c-0.1,0-0.2-0.1-0.3-0.1c-0.2,0-0.2,0.1-0.2,0.3V374.7z"/>
	<path d="M1275.8,397.1c-0.5,1.2-1.3,2.2-2.2,3c-0.9,0.8-2,1.3-3.2,1.5c-0.1,0-0.3,0.1-0.5,0.1c-0.1,0-0.2,0-0.2-0.1
		c0-0.1-0.1-0.1-0.1-0.3l-0.3-3.8c0-0.2,0-0.3,0.1-0.3c0.1,0,0.2-0.1,0.3-0.1c1-0.2,1.9-0.6,2.5-1.2c0.6-0.6,0.9-1.5,0.9-2.5
		c0-3-2.4-4.5-7.3-4.5c-2.5,0-4.3,0.4-5.5,1.1c-1.2,0.8-1.7,1.9-1.7,3.5c0,1.1,0.3,2.1,0.9,2.9c0.6,0.8,1.5,1.4,2.8,1.9
		c0.1,0.1,0.2,0.2,0.2,0.4c0,0.1,0,0.2,0,0.3l-0.6,2.8c-0.1,0.3-0.3,0.4-0.7,0.3c-0.8-0.2-1.7-0.6-2.6-1.3c-0.9-0.7-1.8-1.7-2.5-2.9
		c-0.7-1.2-1-2.7-1-4.5c0-1.9,0.5-3.6,1.4-5.1c0.9-1.4,2.2-2.6,3.9-3.3c1.7-0.8,3.6-1.2,5.7-1.2c2.2,0,4,0.4,5.6,1.2
		c1.6,0.8,2.8,1.9,3.7,3.3c0.9,1.4,1.3,3.1,1.3,5.1C1276.6,394.6,1276.4,395.9,1275.8,397.1z"/>
	<path d="M1275.8,403.8c0.2,0,0.3,0.1,0.4,0.2c0.1,0.1,0.1,0.2,0.1,0.4v16.3c0,0.4-0.2,0.6-0.5,0.6h-2.6c-0.3,0-0.4-0.2-0.4-0.5
		v-5.3c0-0.2-0.1-0.3-0.3-0.3h-16.6c-0.4,0-0.5-0.2-0.5-0.5v-4.1c0-0.3,0.2-0.4,0.5-0.4h16.6c0.1,0,0.2,0,0.3-0.1s0.1-0.1,0.1-0.2
		v-5.5c0-0.4,0.1-0.5,0.4-0.5H1275.8z"/>
	<path d="M1276.3,428.7c0,0.3-0.2,0.5-0.5,0.5H1256c-0.2,0-0.4-0.1-0.5-0.2c-0.1-0.1-0.2-0.3-0.2-0.6v-3.6c0-0.2,0-0.4,0.1-0.5
		s0.2-0.1,0.5-0.1h19.9c0.4,0,0.5,0.2,0.5,0.5V428.7z"/>
	<path d="M1256.3,437c0.9-1.5,2.1-2.6,3.7-3.4s3.5-1.2,5.7-1.2c2.2,0,4.2,0.4,5.8,1.2s2.9,1.9,3.8,3.4c0.9,1.5,1.3,3.2,1.3,5.1
		c0,1.9-0.4,3.6-1.3,5.1s-2.1,2.6-3.8,3.4s-3.6,1.2-5.8,1.2c-2.2,0-4.1-0.4-5.7-1.2c-1.6-0.8-2.9-1.9-3.7-3.4s-1.3-3.2-1.3-5.1
		C1255,440.1,1255.5,438.4,1256.3,437z M1260.2,445.5c1.1,0.7,3,1.1,5.5,1.1c2.6,0,4.5-0.4,5.7-1.1c1.2-0.7,1.8-1.9,1.8-3.4
		c0-1.6-0.6-2.7-1.8-3.4c-1.2-0.7-3.1-1.1-5.7-1.1c-2.5,0-4.4,0.4-5.5,1.1c-1.1,0.7-1.7,1.9-1.7,3.5
		C1258.5,443.7,1259.1,444.8,1260.2,445.5z"/>
	<path d="M1276.3,472.2c0,0.2-0.1,0.4-0.4,0.4h-20.2c-0.1,0-0.2-0.1-0.3-0.2c-0.1-0.1-0.1-0.2-0.1-0.4v-2.9c0-0.2,0-0.3,0.1-0.4
		s0.1-0.2,0.3-0.3l12.7-9c0.1-0.1,0.1-0.1,0.1-0.2s-0.1-0.1-0.2-0.1h-12.5h-0.1c-0.2,0-0.3,0-0.3-0.1c-0.1-0.1-0.1-0.2-0.1-0.4v-2.9
		c0-0.4,0.2-0.6,0.5-0.6h20c0.4,0,0.5,0.2,0.5,0.5v3.4c0,0.2,0,0.4-0.1,0.5s-0.2,0.2-0.4,0.3l-11.9,8.3c-0.2,0.1-0.2,0.2-0.2,0.3
		c0,0.1,0.1,0.1,0.3,0.1h11.7c0.3,0,0.5,0.2,0.5,0.5V472.2z"/>
</g>
<g>
	<path d="M719.6,299.3c-0.3,0.6-0.5,1.5-0.5,2.5c0,1.2,0.2,2,0.6,2.6c0.4,0.6,1,0.9,1.6,0.9c1,0,1.7-0.8,2.2-2.3l1.3-4.5
		c0.5-1.7,1.2-2.9,2.2-3.8c1-0.8,2.2-1.2,3.7-1.2c1.3,0,2.5,0.3,3.4,1c1,0.7,1.7,1.7,2.3,2.9c0.5,1.3,0.8,2.8,0.8,4.5
		c0,1.9-0.3,3.7-1,5.2c-0.7,1.5-1.5,2.7-2.7,3.4c-0.1,0.1-0.3,0.1-0.4,0.1c-0.2,0-0.3-0.1-0.5-0.3l-1.5-2.2
		c-0.1-0.2-0.2-0.4-0.2-0.5c0-0.2,0.1-0.3,0.2-0.4c0.9-0.7,1.5-1.4,1.9-2.1c0.4-0.7,0.6-1.7,0.6-2.9c0-1.3-0.2-2.3-0.6-3
		c-0.4-0.7-1-1.1-1.8-1.1c-0.5,0-0.9,0.2-1.3,0.5c-0.4,0.4-0.7,1-0.9,1.8l-1.2,4.3c-0.5,1.6-1.2,2.9-2.3,3.8
		c-1.1,0.9-2.3,1.3-3.6,1.3c-1.2,0-2.3-0.3-3.3-1s-1.7-1.6-2.3-2.8c-0.6-1.2-0.8-2.6-0.8-4.3c0-1.6,0.3-3,0.8-4.4
		c0.5-1.3,1.3-2.3,2.2-3c0.2-0.1,0.3-0.2,0.4-0.2s0.2,0.1,0.3,0.2l1.8,2.4c0.1,0.1,0.1,0.2,0.1,0.3c0,0.1-0.1,0.2-0.3,0.5
		C720.4,298.1,719.9,298.6,719.6,299.3z"/>
	<path d="M736.5,291.5c-0.2,0-0.3,0-0.3-0.1l-19.6-7.1c-0.2-0.1-0.4-0.2-0.4-0.3c-0.1-0.1-0.1-0.3-0.1-0.5v-4.3
		c0-0.2,0.1-0.4,0.2-0.5c0.1-0.2,0.3-0.3,0.5-0.3l19.6-7c0.1,0,0.2-0.1,0.3-0.1c0.2,0,0.3,0,0.4,0.1c0.1,0.1,0.1,0.2,0.1,0.3v4.2
		c0,0.3-0.1,0.5-0.4,0.5l-4.1,1.5c-0.1,0-0.2,0.1-0.2,0.1c0,0-0.1,0.1-0.1,0.2v6.9c0,0.2,0.1,0.3,0.3,0.4l4.2,1.5
		c0.2,0.1,0.4,0.3,0.4,0.6v3.3C737,291.4,736.8,291.5,736.5,291.5z M728.4,279.6c0-0.2-0.1-0.3-0.2-0.3c-0.1,0-0.2,0-0.3,0l-6.6,2.4
		c-0.1,0.1-0.2,0.1-0.2,0.2c0,0.1,0.1,0.1,0.2,0.2l6.6,2.4c0.1,0,0.2,0.1,0.3,0.1c0.2,0,0.2-0.1,0.2-0.3V279.6z"/>
	<path d="M716.5,272.9c-0.2,0-0.3-0.1-0.4-0.2c-0.1-0.1-0.1-0.2-0.1-0.4v-16.3c0-0.4,0.2-0.6,0.5-0.6h2.6c0.3,0,0.4,0.2,0.4,0.5v5.3
		c0,0.2,0.1,0.3,0.3,0.3h16.6c0.4,0,0.5,0.2,0.5,0.5v4.1c0,0.3-0.2,0.4-0.5,0.4h-16.6c-0.1,0-0.2,0-0.3,0.1s-0.1,0.1-0.1,0.2v5.5
		c0,0.4-0.1,0.5-0.4,0.5H716.5z"/>
	<path d="M715.9,248c0-0.3,0.2-0.5,0.5-0.5h19.8c0.2,0,0.4,0.1,0.5,0.2c0.1,0.1,0.2,0.3,0.2,0.6v3.6c0,0.2,0,0.4-0.1,0.5
		c-0.1,0.1-0.2,0.1-0.5,0.1h-19.9c-0.4,0-0.5-0.2-0.5-0.5V248z"/>
	<path d="M719.6,233.2c-0.3,0.6-0.5,1.5-0.5,2.5c0,1.2,0.2,2,0.6,2.6c0.4,0.6,1,0.9,1.6,0.9c1,0,1.7-0.8,2.2-2.3l1.3-4.5
		c0.5-1.7,1.2-2.9,2.2-3.8c1-0.8,2.2-1.2,3.7-1.2c1.3,0,2.5,0.3,3.4,1c1,0.7,1.7,1.7,2.3,2.9c0.5,1.3,0.8,2.8,0.8,4.5
		c0,1.9-0.3,3.7-1,5.2c-0.7,1.6-1.5,2.7-2.7,3.4c-0.1,0.1-0.3,0.1-0.4,0.1c-0.2,0-0.3-0.1-0.5-0.3l-1.5-2.2
		c-0.1-0.2-0.2-0.4-0.2-0.5c0-0.2,0.1-0.3,0.2-0.4c0.9-0.7,1.5-1.4,1.9-2.1c0.4-0.7,0.6-1.7,0.6-2.9c0-1.3-0.2-2.3-0.6-3
		c-0.4-0.7-1-1.1-1.8-1.1c-0.5,0-0.9,0.2-1.3,0.5c-0.4,0.4-0.7,1-0.9,1.8l-1.2,4.3c-0.5,1.6-1.2,2.9-2.3,3.8
		c-1.1,0.9-2.3,1.3-3.6,1.3c-1.2,0-2.3-0.3-3.3-1c-1-0.7-1.7-1.6-2.3-2.8c-0.6-1.2-0.8-2.6-0.8-4.3c0-1.6,0.3-3,0.8-4.4
		c0.5-1.3,1.3-2.3,2.2-3c0.2-0.1,0.3-0.2,0.4-0.2s0.2,0.1,0.3,0.2l1.8,2.4c0.1,0.1,0.1,0.2,0.1,0.3c0,0.1-0.1,0.2-0.3,0.5
		C720.4,232,719.9,232.6,719.6,233.2z"/>
	<path d="M715.9,224v-14.1c0-0.3,0.2-0.4,0.5-0.4l2.6,0c0.4,0,0.6,0.2,0.6,0.6v8.8c0,0.2,0,0.3,0.1,0.4c0.1,0.1,0.2,0.1,0.3,0.1h4.4
		c0.3,0,0.5-0.1,0.5-0.4v-6.2c0-0.3,0.2-0.5,0.5-0.5h2.7c0.3,0,0.4,0.1,0.4,0.4v6.2c0,0.3,0.1,0.4,0.4,0.4h7.5
		c0.2,0,0.4,0.1,0.5,0.2c0.1,0.1,0.1,0.3,0.1,0.6v3.6c0,0.2,0,0.4-0.1,0.5c-0.1,0.1-0.2,0.1-0.5,0.1h-19.9
		C716.1,224.4,715.9,224.3,715.9,224z"/>
	<path d="M736.5,210.5c-0.2,0-0.3,0-0.3-0.1l-19.6-7.1c-0.2-0.1-0.4-0.2-0.4-0.3c-0.1-0.1-0.1-0.3-0.1-0.5v-4.3
		c0-0.2,0.1-0.4,0.2-0.5c0.1-0.2,0.3-0.3,0.5-0.3l19.6-7c0.1,0,0.2-0.1,0.3-0.1c0.2,0,0.3,0,0.4,0.1c0.1,0.1,0.1,0.2,0.1,0.3v4.2
		c0,0.3-0.1,0.5-0.4,0.5l-4.1,1.5c-0.1,0-0.2,0.1-0.2,0.1c0,0-0.1,0.1-0.1,0.2v6.9c0,0.2,0.1,0.3,0.3,0.4l4.2,1.5
		c0.2,0.1,0.4,0.3,0.4,0.6v3.3C737,210.4,736.8,210.5,736.5,210.5z M728.4,198.6c0-0.2-0.1-0.3-0.2-0.3c-0.1,0-0.2,0-0.3,0l-6.6,2.4
		c-0.1,0.1-0.2,0.1-0.2,0.2c0,0.1,0.1,0.1,0.2,0.2l6.6,2.4c0.1,0,0.2,0.1,0.3,0.1c0.2,0,0.2-0.1,0.2-0.3V198.6z"/>
	<path d="M716.5,176.2c0.5-1.2,1.3-2.2,2.2-3c0.9-0.8,2-1.3,3.2-1.5c0.1,0,0.3-0.1,0.5-0.1c0.1,0,0.2,0,0.2,0.1
		c0,0.1,0.1,0.1,0.1,0.3l0.3,3.8c0,0.2,0,0.3-0.1,0.3c-0.1,0-0.2,0.1-0.3,0.1c-1,0.2-1.9,0.6-2.5,1.2s-0.9,1.5-0.9,2.5
		c0,3,2.4,4.5,7.3,4.5c2.5,0,4.3-0.4,5.5-1.1c1.2-0.8,1.7-1.9,1.7-3.5c0-1.1-0.3-2.1-0.9-2.9c-0.6-0.8-1.5-1.4-2.8-1.9
		c-0.1-0.1-0.2-0.2-0.2-0.4c0-0.1,0-0.2,0-0.3l0.6-2.8c0.1-0.3,0.3-0.4,0.7-0.3c0.8,0.2,1.7,0.6,2.6,1.3s1.8,1.7,2.5,2.9
		s1,2.7,1,4.5c0,1.9-0.5,3.6-1.4,5.1c-0.9,1.4-2.2,2.6-3.9,3.3c-1.7,0.8-3.6,1.2-5.7,1.2c-2.2,0-4-0.4-5.6-1.2
		c-1.6-0.8-2.8-1.9-3.7-3.3s-1.3-3.1-1.3-5.1C715.7,178.7,715.9,177.4,716.5,176.2z"/>
	<path d="M716.5,169.5c-0.2,0-0.3-0.1-0.4-0.2c-0.1-0.1-0.1-0.2-0.1-0.4v-16.3c0-0.4,0.2-0.6,0.5-0.6h2.6c0.3,0,0.4,0.2,0.4,0.5v5.3
		c0,0.2,0.1,0.3,0.3,0.3h16.6c0.4,0,0.5,0.2,0.5,0.5v4.1c0,0.3-0.2,0.4-0.5,0.4h-16.6c-0.1,0-0.2,0-0.3,0.1s-0.1,0.1-0.1,0.2v5.5
		c0,0.4-0.1,0.5-0.4,0.5H716.5z"/>
	<path d="M715.9,144.6c0-0.3,0.2-0.5,0.5-0.5h19.8c0.2,0,0.4,0.1,0.5,0.2c0.1,0.1,0.2,0.3,0.2,0.6v3.6c0,0.2,0,0.4-0.1,0.5
		c-0.1,0.1-0.2,0.1-0.5,0.1h-19.9c-0.4,0-0.5-0.2-0.5-0.5V144.6z"/>
	<path d="M736,136.3c-0.9,1.5-2.1,2.6-3.7,3.4s-3.5,1.2-5.7,1.2c-2.2,0-4.2-0.4-5.8-1.2c-1.6-0.8-2.9-1.9-3.8-3.4
		c-0.9-1.5-1.3-3.2-1.3-5.1c0-1.9,0.4-3.6,1.3-5.1c0.9-1.5,2.1-2.6,3.8-3.4s3.6-1.2,5.8-1.2c2.2,0,4.1,0.4,5.7,1.2
		c1.6,0.8,2.9,1.9,3.7,3.4c0.9,1.5,1.3,3.2,1.3,5.1C737.3,133.1,736.8,134.9,736,136.3z M732.1,127.7c-1.1-0.7-3-1.1-5.5-1.1
		c-2.6,0-4.5,0.4-5.7,1.1c-1.2,0.7-1.8,1.9-1.8,3.4c0,1.6,0.6,2.7,1.8,3.4c1.2,0.7,3.1,1.1,5.7,1.1c2.5,0,4.4-0.4,5.5-1.1
		c1.1-0.7,1.7-1.9,1.7-3.5C733.8,129.6,733.2,128.5,732.1,127.7z"/>
	<path d="M715.9,101.1c0-0.2,0.1-0.4,0.4-0.4h20.2c0.1,0,0.2,0.1,0.3,0.2c0.1,0.1,0.1,0.2,0.1,0.4v2.9c0,0.2,0,0.3-0.1,0.4
		c0,0.1-0.1,0.2-0.3,0.3l-12.7,9c-0.1,0.1-0.1,0.1-0.1,0.2c0,0.1,0.1,0.1,0.2,0.1h12.5h0.1c0.2,0,0.3,0,0.3,0.1
		c0.1,0.1,0.1,0.2,0.1,0.4v2.9c0,0.4-0.2,0.6-0.5,0.6h-20c-0.4,0-0.5-0.2-0.5-0.5v-3.4c0-0.2,0-0.4,0.1-0.5c0-0.1,0.2-0.2,0.4-0.3
		l11.9-8.3c0.2-0.1,0.2-0.2,0.2-0.3c0-0.1-0.1-0.1-0.3-0.1h-11.7c-0.3,0-0.5-0.2-0.5-0.5V101.1z"/>
</g>
<g>
	<path d="M565.4,199.9c-0.1,3.7-1.1,6.5-2.9,8.4c-1.8,1.8-4.3,2.8-7.5,2.8c-3.3,0-5.9-1-7.8-2.9c-1.9-1.9-2.8-4.7-2.8-8.4v-6.2
		c0-0.2,0.1-0.4,0.2-0.5c0.1-0.1,0.3-0.2,0.5-0.2h19.8c0.2,0,0.4,0,0.4,0.1c0.1,0.1,0.1,0.3,0.1,0.5
		C565.4,196.7,565.4,198.8,565.4,199.9z M561.5,197.9h-13.2c-0.2,0-0.3,0-0.3,0.1c-0.1,0-0.1,0.1-0.1,0.3v0.5c0,2.4,0.6,4.1,1.7,5.3
		s2.9,1.7,5.5,1.7c2.4,0,4.1-0.5,5.1-1.4c1-1,1.6-2.5,1.7-4.5l0.1-1.7C561.9,198,561.8,197.9,561.5,197.9z"/>
	<path d="M565.4,218.8c0,0.3-0.2,0.5-0.5,0.5h-19.8c-0.2,0-0.4-0.1-0.5-0.2c-0.1-0.1-0.2-0.3-0.2-0.6v-3.6c0-0.2,0-0.4,0.1-0.5
		c0.1-0.1,0.2-0.1,0.5-0.1h19.9c0.4,0,0.5,0.2,0.5,0.5V218.8z"/>
	<path d="M561.7,233.6c0.3-0.6,0.5-1.5,0.5-2.5c0-1.2-0.2-2-0.6-2.6c-0.4-0.6-1-0.9-1.6-0.9c-1,0-1.7,0.8-2.2,2.3l-1.3,4.5
		c-0.5,1.7-1.2,2.9-2.2,3.8c-1,0.8-2.2,1.2-3.7,1.2c-1.3,0-2.5-0.3-3.4-1c-1-0.7-1.7-1.7-2.3-2.9c-0.5-1.3-0.8-2.8-0.8-4.5
		c0-1.9,0.3-3.7,1-5.2c0.7-1.6,1.5-2.7,2.7-3.4c0.1-0.1,0.3-0.1,0.4-0.1c0.2,0,0.3,0.1,0.5,0.3l1.5,2.2c0.1,0.2,0.2,0.4,0.2,0.5
		c0,0.2-0.1,0.3-0.2,0.4c-0.9,0.7-1.5,1.4-1.9,2.1c-0.4,0.7-0.6,1.7-0.6,2.9c0,1.3,0.2,2.3,0.6,3c0.4,0.7,1,1.1,1.8,1.1
		c0.5,0,0.9-0.2,1.3-0.5c0.4-0.4,0.7-1,0.9-1.8l1.2-4.3c0.5-1.6,1.2-2.9,2.3-3.8c1.1-0.9,2.3-1.3,3.6-1.3c1.2,0,2.3,0.3,3.3,1
		c1,0.7,1.7,1.6,2.3,2.8c0.6,1.2,0.8,2.6,0.8,4.3c0,1.6-0.3,3-0.8,4.4c-0.5,1.3-1.3,2.3-2.2,3c-0.2,0.1-0.3,0.2-0.4,0.2
		s-0.2-0.1-0.3-0.2l-1.8-2.4c-0.1-0.1-0.1-0.2-0.1-0.3c0-0.1,0.1-0.2,0.3-0.5C561,234.8,561.4,234.2,561.7,233.6z"/>
	<path d="M561.7,252.8c0.3-0.6,0.5-1.5,0.5-2.5c0-1.2-0.2-2-0.6-2.6c-0.4-0.6-1-0.9-1.6-0.9c-1,0-1.7,0.8-2.2,2.3l-1.3,4.5
		c-0.5,1.7-1.2,2.9-2.2,3.8c-1,0.8-2.2,1.2-3.7,1.2c-1.3,0-2.5-0.3-3.4-1c-1-0.7-1.7-1.7-2.3-2.9c-0.5-1.3-0.8-2.8-0.8-4.5
		c0-1.9,0.3-3.7,1-5.2c0.7-1.6,1.5-2.7,2.7-3.4c0.1-0.1,0.3-0.1,0.4-0.1c0.2,0,0.3,0.1,0.5,0.3l1.5,2.2c0.1,0.2,0.2,0.4,0.2,0.5
		c0,0.2-0.1,0.3-0.2,0.4c-0.9,0.7-1.5,1.4-1.9,2.1c-0.4,0.7-0.6,1.7-0.6,2.9c0,1.3,0.2,2.3,0.6,3c0.4,0.7,1,1.1,1.8,1.1
		c0.5,0,0.9-0.2,1.3-0.5c0.4-0.4,0.7-1,0.9-1.8l1.2-4.3c0.5-1.6,1.2-2.9,2.3-3.8c1.1-0.9,2.3-1.3,3.6-1.3c1.2,0,2.3,0.3,3.3,1
		c1,0.7,1.7,1.6,2.3,2.8c0.6,1.2,0.8,2.6,0.8,4.3c0,1.6-0.3,3-0.8,4.4c-0.5,1.3-1.3,2.3-2.2,3c-0.2,0.1-0.3,0.2-0.4,0.2
		s-0.2-0.1-0.3-0.2l-1.8-2.4c-0.1-0.1-0.1-0.2-0.1-0.3c0-0.1,0.1-0.2,0.3-0.5C561,254,561.4,253.4,561.7,252.8z"/>
	<path d="M544.9,260.5c0.2,0,0.3,0,0.3,0.1l19.6,7.1c0.2,0.1,0.4,0.2,0.4,0.3c0.1,0.1,0.1,0.3,0.1,0.5v4.3c0,0.2-0.1,0.4-0.2,0.5
		c-0.1,0.2-0.3,0.3-0.5,0.3l-19.6,7c-0.1,0-0.2,0.1-0.3,0.1c-0.2,0-0.3,0-0.4-0.1c-0.1-0.1-0.1-0.2-0.1-0.3V276
		c0-0.3,0.1-0.5,0.4-0.5l4.1-1.5c0.1,0,0.2-0.1,0.2-0.1c0,0,0.1-0.1,0.1-0.2v-6.9c0-0.2-0.1-0.3-0.3-0.4l-4.2-1.5
		c-0.2-0.1-0.4-0.3-0.4-0.6V261C544.4,260.7,544.5,260.5,544.9,260.5z M553,272.4c0,0.2,0.1,0.3,0.2,0.3c0.1,0,0.2,0,0.3,0l6.6-2.4
		c0.1-0.1,0.2-0.1,0.2-0.2c0-0.1-0.1-0.1-0.2-0.2l-6.6-2.4c-0.1,0-0.2-0.1-0.3-0.1c-0.2,0-0.2,0.1-0.2,0.3V272.4z"/>
	<path d="M564.9,279.1c0.2,0,0.3,0.1,0.4,0.2c0.1,0.1,0.1,0.2,0.1,0.4V296c0,0.4-0.2,0.6-0.5,0.6h-2.6c-0.3,0-0.4-0.2-0.4-0.5v-5.3
		c0-0.2-0.1-0.3-0.3-0.3h-16.6c-0.4,0-0.5-0.2-0.5-0.5v-4.1c0-0.3,0.2-0.4,0.5-0.4h16.6c0.1,0,0.2,0,0.3-0.1s0.1-0.1,0.1-0.2v-5.5
		c0-0.4,0.1-0.5,0.4-0.5H564.9z"/>
	<path d="M565.4,304c0,0.3-0.2,0.5-0.5,0.5h-19.8c-0.2,0-0.4-0.1-0.5-0.2c-0.1-0.1-0.2-0.3-0.2-0.6v-3.6c0-0.2,0-0.4,0.1-0.5
		c0.1-0.1,0.2-0.1,0.5-0.1h19.9c0.4,0,0.5,0.2,0.5,0.5V304z"/>
	<path d="M561.7,318.8c0.3-0.6,0.5-1.5,0.5-2.5c0-1.2-0.2-2-0.6-2.6c-0.4-0.6-1-0.9-1.6-0.9c-1,0-1.7,0.8-2.2,2.3l-1.3,4.5
		c-0.5,1.7-1.2,2.9-2.2,3.8s-2.2,1.2-3.7,1.2c-1.3,0-2.5-0.3-3.4-1c-1-0.7-1.7-1.7-2.3-2.9c-0.5-1.3-0.8-2.8-0.8-4.5
		c0-1.9,0.3-3.7,1-5.2c0.7-1.5,1.5-2.7,2.7-3.4c0.1-0.1,0.3-0.1,0.4-0.1c0.2,0,0.3,0.1,0.5,0.3l1.5,2.2c0.1,0.2,0.2,0.4,0.2,0.5
		c0,0.2-0.1,0.3-0.2,0.4c-0.9,0.7-1.5,1.4-1.9,2.1c-0.4,0.7-0.6,1.7-0.6,2.9c0,1.3,0.2,2.3,0.6,3c0.4,0.7,1,1.1,1.8,1.1
		c0.5,0,0.9-0.2,1.3-0.5c0.4-0.4,0.7-1,0.9-1.8l1.2-4.3c0.5-1.6,1.2-2.9,2.3-3.8c1.1-0.9,2.3-1.3,3.6-1.3c1.2,0,2.3,0.3,3.3,1
		s1.7,1.6,2.3,2.8c0.6,1.2,0.8,2.6,0.8,4.3c0,1.6-0.3,3-0.8,4.4c-0.5,1.3-1.3,2.3-2.2,3c-0.2,0.1-0.3,0.2-0.4,0.2s-0.2-0.1-0.3-0.2
		l-1.8-2.4c-0.1-0.1-0.1-0.2-0.1-0.3c0-0.1,0.1-0.2,0.3-0.5C561,320,561.4,319.4,561.7,318.8z"/>
	<path d="M565.4,328.1v14.1c0,0.3-0.2,0.4-0.5,0.4l-2.6,0c-0.4,0-0.6-0.2-0.6-0.6v-8.8c0-0.2,0-0.3-0.1-0.4
		c-0.1-0.1-0.2-0.1-0.3-0.1h-4.4c-0.3,0-0.5,0.1-0.5,0.4v6.2c0,0.3-0.2,0.5-0.5,0.5h-2.7c-0.3,0-0.4-0.1-0.4-0.4V333
		c0-0.3-0.1-0.4-0.4-0.4H545c-0.2,0-0.4-0.1-0.5-0.2s-0.1-0.3-0.1-0.6v-3.6c0-0.2,0-0.4,0.1-0.5s0.2-0.1,0.5-0.1h19.9
		C565.2,327.6,565.4,327.8,565.4,328.1z"/>
	<path d="M544.9,341.5c0.2,0,0.3,0,0.3,0.1l19.6,7.1c0.2,0.1,0.4,0.2,0.4,0.3c0.1,0.1,0.1,0.3,0.1,0.5v4.3c0,0.2-0.1,0.4-0.2,0.5
		c-0.1,0.2-0.3,0.3-0.5,0.3l-19.6,7c-0.1,0-0.2,0.1-0.3,0.1c-0.2,0-0.3,0-0.4-0.1s-0.1-0.2-0.1-0.3V357c0-0.3,0.1-0.5,0.4-0.5
		l4.1-1.5c0.1,0,0.2-0.1,0.2-0.1c0,0,0.1-0.1,0.1-0.2v-6.9c0-0.2-0.1-0.3-0.3-0.4l-4.2-1.5c-0.2-0.1-0.4-0.3-0.4-0.6V342
		C544.4,341.7,544.5,341.5,544.9,341.5z M553,353.4c0,0.2,0.1,0.3,0.2,0.3c0.1,0,0.2,0,0.3,0l6.6-2.4c0.1-0.1,0.2-0.1,0.2-0.2
		c0-0.1-0.1-0.1-0.2-0.2l-6.6-2.4c-0.1,0-0.2-0.1-0.3-0.1c-0.2,0-0.2,0.1-0.2,0.3V353.4z"/>
	<path d="M564.9,375.9c-0.5,1.2-1.3,2.2-2.2,3c-0.9,0.8-2,1.3-3.2,1.5c-0.1,0-0.3,0.1-0.5,0.1c-0.1,0-0.2,0-0.2-0.1
		c0-0.1-0.1-0.1-0.1-0.3l-0.3-3.8c0-0.2,0-0.3,0.1-0.3c0.1,0,0.2-0.1,0.3-0.1c1-0.2,1.9-0.6,2.5-1.2c0.6-0.6,0.9-1.5,0.9-2.5
		c0-3-2.4-4.5-7.3-4.5c-2.5,0-4.3,0.4-5.5,1.1c-1.2,0.8-1.7,1.9-1.7,3.5c0,1.1,0.3,2.1,0.9,2.9c0.6,0.8,1.5,1.4,2.8,1.9
		c0.1,0.1,0.2,0.2,0.2,0.4c0,0.1,0,0.2,0,0.3l-0.6,2.8c-0.1,0.3-0.3,0.4-0.7,0.3c-0.8-0.2-1.7-0.6-2.6-1.3c-0.9-0.7-1.8-1.7-2.5-2.9
		c-0.7-1.2-1-2.7-1-4.5c0-1.9,0.5-3.6,1.4-5.1c0.9-1.4,2.2-2.6,3.9-3.3c1.7-0.8,3.6-1.2,5.7-1.2c2.2,0,4,0.4,5.6,1.2
		c1.6,0.8,2.8,1.9,3.7,3.3c0.9,1.4,1.3,3.1,1.3,5.1C565.7,373.4,565.4,374.7,564.9,375.9z"/>
	<path d="M564.9,382.6c0.2,0,0.3,0.1,0.4,0.2c0.1,0.1,0.1,0.2,0.1,0.4v16.3c0,0.4-0.2,0.6-0.5,0.6h-2.6c-0.3,0-0.4-0.2-0.4-0.5v-5.3
		c0-0.2-0.1-0.3-0.3-0.3h-16.6c-0.4,0-0.5-0.2-0.5-0.5v-4.1c0-0.3,0.2-0.4,0.5-0.4h16.6c0.1,0,0.2,0,0.3-0.1s0.1-0.1,0.1-0.2v-5.5
		c0-0.4,0.1-0.5,0.4-0.5H564.9z"/>
	<path d="M565.4,407.4c0,0.3-0.2,0.5-0.5,0.5h-19.8c-0.2,0-0.4-0.1-0.5-0.2c-0.1-0.1-0.2-0.3-0.2-0.6v-3.6c0-0.2,0-0.4,0.1-0.5
		s0.2-0.1,0.5-0.1h19.9c0.4,0,0.5,0.2,0.5,0.5V407.4z"/>
	<path d="M545.4,415.7c0.9-1.5,2.1-2.6,3.7-3.4s3.5-1.2,5.7-1.2c2.2,0,4.2,0.4,5.8,1.2s2.9,1.9,3.8,3.4c0.9,1.5,1.3,3.2,1.3,5.1
		c0,1.9-0.4,3.6-1.3,5.1s-2.1,2.6-3.8,3.4s-3.6,1.2-5.8,1.2c-2.2,0-4.1-0.4-5.7-1.2c-1.6-0.8-2.9-1.9-3.7-3.4s-1.3-3.2-1.3-5.1
		C544.1,418.9,544.5,417.2,545.4,415.7z M549.3,424.3c1.1,0.7,3,1.1,5.5,1.1c2.6,0,4.5-0.4,5.7-1.1c1.2-0.7,1.8-1.9,1.8-3.4
		c0-1.6-0.6-2.7-1.8-3.4c-1.2-0.7-3.1-1.1-5.7-1.1c-2.5,0-4.4,0.4-5.5,1.1c-1.1,0.7-1.7,1.9-1.7,3.5
		C547.6,422.5,548.2,423.6,549.3,424.3z"/>
	<path d="M565.4,451c0,0.2-0.1,0.4-0.4,0.4h-20.2c-0.1,0-0.2-0.1-0.3-0.2c-0.1-0.1-0.1-0.2-0.1-0.4V448c0-0.2,0-0.3,0.1-0.4
		s0.1-0.2,0.3-0.3l12.7-9c0.1-0.1,0.1-0.1,0.1-0.2s-0.1-0.1-0.2-0.1h-12.5h-0.1c-0.2,0-0.3,0-0.3-0.1c-0.1-0.1-0.1-0.2-0.1-0.4v-2.9
		c0-0.4,0.2-0.6,0.5-0.6h20c0.4,0,0.5,0.2,0.5,0.5v3.4c0,0.2,0,0.4-0.1,0.5s-0.2,0.2-0.4,0.3l-11.9,8.3c-0.2,0.1-0.2,0.2-0.2,0.3
		c0,0.1,0.1,0.1,0.3,0.1h11.7c0.3,0,0.5,0.2,0.5,0.5V451z"/>
</g>
<g>
	<g>
		<rect x="40.6" y="31.4" width="10" height="408.6"/>
	</g>
	<g>
		<path d="M29,52.7c-1.3,0-2.6-0.5-3.5-1.5c-2-2-2-5.1,0-7.1l19.8-19.8l19.4,19.4c2,2,2,5.1,0,7.1c-2,2-5.1,2-7.1,0L45.3,38.4
			L32.6,51.2C31.6,52.2,30.3,52.7,29,52.7z"/>
	</g>
</g>
<g>
	<g>
		<rect x="753.3" y="48" width="10" height="408.6"/>
	</g>
	<g>
		<path d="M741.7,69.3c-1.3,0-2.6-0.5-3.5-1.5c-2-2-2-5.1,0-7.1L758,40.9l19.4,19.4c2,2,2,5.1,0,7.1c-2,2-5.1,2-7.1,0L758,55.1
			l-12.8,12.8C744.3,68.8,743,69.3,741.7,69.3z"/>
	</g>
</g>
<g>
	<g>
		<rect x="518.1" y="94.4" width="10" height="408.6"/>
	</g>
	<g>
		<path d="M523.4,510l-19.4-19.4c-2-2-2-5.1,0-7.1c2-2,5.1-2,7.1,0l12.3,12.3l12.8-12.8c2-2,5.1-2,7.1,0c2,2,2,5.1,0,7.1L523.4,510z
			"/>
	</g>
</g>
<g>
	<g>
		<rect x="1229.7" y="111" width="10" height="408.6"/>
	</g>
	<g>
		<path d="M1235,526.7l-19.4-19.4c-2-2-2-5.1,0-7.1c2-2,5.1-2,7.1,0l12.3,12.3l12.8-12.8c2-2,5.1-2,7.1,0c2,2,2,5.1,0,7.1
			L1235,526.7z"/>
	</g>
</g>
</svg>
