<?xml version="1.0" encoding="utf-8"?>
<!-- Generator: Adobe Illustrator 22.0.1, SVG Export Plug-In . SVG Version: 6.00 Build 0)  -->
<svg version="1.1" id="Layer_1" xmlns="http://www.w3.org/2000/svg" xmlns:xlink="http://www.w3.org/1999/xlink" x="0px" y="0px"
	 viewBox="0 0 1280 746.8" style="enable-background:new 0 0 1280 746.8;" xml:space="preserve">
<style type="text/css">
	.st0{fill:#FFFFFF;}
</style>
<g>
	<rect width="1280" height="747.8"/>
</g>
<g>
	<g>
		<path class="st0" d="M390.2,641.7c-74.6,0-144.8-29.1-197.6-81.9c-52.8-52.8-81.9-123-81.9-197.6c0-74.6,29.1-144.8,81.9-197.6
			c52.8-52.8,123-81.9,197.6-81.9s144.8,29.1,197.6,81.9c52.8,52.8,81.9,123,81.9,197.6c0,74.6-29.1,144.8-81.9,197.6
			C535,612.6,464.8,641.7,390.2,641.7z M390.2,83.8c-74.4,0-144.3,29-196.9,81.6c-52.6,52.6-81.6,122.5-81.6,196.9
			s29,144.3,81.6,196.9c52.6,52.6,122.5,81.6,196.9,81.6s144.3-29,196.9-81.6c52.6-52.6,81.6-122.5,81.6-196.9s-29-144.3-81.6-196.9
			C534.5,112.7,464.5,83.8,390.2,83.8z"/>
	</g>
	<g>
		<path class="st0" d="M879.4,641.7c-74.6,0-144.8-29.1-197.6-81.9c-52.8-52.8-81.9-123-81.9-197.6c0-74.6,29.1-144.8,81.9-197.6
			s123-81.9,197.6-81.9s144.8,29.1,197.6,81.9c52.8,52.8,81.9,123,81.9,197.6c0,74.6-29.1,144.8-81.9,197.6
			C1024.2,612.6,954,641.7,879.4,641.7z M879.4,83.8c-74.4,0-144.3,29-196.9,81.6s-81.6,122.5-81.6,196.9s29,144.3,81.6,196.9
			c52.6,52.6,122.5,81.6,196.9,81.6s144.3-29,196.9-81.6c52.6-52.6,81.6-122.5,81.6-196.9s-29-144.3-81.6-196.9
			C1023.7,112.7,953.8,83.8,879.4,83.8z"/>
	</g>
</g>
<g>
	<path class="st0" d="M288.3,295h35.6c0.7,0,1.1,0.4,1.1,1.2l-0.1,6.4c0,1-0.5,1.5-1.5,1.5h-22.5c-0.9,0-1.3,0.4-1.3,1.1v10.2
		c0,0.8,0.4,1.2,1.1,1.2h15c0.8,0,1.2,0.4,1.2,1.1v6.8c0,0.7-0.4,1-1.1,1h-15.1c-0.7,0-1,0.3-1,0.8v11.1c0,0.3,0.1,0.6,0.2,0.7
		c0.1,0.1,0.3,0.2,0.6,0.2h24.2c0.8,0,1.3,0.4,1.3,1.1v6.7c0,0.8-0.5,1.3-1.4,1.3h-35.6c-0.6,0-1-0.1-1.2-0.4
		c-0.2-0.2-0.4-0.6-0.4-1.1v-49.6C287.2,295.4,287.6,295,288.3,295z"/>
	<path class="st0" d="M377.7,346.5c0,0.6-0.5,0.9-1.5,0.9h-9.8c-1.1,0-1.8-0.4-2.3-1.1l-10-16c-0.3-0.6-0.6-0.9-0.9-0.9
		c-0.3,0-0.6,0.3-0.9,0.9l-9.9,16c-0.4,0.7-1.2,1.1-2.3,1.1h-7.8c-1,0-1.5-0.3-1.5-0.8c0-0.5,0.3-1.2,0.8-1.9l14.8-22.7
		c0.3-0.4,0.4-0.8,0.4-1.1c0-0.2-0.2-0.6-0.5-1.2l-14.8-22.8c-0.2-0.2-0.3-0.5-0.3-0.9c0-0.7,0.4-1,1.1-1h10.3c0.6,0,1,0.1,1.3,0.3
		c0.3,0.2,0.6,0.5,0.8,0.8l8.8,14.3c0.2,0.4,0.5,0.6,0.7,0.6c0.3,0,0.5-0.2,0.8-0.6l8.8-14.3c0.2-0.4,0.5-0.7,0.8-0.9
		c0.3-0.2,0.7-0.2,1.3-0.2h8.6c0.7,0,1.1,0.3,1.1,0.8c0,0.3-0.1,0.6-0.4,1L361,318.3c-0.2,0.5-0.4,0.8-0.4,1.1
		c0,0.2,0.1,0.6,0.4,1.1l15.9,24.1C377.4,345.4,377.7,346,377.7,346.5z"/>
	<path class="st0" d="M382.3,296.2c0-0.4,0.1-0.7,0.4-0.9c0.3-0.2,0.6-0.4,1-0.4h40.5c0.9,0,1.4,0.4,1.4,1.3v6.6
		c0,0.7-0.4,1.1-1.3,1.1h-13.2c-0.5,0-0.8,0.2-0.8,0.7V346c0,0.9-0.4,1.3-1.2,1.3h-10.1c-0.7,0-1.1-0.4-1.1-1.2v-41.4
		c0-0.3-0.1-0.6-0.2-0.7c-0.1-0.1-0.3-0.2-0.6-0.2h-13.6c-0.9,0-1.3-0.4-1.3-1.1V296.2z"/>
	<path class="st0" d="M475.6,346.1c0,0.4-0.1,0.7-0.4,0.9c-0.2,0.2-0.5,0.4-0.8,0.4h-10.4c-0.8,0-1.3-0.4-1.6-1.3l-7.6-19.8
		c-0.1-0.4-0.4-0.6-0.6-0.8c-0.3-0.1-0.7-0.2-1.3-0.2h-6.7c-0.3,0-0.5,0.1-0.6,0.2c-0.1,0.2-0.2,0.3-0.2,0.5v19.6
		c0,0.6-0.2,1-0.5,1.3c-0.3,0.3-0.8,0.4-1.4,0.4h-9c-0.6,0-1-0.1-1.2-0.4c-0.2-0.2-0.3-0.6-0.3-1.1v-49.6c0-0.9,0.4-1.3,1.1-1.3h22
		c6.4,0,11.3,1.2,14.8,3.7c3.5,2.5,5.2,6.1,5.2,10.7c0,3.4-0.9,6.4-2.8,8.8c-1.8,2.4-4.1,4.1-6.9,5.1c-0.4,0.1-0.5,0.5-0.3,1.1
		l9.3,21.1C475.6,345.7,475.6,346,475.6,346.1z M461.2,315.3c1.4-1.2,2.1-2.8,2.1-5c0-2.3-0.7-4-2.2-5.2c-1.4-1.2-3.4-1.8-5.8-1.8
		h-8.7c-0.5,0-0.9,0.1-1.1,0.2c-0.2,0.2-0.3,0.5-0.3,0.9v11.4c0,0.4,0.1,0.7,0.2,0.9c0.1,0.2,0.4,0.3,0.8,0.3h8.7
		C457.7,317,459.8,316.4,461.2,315.3z"/>
	<path class="st0" d="M298.4,379.7c0.8,0,1.1,0.4,1.1,1.3v49.4c0,0.6-0.1,1-0.4,1.3c-0.3,0.3-0.8,0.4-1.5,0.4h-8.9
		c-0.6,0-1-0.1-1.2-0.4c-0.2-0.2-0.4-0.6-0.4-1.1v-49.6c0-0.9,0.4-1.3,1.1-1.3H298.4z"/>
	<path class="st0" d="M352.3,379.7c0.6,0,0.9,0.4,0.9,1.1V431c0,0.3-0.1,0.6-0.4,0.8s-0.6,0.3-1,0.3h-7.1c-0.4,0-0.8,0-1-0.1
		c-0.2-0.1-0.5-0.3-0.8-0.7l-22.5-31.6c-0.2-0.2-0.4-0.3-0.5-0.3c-0.2,0-0.2,0.2-0.2,0.4v31.1v0.2c0,0.4-0.1,0.6-0.3,0.8
		c-0.2,0.2-0.6,0.2-1.1,0.2h-7.3c-0.9,0-1.4-0.4-1.4-1.2v-49.9c0-0.9,0.4-1.3,1.3-1.3h8.5c0.6,0,1,0.1,1.2,0.2
		c0.2,0.1,0.5,0.4,0.8,0.9l20.8,29.6c0.3,0.4,0.5,0.6,0.7,0.6c0.2,0,0.4-0.3,0.4-0.8V381c0-0.8,0.4-1.3,1.3-1.3H352.3z"/>
	<path class="st0" d="M388.9,388.9c-1.6-0.8-3.6-1.2-6.2-1.2c-2.9,0-5.1,0.5-6.6,1.6c-1.5,1-2.3,2.4-2.3,4.1c0,2.4,1.9,4.2,5.7,5.4
		l11.2,3.2c4.2,1.2,7.3,3,9.4,5.6c2,2.5,3.1,5.6,3.1,9.2c0,3.3-0.8,6.2-2.5,8.6c-1.7,2.4-4.1,4.3-7.3,5.6c-3.2,1.3-6.9,2-11.2,2
		c-4.8,0-9.1-0.8-13-2.4c-3.9-1.6-6.7-3.8-8.5-6.7c-0.2-0.3-0.3-0.6-0.3-0.9c0-0.4,0.2-0.8,0.7-1.2l5.4-3.7c0.5-0.3,0.9-0.4,1.3-0.4
		c0.4,0,0.8,0.2,1.1,0.6c1.7,2.3,3.5,3.9,5.3,4.8c1.8,0.9,4.2,1.4,7.1,1.4c3.2,0,5.6-0.5,7.4-1.5c1.8-1,2.7-2.5,2.7-4.4
		c0-1.3-0.4-2.4-1.3-3.2c-0.9-0.9-2.4-1.7-4.5-2.3l-10.7-3c-4-1.1-7.2-3-9.4-5.7c-2.2-2.7-3.3-5.7-3.3-9.1c0-3,0.8-5.7,2.5-8.1
		c1.7-2.4,4-4.3,7.1-5.7c3.1-1.4,6.6-2.1,10.6-2.1c4,0,7.6,0.7,10.9,2c3.3,1.3,5.8,3.1,7.6,5.4c0.3,0.4,0.4,0.7,0.4,1
		s-0.1,0.5-0.4,0.8l-5.9,4.4c-0.3,0.2-0.5,0.3-0.6,0.3c-0.2,0-0.6-0.3-1.1-0.8C391.9,390.7,390.5,389.6,388.9,388.9z"/>
	<path class="st0" d="M422.1,379.7c0.8,0,1.1,0.4,1.1,1.3v49.4c0,0.6-0.1,1-0.4,1.3c-0.3,0.3-0.8,0.4-1.5,0.4h-8.9
		c-0.6,0-1-0.1-1.2-0.4c-0.2-0.2-0.4-0.6-0.4-1.1v-49.6c0-0.9,0.4-1.3,1.1-1.3H422.1z"/>
	<path class="st0" d="M465,381.1c3,1.4,5.5,3.2,7.5,5.6c2,2.4,3.2,5,3.7,7.9c0.1,0.3,0.1,0.7,0.1,1.1c0,0.3-0.1,0.5-0.2,0.6
		c-0.1,0.1-0.4,0.2-0.6,0.2l-9.5,0.6c-0.4,0-0.7-0.1-0.8-0.2c-0.1-0.1-0.2-0.4-0.3-0.8c-0.5-2.6-1.6-4.6-3.1-6.1
		c-1.6-1.5-3.6-2.3-6.2-2.3c-7.5,0-11.3,6-11.3,18.1c0,6.3,0.9,10.8,2.8,13.7c1.9,2.9,4.8,4.3,8.6,4.3c2.8,0,5.2-0.7,7.2-2.1
		c2-1.4,3.5-3.7,4.8-6.9c0.1-0.3,0.4-0.5,0.9-0.5c0.3,0,0.5,0,0.6,0.1l6.9,1.5c0.7,0.2,0.9,0.8,0.8,1.8c-0.5,2-1.6,4.2-3.3,6.6
		c-1.7,2.4-4.1,4.4-7.2,6.1c-3.1,1.7-6.8,2.6-11.2,2.6c-4.8,0-9.1-1.1-12.7-3.4c-3.6-2.3-6.4-5.5-8.3-9.6c-1.9-4.1-2.9-8.9-2.9-14.3
		c0-5.4,1-10.1,2.9-14.1c1.9-4,4.7-7.1,8.3-9.2c3.6-2.1,7.8-3.2,12.7-3.2C458.7,379,462,379.7,465,381.1z"/>
</g>
<g>
	<path class="st0" d="M808.3,295c0.8,0,1.1,0.4,1.1,1.3v49.4c0,0.6-0.1,1-0.4,1.3c-0.3,0.3-0.8,0.4-1.5,0.4h-8.9
		c-0.6,0-1-0.1-1.2-0.4c-0.2-0.2-0.4-0.6-0.4-1.1v-49.6c0-0.9,0.4-1.3,1.1-1.3H808.3z"/>
	<path class="st0" d="M862.2,295c0.6,0,0.9,0.4,0.9,1.1v50.2c0,0.3-0.1,0.6-0.4,0.8s-0.6,0.3-1,0.3h-7.1c-0.4,0-0.8,0-1-0.1
		c-0.2-0.1-0.5-0.3-0.8-0.7l-22.5-31.6c-0.2-0.2-0.4-0.3-0.5-0.3c-0.2,0-0.2,0.2-0.2,0.4v31.1v0.2c0,0.4-0.1,0.6-0.3,0.8
		c-0.2,0.2-0.6,0.2-1.1,0.2h-7.3c-0.9,0-1.4-0.4-1.4-1.2v-49.9c0-0.9,0.4-1.3,1.3-1.3h8.5c0.6,0,1,0.1,1.2,0.2
		c0.2,0.1,0.5,0.4,0.8,0.9l20.8,29.6c0.3,0.4,0.5,0.6,0.7,0.6c0.2,0,0.4-0.3,0.4-0.8v-29.2c0-0.8,0.4-1.3,1.3-1.3H862.2z"/>
	<path class="st0" d="M870.3,296.2c0-0.4,0.1-0.7,0.4-0.9c0.3-0.2,0.6-0.4,1-0.4h40.5c0.9,0,1.4,0.4,1.4,1.3v6.6
		c0,0.7-0.4,1.1-1.3,1.1h-13.2c-0.5,0-0.8,0.2-0.8,0.7V346c0,0.9-0.4,1.3-1.2,1.3h-10.1c-0.7,0-1.1-0.4-1.1-1.2v-41.4
		c0-0.3-0.1-0.6-0.2-0.7c-0.1-0.1-0.3-0.2-0.6-0.2h-13.6c-0.9,0-1.3-0.4-1.3-1.1V296.2z"/>
	<path class="st0" d="M963.7,346.1c0,0.4-0.1,0.7-0.4,0.9c-0.2,0.2-0.5,0.4-0.8,0.4h-10.4c-0.8,0-1.3-0.4-1.6-1.3l-7.6-19.8
		c-0.1-0.4-0.4-0.6-0.6-0.8c-0.3-0.1-0.7-0.2-1.3-0.2h-6.7c-0.3,0-0.5,0.1-0.6,0.2c-0.1,0.2-0.2,0.3-0.2,0.5v19.6
		c0,0.6-0.2,1-0.5,1.3c-0.3,0.3-0.8,0.4-1.4,0.4h-9c-0.6,0-1-0.1-1.2-0.4c-0.2-0.2-0.3-0.6-0.3-1.1v-49.6c0-0.9,0.4-1.3,1.1-1.3h22
		c6.4,0,11.3,1.2,14.8,3.7c3.5,2.5,5.2,6.1,5.2,10.7c0,3.4-0.9,6.4-2.8,8.8c-1.8,2.4-4.1,4.1-6.9,5.1c-0.4,0.1-0.5,0.5-0.3,1.1
		l9.3,21.1C963.7,345.7,963.7,346,963.7,346.1z M949.3,315.3c1.4-1.2,2.1-2.8,2.1-5c0-2.3-0.7-4-2.2-5.2c-1.4-1.2-3.4-1.8-5.8-1.8
		h-8.7c-0.5,0-0.9,0.1-1.1,0.2c-0.2,0.2-0.3,0.5-0.3,0.9v11.4c0,0.4,0.1,0.7,0.2,0.9c0.1,0.2,0.4,0.3,0.8,0.3h8.7
		C945.8,317,947.9,316.4,949.3,315.3z"/>
	<path class="st0" d="M808.3,379.7c0.8,0,1.1,0.4,1.1,1.3v49.4c0,0.6-0.1,1-0.4,1.3c-0.3,0.3-0.8,0.4-1.5,0.4h-8.9
		c-0.6,0-1-0.1-1.2-0.4c-0.2-0.2-0.4-0.6-0.4-1.1v-49.6c0-0.9,0.4-1.3,1.1-1.3H808.3z"/>
	<path class="st0" d="M862.2,379.7c0.6,0,0.9,0.4,0.9,1.1V431c0,0.3-0.1,0.6-0.4,0.8s-0.6,0.3-1,0.3h-7.1c-0.4,0-0.8,0-1-0.1
		c-0.2-0.1-0.5-0.3-0.8-0.7l-22.5-31.6c-0.2-0.2-0.4-0.3-0.5-0.3c-0.2,0-0.2,0.2-0.2,0.4v31.1v0.2c0,0.4-0.1,0.6-0.3,0.8
		c-0.2,0.2-0.6,0.2-1.1,0.2h-7.3c-0.9,0-1.4-0.4-1.4-1.2v-49.9c0-0.9,0.4-1.3,1.3-1.3h8.5c0.6,0,1,0.1,1.2,0.2
		c0.2,0.1,0.5,0.4,0.8,0.9l20.8,29.6c0.3,0.4,0.5,0.6,0.7,0.6c0.2,0,0.4-0.3,0.4-0.8V381c0-0.8,0.4-1.3,1.3-1.3H862.2z"/>
	<path class="st0" d="M898.8,388.9c-1.6-0.8-3.6-1.2-6.2-1.2c-2.9,0-5.1,0.5-6.6,1.6c-1.5,1-2.3,2.4-2.3,4.1c0,2.4,1.9,4.2,5.7,5.4
		l11.2,3.2c4.2,1.2,7.3,3,9.4,5.6c2,2.5,3.1,5.6,3.1,9.2c0,3.3-0.8,6.2-2.5,8.6c-1.7,2.4-4.1,4.3-7.3,5.6c-3.2,1.3-6.9,2-11.2,2
		c-4.8,0-9.1-0.8-13-2.4c-3.9-1.6-6.7-3.8-8.5-6.7c-0.2-0.3-0.3-0.6-0.3-0.9c0-0.4,0.2-0.8,0.7-1.2l5.4-3.7c0.5-0.3,0.9-0.4,1.3-0.4
		c0.4,0,0.8,0.2,1.1,0.6c1.7,2.3,3.5,3.9,5.3,4.8c1.8,0.9,4.2,1.4,7.1,1.4c3.2,0,5.6-0.5,7.4-1.5c1.8-1,2.7-2.5,2.7-4.4
		c0-1.3-0.4-2.4-1.3-3.2c-0.9-0.9-2.4-1.7-4.5-2.3l-10.7-3c-4-1.1-7.2-3-9.4-5.7c-2.2-2.7-3.3-5.7-3.3-9.1c0-3,0.8-5.7,2.5-8.1
		c1.7-2.4,4-4.3,7.1-5.7c3.1-1.4,6.6-2.1,10.6-2.1c4,0,7.6,0.7,10.9,2c3.3,1.3,5.8,3.1,7.6,5.4c0.3,0.4,0.4,0.7,0.4,1
		s-0.1,0.5-0.4,0.8l-5.9,4.4c-0.3,0.2-0.5,0.3-0.6,0.3c-0.2,0-0.6-0.3-1.1-0.8C901.8,390.7,900.4,389.6,898.8,388.9z"/>
	<path class="st0" d="M932,379.7c0.8,0,1.1,0.4,1.1,1.3v49.4c0,0.6-0.1,1-0.4,1.3c-0.3,0.3-0.8,0.4-1.5,0.4h-8.9
		c-0.6,0-1-0.1-1.2-0.4c-0.2-0.2-0.4-0.6-0.4-1.1v-49.6c0-0.9,0.4-1.3,1.1-1.3H932z"/>
	<path class="st0" d="M974.9,381.1c3,1.4,5.5,3.2,7.5,5.6c2,2.4,3.2,5,3.7,7.9c0.1,0.3,0.1,0.7,0.1,1.1c0,0.3-0.1,0.5-0.2,0.6
		c-0.1,0.1-0.4,0.2-0.6,0.2l-9.5,0.6c-0.4,0-0.7-0.1-0.8-0.2c-0.1-0.1-0.2-0.4-0.3-0.8c-0.5-2.6-1.6-4.6-3.1-6.1
		c-1.6-1.5-3.6-2.3-6.2-2.3c-7.5,0-11.3,6-11.3,18.1c0,6.3,0.9,10.8,2.8,13.7c1.9,2.9,4.8,4.3,8.6,4.3c2.8,0,5.2-0.7,7.2-2.1
		c2-1.4,3.5-3.7,4.8-6.9c0.1-0.3,0.4-0.5,0.9-0.5c0.3,0,0.5,0,0.6,0.1l6.9,1.5c0.7,0.2,0.9,0.8,0.8,1.8c-0.5,2-1.6,4.2-3.3,6.6
		c-1.7,2.4-4.1,4.4-7.2,6.1c-3.1,1.7-6.8,2.6-11.2,2.6c-4.8,0-9.1-1.1-12.7-3.4c-3.6-2.3-6.4-5.5-8.3-9.6c-1.9-4.1-2.9-8.9-2.9-14.3
		c0-5.4,1-10.1,2.9-14.1c1.9-4,4.7-7.1,8.3-9.2c3.6-2.1,7.8-3.2,12.7-3.2C968.6,379,971.9,379.7,974.9,381.1z"/>
</g>
<g>
	<g>
		<circle cx="879.4" cy="91.5" r="74.3"/>
		<path class="st0" d="M879.4,166.3c-41.2,0-74.8-33.6-74.8-74.8s33.6-74.8,74.8-74.8s74.8,33.6,74.8,74.8S920.6,166.3,879.4,166.3z
			 M879.4,17.7c-40.7,0-73.8,33.1-73.8,73.8s33.1,73.8,73.8,73.8c40.7,0,73.8-33.1,73.8-73.8S920.1,17.7,879.4,17.7z"/>
	</g>
	<g>
		<path class="st0" d="M834.2,87.8c-0.2,0-0.3,0.1-0.3,0.3V95c0,0.6,0.2,1.1,0.5,1.4c0.3,0.3,0.8,0.4,1.4,0.4h1.5
			c0.1,0,0.2,0,0.3,0.1c0.1,0.1,0.1,0.2,0.1,0.4l0,1.7c0,0.4-0.2,0.6-0.6,0.7c-0.8,0.1-1.9,0.2-3.4,0.2c-1.3,0-2.3-0.3-3.1-0.9
			s-1.1-1.5-1.1-2.7v-7.9c0-0.3-0.1-0.4-0.4-0.4h-1.7c-0.4,0-0.5-0.2-0.5-0.5v-2.1c0-0.3,0.2-0.4,0.5-0.4h1.9c0.2,0,0.2-0.1,0.3-0.3
			l0.4-4.3c0-0.3,0.2-0.5,0.4-0.5h3.1c0.1,0,0.2,0,0.3,0.1s0.1,0.2,0.1,0.4v4.2c0,0.2,0.1,0.3,0.3,0.3h3c0.3,0,0.5,0.2,0.5,0.5v2.1
			c0,0.3-0.2,0.5-0.6,0.5H834.2z"/>
		<path class="st0" d="M842.6,99.1c-1.1-0.6-2-1.6-2.7-2.7c-0.6-1.2-1-2.5-1-4c0-1.5,0.3-2.9,1-4.1c0.6-1.2,1.6-2.1,2.7-2.8
			s2.5-1,3.9-1c1.5,0,2.8,0.3,4,1c1.1,0.7,2,1.6,2.7,2.8c0.6,1.2,0.9,2.5,0.9,4c0,1.5-0.3,2.8-1,4c-0.6,1.2-1.5,2.1-2.7,2.7
			c-1.1,0.7-2.5,1-4,1S843.7,99.8,842.6,99.1z M848.9,96c0.5-0.8,0.8-2,0.8-3.7c0-1.6-0.3-2.9-0.8-3.7c-0.5-0.8-1.3-1.3-2.4-1.3
			c-1,0-1.8,0.4-2.4,1.3s-0.8,2.1-0.8,3.7c0,1.6,0.3,2.8,0.8,3.6s1.3,1.2,2.4,1.2C847.6,97.2,848.3,96.8,848.9,96z"/>
		<path class="st0" d="M877.3,99.4c0,0.1,0,0.2-0.1,0.3s-0.2,0.1-0.4,0.1h-3.7c-0.3,0-0.6-0.2-0.8-0.6l-2.9-5.8
			c-0.1-0.2-0.2-0.3-0.3-0.3c-0.1,0-0.1,0-0.2,0.1l-2,2c-0.2,0.1-0.3,0.4-0.3,0.7v3.2c0,0.2-0.1,0.4-0.2,0.5s-0.3,0.2-0.6,0.2h-3
			c-0.2,0-0.4,0-0.5-0.1c-0.1-0.1-0.1-0.2-0.1-0.5V79.4c0-0.4,0.2-0.5,0.5-0.5h3.5c0.3,0,0.4,0.2,0.4,0.5v11.6c0,0.2,0,0.2,0.1,0.2
			s0.2,0,0.2-0.1l5.3-5.8c0.3-0.3,0.5-0.4,0.8-0.4h3c0.3,0,0.5,0.1,0.5,0.3c0,0.1-0.1,0.3-0.2,0.4l-4,4c-0.1,0.1-0.2,0.3-0.2,0.4
			c0,0.1,0,0.3,0.1,0.4l4.8,8.8C877.3,99.2,877.3,99.3,877.3,99.4z"/>
		<path class="st0" d="M879.5,99.7c-0.1-0.1-0.1-0.2-0.1-0.4V85.4c0-0.4,0.2-0.5,0.5-0.5h3.4c0.3,0,0.4,0.2,0.4,0.5v1.4
			c0,0.2,0,0.2,0.1,0.2c0.1,0,0.1,0,0.2-0.1c0.8-0.7,1.5-1.3,2.3-1.7c0.8-0.4,1.6-0.6,2.5-0.6c1.4,0,2.5,0.4,3.3,1.2
			c0.8,0.8,1.2,1.9,1.2,3.2v10.1c0,0.5-0.2,0.7-0.7,0.7h-3.1c-0.2,0-0.3,0-0.4-0.1c-0.1-0.1-0.1-0.2-0.1-0.4v-9.5
			c0-0.6-0.2-1.1-0.5-1.5c-0.3-0.3-0.9-0.5-1.5-0.5c-0.6,0-1.1,0.1-1.6,0.4c-0.5,0.3-1,0.7-1.5,1.3v9.7c0,0.2-0.1,0.4-0.2,0.5
			s-0.3,0.2-0.6,0.2h-3C879.8,99.8,879.6,99.8,879.5,99.7z"/>
		<path class="st0" d="M899.2,99.1c-1.1-0.6-2-1.6-2.7-2.7c-0.6-1.2-1-2.5-1-4c0-1.5,0.3-2.9,1-4.1c0.6-1.2,1.6-2.1,2.7-2.8
			s2.5-1,3.9-1c1.5,0,2.8,0.3,4,1c1.1,0.7,2,1.6,2.7,2.8c0.6,1.2,0.9,2.5,0.9,4c0,1.5-0.3,2.8-1,4c-0.6,1.2-1.5,2.1-2.7,2.7
			c-1.1,0.7-2.5,1-4,1S900.3,99.8,899.2,99.1z M905.5,96c0.5-0.8,0.8-2,0.8-3.7c0-1.6-0.3-2.9-0.8-3.7c-0.5-0.8-1.3-1.3-2.4-1.3
			c-1,0-1.8,0.4-2.4,1.3s-0.8,2.1-0.8,3.7c0,1.6,0.3,2.8,0.8,3.6s1.3,1.2,2.4,1.2C904.2,97.2,905,96.8,905.5,96z"/>
		<path class="st0" d="M934,85c0.1,0.1,0.1,0.2,0.1,0.3c0,0,0,0.1-0.1,0.2l-4.6,13.9c-0.1,0.2-0.1,0.3-0.2,0.4s-0.2,0.1-0.4,0.1
			h-2.3c-0.2,0-0.4,0-0.5-0.1c-0.1-0.1-0.2-0.2-0.3-0.4l-2.4-7.8c-0.1-0.2-0.1-0.3-0.2-0.3c-0.1,0-0.1,0.1-0.2,0.3l-2.5,7.9
			c0,0.2-0.1,0.3-0.2,0.4s-0.2,0.1-0.4,0.1h-2.4c-0.2,0-0.4,0-0.5-0.1c-0.1-0.1-0.2-0.2-0.2-0.4l-4.5-13.8c0,0,0-0.1,0-0.2
			c0-0.1,0-0.2,0.1-0.3c0.1-0.1,0.2-0.1,0.4-0.1h3.3c0.1,0,0.3,0,0.4,0.1c0.1,0.1,0.2,0.2,0.2,0.4l2.5,8c0.1,0.2,0.1,0.3,0.2,0.3
			s0.1-0.1,0.2-0.3l2.4-8c0-0.1,0.1-0.2,0.2-0.3c0.1-0.1,0.2-0.1,0.4-0.1h2.4c0.2,0,0.3,0,0.4,0.1c0.1,0.1,0.2,0.2,0.2,0.3l2.5,8
			c0.1,0.2,0.1,0.3,0.2,0.3c0.1,0,0.2-0.1,0.2-0.3l2.4-8c0.1-0.3,0.3-0.5,0.7-0.5h2.1C933.8,84.8,933.9,84.9,934,85z"/>
	</g>
</g>
<g>
	<g>
		<circle cx="143.4" cy="221.9" r="94.7"/>
		<path class="st0" d="M143.4,317.1c-52.5,0-95.2-42.7-95.2-95.2c0-52.5,42.7-95.2,95.2-95.2c52.5,0,95.2,42.7,95.2,95.2
			C238.6,274.4,195.9,317.1,143.4,317.1z M143.4,127.7c-52,0-94.2,42.3-94.2,94.2c0,52,42.3,94.2,94.2,94.2s94.2-42.3,94.2-94.2
			C237.6,169.9,195.4,127.7,143.4,127.7z"/>
	</g>
	<g>
		<path class="st0" d="M91.5,229.7v-10.4c0-0.3,0.1-0.4,0.3-0.4h2.5c0.2,0,0.3,0.1,0.3,0.4v1.2c0,0.1,0,0.1,0,0.1s0.1,0,0.1,0
			c0,0,0.1,0,0.2-0.1c0.4-0.6,0.9-1,1.5-1.4c0.6-0.3,1.1-0.5,1.7-0.5c0.5,0,0.8,0.1,0.8,0.4v2.5c0,0.1,0,0.2-0.1,0.2
			c-0.1,0.1-0.1,0.1-0.2,0c-0.5-0.1-0.9-0.2-1.5-0.2c-0.4,0-0.7,0.1-1.1,0.3c-0.4,0.2-0.7,0.4-0.9,0.7c-0.2,0.3-0.3,0.6-0.3,0.9v6.2
			c0,0.3-0.2,0.5-0.6,0.5H92C91.7,230.2,91.5,230,91.5,229.7z"/>
		<path class="st0" d="M103.8,227.4c0.5,0.5,1.2,0.7,2,0.7c0.5,0,1-0.1,1.4-0.3c0.4-0.2,0.9-0.6,1.3-1.1c0.1-0.1,0.1-0.1,0.2-0.1
			c0,0,0.1,0,0.2,0.1l1.5,0.6c0.1,0,0.1,0.1,0.1,0.2c0,0.1,0,0.1-0.1,0.2c-0.7,1-1.4,1.6-2.2,2c-0.8,0.4-1.7,0.6-2.9,0.6
			c-1.1,0-2.1-0.2-2.9-0.7s-1.6-1.1-2.1-2c-0.5-0.9-0.7-1.8-0.7-2.9c0-1.2,0.3-2.2,0.8-3.1c0.5-0.9,1.2-1.6,2.1-2.1
			c0.9-0.5,1.8-0.7,2.8-0.7c1.1,0,2,0.2,2.9,0.7c0.8,0.5,1.5,1.2,1.9,2c0.5,0.9,0.7,1.9,0.7,3.2c0,0.2,0,0.3-0.1,0.4
			c0,0.1-0.1,0.1-0.3,0.1h-7.2c-0.2,0-0.3,0.1-0.3,0.3C103,226.3,103.3,226.9,103.8,227.4z M107.3,223.4c0.2,0,0.3,0,0.3-0.1
			c0,0,0.1-0.1,0.1-0.2c0-0.4-0.1-0.7-0.3-1.1c-0.2-0.4-0.4-0.7-0.7-0.9c-0.3-0.2-0.7-0.4-1.2-0.4c-0.7,0-1.3,0.2-1.7,0.7
			c-0.5,0.5-0.7,1.1-0.7,1.9L107.3,223.4z"/>
		<path class="st0" d="M124.4,218.9v1.4c0,0.4-0.2,0.6-0.5,0.5c-0.2,0-0.4-0.1-0.6-0.1c-0.1,0-0.2,0-0.4,0c-0.4,0.1-0.5,0.2-0.4,0.5
			c0.1,0.4,0.2,0.7,0.2,1c0,0.6-0.2,1.2-0.6,1.8s-1,0.9-1.7,1.2c-0.8,0.3-1.7,0.5-2.8,0.5c-0.8,0-1.4,0.1-1.7,0.2s-0.6,0.3-0.6,0.5
			c0,0.2,0.1,0.3,0.3,0.4c0.2,0.1,0.5,0.1,1,0.2l3,0.2c1.4,0.1,2.4,0.4,3.1,0.9c0.7,0.5,1,1.2,1,2.1c0,1.1-0.5,2-1.6,2.6
			c-1,0.7-2.5,1-4.4,1c-4.1,0-6.2-0.9-6.2-2.7c0-0.5,0.2-0.8,0.5-1.2c0.4-0.3,0.9-0.6,1.5-0.8c0.1,0,0.1-0.1,0.1-0.1
			c0,0,0-0.1-0.1-0.1c-0.8-0.4-1.2-0.9-1.2-1.6c0-0.4,0.2-0.7,0.6-1.1s0.9-0.6,1.5-0.9c0.2-0.1,0.2-0.2,0-0.3
			c-1.4-0.6-2.1-1.6-2.1-2.9c0-1.1,0.5-1.9,1.4-2.6c0.9-0.6,2.2-1,4-1c1.5,0,2.6,0.3,3.4,1c0.1,0.1,0.2,0.1,0.3,0.1
			c0.1,0,0.2,0,0.3-0.1c0.3-0.3,0.6-0.6,1.1-0.9c0.4-0.2,0.8-0.4,1.1-0.4C124.2,218.5,124.4,218.6,124.4,218.9z M116,229.5
			c-0.4,0-0.8,0.1-1.2,0.3c-0.3,0.2-0.5,0.5-0.5,0.9c0,0.5,0.3,0.9,0.9,1.2c0.6,0.3,1.5,0.4,2.8,0.4c0.9,0,1.7-0.1,2.2-0.4
			c0.5-0.3,0.8-0.6,0.8-1.1c0-0.3-0.1-0.6-0.4-0.8c-0.3-0.2-0.7-0.3-1.2-0.3L116,229.5z M119.1,223.6c0.4-0.3,0.5-0.8,0.5-1.3
			c0-0.6-0.2-1.1-0.5-1.4s-0.9-0.5-1.6-0.5c-0.7,0-1.2,0.2-1.6,0.5s-0.6,0.8-0.6,1.4c0,0.5,0.2,1,0.6,1.3c0.4,0.3,0.9,0.5,1.6,0.5
			C118.2,224.1,118.8,224,119.1,223.6z"/>
		<path class="st0" d="M133,226.8v-7.4c0-0.3,0.2-0.5,0.6-0.5h2.3c0.2,0,0.3,0,0.3,0.1c0.1,0.1,0.1,0.2,0.1,0.3l0,10.4
			c0,0.1,0,0.2-0.1,0.3c-0.1,0.1-0.1,0.1-0.2,0.1h-2.5c-0.2,0-0.3-0.1-0.3-0.4v-1c0-0.1,0-0.1-0.1-0.1c0,0-0.1,0-0.2,0.1
			c-0.6,0.6-1.2,1-1.8,1.3s-1.2,0.4-1.9,0.4c-0.9,0-1.7-0.3-2.3-0.9c-0.6-0.6-0.9-1.4-0.9-2.5v-7.5c0-0.3,0.2-0.5,0.5-0.5h2.4
			c0.3,0,0.4,0.1,0.4,0.4v7.1c0,0.5,0.1,0.8,0.4,1.1c0.3,0.3,0.6,0.4,1.1,0.4C131.4,228,132.2,227.6,133,226.8z"/>
		<path class="st0" d="M141.8,229.7c0,0.2,0,0.3-0.1,0.4c-0.1,0.1-0.2,0.1-0.4,0.1H139c-0.2,0-0.3,0-0.4-0.1
			c-0.1-0.1-0.1-0.2-0.1-0.3l0.1-14.9c0-0.3,0.1-0.4,0.3-0.4h2.6c0.2,0,0.3,0.1,0.3,0.4V229.7z"/>
		<path class="st0" d="M147,230.4c-1.1,0-1.9-0.3-2.5-0.9c-0.6-0.6-0.9-1.3-0.9-2.2c0-1.2,0.5-2.1,1.6-2.9s2.6-1.1,4.5-1.1l0.8-0.1
			c0.1,0,0.2,0,0.2-0.1c0.1,0,0.1-0.1,0.1-0.2v-0.4c0-0.6-0.2-1-0.5-1.3c-0.3-0.3-0.8-0.4-1.3-0.4c-1,0-1.7,0.4-2.2,1.3
			c-0.1,0.1-0.1,0.2-0.3,0.2c-0.1,0-0.1,0-0.2,0l-2.1-0.5c-0.1,0-0.2-0.1-0.2-0.2c0-0.1,0-0.2,0.1-0.3c0.3-0.8,0.9-1.4,1.8-1.8
			c0.9-0.4,1.9-0.6,3.2-0.6c1.7,0,2.9,0.3,3.6,0.9c0.7,0.6,1.1,1.5,1.1,2.6v7.4c0,0.2,0,0.3-0.1,0.4c-0.1,0.1-0.2,0.1-0.3,0.1h-2.2
			c-0.1,0-0.2,0-0.3-0.1c-0.1-0.1-0.1-0.2-0.1-0.4l0-0.5c0-0.1-0.1-0.2-0.2-0.2c-0.1,0-0.2,0.1-0.3,0.2
			C149.4,230,148.3,230.4,147,230.4z M150.7,224.9c0-0.1-0.1-0.1-0.3-0.1l-0.6,0c-0.8,0-1.5,0.2-2.2,0.6c-0.6,0.3-0.9,0.8-0.9,1.4
			c0,0.4,0.1,0.8,0.4,1c0.3,0.2,0.7,0.4,1.2,0.4c0.6,0,1.2-0.2,1.7-0.6c0.5-0.4,0.7-0.7,0.7-1.1v-1.4
			C150.8,225,150.8,225,150.7,224.9z"/>
		<path class="st0" d="M160.8,221.2c-0.2,0-0.2,0.1-0.2,0.3v5.1c0,0.5,0.1,0.8,0.3,1c0.2,0.2,0.6,0.3,1.1,0.3h1.1
			c0.1,0,0.2,0,0.2,0.1s0.1,0.2,0.1,0.3l0,1.3c0,0.3-0.2,0.5-0.5,0.5c-0.6,0.1-1.4,0.1-2.5,0.1c-1,0-1.8-0.2-2.3-0.7
			c-0.6-0.5-0.8-1.1-0.8-2v-5.9c0-0.2-0.1-0.3-0.3-0.3h-1.3c-0.3,0-0.4-0.1-0.4-0.4v-1.6c0-0.2,0.1-0.3,0.4-0.3h1.5
			c0.1,0,0.2-0.1,0.2-0.2l0.3-3.2c0-0.2,0.1-0.4,0.3-0.4h2.3c0.1,0,0.2,0,0.2,0.1s0.1,0.2,0.1,0.3v3.2c0,0.1,0.1,0.2,0.2,0.2h2.2
			c0.3,0,0.4,0.1,0.4,0.3v1.6c0,0.2-0.1,0.4-0.4,0.4H160.8z"/>
		<path class="st0" d="M168.6,217.1c0,0.4-0.2,0.5-0.6,0.5h-2.3c-0.2,0-0.3,0-0.4-0.1c-0.1-0.1-0.1-0.2-0.1-0.4v-2.2
			c0-0.3,0.1-0.4,0.4-0.4h2.6c0.1,0,0.2,0,0.2,0.1c0.1,0.1,0.1,0.2,0.1,0.3V217.1z M168.5,229.7c0,0.2,0,0.3-0.1,0.4
			c-0.1,0.1-0.2,0.1-0.4,0.1h-2.2c-0.2,0-0.3,0-0.4-0.1c-0.1-0.1-0.1-0.2-0.1-0.3v-10.4c0-0.3,0.1-0.4,0.4-0.4h2.6
			c0.2,0,0.3,0.1,0.3,0.4V229.7z"/>
		<path class="st0" d="M173.1,229.7c-0.9-0.5-1.5-1.2-2-2s-0.7-1.9-0.7-3c0-1.2,0.2-2.2,0.7-3.1s1.2-1.6,2-2.1
			c0.9-0.5,1.8-0.7,2.9-0.7c1.1,0,2.1,0.3,3,0.8c0.9,0.5,1.5,1.2,2,2.1c0.5,0.9,0.7,1.9,0.7,3c0,1.1-0.2,2.1-0.7,3
			c-0.5,0.9-1.2,1.6-2,2.1c-0.9,0.5-1.9,0.7-3,0.7C174.9,230.4,173.9,230.1,173.1,229.7z M177.8,227.3c0.4-0.6,0.6-1.5,0.6-2.7
			c0-1.2-0.2-2.2-0.6-2.8s-1-0.9-1.8-0.9c-0.8,0-1.4,0.3-1.8,0.9c-0.4,0.6-0.6,1.6-0.6,2.8c0,1.2,0.2,2.1,0.6,2.7
			c0.4,0.6,1,0.9,1.8,0.9C176.8,228.2,177.4,227.9,177.8,227.3z"/>
		<path class="st0" d="M183.7,230.1c-0.1-0.1-0.1-0.2-0.1-0.3v-10.4c0-0.3,0.1-0.4,0.3-0.4h2.6c0.2,0,0.3,0.1,0.3,0.4v1
			c0,0.1,0,0.2,0.1,0.2c0,0,0.1,0,0.1-0.1c0.6-0.6,1.2-1,1.7-1.3s1.2-0.4,1.8-0.4c1,0,1.8,0.3,2.4,0.9c0.6,0.6,0.9,1.4,0.9,2.4v7.6
			c0,0.3-0.2,0.5-0.5,0.5h-2.4c-0.2,0-0.3,0-0.3-0.1s-0.1-0.2-0.1-0.3v-7.2c0-0.5-0.1-0.9-0.4-1.1c-0.3-0.3-0.6-0.4-1.2-0.4
			c-0.4,0-0.8,0.1-1.2,0.3s-0.7,0.5-1.2,1v7.3c0,0.2,0,0.3-0.1,0.4c-0.1,0.1-0.2,0.1-0.4,0.1H184
			C183.9,230.2,183.7,230.1,183.7,230.1z"/>
	</g>
</g>
<g>
	<g>
		<circle cx="116.9" cy="467.8" r="97.6"/>
		<path class="st0" d="M116.9,565.9c-54.1,0-98.1-44-98.1-98.1s44-98.1,98.1-98.1s98.1,44,98.1,98.1S171,565.9,116.9,565.9z
			 M116.9,370.7c-53.5,0-97.1,43.6-97.1,97.1s43.6,97.1,97.1,97.1s97.1-43.6,97.1-97.1S170.5,370.7,116.9,370.7z"/>
	</g>
	<g>
		<path class="st0" d="M68.3,463c0,0.4-0.2,0.5-0.6,0.5h-2.3c-0.2,0-0.3,0-0.4-0.1c-0.1-0.1-0.1-0.2-0.1-0.4v-2.2
			c0-0.3,0.1-0.4,0.4-0.4H68c0.1,0,0.2,0,0.2,0.1c0.1,0.1,0.1,0.2,0.1,0.3V463z M68.3,475.6c0,0.2,0,0.3-0.1,0.4
			c-0.1,0.1-0.2,0.1-0.4,0.1h-2.2c-0.2,0-0.3,0-0.4-0.1c-0.1-0.1-0.1-0.2-0.1-0.3v-10.4c0-0.3,0.1-0.4,0.4-0.4H68
			c0.2,0,0.3,0.1,0.3,0.4V475.6z"/>
		<path class="st0" d="M70.7,476c-0.1-0.1-0.1-0.2-0.1-0.3v-10.4c0-0.3,0.1-0.4,0.3-0.4h2.6c0.2,0,0.3,0.1,0.3,0.4v1
			c0,0.1,0,0.2,0.1,0.2c0,0,0.1,0,0.1-0.1c0.6-0.6,1.2-1,1.7-1.3c0.6-0.3,1.2-0.4,1.8-0.4c1,0,1.8,0.3,2.4,0.9
			c0.6,0.6,0.9,1.4,0.9,2.4v7.6c0,0.3-0.2,0.5-0.5,0.5h-2.4c-0.2,0-0.3,0-0.3-0.1s-0.1-0.2-0.1-0.3v-7.2c0-0.5-0.1-0.9-0.4-1.1
			c-0.3-0.3-0.6-0.4-1.2-0.4c-0.4,0-0.8,0.1-1.2,0.3s-0.7,0.5-1.2,1v7.3c0,0.2,0,0.3-0.1,0.4c-0.1,0.1-0.2,0.1-0.4,0.1h-2.3
			C70.9,476.1,70.8,476.1,70.7,476z"/>
		<path class="st0" d="M88,467.1c-0.2,0-0.2,0.1-0.2,0.3v5.1c0,0.5,0.1,0.8,0.3,1c0.2,0.2,0.6,0.3,1.1,0.3h1.1c0.1,0,0.2,0,0.2,0.1
			c0.1,0.1,0.1,0.2,0.1,0.3l0,1.3c0,0.3-0.2,0.5-0.5,0.5c-0.6,0.1-1.4,0.1-2.5,0.1c-1,0-1.8-0.2-2.3-0.7s-0.8-1.1-0.8-2v-5.9
			c0-0.2-0.1-0.3-0.3-0.3h-1.3c-0.3,0-0.4-0.1-0.4-0.4v-1.6c0-0.2,0.1-0.3,0.4-0.3h1.5c0.1,0,0.2-0.1,0.2-0.2l0.3-3.2
			c0-0.2,0.1-0.4,0.3-0.4h2.3c0.1,0,0.2,0,0.2,0.1s0.1,0.2,0.1,0.3v3.2c0,0.1,0.1,0.2,0.2,0.2h2.2c0.3,0,0.4,0.1,0.4,0.3v1.6
			c0,0.2-0.1,0.4-0.4,0.4H88z"/>
		<path class="st0" d="M92.4,475.7v-10.4c0-0.3,0.1-0.4,0.3-0.4h2.5c0.2,0,0.3,0.1,0.3,0.4v1.2c0,0.1,0,0.1,0,0.1c0,0,0.1,0,0.1,0
			c0,0,0.1,0,0.2-0.1c0.4-0.6,0.9-1,1.5-1.4c0.6-0.3,1.1-0.5,1.7-0.5c0.5,0,0.8,0.1,0.8,0.4v2.5c0,0.1,0,0.2-0.1,0.2s-0.1,0.1-0.2,0
			c-0.5-0.1-0.9-0.2-1.5-0.2c-0.4,0-0.7,0.1-1.1,0.3c-0.4,0.2-0.7,0.4-0.9,0.7c-0.2,0.3-0.3,0.6-0.3,0.9v6.2c0,0.3-0.2,0.5-0.6,0.5
			h-2.3C92.6,476.1,92.4,476,92.4,475.7z"/>
		<path class="st0" d="M103.3,475.6c-0.9-0.5-1.5-1.2-2-2s-0.7-1.9-0.7-3c0-1.2,0.2-2.2,0.7-3.1s1.2-1.6,2-2.1
			c0.9-0.5,1.8-0.7,2.9-0.7c1.1,0,2.1,0.2,3,0.8c0.9,0.5,1.5,1.2,2,2.1c0.5,0.9,0.7,1.9,0.7,3c0,1.1-0.2,2.1-0.7,3
			c-0.5,0.9-1.2,1.6-2,2.1s-1.9,0.7-3,0.7C105.1,476.3,104.2,476.1,103.3,475.6z M108,473.2c0.4-0.6,0.6-1.5,0.6-2.7
			c0-1.2-0.2-2.2-0.6-2.8s-1-0.9-1.8-0.9c-0.8,0-1.4,0.3-1.8,0.9c-0.4,0.6-0.6,1.6-0.6,2.8c0,1.2,0.2,2.1,0.6,2.7
			c0.4,0.6,1,0.9,1.8,0.9C107.1,474.2,107.6,473.9,108,473.2z"/>
		<path class="st0" d="M116.1,478.8c-0.6,0.6-1.6,0.9-2.9,0.9c-0.6,0-1,0-1.2-0.1c-0.2,0-0.3-0.2-0.3-0.3l0-1.7c0-0.1,0-0.2,0.1-0.3
			s0.1-0.1,0.2-0.2l0.9-0.1c0.3,0,0.5-0.1,0.6-0.3c0.1-0.2,0.2-0.5,0.2-0.9v-10.6c0-0.1,0-0.2,0.1-0.3c0.1-0.1,0.2-0.1,0.3-0.1h2.6
			c0.2,0,0.3,0.1,0.3,0.4V476C117.1,477.2,116.8,478.2,116.1,478.8z M117.1,463c0,0.2,0,0.3-0.1,0.4s-0.2,0.1-0.4,0.1h-2.3
			c-0.2,0-0.3,0-0.4-0.1c-0.1-0.1-0.1-0.2-0.1-0.4v-2.2c0-0.1,0-0.2,0.1-0.3c0.1-0.1,0.2-0.1,0.3-0.1h2.6c0.2,0,0.4,0.1,0.4,0.4V463
			z"/>
		<path class="st0" d="M123,473.4c0.5,0.5,1.2,0.7,2,0.7c0.5,0,1-0.1,1.4-0.3s0.9-0.6,1.3-1.1c0.1-0.1,0.1-0.1,0.2-0.1
			c0,0,0.1,0,0.2,0.1l1.5,0.6c0.1,0,0.1,0.1,0.1,0.2c0,0.1,0,0.1-0.1,0.2c-0.7,1-1.4,1.6-2.2,2c-0.8,0.4-1.7,0.6-2.9,0.6
			c-1.1,0-2.1-0.2-2.9-0.7c-0.9-0.5-1.6-1.1-2.1-2c-0.5-0.9-0.7-1.8-0.7-2.9c0-1.2,0.3-2.2,0.8-3.1c0.5-0.9,1.2-1.6,2.1-2.1
			c0.9-0.5,1.8-0.7,2.8-0.7c1.1,0,2,0.2,2.9,0.7c0.8,0.5,1.5,1.2,1.9,2c0.5,0.9,0.7,1.9,0.7,3.2c0,0.2,0,0.3-0.1,0.4
			s-0.1,0.1-0.3,0.1h-7.2c-0.2,0-0.3,0.1-0.3,0.3C122.3,472.2,122.5,472.9,123,473.4z M126.5,469.3c0.2,0,0.3,0,0.3-0.1
			c0,0,0.1-0.1,0.1-0.2c0-0.4-0.1-0.7-0.3-1.1c-0.2-0.4-0.4-0.7-0.7-0.9s-0.7-0.4-1.2-0.4c-0.7,0-1.3,0.2-1.7,0.7
			c-0.5,0.5-0.7,1.1-0.7,1.9L126.5,469.3z"/>
		<path class="st0" d="M140.1,465.6c0.8,0.6,1.4,1.4,1.7,2.3c0,0.1,0,0.2,0,0.2c0,0.1-0.1,0.2-0.3,0.2l-2.2,0.2h-0.1
			c-0.1,0-0.2-0.1-0.3-0.2c-0.3-0.5-0.5-0.9-0.8-1.1c-0.3-0.2-0.6-0.4-1.1-0.4c-0.8,0-1.4,0.3-1.8,0.9c-0.4,0.6-0.6,1.5-0.6,2.8
			c0,1.2,0.2,2.2,0.7,2.8c0.5,0.6,1.1,0.9,1.9,0.9c0.6,0,1.1-0.1,1.4-0.4c0.4-0.3,0.7-0.7,1.1-1.4c0-0.1,0.1-0.1,0.1-0.1
			c0,0,0.1,0,0.2,0l1.6,0.4c0.1,0,0.2,0.1,0.2,0.2l0,0.2c-0.3,0.8-0.8,1.6-1.6,2.2c-0.8,0.7-1.9,1-3.2,1c-1.1,0-2.1-0.2-2.9-0.7
			s-1.5-1.2-2-2s-0.7-1.9-0.7-3c0-1.1,0.2-2.2,0.7-3.1s1.2-1.6,2-2.1s1.8-0.7,2.9-0.7C138.2,464.7,139.2,465,140.1,465.6z"/>
		<path class="st0" d="M148.2,467.1c-0.2,0-0.2,0.1-0.2,0.3v5.1c0,0.5,0.1,0.8,0.3,1c0.2,0.2,0.6,0.3,1.1,0.3h1.1
			c0.1,0,0.2,0,0.2,0.1c0.1,0.1,0.1,0.2,0.1,0.3l0,1.3c0,0.3-0.2,0.5-0.5,0.5c-0.6,0.1-1.4,0.1-2.5,0.1c-1,0-1.8-0.2-2.3-0.7
			s-0.8-1.1-0.8-2v-5.9c0-0.2-0.1-0.3-0.3-0.3h-1.3c-0.3,0-0.4-0.1-0.4-0.4v-1.6c0-0.2,0.1-0.3,0.4-0.3h1.5c0.1,0,0.2-0.1,0.2-0.2
			l0.3-3.2c0-0.2,0.1-0.4,0.3-0.4h2.3c0.1,0,0.2,0,0.2,0.1s0.1,0.2,0.1,0.3v3.2c0,0.1,0.1,0.2,0.2,0.2h2.2c0.3,0,0.4,0.1,0.4,0.3
			v1.6c0,0.2-0.1,0.4-0.4,0.4H148.2z"/>
		<path class="st0" d="M155.9,473.4c0.5,0.5,1.2,0.7,2,0.7c0.5,0,1-0.1,1.4-0.3s0.9-0.6,1.3-1.1c0.1-0.1,0.1-0.1,0.2-0.1
			c0,0,0.1,0,0.2,0.1l1.5,0.6c0.1,0,0.1,0.1,0.1,0.2c0,0.1,0,0.1-0.1,0.2c-0.7,1-1.4,1.6-2.2,2c-0.8,0.4-1.7,0.6-2.9,0.6
			c-1.1,0-2.1-0.2-2.9-0.7c-0.9-0.5-1.6-1.1-2.1-2c-0.5-0.9-0.7-1.8-0.7-2.9c0-1.2,0.3-2.2,0.8-3.1c0.5-0.9,1.2-1.6,2.1-2.1
			c0.9-0.5,1.8-0.7,2.8-0.7c1.1,0,2,0.2,2.9,0.7c0.8,0.5,1.5,1.2,1.9,2c0.5,0.9,0.7,1.9,0.7,3.2c0,0.2,0,0.3-0.1,0.4
			s-0.1,0.1-0.3,0.1h-7.2c-0.2,0-0.3,0.1-0.3,0.3C155.1,472.2,155.4,472.9,155.9,473.4z M159.4,469.3c0.2,0,0.3,0,0.3-0.1
			c0,0,0.1-0.1,0.1-0.2c0-0.4-0.1-0.7-0.3-1.1c-0.2-0.4-0.4-0.7-0.7-0.9s-0.7-0.4-1.2-0.4c-0.7,0-1.3,0.2-1.7,0.7
			c-0.5,0.5-0.7,1.1-0.7,1.9L159.4,469.3z"/>
		<path class="st0" d="M172,475.7v-0.6c0-0.1,0-0.2-0.1-0.2c0,0-0.1,0-0.2,0.1c-0.4,0.4-0.9,0.7-1.3,1s-1.1,0.4-1.7,0.4
			c-1.3,0-2.4-0.5-3.2-1.5c-0.8-1-1.2-2.4-1.2-4.3c0-1.2,0.2-2.2,0.6-3.1c0.4-0.9,1-1.6,1.7-2.1c0.7-0.5,1.5-0.7,2.3-0.7
			c0.6,0,1,0.1,1.5,0.3c0.4,0.2,0.9,0.5,1.3,0.8c0.1,0.1,0.2,0.1,0.2,0.1c0.1,0,0.1-0.1,0.1-0.3v-4.9c0-0.3,0.1-0.4,0.3-0.4h2.6
			c0.1,0,0.2,0,0.2,0.1c0.1,0.1,0.1,0.2,0.1,0.3v14.9c0,0.2,0,0.3-0.1,0.3c-0.1,0.1-0.2,0.1-0.4,0.1h-2.3
			C172.2,476.1,172,476,172,475.7z M171,467c-0.3-0.2-0.7-0.3-1.1-0.3c-0.7,0-1.3,0.3-1.8,0.9c-0.4,0.6-0.7,1.6-0.7,2.8
			c0,1.3,0.2,2.2,0.6,2.8c0.4,0.6,1,0.9,1.8,0.9c0.6,0,1.1-0.2,1.5-0.6c0.4-0.4,0.6-0.8,0.6-1.3v-4.6
			C171.7,467.5,171.4,467.2,171,467z"/>
	</g>
</g>
<g>
	<g>
		<circle cx="371.2" cy="622" r="112.7"/>
		<path class="st0" d="M371.2,735.2C308.8,735.2,258,684.4,258,622s50.8-113.2,113.2-113.2S484.3,559.6,484.3,622
			S433.6,735.2,371.2,735.2z M371.2,509.8C309.3,509.8,259,560.2,259,622s50.3,112.2,112.2,112.2S483.3,683.8,483.3,622
			S433,509.8,371.2,509.8z"/>
	</g>
	<g>
		<path class="st0" d="M307.6,615.5c0,0.4-0.2,0.5-0.6,0.5h-2.3c-0.2,0-0.3,0-0.4-0.1c-0.1-0.1-0.1-0.2-0.1-0.4v-2.2
			c0-0.3,0.1-0.4,0.4-0.4h2.6c0.1,0,0.2,0,0.2,0.1c0.1,0.1,0.1,0.2,0.1,0.3V615.5z M307.5,628.1c0,0.2,0,0.3-0.1,0.4
			c-0.1,0.1-0.2,0.1-0.4,0.1h-2.2c-0.2,0-0.3,0-0.4-0.1c-0.1-0.1-0.1-0.2-0.1-0.3v-10.4c0-0.3,0.1-0.4,0.4-0.4h2.6
			c0.2,0,0.3,0.1,0.3,0.4V628.1z"/>
		<path class="st0" d="M317.2,628.2v-0.6c0-0.1,0-0.2-0.1-0.2c0,0-0.1,0-0.2,0.1c-0.4,0.4-0.9,0.7-1.3,1s-1.1,0.4-1.7,0.4
			c-1.3,0-2.4-0.5-3.2-1.5c-0.8-1-1.2-2.4-1.2-4.3c0-1.2,0.2-2.2,0.6-3.1c0.4-0.9,1-1.6,1.7-2.1c0.7-0.5,1.5-0.7,2.3-0.7
			c0.6,0,1,0.1,1.5,0.3c0.4,0.2,0.9,0.5,1.3,0.8c0.1,0.1,0.2,0.1,0.2,0.1c0.1,0,0.1-0.1,0.1-0.3v-4.9c0-0.3,0.1-0.4,0.3-0.4h2.6
			c0.1,0,0.2,0,0.2,0.1c0.1,0.1,0.1,0.2,0.1,0.3v14.9c0,0.2,0,0.3-0.1,0.3c-0.1,0.1-0.2,0.1-0.4,0.1h-2.3
			C317.4,628.7,317.2,628.5,317.2,628.2z M316.2,619.6c-0.3-0.2-0.7-0.3-1.1-0.3c-0.7,0-1.3,0.3-1.8,0.9c-0.4,0.6-0.7,1.6-0.7,2.8
			c0,1.3,0.2,2.2,0.6,2.8c0.4,0.6,1,0.9,1.8,0.9c0.6,0,1.1-0.2,1.5-0.6c0.4-0.4,0.6-0.8,0.6-1.3v-4.6
			C316.9,620,316.5,619.7,316.2,619.6z"/>
		<path class="st0" d="M326.4,625.9c0.5,0.5,1.2,0.7,2,0.7c0.5,0,1-0.1,1.4-0.3s0.9-0.6,1.3-1.1c0.1-0.1,0.1-0.1,0.2-0.1
			c0,0,0.1,0,0.2,0.1l1.5,0.6c0.1,0,0.1,0.1,0.1,0.2c0,0.1,0,0.1-0.1,0.2c-0.7,1-1.4,1.6-2.2,2c-0.8,0.4-1.7,0.6-2.9,0.6
			c-1.1,0-2.1-0.2-2.9-0.7c-0.9-0.5-1.6-1.1-2.1-2c-0.5-0.9-0.7-1.8-0.7-2.9c0-1.2,0.3-2.2,0.8-3.1c0.5-0.9,1.2-1.6,2.1-2.1
			c0.9-0.5,1.8-0.7,2.8-0.7c1.1,0,2,0.2,2.9,0.7c0.8,0.5,1.5,1.2,1.9,2c0.5,0.9,0.7,1.9,0.7,3.2c0,0.2,0,0.3-0.1,0.4
			s-0.1,0.1-0.3,0.1h-7.2c-0.2,0-0.3,0.1-0.3,0.3C325.6,624.8,325.9,625.4,326.4,625.9z M329.9,621.9c0.2,0,0.3,0,0.3-0.1
			c0,0,0.1-0.1,0.1-0.2c0-0.4-0.1-0.7-0.3-1.1c-0.2-0.4-0.4-0.7-0.7-0.9s-0.7-0.4-1.2-0.4c-0.7,0-1.3,0.2-1.7,0.7
			c-0.5,0.5-0.7,1.1-0.7,1.9L329.9,621.9z"/>
		<path class="st0" d="M335.3,628.6c-0.1-0.1-0.1-0.2-0.1-0.3v-10.4c0-0.3,0.1-0.4,0.3-0.4h2.6c0.2,0,0.3,0.1,0.3,0.4v1
			c0,0.1,0,0.2,0.1,0.2c0,0,0.1,0,0.1-0.1c0.6-0.6,1.2-1,1.7-1.3c0.6-0.3,1.2-0.4,1.8-0.4c1,0,1.8,0.3,2.4,0.9
			c0.6,0.6,0.9,1.4,0.9,2.4v7.6c0,0.3-0.2,0.5-0.5,0.5h-2.4c-0.2,0-0.3,0-0.3-0.1s-0.1-0.2-0.1-0.3v-7.2c0-0.5-0.1-0.9-0.4-1.1
			c-0.3-0.3-0.6-0.4-1.2-0.4c-0.4,0-0.8,0.1-1.2,0.3s-0.7,0.5-1.2,1v7.3c0,0.2,0,0.3-0.1,0.4c-0.1,0.1-0.2,0.1-0.4,0.1h-2.3
			C335.5,628.7,335.4,628.6,335.3,628.6z"/>
		<path class="st0" d="M352.5,619.7c-0.2,0-0.2,0.1-0.2,0.3v5.1c0,0.5,0.1,0.8,0.3,1c0.2,0.2,0.6,0.3,1.1,0.3h1.1
			c0.1,0,0.2,0,0.2,0.1c0.1,0.1,0.1,0.2,0.1,0.3l0,1.3c0,0.3-0.2,0.5-0.5,0.5c-0.6,0.1-1.4,0.1-2.5,0.1c-1,0-1.8-0.2-2.3-0.7
			s-0.8-1.1-0.8-2V620c0-0.2-0.1-0.3-0.3-0.3h-1.3c-0.3,0-0.4-0.1-0.4-0.4v-1.6c0-0.2,0.1-0.3,0.4-0.3h1.5c0.1,0,0.2-0.1,0.2-0.2
			l0.3-3.2c0-0.2,0.1-0.4,0.3-0.4h2.3c0.1,0,0.2,0,0.2,0.1s0.1,0.2,0.1,0.3v3.2c0,0.1,0.1,0.2,0.2,0.2h2.2c0.3,0,0.4,0.1,0.4,0.3
			v1.6c0,0.2-0.1,0.4-0.4,0.4H352.5z"/>
		<path class="st0" d="M360.3,615.5c0,0.4-0.2,0.5-0.6,0.5h-2.3c-0.2,0-0.3,0-0.4-0.1c-0.1-0.1-0.1-0.2-0.1-0.4v-2.2
			c0-0.3,0.1-0.4,0.4-0.4h2.6c0.1,0,0.2,0,0.2,0.1c0.1,0.1,0.1,0.2,0.1,0.3V615.5z M360.2,628.1c0,0.2,0,0.3-0.1,0.4
			c-0.1,0.1-0.2,0.1-0.4,0.1h-2.2c-0.2,0-0.3,0-0.4-0.1c-0.1-0.1-0.1-0.2-0.1-0.3v-10.4c0-0.3,0.1-0.4,0.4-0.4h2.6
			c0.2,0,0.3,0.1,0.3,0.4V628.1z"/>
		<path class="st0" d="M369.4,617.5c0.1,0.1,0.1,0.2,0.1,0.3v1.6c0,0.2-0.1,0.3-0.4,0.3h-1.8c-0.1,0-0.2,0.1-0.2,0.2v8.3
			c0,0.3-0.1,0.4-0.3,0.4h-2.6c-0.2,0-0.3-0.1-0.3-0.4v-8.4c0-0.1-0.1-0.2-0.2-0.2h-1.5c-0.3,0-0.4-0.1-0.4-0.3v-1.6
			c0-0.1,0-0.2,0.1-0.3c0.1-0.1,0.2-0.1,0.3-0.1h1.4c0.1,0,0.2,0,0.2-0.1c0,0,0.1-0.1,0.1-0.2v-1.3c0-0.9,0.3-1.6,0.8-2.1
			c0.5-0.5,1.3-0.8,2.3-0.8h2.1c0.3,0,0.5,0.1,0.5,0.4l0,1.4c0,0.2-0.1,0.4-0.3,0.4h-1.1c-0.3,0-0.6,0.1-0.8,0.3
			c-0.2,0.2-0.3,0.5-0.3,0.9v0.8c0,0.2,0.1,0.2,0.3,0.2h1.8C369.2,617.4,369.3,617.5,369.4,617.5z M374.4,615.5
			c0,0.4-0.2,0.5-0.6,0.5h-2.3c-0.2,0-0.3,0-0.4-0.1c-0.1-0.1-0.1-0.2-0.1-0.4v-2.2c0-0.3,0.1-0.4,0.4-0.4h2.6c0.1,0,0.2,0,0.2,0.1
			c0.1,0.1,0.1,0.2,0.1,0.3V615.5z M374.4,628.1c0,0.2,0,0.3-0.1,0.4c-0.1,0.1-0.2,0.1-0.4,0.1h-2.2c-0.2,0-0.3,0-0.4-0.1
			c-0.1-0.1-0.1-0.2-0.1-0.3v-10.4c0-0.3,0.1-0.4,0.4-0.4h2.6c0.2,0,0.3,0.1,0.3,0.4V628.1z"/>
		<path class="st0" d="M385,618.2c0.8,0.6,1.4,1.4,1.7,2.3c0,0.1,0,0.2,0,0.2c0,0.1-0.1,0.2-0.3,0.2l-2.2,0.2h-0.1
			c-0.1,0-0.2-0.1-0.3-0.2c-0.3-0.5-0.5-0.9-0.8-1.1c-0.3-0.2-0.6-0.4-1.1-0.4c-0.8,0-1.4,0.3-1.8,0.9c-0.4,0.6-0.6,1.5-0.6,2.8
			c0,1.2,0.2,2.2,0.7,2.8c0.5,0.6,1.1,0.9,1.9,0.9c0.6,0,1.1-0.1,1.4-0.4c0.4-0.3,0.7-0.7,1.1-1.4c0-0.1,0.1-0.1,0.1-0.1
			c0,0,0.1,0,0.2,0l1.6,0.4c0.1,0,0.2,0.1,0.2,0.2l0,0.2c-0.3,0.8-0.8,1.6-1.6,2.2c-0.8,0.7-1.9,1-3.2,1c-1.1,0-2.1-0.2-2.9-0.7
			s-1.5-1.2-2-2s-0.7-1.9-0.7-3c0-1.1,0.2-2.2,0.7-3.1s1.2-1.6,2-2.1s1.8-0.7,2.9-0.7C383.1,617.2,384.1,617.5,385,618.2z"/>
		<path class="st0" d="M391.2,628.9c-1.1,0-1.9-0.3-2.5-0.9c-0.6-0.6-0.9-1.3-0.9-2.2c0-1.2,0.5-2.1,1.6-2.9
			c1.1-0.7,2.6-1.1,4.5-1.1l0.8-0.1c0.1,0,0.2,0,0.2-0.1c0.1,0,0.1-0.1,0.1-0.2V621c0-0.6-0.2-1-0.5-1.3s-0.8-0.4-1.3-0.4
			c-1,0-1.7,0.4-2.2,1.3c-0.1,0.1-0.1,0.2-0.3,0.2c-0.1,0-0.1,0-0.2,0l-2.1-0.5c-0.1,0-0.2-0.1-0.2-0.2c0-0.1,0-0.2,0.1-0.3
			c0.3-0.8,0.9-1.4,1.8-1.8c0.9-0.4,1.9-0.6,3.2-0.6c1.7,0,2.9,0.3,3.6,0.9c0.7,0.6,1.1,1.5,1.1,2.6v7.4c0,0.2,0,0.3-0.1,0.4
			c-0.1,0.1-0.2,0.1-0.3,0.1h-2.2c-0.1,0-0.2,0-0.3-0.1s-0.1-0.2-0.1-0.4l0-0.5c0-0.1-0.1-0.2-0.2-0.2c-0.1,0-0.2,0.1-0.3,0.2
			C393.6,628.4,392.5,628.9,391.2,628.9z M394.9,623.4c0-0.1-0.1-0.1-0.3-0.1l-0.6,0c-0.8,0-1.5,0.2-2.2,0.6
			c-0.6,0.3-0.9,0.8-0.9,1.4c0,0.4,0.1,0.8,0.4,1c0.3,0.2,0.7,0.4,1.2,0.4c0.6,0,1.2-0.2,1.7-0.6c0.5-0.4,0.7-0.7,0.7-1.1v-1.4
			C395,623.5,395,623.4,394.9,623.4z"/>
		<path class="st0" d="M405,619.7c-0.2,0-0.2,0.1-0.2,0.3v5.1c0,0.5,0.1,0.8,0.3,1c0.2,0.2,0.6,0.3,1.1,0.3h1.1c0.1,0,0.2,0,0.2,0.1
			c0.1,0.1,0.1,0.2,0.1,0.3l0,1.3c0,0.3-0.2,0.5-0.5,0.5c-0.6,0.1-1.4,0.1-2.5,0.1c-1,0-1.8-0.2-2.3-0.7s-0.8-1.1-0.8-2V620
			c0-0.2-0.1-0.3-0.3-0.3H400c-0.3,0-0.4-0.1-0.4-0.4v-1.6c0-0.2,0.1-0.3,0.4-0.3h1.5c0.1,0,0.2-0.1,0.2-0.2l0.3-3.2
			c0-0.2,0.1-0.4,0.3-0.4h2.3c0.1,0,0.2,0,0.2,0.1s0.1,0.2,0.1,0.3v3.2c0,0.1,0.1,0.2,0.2,0.2h2.2c0.3,0,0.4,0.1,0.4,0.3v1.6
			c0,0.2-0.1,0.4-0.4,0.4H405z"/>
		<path class="st0" d="M412.8,615.5c0,0.4-0.2,0.5-0.6,0.5h-2.3c-0.2,0-0.3,0-0.4-0.1c-0.1-0.1-0.1-0.2-0.1-0.4v-2.2
			c0-0.3,0.1-0.4,0.4-0.4h2.6c0.1,0,0.2,0,0.2,0.1c0.1,0.1,0.1,0.2,0.1,0.3V615.5z M412.7,628.1c0,0.2,0,0.3-0.1,0.4
			c-0.1,0.1-0.2,0.1-0.4,0.1h-2.2c-0.2,0-0.3,0-0.4-0.1c-0.1-0.1-0.1-0.2-0.1-0.3v-10.4c0-0.3,0.1-0.4,0.4-0.4h2.6
			c0.2,0,0.3,0.1,0.3,0.4V628.1z"/>
		<path class="st0" d="M417.3,628.1c-0.9-0.5-1.5-1.2-2-2s-0.7-1.9-0.7-3c0-1.2,0.2-2.2,0.7-3.1s1.2-1.6,2-2.1
			c0.9-0.5,1.8-0.7,2.9-0.7c1.1,0,2.1,0.2,3,0.8c0.9,0.5,1.5,1.2,2,2.1c0.5,0.9,0.7,1.9,0.7,3c0,1.1-0.2,2.1-0.7,3
			c-0.5,0.9-1.2,1.6-2,2.1s-1.9,0.7-3,0.7C419.1,628.9,418.2,628.6,417.3,628.1z M422,625.8c0.4-0.6,0.6-1.5,0.6-2.7
			c0-1.2-0.2-2.2-0.6-2.8s-1-0.9-1.8-0.9c-0.8,0-1.4,0.3-1.8,0.9c-0.4,0.6-0.6,1.6-0.6,2.8c0,1.2,0.2,2.1,0.6,2.7
			c0.4,0.6,1,0.9,1.8,0.9C421.1,626.7,421.6,626.4,422,625.8z"/>
		<path class="st0" d="M427.9,628.6c-0.1-0.1-0.1-0.2-0.1-0.3v-10.4c0-0.3,0.1-0.4,0.3-0.4h2.6c0.2,0,0.3,0.1,0.3,0.4v1
			c0,0.1,0,0.2,0.1,0.2c0,0,0.1,0,0.1-0.1c0.6-0.6,1.2-1,1.7-1.3c0.6-0.3,1.2-0.4,1.8-0.4c1,0,1.8,0.3,2.4,0.9
			c0.6,0.6,0.9,1.4,0.9,2.4v7.6c0,0.3-0.2,0.5-0.5,0.5h-2.4c-0.2,0-0.3,0-0.3-0.1s-0.1-0.2-0.1-0.3v-7.2c0-0.5-0.1-0.9-0.4-1.1
			c-0.3-0.3-0.6-0.4-1.2-0.4c-0.4,0-0.8,0.1-1.2,0.3s-0.7,0.5-1.2,1v7.3c0,0.2,0,0.3-0.1,0.4c-0.1,0.1-0.2,0.1-0.4,0.1h-2.3
			C428.1,628.7,428,628.6,427.9,628.6z"/>
	</g>
</g>
<g>
	<g>
		<circle cx="371.2" cy="89.5" r="75.8"/>
		<path class="st0" d="M371.2,165.8c-42.1,0-76.3-34.2-76.3-76.3s34.2-76.3,76.3-76.3s76.3,34.2,76.3,76.3S413.2,165.8,371.2,165.8z
			 M371.2,14.3c-41.5,0-75.3,33.8-75.3,75.3s33.8,75.3,75.3,75.3s75.3-33.8,75.3-75.3S412.7,14.3,371.2,14.3z"/>
	</g>
	<g>
		<path class="st0" d="M318.8,83.1c0,0.4-0.2,0.5-0.6,0.5h-2.3c-0.2,0-0.3,0-0.4-0.1c-0.1-0.1-0.1-0.2-0.1-0.4v-2.2
			c0-0.3,0.1-0.4,0.4-0.4h2.6c0.1,0,0.2,0,0.2,0.1c0.1,0.1,0.1,0.2,0.1,0.3V83.1z M318.7,95.7c0,0.2,0,0.3-0.1,0.4
			c-0.1,0.1-0.2,0.1-0.4,0.1h-2.2c-0.2,0-0.3,0-0.4-0.1c-0.1-0.1-0.1-0.2-0.1-0.3V85.4c0-0.3,0.1-0.4,0.4-0.4h2.6
			c0.2,0,0.3,0.1,0.3,0.4V95.7z"/>
		<path class="st0" d="M321.2,96.1c-0.1-0.1-0.1-0.2-0.1-0.3V85.4c0-0.3,0.1-0.4,0.3-0.4h2.6c0.2,0,0.3,0.1,0.3,0.4v1
			c0,0.1,0,0.2,0.1,0.2c0,0,0.1,0,0.1-0.1c0.6-0.6,1.2-1,1.7-1.3s1.2-0.4,1.8-0.4c1,0,1.8,0.3,2.4,0.9c0.6,0.6,0.9,1.4,0.9,2.4v7.6
			c0,0.3-0.2,0.5-0.5,0.5h-2.4c-0.2,0-0.3,0-0.3-0.1s-0.1-0.2-0.1-0.3v-7.2c0-0.5-0.1-0.9-0.4-1.1c-0.3-0.3-0.6-0.4-1.2-0.4
			c-0.4,0-0.8,0.1-1.2,0.3s-0.7,0.5-1.2,1v7.3c0,0.2,0,0.3-0.1,0.4c-0.1,0.1-0.2,0.1-0.4,0.1h-2.3C321.4,96.2,321.2,96.2,321.2,96.1
			z"/>
		<path class="st0" d="M338.4,87.2c-0.2,0-0.2,0.1-0.2,0.3v5.1c0,0.5,0.1,0.8,0.3,1c0.2,0.2,0.6,0.3,1.1,0.3h1.1
			c0.1,0,0.2,0,0.2,0.1s0.1,0.2,0.1,0.3l0,1.3c0,0.3-0.2,0.5-0.5,0.5c-0.6,0.1-1.4,0.1-2.5,0.1c-1,0-1.8-0.2-2.3-0.7
			c-0.6-0.5-0.8-1.1-0.8-2v-5.9c0-0.2-0.1-0.3-0.3-0.3h-1.3c-0.3,0-0.4-0.1-0.4-0.4v-1.6c0-0.2,0.1-0.3,0.4-0.3h1.5
			c0.1,0,0.2-0.1,0.2-0.2l0.3-3.2c0-0.2,0.1-0.4,0.3-0.4h2.3c0.1,0,0.2,0,0.2,0.1s0.1,0.2,0.1,0.3v3.2c0,0.1,0.1,0.2,0.2,0.2h2.2
			c0.3,0,0.4,0.1,0.4,0.3v1.6c0,0.2-0.1,0.4-0.4,0.4H338.4z"/>
		<path class="st0" d="M346.1,93.4c0.5,0.5,1.2,0.7,2,0.7c0.5,0,1-0.1,1.4-0.3c0.4-0.2,0.9-0.6,1.3-1.1c0.1-0.1,0.1-0.1,0.2-0.1
			c0,0,0.1,0,0.2,0.1l1.5,0.6c0.1,0,0.1,0.1,0.1,0.2c0,0.1,0,0.1-0.1,0.2c-0.7,1-1.4,1.6-2.2,2c-0.8,0.4-1.7,0.6-2.9,0.6
			c-1.1,0-2.1-0.2-2.9-0.7s-1.6-1.1-2.1-2c-0.5-0.9-0.7-1.8-0.7-2.9c0-1.2,0.3-2.2,0.8-3.1c0.5-0.9,1.2-1.6,2.1-2.1
			c0.9-0.5,1.8-0.7,2.8-0.7c1.1,0,2,0.2,2.9,0.7c0.8,0.5,1.5,1.2,1.9,2c0.5,0.9,0.7,1.9,0.7,3.2c0,0.2,0,0.3-0.1,0.4
			c0,0.1-0.1,0.1-0.3,0.1h-7.2c-0.2,0-0.3,0.1-0.3,0.3C345.3,92.3,345.6,93,346.1,93.4z M349.6,89.4c0.2,0,0.3,0,0.3-0.1
			c0,0,0.1-0.1,0.1-0.2c0-0.4-0.1-0.7-0.3-1.1c-0.2-0.4-0.4-0.7-0.7-0.9c-0.3-0.2-0.7-0.4-1.2-0.4c-0.7,0-1.3,0.2-1.7,0.7
			c-0.5,0.5-0.7,1.1-0.7,1.9L349.6,89.4z"/>
		<path class="st0" d="M366.7,84.9v1.4c0,0.4-0.2,0.6-0.5,0.5c-0.2,0-0.4-0.1-0.6-0.1c-0.1,0-0.2,0-0.4,0c-0.4,0.1-0.5,0.2-0.4,0.5
			c0.1,0.4,0.2,0.7,0.2,1c0,0.6-0.2,1.2-0.6,1.8s-1,0.9-1.7,1.2c-0.8,0.3-1.7,0.5-2.8,0.5c-0.8,0-1.4,0.1-1.7,0.2s-0.6,0.3-0.6,0.5
			c0,0.2,0.1,0.3,0.3,0.4c0.2,0.1,0.5,0.1,1,0.2l3,0.2c1.4,0.1,2.4,0.4,3.1,0.9c0.7,0.5,1,1.2,1,2.1c0,1.1-0.5,2-1.6,2.6
			c-1,0.7-2.5,1-4.4,1c-4.1,0-6.2-0.9-6.2-2.7c0-0.5,0.2-0.8,0.5-1.2c0.4-0.3,0.9-0.6,1.5-0.8c0.1,0,0.1-0.1,0.1-0.1
			c0,0,0-0.1-0.1-0.1c-0.8-0.4-1.2-0.9-1.2-1.6c0-0.4,0.2-0.7,0.6-1.1s0.9-0.6,1.5-0.9c0.2-0.1,0.2-0.2,0-0.3
			c-1.4-0.6-2.1-1.6-2.1-2.9c0-1.1,0.5-1.9,1.4-2.6c0.9-0.6,2.2-1,4-1c1.5,0,2.6,0.3,3.4,1c0.1,0.1,0.2,0.1,0.3,0.1
			c0.1,0,0.2,0,0.3-0.1c0.3-0.3,0.6-0.6,1.1-0.9c0.4-0.2,0.8-0.4,1.1-0.4C366.5,84.5,366.7,84.6,366.7,84.9z M358.3,95.6
			c-0.4,0-0.8,0.1-1.2,0.3c-0.3,0.2-0.5,0.5-0.5,0.9c0,0.5,0.3,0.9,0.9,1.2c0.6,0.3,1.5,0.4,2.8,0.4c0.9,0,1.7-0.1,2.2-0.4
			c0.5-0.3,0.8-0.6,0.8-1.1c0-0.3-0.1-0.6-0.4-0.8c-0.3-0.2-0.7-0.3-1.2-0.3L358.3,95.6z M361.5,89.7c0.4-0.3,0.5-0.8,0.5-1.3
			c0-0.6-0.2-1.1-0.5-1.4s-0.9-0.5-1.6-0.5c-0.7,0-1.2,0.2-1.6,0.5s-0.6,0.8-0.6,1.4c0,0.5,0.2,1,0.6,1.3c0.4,0.3,0.9,0.5,1.6,0.5
			C360.6,90.1,361.1,90,361.5,89.7z"/>
		<path class="st0" d="M368.3,95.8V85.4c0-0.3,0.1-0.4,0.3-0.4h2.5c0.2,0,0.3,0.1,0.3,0.4v1.2c0,0.1,0,0.1,0,0.1s0.1,0,0.1,0
			c0,0,0.1,0,0.2-0.1c0.4-0.6,0.9-1,1.5-1.4c0.6-0.3,1.1-0.5,1.7-0.5c0.5,0,0.8,0.1,0.8,0.4v2.5c0,0.1,0,0.2-0.1,0.2
			c-0.1,0.1-0.1,0.1-0.2,0c-0.5-0.1-0.9-0.2-1.5-0.2c-0.4,0-0.7,0.1-1.1,0.3c-0.4,0.2-0.7,0.4-0.9,0.7c-0.2,0.3-0.3,0.6-0.3,0.9v6.2
			c0,0.3-0.2,0.5-0.6,0.5h-2.3C368.5,96.2,368.3,96,368.3,95.8z"/>
		<path class="st0" d="M380.1,96.4c-1.1,0-1.9-0.3-2.5-0.9c-0.6-0.6-0.9-1.3-0.9-2.2c0-1.2,0.5-2.1,1.6-2.9s2.6-1.1,4.5-1.1l0.8-0.1
			c0.1,0,0.2,0,0.2-0.1c0.1,0,0.1-0.1,0.1-0.2v-0.4c0-0.6-0.2-1-0.5-1.3c-0.3-0.3-0.8-0.4-1.3-0.4c-1,0-1.7,0.4-2.2,1.3
			c-0.1,0.1-0.1,0.2-0.3,0.2c-0.1,0-0.1,0-0.2,0l-2.1-0.5c-0.1,0-0.2-0.1-0.2-0.2c0-0.1,0-0.2,0.1-0.3c0.3-0.8,0.9-1.4,1.8-1.8
			c0.9-0.4,1.9-0.6,3.2-0.6c1.7,0,2.9,0.3,3.6,0.9c0.7,0.6,1.1,1.5,1.1,2.6v7.4c0,0.2,0,0.3-0.1,0.4c-0.1,0.1-0.2,0.1-0.3,0.1h-2.2
			c-0.1,0-0.2,0-0.3-0.1c-0.1-0.1-0.1-0.2-0.1-0.4l0-0.5c0-0.1-0.1-0.2-0.2-0.2c-0.1,0-0.2,0.1-0.3,0.2
			C382.4,96,381.3,96.4,380.1,96.4z M383.7,90.9c0-0.1-0.1-0.1-0.3-0.1l-0.6,0c-0.8,0-1.5,0.2-2.2,0.6c-0.6,0.3-0.9,0.8-0.9,1.4
			c0,0.4,0.1,0.8,0.4,1c0.3,0.2,0.7,0.4,1.2,0.4c0.6,0,1.2-0.2,1.7-0.6c0.5-0.4,0.7-0.7,0.7-1.1v-1.4
			C383.8,91.1,383.8,91,383.7,90.9z"/>
		<path class="st0" d="M393.8,87.2c-0.2,0-0.2,0.1-0.2,0.3v5.1c0,0.5,0.1,0.8,0.3,1c0.2,0.2,0.6,0.3,1.1,0.3h1.1
			c0.1,0,0.2,0,0.2,0.1s0.1,0.2,0.1,0.3l0,1.3c0,0.3-0.2,0.5-0.5,0.5c-0.6,0.1-1.4,0.1-2.5,0.1c-1,0-1.8-0.2-2.3-0.7
			c-0.6-0.5-0.8-1.1-0.8-2v-5.9c0-0.2-0.1-0.3-0.3-0.3h-1.3c-0.3,0-0.4-0.1-0.4-0.4v-1.6c0-0.2,0.1-0.3,0.4-0.3h1.5
			c0.1,0,0.2-0.1,0.2-0.2l0.3-3.2c0-0.2,0.1-0.4,0.3-0.4h2.3c0.1,0,0.2,0,0.2,0.1s0.1,0.2,0.1,0.3v3.2c0,0.1,0.1,0.2,0.2,0.2h2.2
			c0.3,0,0.4,0.1,0.4,0.3v1.6c0,0.2-0.1,0.4-0.4,0.4H393.8z"/>
		<path class="st0" d="M401.6,83.1c0,0.4-0.2,0.5-0.6,0.5h-2.3c-0.2,0-0.3,0-0.4-0.1c-0.1-0.1-0.1-0.2-0.1-0.4v-2.2
			c0-0.3,0.1-0.4,0.4-0.4h2.6c0.1,0,0.2,0,0.2,0.1c0.1,0.1,0.1,0.2,0.1,0.3V83.1z M401.5,95.7c0,0.2,0,0.3-0.1,0.4
			c-0.1,0.1-0.2,0.1-0.4,0.1h-2.2c-0.2,0-0.3,0-0.4-0.1c-0.1-0.1-0.1-0.2-0.1-0.3V85.4c0-0.3,0.1-0.4,0.4-0.4h2.6
			c0.2,0,0.3,0.1,0.3,0.4V95.7z"/>
		<path class="st0" d="M406.1,95.7c-0.9-0.5-1.5-1.2-2-2s-0.7-1.9-0.7-3c0-1.2,0.2-2.2,0.7-3.1s1.2-1.6,2-2.1
			c0.9-0.5,1.8-0.7,2.9-0.7c1.1,0,2.1,0.3,3,0.8c0.9,0.5,1.5,1.2,2,2.1c0.5,0.9,0.7,1.9,0.7,3c0,1.1-0.2,2.1-0.7,3
			c-0.5,0.9-1.2,1.6-2,2.1c-0.9,0.5-1.9,0.7-3,0.7C407.9,96.4,407,96.2,406.1,95.7z M410.8,93.3c0.4-0.6,0.6-1.5,0.6-2.7
			c0-1.2-0.2-2.2-0.6-2.8s-1-0.9-1.8-0.9c-0.8,0-1.4,0.3-1.8,0.9c-0.4,0.6-0.6,1.6-0.6,2.8c0,1.2,0.2,2.1,0.6,2.7
			c0.4,0.6,1,0.9,1.8,0.9C409.9,94.2,410.4,93.9,410.8,93.3z"/>
		<path class="st0" d="M416.7,96.1c-0.1-0.1-0.1-0.2-0.1-0.3V85.4c0-0.3,0.1-0.4,0.3-0.4h2.6c0.2,0,0.3,0.1,0.3,0.4v1
			c0,0.1,0,0.2,0.1,0.2c0,0,0.1,0,0.1-0.1c0.6-0.6,1.2-1,1.7-1.3s1.2-0.4,1.8-0.4c1,0,1.8,0.3,2.4,0.9c0.6,0.6,0.9,1.4,0.9,2.4v7.6
			c0,0.3-0.2,0.5-0.5,0.5h-2.4c-0.2,0-0.3,0-0.3-0.1s-0.1-0.2-0.1-0.3v-7.2c0-0.5-0.1-0.9-0.4-1.1c-0.3-0.3-0.6-0.4-1.2-0.4
			c-0.4,0-0.8,0.1-1.2,0.3s-0.7,0.5-1.2,1v7.3c0,0.2,0,0.3-0.1,0.4c-0.1,0.1-0.2,0.1-0.4,0.1H417C416.9,96.2,416.8,96.2,416.7,96.1z
			"/>
	</g>
</g>
<g>
	<g>
		<circle cx="1148.1" cy="362.2" r="115.9"/>
		<path class="st0" d="M1148.1,478.6c-64.2,0-116.4-52.2-116.4-116.4s52.2-116.4,116.4-116.4c64.2,0,116.4,52.2,116.4,116.4
			S1212.3,478.6,1148.1,478.6z M1148.1,246.8c-63.6,0-115.4,51.8-115.4,115.4s51.8,115.4,115.4,115.4c63.6,0,115.4-51.8,115.4-115.4
			S1211.7,246.8,1148.1,246.8z"/>
	</g>
	<g>
		<path class="st0" d="M1081.1,357.9c-0.2,0-0.2,0.1-0.2,0.3v5.1c0,0.5,0.1,0.8,0.3,1c0.2,0.2,0.6,0.3,1.1,0.3h1.1
			c0.1,0,0.2,0,0.2,0.1s0.1,0.2,0.1,0.3l0,1.3c0,0.3-0.2,0.5-0.5,0.5c-0.6,0.1-1.4,0.1-2.5,0.1c-1,0-1.8-0.2-2.3-0.7s-0.8-1.1-0.8-2
			v-5.9c0-0.2-0.1-0.3-0.3-0.3h-1.3c-0.3,0-0.4-0.1-0.4-0.4V356c0-0.2,0.1-0.3,0.4-0.3h1.5c0.1,0,0.2-0.1,0.2-0.2l0.3-3.2
			c0-0.2,0.1-0.4,0.3-0.4h2.3c0.1,0,0.2,0,0.2,0.1s0.1,0.2,0.1,0.3v3.2c0,0.1,0.1,0.2,0.2,0.2h2.2c0.3,0,0.4,0.1,0.4,0.3v1.6
			c0,0.2-0.1,0.4-0.4,0.4H1081.1z"/>
		<path class="st0" d="M1087.4,366.4c-0.9-0.5-1.5-1.2-2-2s-0.7-1.9-0.7-3c0-1.2,0.2-2.2,0.7-3.1s1.2-1.6,2-2.1
			c0.9-0.5,1.8-0.7,2.9-0.7c1.1,0,2.1,0.3,3,0.8c0.9,0.5,1.5,1.2,2,2.1c0.5,0.9,0.7,1.9,0.7,3c0,1.1-0.2,2.1-0.7,3
			c-0.5,0.9-1.2,1.6-2,2.1s-1.9,0.7-3,0.7C1089.3,367.1,1088.3,366.9,1087.4,366.4z M1092.2,364.1c0.4-0.6,0.6-1.5,0.6-2.7
			c0-1.2-0.2-2.2-0.6-2.8s-1-0.9-1.8-0.9c-0.8,0-1.4,0.3-1.8,0.9c-0.4,0.6-0.6,1.6-0.6,2.8c0,1.2,0.2,2.1,0.6,2.7
			c0.4,0.6,1,0.9,1.8,0.9C1091.2,365,1091.8,364.7,1092.2,364.1z"/>
		<path class="st0" d="M1105.1,367.1c-1.1,0-1.9-0.3-2.5-0.9c-0.6-0.6-0.9-1.3-0.9-2.2c0-1.2,0.5-2.1,1.6-2.9s2.6-1.1,4.5-1.1
			l0.8-0.1c0.1,0,0.2,0,0.2-0.1c0.1,0,0.1-0.1,0.1-0.2v-0.4c0-0.6-0.2-1-0.5-1.3c-0.3-0.3-0.8-0.4-1.3-0.4c-1,0-1.7,0.4-2.2,1.3
			c-0.1,0.1-0.1,0.2-0.3,0.2c-0.1,0-0.1,0-0.2,0l-2.1-0.5c-0.1,0-0.2-0.1-0.2-0.2c0-0.1,0-0.2,0.1-0.3c0.3-0.8,0.9-1.4,1.8-1.8
			c0.9-0.4,1.9-0.6,3.2-0.6c1.7,0,2.9,0.3,3.6,0.9c0.7,0.6,1.1,1.5,1.1,2.6v7.4c0,0.2,0,0.3-0.1,0.4c-0.1,0.1-0.2,0.1-0.3,0.1h-2.2
			c-0.1,0-0.2,0-0.3-0.1s-0.1-0.2-0.1-0.4l0-0.5c0-0.1-0.1-0.2-0.2-0.2c-0.1,0-0.2,0.1-0.3,0.2
			C1107.5,366.7,1106.4,367.1,1105.1,367.1z M1108.8,361.7c0-0.1-0.1-0.1-0.3-0.1l-0.6,0c-0.8,0-1.5,0.2-2.2,0.6
			c-0.6,0.3-0.9,0.8-0.9,1.4c0,0.4,0.1,0.8,0.4,1c0.3,0.2,0.7,0.4,1.2,0.4c0.6,0,1.2-0.2,1.7-0.6c0.5-0.4,0.7-0.7,0.7-1.1v-1.4
			C1108.9,361.8,1108.8,361.7,1108.8,361.7z"/>
		<path class="st0" d="M1122.4,356.4c0.8,0.6,1.4,1.4,1.7,2.3c0,0.1,0,0.2,0,0.2c0,0.1-0.1,0.2-0.3,0.2l-2.2,0.2h-0.1
			c-0.1,0-0.2-0.1-0.3-0.2c-0.3-0.5-0.5-0.9-0.8-1.1c-0.3-0.2-0.6-0.4-1.1-0.4c-0.8,0-1.4,0.3-1.8,0.9c-0.4,0.6-0.6,1.5-0.6,2.8
			c0,1.2,0.2,2.2,0.7,2.8s1.1,0.9,1.9,0.9c0.6,0,1.1-0.1,1.4-0.4s0.7-0.7,1.1-1.4c0-0.1,0.1-0.1,0.1-0.1c0,0,0.1,0,0.2,0l1.6,0.4
			c0.1,0,0.2,0.1,0.2,0.2l0,0.2c-0.3,0.8-0.8,1.6-1.6,2.2c-0.8,0.7-1.9,1-3.2,1c-1.1,0-2.1-0.2-2.9-0.7s-1.5-1.2-2-2s-0.7-1.9-0.7-3
			c0-1.1,0.2-2.2,0.7-3.1s1.2-1.6,2-2.1s1.8-0.7,2.9-0.7C1120.6,355.5,1121.6,355.8,1122.4,356.4z"/>
		<path class="st0" d="M1134.1,356.4c0.8,0.6,1.4,1.4,1.7,2.3c0,0.1,0,0.2,0,0.2c0,0.1-0.1,0.2-0.3,0.2l-2.2,0.2h-0.1
			c-0.1,0-0.2-0.1-0.3-0.2c-0.3-0.5-0.5-0.9-0.8-1.1c-0.3-0.2-0.6-0.4-1.1-0.4c-0.8,0-1.4,0.3-1.8,0.9c-0.4,0.6-0.6,1.5-0.6,2.8
			c0,1.2,0.2,2.2,0.7,2.8s1.1,0.9,1.9,0.9c0.6,0,1.1-0.1,1.4-0.4s0.7-0.7,1.1-1.4c0-0.1,0.1-0.1,0.1-0.1c0,0,0.1,0,0.2,0l1.6,0.4
			c0.1,0,0.2,0.1,0.2,0.2l0,0.2c-0.3,0.8-0.8,1.6-1.6,2.2c-0.8,0.7-1.9,1-3.2,1c-1.1,0-2.1-0.2-2.9-0.7s-1.5-1.2-2-2s-0.7-1.9-0.7-3
			c0-1.1,0.2-2.2,0.7-3.1s1.2-1.6,2-2.1s1.8-0.7,2.9-0.7C1132.2,355.5,1133.3,355.8,1134.1,356.4z"/>
		<path class="st0" d="M1139.7,366.4c-0.9-0.5-1.5-1.2-2-2s-0.7-1.9-0.7-3c0-1.2,0.2-2.2,0.7-3.1s1.2-1.6,2-2.1
			c0.9-0.5,1.8-0.7,2.9-0.7c1.1,0,2.1,0.3,3,0.8c0.9,0.5,1.5,1.2,2,2.1c0.5,0.9,0.7,1.9,0.7,3c0,1.1-0.2,2.1-0.7,3
			c-0.5,0.9-1.2,1.6-2,2.1s-1.9,0.7-3,0.7C1141.6,367.1,1140.6,366.9,1139.7,366.4z M1144.5,364.1c0.4-0.6,0.6-1.5,0.6-2.7
			c0-1.2-0.2-2.2-0.6-2.8s-1-0.9-1.8-0.9c-0.8,0-1.4,0.3-1.8,0.9c-0.4,0.6-0.6,1.6-0.6,2.8c0,1.2,0.2,2.1,0.6,2.7
			c0.4,0.6,1,0.9,1.8,0.9C1143.5,365,1144.1,364.7,1144.5,364.1z"/>
		<path class="st0" d="M1150.3,366.8c-0.1-0.1-0.1-0.2-0.1-0.3v-10.4c0-0.1,0-0.2,0.1-0.3s0.1-0.1,0.2-0.1h2.5
			c0.2,0,0.3,0.1,0.3,0.4v1c0,0.1,0,0.2,0.1,0.2c0,0,0.1,0,0.1-0.1c0.6-0.6,1.2-1,1.7-1.3c0.6-0.3,1.2-0.4,1.8-0.4
			c0.7,0,1.4,0.2,1.9,0.5c0.5,0.4,0.9,0.8,1.1,1.4c0,0.1,0,0.1,0.1,0.1c0.1,0,0.1,0,0.2-0.1c0.5-0.6,1.1-1,1.8-1.4s1.3-0.5,2-0.5
			c1,0,1.8,0.3,2.4,0.9s0.9,1.4,0.9,2.5v7.5c0,0.3-0.2,0.5-0.5,0.5h-2.4c-0.2,0-0.3,0-0.3-0.1s-0.1-0.2-0.1-0.3v-7.2
			c0-0.5-0.1-0.8-0.4-1.1c-0.3-0.3-0.6-0.4-1.1-0.4c-0.4,0-0.8,0.1-1.1,0.3s-0.7,0.5-0.9,0.8c-0.1,0.1-0.1,0.2-0.2,0.3
			c0,0.1-0.1,0.2-0.1,0.3v6.9c0,0.3-0.2,0.5-0.5,0.5h-2.3c-0.1,0-0.2,0-0.3-0.1s-0.1-0.2-0.1-0.3v-7.2c0-0.5-0.1-0.8-0.4-1.1
			c-0.3-0.3-0.6-0.4-1.1-0.4c-0.4,0-0.8,0.1-1.1,0.3s-0.7,0.5-1.1,1v7.3c0,0.2,0,0.3-0.1,0.4c-0.1,0.1-0.2,0.1-0.4,0.1h-2.3
			C1150.5,366.9,1150.4,366.9,1150.3,366.8z"/>
		<path class="st0" d="M1172.9,355.8c0.1,0.1,0.1,0.2,0.1,0.3v0.6c0,0.1,0,0.1,0.1,0.1c0,0,0.1,0,0.2-0.1c0.4-0.4,0.9-0.7,1.3-1
			s1-0.3,1.7-0.3c1.3,0,2.3,0.5,3.1,1.5c0.8,1,1.2,2.4,1.2,4.3c0,1.9-0.4,3.4-1.2,4.4c-0.8,1-1.9,1.5-3.3,1.5
			c-1.1,0-2.1-0.4-2.8-1.1c-0.1-0.1-0.2-0.2-0.3-0.2c-0.1,0-0.1,0.1-0.1,0.3v3.9c0,0.2-0.1,0.4-0.3,0.4h-2.6c-0.1,0-0.2,0-0.2-0.1
			s-0.1-0.2-0.1-0.3v-13.9c0-0.2,0-0.3,0.1-0.4c0.1-0.1,0.2-0.1,0.4-0.1h2.3C1172.7,355.7,1172.8,355.7,1172.9,355.8z M1173.9,364.8
			c0.3,0.2,0.7,0.3,1.1,0.3c1.6,0,2.4-1.3,2.4-3.9c0-1.3-0.2-2.2-0.6-2.8c-0.4-0.6-1-0.8-1.7-0.8c-0.6,0-1.1,0.2-1.5,0.5
			c-0.4,0.3-0.6,0.7-0.6,1.2v4.8C1173.3,364.4,1173.6,364.6,1173.9,364.8z"/>
		<path class="st0" d="M1185.9,366.4c0,0.2,0,0.3-0.1,0.4c-0.1,0.1-0.2,0.1-0.4,0.1h-2.2c-0.2,0-0.3,0-0.4-0.1
			c-0.1-0.1-0.1-0.2-0.1-0.3l0.1-14.9c0-0.3,0.1-0.4,0.3-0.4h2.6c0.2,0,0.3,0.1,0.3,0.4V366.4z"/>
		<path class="st0" d="M1191.5,353.8c0,0.4-0.2,0.5-0.6,0.5h-2.3c-0.2,0-0.3,0-0.4-0.1c-0.1-0.1-0.1-0.2-0.1-0.4v-2.2
			c0-0.3,0.1-0.4,0.4-0.4h2.6c0.1,0,0.2,0,0.2,0.1c0.1,0.1,0.1,0.2,0.1,0.3V353.8z M1191.5,366.4c0,0.2,0,0.3-0.1,0.4
			c-0.1,0.1-0.2,0.1-0.4,0.1h-2.2c-0.2,0-0.3,0-0.4-0.1c-0.1-0.1-0.1-0.2-0.1-0.3v-10.4c0-0.3,0.1-0.4,0.4-0.4h2.6
			c0.2,0,0.3,0.1,0.3,0.4V366.4z"/>
		<path class="st0" d="M1198.3,357.5c-0.5,0-1,0.1-1.3,0.3c-0.4,0.2-0.5,0.5-0.5,0.8c0,0.2,0.1,0.4,0.2,0.5c0.2,0.2,0.5,0.3,0.9,0.4
			l2.4,0.6c1.1,0.3,1.9,0.7,2.5,1.3c0.5,0.6,0.8,1.3,0.8,2.1c0,1.1-0.5,2-1.4,2.6c-0.9,0.6-2.2,1-3.7,1c-1.2,0-2.3-0.2-3.2-0.6
			c-0.9-0.4-1.5-1-1.9-1.7c-0.1-0.1-0.1-0.2-0.1-0.3c0-0.1,0-0.2,0.1-0.2l1.4-0.7c0.1-0.1,0.2-0.1,0.3-0.1s0.2,0,0.2,0.1
			c0.3,0.4,0.7,0.8,1.1,1c0.4,0.3,1,0.4,1.8,0.4c0.7,0,1.2-0.1,1.6-0.3c0.4-0.2,0.6-0.5,0.6-0.9c0-0.3-0.1-0.5-0.3-0.6
			s-0.6-0.3-1.1-0.4l-2.2-0.5c-2.1-0.5-3.2-1.5-3.2-3.2c0-0.7,0.2-1.3,0.6-1.9c0.4-0.6,0.9-1,1.7-1.3c0.7-0.3,1.6-0.5,2.5-0.5
			c1,0,1.9,0.2,2.7,0.6s1.4,0.9,1.7,1.4c0.1,0.1,0.1,0.2,0.1,0.3c0,0.1,0,0.2-0.1,0.2l-1.5,0.7c0,0-0.1,0-0.2,0
			c-0.1,0-0.2-0.1-0.3-0.2C1200.2,357.9,1199.4,357.5,1198.3,357.5z"/>
		<path class="st0" d="M1205.2,366.8c-0.1-0.1-0.1-0.2-0.1-0.3v-14.9c0-0.3,0.1-0.4,0.3-0.4h2.5c0.2,0,0.3,0.1,0.3,0.4v5.4
			c0,0.1,0,0.2,0.1,0.2c0,0,0.1,0,0.1-0.1c0.6-0.6,1.3-1,1.8-1.2s1.1-0.4,1.8-0.4c1.1,0,1.9,0.3,2.5,0.9s0.9,1.4,0.9,2.5v7.5
			c0,0.3-0.2,0.5-0.5,0.5h-2.4c-0.2,0-0.3,0-0.3-0.1s-0.1-0.2-0.1-0.3v-7.2c0-0.5-0.1-0.9-0.4-1.1c-0.3-0.3-0.6-0.4-1.1-0.4
			c-0.4,0-0.8,0.1-1.2,0.3c-0.4,0.2-0.7,0.5-1.1,1v7.3c0,0.2,0,0.3-0.1,0.4c-0.1,0.1-0.2,0.1-0.4,0.1h-2.3
			C1205.4,366.9,1205.3,366.9,1205.2,366.8z"/>
		<path class="st0" d="M1121.6,386.5c-0.2,0-0.2,0.1-0.2,0.3v5.1c0,0.5,0.1,0.8,0.3,1c0.2,0.2,0.6,0.3,1.1,0.3h1.1
			c0.1,0,0.2,0,0.2,0.1c0.1,0.1,0.1,0.2,0.1,0.3l0,1.3c0,0.3-0.2,0.5-0.5,0.5c-0.6,0.1-1.4,0.1-2.5,0.1c-1,0-1.8-0.2-2.3-0.7
			s-0.8-1.1-0.8-2v-5.9c0-0.2-0.1-0.3-0.3-0.3h-1.3c-0.3,0-0.4-0.1-0.4-0.4v-1.6c0-0.2,0.1-0.3,0.4-0.3h1.5c0.1,0,0.2-0.1,0.2-0.2
			l0.3-3.2c0-0.2,0.1-0.4,0.3-0.4h2.3c0.1,0,0.2,0,0.2,0.1s0.1,0.2,0.1,0.3v3.2c0,0.1,0.1,0.2,0.2,0.2h2.2c0.3,0,0.4,0.1,0.4,0.3
			v1.6c0,0.2-0.1,0.4-0.4,0.4H1121.6z"/>
		<path class="st0" d="M1126.2,395.3c-0.1-0.1-0.1-0.2-0.1-0.3v-14.9c0-0.3,0.1-0.4,0.3-0.4h2.5c0.2,0,0.3,0.1,0.3,0.4v5.4
			c0,0.1,0,0.2,0.1,0.2c0,0,0.1,0,0.1-0.1c0.6-0.6,1.3-1,1.8-1.2c0.6-0.2,1.1-0.4,1.8-0.4c1.1,0,1.9,0.3,2.5,0.9
			c0.6,0.6,0.9,1.4,0.9,2.5v7.5c0,0.3-0.2,0.5-0.5,0.5h-2.4c-0.2,0-0.3,0-0.3-0.1s-0.1-0.2-0.1-0.3v-7.2c0-0.5-0.1-0.9-0.4-1.1
			c-0.3-0.3-0.6-0.4-1.1-0.4c-0.4,0-0.8,0.1-1.2,0.3c-0.4,0.2-0.7,0.5-1.1,1v7.3c0,0.2,0,0.3-0.1,0.4c-0.1,0.1-0.2,0.1-0.4,0.1h-2.3
			C1126.4,395.4,1126.3,395.4,1126.2,395.3z"/>
		<path class="st0" d="M1142,382.3c0,0.4-0.2,0.5-0.6,0.5h-2.3c-0.2,0-0.3,0-0.4-0.1c-0.1-0.1-0.1-0.2-0.1-0.4v-2.2
			c0-0.3,0.1-0.4,0.4-0.4h2.6c0.1,0,0.2,0,0.2,0.1c0.1,0.1,0.1,0.2,0.1,0.3V382.3z M1142,394.9c0,0.2,0,0.3-0.1,0.4
			c-0.1,0.1-0.2,0.1-0.4,0.1h-2.2c-0.2,0-0.3,0-0.4-0.1c-0.1-0.1-0.1-0.2-0.1-0.3v-10.4c0-0.3,0.1-0.4,0.4-0.4h2.6
			c0.2,0,0.3,0.1,0.3,0.4V394.9z"/>
		<path class="st0" d="M1144.4,395.3c-0.1-0.1-0.1-0.2-0.1-0.3v-10.4c0-0.3,0.1-0.4,0.3-0.4h2.6c0.2,0,0.3,0.1,0.3,0.4v1
			c0,0.1,0,0.2,0.1,0.2c0,0,0.1,0,0.1-0.1c0.6-0.6,1.2-1,1.7-1.3c0.6-0.3,1.2-0.4,1.8-0.4c1,0,1.8,0.3,2.4,0.9
			c0.6,0.6,0.9,1.4,0.9,2.4v7.6c0,0.3-0.2,0.5-0.5,0.5h-2.4c-0.2,0-0.3,0-0.3-0.1s-0.1-0.2-0.1-0.3v-7.2c0-0.5-0.1-0.9-0.4-1.1
			c-0.3-0.3-0.6-0.4-1.2-0.4c-0.4,0-0.8,0.1-1.2,0.3s-0.7,0.5-1.2,1v7.3c0,0.2,0,0.3-0.1,0.4c-0.1,0.1-0.2,0.1-0.4,0.1h-2.3
			C1144.6,395.4,1144.5,395.4,1144.4,395.3z"/>
		<path class="st0" d="M1168.7,384.2v1.4c0,0.4-0.2,0.6-0.5,0.5c-0.2,0-0.4-0.1-0.6-0.1c-0.1,0-0.2,0-0.4,0
			c-0.4,0.1-0.5,0.2-0.4,0.5c0.1,0.4,0.2,0.7,0.2,1c0,0.6-0.2,1.2-0.6,1.8c-0.4,0.5-1,0.9-1.7,1.2c-0.8,0.3-1.7,0.5-2.8,0.5
			c-0.8,0-1.4,0.1-1.7,0.2s-0.6,0.3-0.6,0.5c0,0.2,0.1,0.3,0.3,0.4c0.2,0.1,0.5,0.1,1,0.2l3,0.2c1.4,0.1,2.4,0.4,3.1,0.9
			c0.7,0.5,1,1.2,1,2.1c0,1.1-0.5,2-1.6,2.6s-2.5,1-4.4,1c-4.1,0-6.2-0.9-6.2-2.7c0-0.5,0.2-0.8,0.5-1.2c0.4-0.3,0.9-0.6,1.5-0.8
			c0.1,0,0.1-0.1,0.1-0.1c0,0,0-0.1-0.1-0.1c-0.8-0.4-1.2-0.9-1.2-1.6c0-0.4,0.2-0.7,0.6-1.1s0.9-0.6,1.5-0.9c0.2-0.1,0.2-0.2,0-0.3
			c-1.4-0.6-2.1-1.6-2.1-2.9c0-1.1,0.5-1.9,1.4-2.6c0.9-0.6,2.2-1,4-1c1.5,0,2.6,0.3,3.4,1c0.1,0.1,0.2,0.1,0.3,0.1
			c0.1,0,0.2,0,0.3-0.1c0.3-0.3,0.6-0.6,1.1-0.9c0.4-0.2,0.8-0.4,1.1-0.4C1168.6,383.7,1168.7,383.9,1168.7,384.2z M1160.3,394.8
			c-0.4,0-0.8,0.1-1.2,0.3c-0.3,0.2-0.5,0.5-0.5,0.9c0,0.5,0.3,0.9,0.9,1.2c0.6,0.3,1.5,0.4,2.8,0.4c0.9,0,1.7-0.1,2.2-0.4
			c0.5-0.3,0.8-0.6,0.8-1.1c0-0.3-0.1-0.6-0.4-0.8c-0.3-0.2-0.7-0.3-1.2-0.3L1160.3,394.8z M1163.5,388.9c0.4-0.3,0.5-0.8,0.5-1.3
			c0-0.6-0.2-1.1-0.5-1.4c-0.4-0.3-0.9-0.5-1.6-0.5c-0.7,0-1.2,0.2-1.6,0.5s-0.6,0.8-0.6,1.4c0,0.5,0.2,1,0.6,1.3s0.9,0.5,1.6,0.5
			C1162.6,389.4,1163.2,389.2,1163.5,388.9z"/>
		<path class="st0" d="M1174.8,386c-0.5,0-1,0.1-1.3,0.3c-0.4,0.2-0.5,0.5-0.5,0.8c0,0.2,0.1,0.4,0.2,0.5c0.2,0.2,0.5,0.3,0.9,0.4
			l2.4,0.6c1.1,0.3,1.9,0.7,2.5,1.3c0.5,0.6,0.8,1.3,0.8,2.1c0,1.1-0.5,2-1.4,2.6c-0.9,0.6-2.2,1-3.7,1c-1.2,0-2.3-0.2-3.2-0.6
			c-0.9-0.4-1.5-1-1.9-1.7c-0.1-0.1-0.1-0.2-0.1-0.3c0-0.1,0-0.2,0.1-0.2l1.4-0.7c0.1-0.1,0.2-0.1,0.3-0.1s0.2,0,0.2,0.1
			c0.3,0.4,0.7,0.8,1.1,1c0.4,0.3,1,0.4,1.8,0.4c0.7,0,1.2-0.1,1.6-0.3c0.4-0.2,0.6-0.5,0.6-0.9c0-0.3-0.1-0.5-0.3-0.6
			s-0.6-0.3-1.1-0.4l-2.2-0.5c-2.1-0.5-3.2-1.5-3.2-3.2c0-0.7,0.2-1.3,0.6-1.9s0.9-1,1.7-1.3c0.7-0.3,1.6-0.5,2.5-0.5
			c1,0,1.9,0.2,2.7,0.6c0.8,0.4,1.4,0.9,1.7,1.4c0.1,0.1,0.1,0.2,0.1,0.3c0,0.1,0,0.2-0.1,0.2l-1.5,0.7c0,0-0.1,0-0.2,0
			c-0.1,0-0.2-0.1-0.3-0.2C1176.7,386.4,1175.9,386,1174.8,386z"/>
	</g>
</g>
<g>
	<g>
		<circle cx="879.4" cy="641.2" r="95.5"/>
		<path class="st0" d="M879.4,737.2c-52.9,0-96-43.1-96-96s43.1-96,96-96s96,43.1,96,96S932.3,737.2,879.4,737.2z M879.4,546.2
			c-52.4,0-95,42.6-95,95s42.6,95,95,95c52.4,0,95-42.6,95-95S931.8,546.2,879.4,546.2z"/>
	</g>
	<g>
		<path class="st0" d="M815.7,625.6c-0.2,0-0.2,0.1-0.2,0.3v5.1c0,0.5,0.1,0.8,0.3,1c0.2,0.2,0.6,0.3,1.1,0.3h1.1
			c0.1,0,0.2,0,0.2,0.1c0.1,0.1,0.1,0.2,0.1,0.3l0,1.3c0,0.3-0.2,0.5-0.5,0.5c-0.6,0.1-1.4,0.1-2.5,0.1c-1,0-1.8-0.2-2.3-0.7
			s-0.8-1.1-0.8-2V626c0-0.2-0.1-0.3-0.3-0.3h-1.3c-0.3,0-0.4-0.1-0.4-0.4v-1.6c0-0.2,0.1-0.3,0.4-0.3h1.5c0.1,0,0.2-0.1,0.2-0.2
			l0.3-3.2c0-0.2,0.1-0.4,0.3-0.4h2.3c0.1,0,0.2,0,0.2,0.1s0.1,0.2,0.1,0.3v3.2c0,0.1,0.1,0.2,0.2,0.2h2.2c0.3,0,0.4,0.1,0.4,0.3
			v1.6c0,0.2-0.1,0.4-0.4,0.4H815.7z"/>
		<path class="st0" d="M822,634.1c-0.9-0.5-1.5-1.2-2-2s-0.7-1.9-0.7-3c0-1.2,0.2-2.2,0.7-3.1s1.2-1.6,2-2.1
			c0.9-0.5,1.8-0.7,2.9-0.7c1.1,0,2.1,0.2,3,0.8c0.9,0.5,1.5,1.2,2,2.1c0.5,0.9,0.7,1.9,0.7,3c0,1.1-0.2,2.1-0.7,3
			c-0.5,0.9-1.2,1.6-2,2.1s-1.9,0.7-3,0.7C823.8,634.8,822.8,634.6,822,634.1z M826.7,631.7c0.4-0.6,0.6-1.5,0.6-2.7
			c0-1.2-0.2-2.2-0.6-2.8s-1-0.9-1.8-0.9c-0.8,0-1.4,0.3-1.8,0.9c-0.4,0.6-0.6,1.6-0.6,2.8c0,1.2,0.2,2.1,0.6,2.7
			c0.4,0.6,1,0.9,1.8,0.9C825.7,632.7,826.3,632.4,826.7,631.7z"/>
		<path class="st0" d="M840.5,631.9c0.5,0.5,1.2,0.7,2,0.7c0.5,0,1-0.1,1.4-0.3s0.9-0.6,1.3-1.1c0.1-0.1,0.1-0.1,0.2-0.1
			c0,0,0.1,0,0.2,0.1l1.5,0.6c0.1,0,0.1,0.1,0.1,0.2c0,0.1,0,0.1-0.1,0.2c-0.7,1-1.4,1.6-2.2,2c-0.8,0.4-1.7,0.6-2.9,0.6
			c-1.1,0-2.1-0.2-2.9-0.7c-0.9-0.5-1.6-1.1-2.1-2c-0.5-0.9-0.7-1.8-0.7-2.9c0-1.2,0.3-2.2,0.8-3.1c0.5-0.9,1.2-1.6,2.1-2.1
			c0.9-0.5,1.8-0.7,2.8-0.7c1.1,0,2,0.2,2.9,0.7c0.8,0.5,1.5,1.2,1.9,2c0.5,0.9,0.7,1.9,0.7,3.2c0,0.2,0,0.3-0.1,0.4
			s-0.1,0.1-0.3,0.1h-7.2c-0.2,0-0.3,0.1-0.3,0.3C839.7,630.7,839.9,631.4,840.5,631.9z M843.9,627.8c0.2,0,0.3,0,0.3-0.1
			c0,0,0.1-0.1,0.1-0.2c0-0.4-0.1-0.7-0.3-1.1c-0.2-0.4-0.4-0.7-0.7-0.9s-0.7-0.4-1.2-0.4c-0.7,0-1.3,0.2-1.7,0.7
			c-0.5,0.5-0.7,1.1-0.7,1.9L843.9,627.8z"/>
		<path class="st0" d="M859.5,634.4c0,0.1-0.1,0.2-0.4,0.2h-2.7c-0.3,0-0.6-0.1-0.7-0.3l-2.2-3.1c-0.1-0.2-0.2-0.3-0.3-0.3
			c-0.1,0-0.1,0.1-0.3,0.3l-2.2,3.1c-0.1,0.2-0.4,0.3-0.7,0.3h-1.7c-0.3,0-0.5-0.1-0.5-0.3c0-0.2,0.1-0.3,0.3-0.6l3.5-4.5
			c0.1-0.1,0.1-0.2,0.1-0.3c0-0.1,0-0.2-0.1-0.4l-3.4-4.7c-0.1-0.1-0.1-0.2-0.1-0.3c0-0.1,0-0.2,0.1-0.2c0.1-0.1,0.2-0.1,0.3-0.1
			h2.6c0.2,0,0.3,0,0.4,0.1c0.1,0,0.2,0.1,0.3,0.3l2,2.8c0.1,0.1,0.1,0.2,0.2,0.2c0,0,0.1-0.1,0.2-0.2l1.9-2.8
			c0.1-0.1,0.2-0.2,0.3-0.3c0.1,0,0.2-0.1,0.4-0.1h1.9c0.2,0,0.4,0.1,0.4,0.2c0,0.1,0,0.2-0.1,0.3l-3.2,4.3
			c-0.1,0.1-0.1,0.2-0.1,0.3c0,0.1,0,0.2,0.1,0.3l3.7,5.1C859.4,634.1,859.5,634.3,859.5,634.4z"/>
		<path class="st0" d="M864.3,623.5c0.1,0.1,0.1,0.2,0.1,0.3v0.6c0,0.1,0,0.1,0.1,0.1c0,0,0.1,0,0.2-0.1c0.4-0.4,0.9-0.7,1.3-1
			c0.5-0.2,1-0.3,1.7-0.3c1.3,0,2.3,0.5,3.1,1.5c0.8,1,1.2,2.4,1.2,4.3c0,1.9-0.4,3.4-1.2,4.4c-0.8,1-1.9,1.5-3.3,1.5
			c-1.1,0-2.1-0.4-2.8-1.1c-0.1-0.1-0.2-0.2-0.3-0.2c-0.1,0-0.1,0.1-0.1,0.3v3.9c0,0.2-0.1,0.4-0.3,0.4h-2.6c-0.1,0-0.2,0-0.2-0.1
			s-0.1-0.2-0.1-0.3v-13.9c0-0.2,0-0.3,0.1-0.4c0.1-0.1,0.2-0.1,0.4-0.1h2.3C864.1,623.4,864.2,623.4,864.3,623.5z M865.3,632.5
			c0.3,0.2,0.7,0.3,1.1,0.3c1.6,0,2.4-1.3,2.4-3.9c0-1.3-0.2-2.2-0.6-2.8c-0.4-0.6-1-0.8-1.7-0.8c-0.6,0-1.1,0.2-1.5,0.5
			c-0.4,0.3-0.6,0.7-0.6,1.2v4.8C864.7,632.1,865,632.3,865.3,632.5z"/>
		<path class="st0" d="M877.6,631.9c0.5,0.5,1.2,0.7,2,0.7c0.5,0,1-0.1,1.4-0.3s0.9-0.6,1.3-1.1c0.1-0.1,0.1-0.1,0.2-0.1
			c0,0,0.1,0,0.2,0.1l1.5,0.6c0.1,0,0.1,0.1,0.1,0.2c0,0.1,0,0.1-0.1,0.2c-0.7,1-1.4,1.6-2.2,2c-0.8,0.4-1.7,0.6-2.9,0.6
			c-1.1,0-2.1-0.2-2.9-0.7c-0.9-0.5-1.6-1.1-2.1-2c-0.5-0.9-0.7-1.8-0.7-2.9c0-1.2,0.3-2.2,0.8-3.1c0.5-0.9,1.2-1.6,2.1-2.1
			c0.9-0.5,1.8-0.7,2.8-0.7c1.1,0,2,0.2,2.9,0.7c0.8,0.5,1.5,1.2,1.9,2c0.5,0.9,0.7,1.9,0.7,3.2c0,0.2,0,0.3-0.1,0.4
			s-0.1,0.1-0.3,0.1h-7.2c-0.2,0-0.3,0.1-0.3,0.3C876.8,630.7,877.1,631.4,877.6,631.9z M881.1,627.8c0.2,0,0.3,0,0.3-0.1
			c0,0,0.1-0.1,0.1-0.2c0-0.4-0.1-0.7-0.3-1.1c-0.2-0.4-0.4-0.7-0.7-0.9s-0.7-0.4-1.2-0.4c-0.7,0-1.3,0.2-1.7,0.7
			c-0.5,0.5-0.7,1.1-0.7,1.9L881.1,627.8z"/>
		<path class="st0" d="M886.4,634.2v-10.4c0-0.3,0.1-0.4,0.3-0.4h2.5c0.2,0,0.3,0.1,0.3,0.4v1.2c0,0.1,0,0.1,0,0.1c0,0,0.1,0,0.1,0
			c0,0,0.1,0,0.2-0.1c0.4-0.6,0.9-1,1.5-1.4c0.6-0.3,1.1-0.5,1.7-0.5c0.5,0,0.8,0.1,0.8,0.4v2.5c0,0.1,0,0.2-0.1,0.2s-0.1,0.1-0.2,0
			c-0.5-0.1-0.9-0.2-1.5-0.2c-0.4,0-0.7,0.1-1.1,0.3c-0.4,0.2-0.7,0.4-0.9,0.7c-0.2,0.3-0.3,0.6-0.3,0.9v6.2c0,0.3-0.2,0.5-0.6,0.5
			h-2.3C886.5,634.6,886.4,634.5,886.4,634.2z"/>
		<path class="st0" d="M898.7,621.5c0,0.4-0.2,0.5-0.6,0.5h-2.3c-0.2,0-0.3,0-0.4-0.1c-0.1-0.1-0.1-0.2-0.1-0.4v-2.2
			c0-0.3,0.1-0.4,0.4-0.4h2.6c0.1,0,0.2,0,0.2,0.1c0.1,0.1,0.1,0.2,0.1,0.3V621.5z M898.7,634.1c0,0.2,0,0.3-0.1,0.4
			c-0.1,0.1-0.2,0.1-0.4,0.1h-2.2c-0.2,0-0.3,0-0.4-0.1c-0.1-0.1-0.1-0.2-0.1-0.3v-10.4c0-0.3,0.1-0.4,0.4-0.4h2.6
			c0.2,0,0.3,0.1,0.3,0.4V634.1z"/>
		<path class="st0" d="M904.7,631.9c0.5,0.5,1.2,0.7,2,0.7c0.5,0,1-0.1,1.4-0.3s0.9-0.6,1.3-1.1c0.1-0.1,0.1-0.1,0.2-0.1
			c0,0,0.1,0,0.2,0.1l1.5,0.6c0.1,0,0.1,0.1,0.1,0.2c0,0.1,0,0.1-0.1,0.2c-0.7,1-1.4,1.6-2.2,2c-0.8,0.4-1.7,0.6-2.9,0.6
			c-1.1,0-2.1-0.2-2.9-0.7c-0.9-0.5-1.6-1.1-2.1-2c-0.5-0.9-0.7-1.8-0.7-2.9c0-1.2,0.3-2.2,0.8-3.1c0.5-0.9,1.2-1.6,2.1-2.1
			c0.9-0.5,1.8-0.7,2.8-0.7c1.1,0,2,0.2,2.9,0.7c0.8,0.5,1.5,1.2,1.9,2c0.5,0.9,0.7,1.9,0.7,3.2c0,0.2,0,0.3-0.1,0.4
			s-0.1,0.1-0.3,0.1h-7.2c-0.2,0-0.3,0.1-0.3,0.3C903.9,630.7,904.2,631.4,904.7,631.9z M908.2,627.8c0.2,0,0.3,0,0.3-0.1
			c0,0,0.1-0.1,0.1-0.2c0-0.4-0.1-0.7-0.3-1.1c-0.2-0.4-0.4-0.7-0.7-0.9s-0.7-0.4-1.2-0.4c-0.7,0-1.3,0.2-1.7,0.7
			c-0.5,0.5-0.7,1.1-0.7,1.9L908.2,627.8z"/>
		<path class="st0" d="M913.6,634.5c-0.1-0.1-0.1-0.2-0.1-0.3v-10.4c0-0.3,0.1-0.4,0.3-0.4h2.6c0.2,0,0.3,0.1,0.3,0.4v1
			c0,0.1,0,0.2,0.1,0.2c0,0,0.1,0,0.1-0.1c0.6-0.6,1.2-1,1.7-1.3c0.6-0.3,1.2-0.4,1.8-0.4c1,0,1.8,0.3,2.4,0.9
			c0.6,0.6,0.9,1.4,0.9,2.4v7.6c0,0.3-0.2,0.5-0.5,0.5H921c-0.2,0-0.3,0-0.3-0.1s-0.1-0.2-0.1-0.3V627c0-0.5-0.1-0.9-0.4-1.1
			c-0.3-0.3-0.6-0.4-1.2-0.4c-0.4,0-0.8,0.1-1.2,0.3s-0.7,0.5-1.2,1v7.3c0,0.2,0,0.3-0.1,0.4c-0.1,0.1-0.2,0.1-0.4,0.1h-2.3
			C913.7,634.6,913.6,634.6,913.6,634.5z"/>
		<path class="st0" d="M934.3,624.1c0.8,0.6,1.4,1.4,1.7,2.3c0,0.1,0,0.2,0,0.2c0,0.1-0.1,0.2-0.3,0.2l-2.2,0.2h-0.1
			c-0.1,0-0.2-0.1-0.3-0.2c-0.3-0.5-0.5-0.9-0.8-1.1c-0.3-0.2-0.6-0.4-1.1-0.4c-0.8,0-1.4,0.3-1.8,0.9c-0.4,0.6-0.6,1.5-0.6,2.8
			c0,1.2,0.2,2.2,0.7,2.8c0.5,0.6,1.1,0.9,1.9,0.9c0.6,0,1.1-0.1,1.4-0.4c0.4-0.3,0.7-0.7,1.1-1.4c0-0.1,0.1-0.1,0.1-0.1
			c0,0,0.1,0,0.2,0l1.6,0.4c0.1,0,0.2,0.1,0.2,0.2l0,0.2c-0.3,0.8-0.8,1.6-1.6,2.2c-0.8,0.7-1.9,1-3.2,1c-1.1,0-2.1-0.2-2.9-0.7
			s-1.5-1.2-2-2s-0.7-1.9-0.7-3c0-1.1,0.2-2.2,0.7-3.1s1.2-1.6,2-2.1s1.8-0.7,2.9-0.7C932.5,623.2,933.5,623.5,934.3,624.1z"/>
		<path class="st0" d="M941.4,631.9c0.5,0.5,1.2,0.7,2,0.7c0.5,0,1-0.1,1.4-0.3s0.9-0.6,1.3-1.1c0.1-0.1,0.1-0.1,0.2-0.1
			c0,0,0.1,0,0.2,0.1l1.5,0.6c0.1,0,0.1,0.1,0.1,0.2c0,0.1,0,0.1-0.1,0.2c-0.7,1-1.4,1.6-2.2,2c-0.8,0.4-1.7,0.6-2.9,0.6
			c-1.1,0-2.1-0.2-2.9-0.7c-0.9-0.5-1.6-1.1-2.1-2c-0.5-0.9-0.7-1.8-0.7-2.9c0-1.2,0.3-2.2,0.8-3.1c0.5-0.9,1.2-1.6,2.1-2.1
			c0.9-0.5,1.8-0.7,2.8-0.7c1.1,0,2,0.2,2.9,0.7c0.8,0.5,1.5,1.2,1.9,2c0.5,0.9,0.7,1.9,0.7,3.2c0,0.2,0,0.3-0.1,0.4
			s-0.1,0.1-0.3,0.1h-7.2c-0.2,0-0.3,0.1-0.3,0.3C940.6,630.7,940.9,631.4,941.4,631.9z M944.9,627.8c0.2,0,0.3,0,0.3-0.1
			c0,0,0.1-0.1,0.1-0.2c0-0.4-0.1-0.7-0.3-1.1c-0.2-0.4-0.4-0.7-0.7-0.9s-0.7-0.4-1.2-0.4c-0.7,0-1.3,0.2-1.7,0.7
			c-0.5,0.5-0.7,1.1-0.7,1.9L944.9,627.8z"/>
		<path class="st0" d="M827.2,651.3c-0.5,0-1,0.1-1.3,0.3c-0.4,0.2-0.5,0.5-0.5,0.8c0,0.2,0.1,0.4,0.2,0.5c0.2,0.2,0.5,0.3,0.9,0.4
			l2.4,0.6c1.1,0.3,1.9,0.7,2.5,1.3c0.5,0.6,0.8,1.3,0.8,2.1c0,1.1-0.5,2-1.4,2.6c-0.9,0.6-2.2,1-3.7,1c-1.2,0-2.3-0.2-3.2-0.6
			c-0.9-0.4-1.5-1-1.9-1.7c-0.1-0.1-0.1-0.2-0.1-0.3c0-0.1,0-0.2,0.1-0.2l1.4-0.7c0.1-0.1,0.2-0.1,0.3-0.1s0.2,0,0.2,0.1
			c0.3,0.4,0.7,0.8,1.1,1c0.4,0.3,1,0.4,1.8,0.4c0.7,0,1.2-0.1,1.6-0.3c0.4-0.2,0.6-0.5,0.6-0.9c0-0.3-0.1-0.5-0.3-0.6
			s-0.6-0.3-1.1-0.4l-2.2-0.5c-2.1-0.5-3.2-1.5-3.2-3.2c0-0.7,0.2-1.3,0.6-1.9s0.9-1,1.7-1.3c0.7-0.3,1.6-0.5,2.5-0.5
			c1,0,1.9,0.2,2.7,0.6c0.8,0.4,1.4,0.9,1.7,1.4c0.1,0.1,0.1,0.2,0.1,0.3c0,0.1,0,0.2-0.1,0.2l-1.5,0.7c0,0-0.1,0-0.2,0
			c-0.1,0-0.2-0.1-0.3-0.2C829.1,651.7,828.3,651.3,827.2,651.3z"/>
		<path class="st0" d="M838.7,651.8c-0.2,0-0.2,0.1-0.2,0.3v5.1c0,0.5,0.1,0.8,0.3,1c0.2,0.2,0.6,0.3,1.1,0.3h1.1
			c0.1,0,0.2,0,0.2,0.1c0.1,0.1,0.1,0.2,0.1,0.3l0,1.3c0,0.3-0.2,0.5-0.5,0.5c-0.6,0.1-1.4,0.1-2.5,0.1c-1,0-1.8-0.2-2.3-0.7
			s-0.8-1.1-0.8-2v-5.9c0-0.2-0.1-0.3-0.3-0.3h-1.3c-0.3,0-0.4-0.1-0.4-0.4v-1.6c0-0.2,0.1-0.3,0.4-0.3h1.5c0.1,0,0.2-0.1,0.2-0.2
			l0.3-3.2c0-0.2,0.1-0.4,0.3-0.4h2.3c0.1,0,0.2,0,0.2,0.1s0.1,0.2,0.1,0.3v3.2c0,0.1,0.1,0.2,0.2,0.2h2.2c0.3,0,0.4,0.1,0.4,0.3
			v1.6c0,0.2-0.1,0.4-0.4,0.4H838.7z"/>
		<path class="st0" d="M846.4,647.7c0,0.4-0.2,0.5-0.6,0.5h-2.3c-0.2,0-0.3,0-0.4-0.1c-0.1-0.1-0.1-0.2-0.1-0.4v-2.2
			c0-0.3,0.1-0.4,0.4-0.4h2.6c0.1,0,0.2,0,0.2,0.1c0.1,0.1,0.1,0.2,0.1,0.3V647.7z M846.4,660.3c0,0.2,0,0.3-0.1,0.4
			c-0.1,0.1-0.2,0.1-0.4,0.1h-2.2c-0.2,0-0.3,0-0.4-0.1c-0.1-0.1-0.1-0.2-0.1-0.3v-10.4c0-0.3,0.1-0.4,0.4-0.4h2.6
			c0.2,0,0.3,0.1,0.3,0.4V660.3z"/>
		<path class="st0" d="M848.8,660.7c-0.1-0.1-0.1-0.2-0.1-0.3v-10.4c0-0.1,0-0.2,0.1-0.3s0.1-0.1,0.2-0.1h2.5c0.2,0,0.3,0.1,0.3,0.4
			v1c0,0.1,0,0.2,0.1,0.2c0,0,0.1,0,0.1-0.1c0.6-0.6,1.2-1,1.7-1.3c0.6-0.3,1.2-0.4,1.8-0.4c0.7,0,1.4,0.2,1.9,0.5
			c0.5,0.4,0.9,0.8,1.1,1.4c0,0.1,0,0.1,0.1,0.1c0.1,0,0.1,0,0.2-0.1c0.5-0.6,1.1-1,1.8-1.4c0.7-0.4,1.3-0.5,2-0.5
			c1,0,1.8,0.3,2.4,0.9c0.6,0.6,0.9,1.4,0.9,2.5v7.5c0,0.3-0.2,0.5-0.5,0.5h-2.4c-0.2,0-0.3,0-0.3-0.1s-0.1-0.2-0.1-0.3v-7.2
			c0-0.5-0.1-0.8-0.4-1.1c-0.3-0.3-0.6-0.4-1.1-0.4c-0.4,0-0.8,0.1-1.1,0.3s-0.7,0.5-0.9,0.8c-0.1,0.1-0.1,0.2-0.2,0.3
			s-0.1,0.2-0.1,0.3v6.9c0,0.3-0.2,0.5-0.5,0.5h-2.3c-0.1,0-0.2,0-0.3-0.1s-0.1-0.2-0.1-0.3v-7.2c0-0.5-0.1-0.8-0.4-1.1
			s-0.6-0.4-1.1-0.4c-0.4,0-0.8,0.1-1.1,0.3s-0.7,0.5-1.1,1v7.3c0,0.2,0,0.3-0.1,0.4c-0.1,0.1-0.2,0.1-0.4,0.1h-2.3
			C849,660.8,848.9,660.7,848.8,660.7z"/>
		<path class="st0" d="M875.1,657.4V650c0-0.3,0.2-0.5,0.6-0.5h2.3c0.2,0,0.3,0,0.3,0.1c0.1,0.1,0.1,0.2,0.1,0.3l0,10.4
			c0,0.1,0,0.2-0.1,0.3c-0.1,0.1-0.1,0.1-0.2,0.1h-2.5c-0.2,0-0.3-0.1-0.3-0.4v-1c0-0.1,0-0.1-0.1-0.1c0,0-0.1,0-0.2,0.1
			c-0.6,0.6-1.2,1-1.8,1.3c-0.6,0.3-1.2,0.4-1.9,0.4c-0.9,0-1.7-0.3-2.3-0.9c-0.6-0.6-0.9-1.4-0.9-2.5V650c0-0.3,0.2-0.5,0.5-0.5
			h2.4c0.3,0,0.4,0.1,0.4,0.4v7.1c0,0.5,0.1,0.8,0.4,1.1s0.6,0.4,1.1,0.4C873.6,658.6,874.4,658.2,875.1,657.4z"/>
		<path class="st0" d="M884,660.3c0,0.2,0,0.3-0.1,0.4c-0.1,0.1-0.2,0.1-0.4,0.1h-2.2c-0.2,0-0.3,0-0.4-0.1
			c-0.1-0.1-0.1-0.2-0.1-0.3l0.1-14.9c0-0.3,0.1-0.4,0.3-0.4h2.6c0.2,0,0.3,0.1,0.3,0.4V660.3z"/>
		<path class="st0" d="M889.2,661c-1.1,0-1.9-0.3-2.5-0.9c-0.6-0.6-0.9-1.3-0.9-2.2c0-1.2,0.5-2.1,1.6-2.9c1.1-0.7,2.6-1.1,4.5-1.1
			l0.8-0.1c0.1,0,0.2,0,0.2-0.1c0.1,0,0.1-0.1,0.1-0.2v-0.4c0-0.6-0.2-1-0.5-1.3s-0.8-0.4-1.3-0.4c-1,0-1.7,0.4-2.2,1.3
			c-0.1,0.1-0.1,0.2-0.3,0.2c-0.1,0-0.1,0-0.2,0l-2.1-0.5c-0.1,0-0.2-0.1-0.2-0.2c0-0.1,0-0.2,0.1-0.3c0.3-0.8,0.9-1.4,1.8-1.8
			c0.9-0.4,1.9-0.6,3.2-0.6c1.7,0,2.9,0.3,3.6,0.9c0.7,0.6,1.1,1.5,1.1,2.6v7.4c0,0.2,0,0.3-0.1,0.4c-0.1,0.1-0.2,0.1-0.3,0.1h-2.2
			c-0.1,0-0.2,0-0.3-0.1s-0.1-0.2-0.1-0.4l0-0.5c0-0.1-0.1-0.2-0.2-0.2c-0.1,0-0.2,0.1-0.3,0.2C891.6,660.5,890.5,661,889.2,661z
			 M892.9,655.5c0-0.1-0.1-0.1-0.3-0.1l-0.6,0c-0.8,0-1.5,0.2-2.2,0.6c-0.6,0.3-0.9,0.8-0.9,1.4c0,0.4,0.1,0.8,0.4,1
			c0.3,0.2,0.7,0.4,1.2,0.4c0.6,0,1.2-0.2,1.7-0.6c0.5-0.4,0.7-0.7,0.7-1.1v-1.4C893,655.6,893,655.5,892.9,655.5z"/>
		<path class="st0" d="M903,651.8c-0.2,0-0.2,0.1-0.2,0.3v5.1c0,0.5,0.1,0.8,0.3,1c0.2,0.2,0.6,0.3,1.1,0.3h1.1c0.1,0,0.2,0,0.2,0.1
			c0.1,0.1,0.1,0.2,0.1,0.3l0,1.3c0,0.3-0.2,0.5-0.5,0.5c-0.6,0.1-1.4,0.1-2.5,0.1c-1,0-1.8-0.2-2.3-0.7s-0.8-1.1-0.8-2v-5.9
			c0-0.2-0.1-0.3-0.3-0.3H898c-0.3,0-0.4-0.1-0.4-0.4v-1.6c0-0.2,0.1-0.3,0.4-0.3h1.5c0.1,0,0.2-0.1,0.2-0.2l0.3-3.2
			c0-0.2,0.1-0.4,0.3-0.4h2.3c0.1,0,0.2,0,0.2,0.1s0.1,0.2,0.1,0.3v3.2c0,0.1,0.1,0.2,0.2,0.2h2.2c0.3,0,0.4,0.1,0.4,0.3v1.6
			c0,0.2-0.1,0.4-0.4,0.4H903z"/>
		<path class="st0" d="M910.8,647.7c0,0.4-0.2,0.5-0.6,0.5h-2.3c-0.2,0-0.3,0-0.4-0.1c-0.1-0.1-0.1-0.2-0.1-0.4v-2.2
			c0-0.3,0.1-0.4,0.4-0.4h2.6c0.1,0,0.2,0,0.2,0.1c0.1,0.1,0.1,0.2,0.1,0.3V647.7z M910.7,660.3c0,0.2,0,0.3-0.1,0.4
			c-0.1,0.1-0.2,0.1-0.4,0.1h-2.2c-0.2,0-0.3,0-0.4-0.1c-0.1-0.1-0.1-0.2-0.1-0.3v-10.4c0-0.3,0.1-0.4,0.4-0.4h2.6
			c0.2,0,0.3,0.1,0.3,0.4V660.3z"/>
		<path class="st0" d="M915.3,660.2c-0.9-0.5-1.5-1.2-2-2s-0.7-1.9-0.7-3c0-1.2,0.2-2.2,0.7-3.1s1.2-1.6,2-2.1
			c0.9-0.5,1.8-0.7,2.9-0.7c1.1,0,2.1,0.2,3,0.8c0.9,0.5,1.5,1.2,2,2.1c0.5,0.9,0.7,1.9,0.7,3c0,1.1-0.2,2.1-0.7,3
			c-0.5,0.9-1.2,1.6-2,2.1s-1.9,0.7-3,0.7C917.1,661,916.1,660.7,915.3,660.2z M920,657.9c0.4-0.6,0.6-1.5,0.6-2.7
			c0-1.2-0.2-2.2-0.6-2.8s-1-0.9-1.8-0.9c-0.8,0-1.4,0.3-1.8,0.9c-0.4,0.6-0.6,1.6-0.6,2.8c0,1.2,0.2,2.1,0.6,2.7
			c0.4,0.6,1,0.9,1.8,0.9C919,658.8,919.6,658.5,920,657.9z"/>
		<path class="st0" d="M925.9,660.7c-0.1-0.1-0.1-0.2-0.1-0.3v-10.4c0-0.3,0.1-0.4,0.3-0.4h2.6c0.2,0,0.3,0.1,0.3,0.4v1
			c0,0.1,0,0.2,0.1,0.2c0,0,0.1,0,0.1-0.1c0.6-0.6,1.2-1,1.7-1.3c0.6-0.3,1.2-0.4,1.8-0.4c1,0,1.8,0.3,2.4,0.9
			c0.6,0.6,0.9,1.4,0.9,2.4v7.6c0,0.3-0.2,0.5-0.5,0.5h-2.4c-0.2,0-0.3,0-0.3-0.1s-0.1-0.2-0.1-0.3v-7.2c0-0.5-0.1-0.9-0.4-1.1
			c-0.3-0.3-0.6-0.4-1.2-0.4c-0.4,0-0.8,0.1-1.2,0.3s-0.7,0.5-1.2,1v7.3c0,0.2,0,0.3-0.1,0.4c-0.1,0.1-0.2,0.1-0.4,0.1h-2.3
			C926.1,660.8,925.9,660.7,925.9,660.7z"/>
	</g>
</g>
</svg>
