<?xml version="1.0" encoding="utf-8"?>
<!-- Generator: Adobe Illustrator 22.0.1, SVG Export Plug-In . SVG Version: 6.00 Build 0)  -->
<svg version="1.1" id="Layer_1" xmlns="http://www.w3.org/2000/svg" xmlns:xlink="http://www.w3.org/1999/xlink" x="0px" y="0px"
	 viewBox="0 0 1280 746.8" style="enable-background:new 0 0 1280 746.8;" xml:space="preserve">
<style type="text/css">
	.st0{stroke:#FFFFFF;stroke-miterlimit:10;}
	.st1{fill:#FFFFFF;}
	.st2{fill:none;stroke:#000000;stroke-width:10;stroke-miterlimit:10;}
	.st3{fill:none;stroke:#000000;stroke-width:10;stroke-linecap:round;stroke-miterlimit:10;}
	.st4{fill:none;stroke:#FFFFFF;stroke-miterlimit:10;}
	.st5{font-family:'LibreFranklin-Bold';}
	.st6{font-size:70.6229px;}
	.st7{font-size:28.2492px;}
	.st8{font-size:21.1869px;}
</style>
<rect width="1280" height="747.8"/>
<g>
	<circle class="st4" cx="390.2" cy="362.2" r="279"/>
	<circle class="st4" cx="879.4" cy="362.2" r="279"/>
</g>
<text transform="matrix(1 0 0 1 282.2747 347.3717)"><tspan x="0" y="0" class="st1 st5 st6">EXTR</tspan><tspan x="0" y="84.7" class="st1 st5 st6">INSIC</tspan></text>
<text transform="matrix(1 0 0 1 792.1693 347.3717)"><tspan x="0" y="0" class="st1 st5 st6">INTR</tspan><tspan x="0" y="84.7" class="st1 st5 st6">INSIC</tspan></text>
<g>
	<circle class="st0" cx="879.4" cy="91.5" r="74.3"/>
	<text transform="matrix(1 0 0 1 826.3235 99.808)" class="st1 st5 st7">to know</text>
</g>
<g>
	<circle class="st0" cx="143.4" cy="221.9" r="94.7"/>
	<text transform="matrix(1 0 0 1 90.3469 230.1705)" class="st1 st5 st8">regulation</text>
</g>
<g>
	<circle class="st0" cx="116.9" cy="467.8" r="97.6"/>
	<text transform="matrix(1 0 0 1 63.8635 476.109)" class="st1 st5 st8">introjected</text>
</g>
<g>
	<circle class="st0" cx="371.2" cy="626" r="112.7"/>
	<text transform="matrix(1 0 0 1 303.0933 632.651)" class="st1 st5 st8">identification</text>
</g>
<g>
	<circle class="st0" cx="371.2" cy="89.5" r="75.8"/>
	<text transform="matrix(1 0 0 1 314.2903 96.1871)" class="st1 st5 st8">integration</text>
</g>
<g>
	<circle class="st0" cx="1148.1" cy="362.2" r="115.9"/>
	<text transform="matrix(1 0 0 1 1075.0687 366.9312)"><tspan x="0" y="0" class="st1 st5 st8">to accomplish </tspan><tspan x="40.7" y="28.5" class="st1 st5 st8">things</tspan></text>
</g>
<g>
	<circle class="st0" cx="879.4" cy="644.2" r="95.5"/>
	<text transform="matrix(1 0 0 1 809.2776 637.6168)"><tspan x="0" y="0" class="st1 st5 st8">to experience</tspan><tspan x="12.3" y="26.1" class="st1 st5 st8">stimulation</tspan></text>
</g>
</svg>
