<?xml version="1.0" encoding="utf-8"?>
<!-- Generator: Adobe Illustrator 22.0.1, SVG Export Plug-In . SVG Version: 6.00 Build 0)  -->
<svg version="1.1" id="Layer_1" xmlns="http://www.w3.org/2000/svg" xmlns:xlink="http://www.w3.org/1999/xlink" x="0px" y="0px"
	 viewBox="0 0 226 49" style="enable-background:new 0 0 226 49;" xml:space="preserve">
<style type="text/css">
	.st0{fill:#FFFFFF;}
	.st1{fill:#E63312;}
	.st2{fill:#831F82;}
	.st3{fill:#AFCA0B;}
	.st4{fill:#41C0F0;}
	.st5{fill:#FFDD00;}
	.st6{fill:#E6007E;}
	.st7{fill:#F7A600;}
</style>
<g>
	<path class="st0" d="M15.1,48.4v-6.9c0-1.7,0-2.8-0.3-3.5c-0.1-0.3-0.3-0.6-0.7-0.8c-0.6-0.4-1.2-0.4-1.4-0.4
		c-2.2-0.1-3,1.7-3.3,2.6C9.3,39.6,9.3,40,9.3,40c-0.2,0.9-0.1,1.4-0.2,3.1v5.3H7.5v-7.1c0-1.7,0-2.8-0.4-3.5
		c-0.2-0.3-0.4-0.5-0.5-0.6C6.2,37,5.7,36.7,5,36.8c-0.2,0-1.2,0-2,0.8c-1.3,1.2-1.3,3-1.4,4.2v6.7H0V35.6h1.6v2.7
		c0.1-0.2,0.2-0.7,0.5-1.3c1.1-1.7,3.2-1.6,3.4-1.6c1.3,0,2.8,0.6,3.3,2.3c0.1,0.4,0.1,0.7,0.1,0.9c0-0.1,0.2-0.8,0.5-1.3
		c0.9-1.6,2.4-1.9,3.6-1.9c0.7,0,1.2,0.1,1.9,0.4c1.4,0.8,1.6,2.2,1.7,3.3c0,0.4,0,0.6,0.1,1v8.3H15.1z M20,42v0.3
		c0,2.6,1.1,4.2,2.7,4.8c0.4,0.1,0.9,0.2,1.7,0.2c0.1,0,0.5,0,1-0.1s1.8-0.4,2.8-2.1l0.3-0.5L30,45c-0.2,0.3-0.6,1.5-1.7,2.4
		c-1.2,1-2.7,1.3-3.9,1.3c-1.5,0-3.3-0.5-4.6-2.1c-0.7-0.9-1.4-2.5-1.4-4.7c0-1.9,0.5-3.2,1-3.9l0.2-0.3c1.7-2.4,4.1-2.4,4.6-2.4
		c3.8,0,5.8,3.3,5.8,6.5V42C30,42,20,42,20,42z M28.1,40.7c-0.1-0.8-0.2-1.3-0.4-1.7c-0.5-1.1-1.5-2.3-3.5-2.3c-1.3,0-2.1,0.5-2.7,1
		c-0.4,0.4-0.9,1-1.3,2c-0.2,0.5-0.2,0.8-0.2,1H28.1z M40.6,48.4v-2.3c-0.2,0.6-0.6,1.1-0.8,1.3c-0.4,0.4-1,0.9-2,1.1
		c-0.4,0.1-0.7,0.1-1.1,0.1c-0.6,0-3-0.1-4.4-2.6c-0.1-0.3-0.4-0.9-0.6-1.6c-0.3-1.1-0.3-2.1-0.3-2.5c0-2.1,0.7-5,3.4-6.2
		c0.3-0.2,1.2-0.5,2.2-0.4c1.4,0,2.3,0.5,2.8,1.1c0.6,0.6,0.7,0.9,0.8,1.2v-8.2h1.6v18.9h-1.6V48.4z M40.7,41.9c0-1.8-0.3-3-0.8-3.8
		c-0.4-0.5-0.8-0.8-1-0.9c-0.8-0.5-1.6-0.5-1.9-0.5c-1,0-2,0.4-2.8,1.5c-0.8,1.2-1,2.6-1,3.7c0,1.9,0.5,3.3,1.2,4
		c0.6,0.7,1.3,0.9,1.4,1c0.4,0.2,0.9,0.2,1.3,0.2c1.2,0,1.9-0.4,2.4-0.9C40.7,45,40.7,43.2,40.7,41.9C40.7,42,40.7,41.9,40.7,41.9z
		 M44.5,29.5h1.6v2.4h-1.6V29.5z M44.5,35.6h1.6v12.8h-1.6V35.6z M56.7,40.2v-0.7c0-1.2-0.2-1.9-0.9-2.4c-0.5-0.3-1.1-0.6-2.1-0.6
		c-0.7,0-1.9,0.1-2.6,0.8c-0.5,0.5-0.6,1.1-0.6,1.2c-0.1,0.5-0.1,0.9-0.1,1.1l-1.7-0.3c0.3-1.8,0.9-2.7,1.9-3.4s2.1-0.8,3.1-0.8
		c1.8,0,3.2,0.6,3.9,1.3c0.2,0.2,0.4,0.6,0.6,1.1c0.2,0.5,0.2,1,0.2,2v4.7c0,2-0.1,2.8,1.6,2.8h0.3v1.3h-0.2c-0.4,0-0.7,0-1-0.1
		c-1.2-0.1-1.8-0.6-2-1.3c-0.1-0.2-0.1-0.7-0.1-1c-0.2,0.5-0.6,1.3-1.9,2c-0.5,0.3-1.4,0.6-2.7,0.6c-3.1,0-4-2.1-4-3.5
		c0-0.7,0.2-2.2,2.3-3.2c0.9-0.4,2.5-0.8,4.7-1.4C55.4,40.4,56.7,40.2,56.7,40.2z M55.9,41.8c-2,0.5-3.6,0.9-4.3,1.2
		c-0.5,0.2-0.9,0.4-1.1,0.5c-0.6,0.5-0.8,1-0.8,1.5c0,0.2,0,1.2,1,1.8c0.1,0.1,0.3,0.2,0.5,0.2c0.2,0.1,0.6,0.2,1.1,0.2
		c0.7,0,1.2-0.2,1.4-0.2c1.6-0.6,2.4-1.5,2.7-2.3c0.3-0.7,0.3-1.5,0.3-2.1v-1C56.7,41.6,55.9,41.8,55.9,41.8z M66.9,29.4v14.9h7.4v4
		H62.2V29.4H66.9z M93.8,48.4h-5l-0.9-3h-7l-0.9,3h-5l7-18.9h4.9L93.8,48.4z M86.8,41.9l-2.5-8l-0.8,2.9c-0.2,0.9-0.4,1.5-0.7,2.4
		c-0.3,1-0.5,1.7-0.9,2.8h4.9V41.9z M103.5,29.4c2.5,0.1,3.7,0.1,4.9,0.6c0.8,0.3,1.4,0.7,2,1.5c0.7,0.9,0.9,2,0.9,2.9
		c-0.1,1.5-0.6,2.4-1.3,3c-0.5,0.5-1,0.7-1.2,0.8c-0.6,0.3-1,0.3-1.6,0.5c0.1,0,1.7,0.2,2.8,0.8l0.3,0.2c0.5,0.4,0.9,0.8,1.3,1.7
		c0.1,0.3,0.3,0.9,0.3,1.7c0,1.3-0.5,2.7-1.8,3.8l-0.5,0.3c-1.6,1.1-3.6,1.2-5.2,1.2h-8.8v-19L103.5,29.4L103.5,29.4z M100.2,36.9
		h3.6c0.6,0,1.8,0,2.4-0.7c0.2-0.2,0.3-0.4,0.3-0.5c0.2-0.4,0.2-0.8,0.2-0.9c0-1.1-0.6-1.6-1.2-1.8c-0.2-0.1-0.5-0.1-1.1-0.1h-4.1v4
		H100.2z M100.2,44.9h3.3c1.4-0.1,2.3-0.1,2.9-0.6l0.3-0.3c0.3-0.4,0.4-0.9,0.4-1.3c0-0.6-0.1-1.3-0.8-1.8c-0.6-0.5-1.4-0.5-2-0.5
		h-4.1C100.2,40.4,100.2,44.9,100.2,44.9z"/>
</g>
<circle class="st1" cx="61.3" cy="6.2" r="4.6"/>
<circle class="st2" cx="96.7" cy="8.7" r="4.6"/>
<circle class="st3" cx="91" cy="17.4" r="3.2"/>
<circle class="st3" cx="48.3" cy="3.6" r="3.2"/>
<circle class="st4" cx="83.4" cy="17.9" r="1.8"/>
<circle class="st5" cx="71" cy="10.5" r="1.8"/>
<circle class="st1" cx="113.3" cy="2.1" r="1.8"/>
<circle class="st4" cx="72.5" cy="17.4" r="1.8"/>
<circle class="st5" cx="107.1" cy="6.4" r="2.6"/>
<circle class="st2" cx="64.2" cy="15.3" r="2.6"/>
<circle class="st6" cx="119.7" cy="4.5" r="1.3"/>
<circle class="st7" cx="85.9" cy="22.6" r="1.3"/>
<circle class="st1" cx="86.8" cy="11.9" r="1.3"/>
<circle class="st2" cx="85.8" cy="26.4" r="1.3"/>
<circle class="st6" cx="75" cy="7.2" r="1.3"/>
<circle class="st3" cx="82.5" cy="24.5" r="1.3"/>
<circle class="st1" cx="78.8" cy="19.4" r="1.3"/>
<circle class="st4" cx="41.8" cy="6.1" r="1.3"/>
<circle class="st7" cx="53" cy="10.1" r="1.3"/>
<g>
	<path class="st0" d="M122.1,40.2v-0.7c0-1.2-0.2-1.9-0.9-2.4c-0.5-0.3-1.1-0.6-2.1-0.6c-0.7,0-1.9,0.1-2.6,0.8
		c-0.5,0.5-0.6,1.1-0.6,1.2c-0.1,0.5-0.1,0.9-0.1,1.1l-1.7-0.3c0.3-1.8,0.9-2.7,1.9-3.4s2.1-0.8,3.1-0.8c1.8,0,3.2,0.6,3.9,1.3
		c0.2,0.2,0.4,0.6,0.6,1.1s0.2,1,0.2,2v4.7c0,2-0.1,2.8,1.6,2.8h0.3v1.3h-0.2c-0.4,0-0.7,0-1-0.1c-1.2-0.1-1.8-0.6-2-1.3
		c-0.1-0.2-0.1-0.7-0.1-1c-0.2,0.5-0.6,1.3-1.9,2c-0.5,0.3-1.4,0.6-2.7,0.6c-3.1,0-4-2.1-4-3.5c0-0.7,0.2-2.2,2.3-3.2
		c0.9-0.4,2.5-0.8,4.7-1.4L122.1,40.2L122.1,40.2z M121.4,41.8c-2,0.5-3.6,0.9-4.3,1.2c-0.5,0.2-0.9,0.4-1.1,0.5
		c-0.6,0.5-0.8,1-0.8,1.5c0,0.2,0,1.2,1,1.8c0.1,0.1,0.3,0.2,0.5,0.2c0.2,0.1,0.6,0.2,1.1,0.2c0.7,0,1.2-0.2,1.4-0.2
		c1.6-0.6,2.4-1.5,2.7-2.3c0.3-0.7,0.3-1.5,0.3-2.1v-1C122.2,41.6,121.4,41.8,121.4,41.8z M142.1,48.4v-6.9c0-1.7,0-2.8-0.3-3.5
		c-0.1-0.3-0.3-0.6-0.7-0.8c-0.6-0.4-1.2-0.4-1.4-0.4c-2.2-0.1-3,1.7-3.3,2.6c-0.1,0.2-0.1,0.6-0.1,0.6c-0.2,0.9-0.1,1.4-0.2,3.1
		v5.3h-1.6v-7.1c0-1.7,0-2.8-0.4-3.5c-0.2-0.3-0.4-0.5-0.5-0.6c-0.3-0.2-0.8-0.5-1.6-0.5c-0.2,0-1.2,0-2,0.8c-1.3,1.2-1.3,3-1.4,4.2
		v6.7H127V35.6h1.6v2.7c0.1-0.2,0.2-0.7,0.5-1.3c1.1-1.7,3.2-1.6,3.4-1.6c1.3,0,2.8,0.6,3.3,2.3c0.1,0.4,0.1,0.7,0.1,0.9
		c0-0.1,0.2-0.8,0.5-1.3c0.9-1.6,2.4-1.9,3.6-1.9c0.7,0,1.2,0.1,1.9,0.4c1.4,0.8,1.6,2.2,1.7,3.3c0,0.4,0,0.6,0.1,1v8.3H142.1z
		 M146.5,44.7c0,0.1,0.1,0.5,0.3,0.8c1,1.9,3,1.8,3.3,1.8c1.1,0,2-0.3,2.4-0.7c0.2-0.2,0.5-0.5,0.7-1c0.1-0.3,0.2-0.7,0.2-0.8
		c0-0.3-0.1-0.7-0.3-1c-0.4-0.7-1.2-1-2.4-1.2l-1.4-0.3c-0.7-0.2-2.1-0.5-2.8-1.3c-0.1-0.1-0.3-0.3-0.3-0.5
		c-0.1-0.3-0.4-0.8-0.4-1.5c0-1.3,0.7-2.3,1.3-2.7c1-0.8,2.4-0.9,3.4-0.9c0.8,0,1.7,0.1,2.6,0.5l0.3,0.2c0.2,0.1,0.5,0.3,0.9,0.8
		c0.2,0.3,0.5,0.7,0.7,1.4l-1.5,0.4c0-0.1-0.1-0.5-0.4-0.9c-0.5-0.6-1.4-1-2.7-1c-0.6,0-1.6,0.1-2.2,0.5c-0.4,0.3-0.9,0.9-0.8,1.7
		c0,0.4,0.1,0.7,0.3,0.9c0.5,0.7,1.2,0.9,2.4,1.2l1.3,0.3l0.6,0.2c1.4,0.4,2.1,1,2.5,1.8c0.3,0.5,0.4,1,0.4,1.5c0.1,1.8-1.3,4-4.8,4
		c-1.4,0-3.2-0.4-4.4-2.1c-0.3-0.4-0.6-0.9-0.7-1.3L146.5,44.7L146.5,44.7z M162.5,48c-0.8,0.6-1.9,0.6-2,0.6
		c-0.9,0-1.4-0.2-1.8-0.6c-0.4-0.4-0.5-0.8-0.5-1.7c-0.1-0.5,0-0.9,0-1.4v-8h-2.7v-1.3h2.7v-5.4h1.5v5.4h2.8v1.3h-2.8v8.7
		c0,0.6,0.1,1.1,0.4,1.3c0.1,0.1,0.3,0.2,0.6,0.2c0.4,0,0.9-0.1,1.9-0.8L162.5,48L162.5,48z M165.3,42v0.3c0,2.6,1.1,4.2,2.7,4.8
		c0.4,0.1,0.9,0.2,1.7,0.2c0.1,0,0.5,0,1-0.1s1.8-0.4,2.8-2.1l0.3-0.5l1.5,0.4c-0.2,0.3-0.6,1.5-1.7,2.4c-1.2,1-2.7,1.3-3.9,1.3
		c-1.5,0-3.3-0.5-4.6-2.1c-0.7-0.9-1.4-2.5-1.4-4.7c0-1.9,0.5-3.2,1-3.9l0.2-0.3c1.7-2.4,4.1-2.4,4.6-2.4c3.8,0,5.8,3.3,5.8,6.5V42
		L165.3,42L165.3,42z M173.4,40.7c-0.1-0.8-0.2-1.3-0.4-1.7c-0.5-1.1-1.5-2.3-3.5-2.3c-1.3,0-2.1,0.5-2.7,1c-0.4,0.4-0.9,1-1.3,2
		c-0.2,0.5-0.2,0.8-0.2,1H173.4L173.4,40.7z M177,48.4V35.6h1.6v2c0.1-0.2,0.3-0.7,0.9-1.3c0.6-0.6,1.4-1,2.8-1
		c0.4,0,0.7,0.1,0.9,0.1v1.4c-0.5-0.1-0.8-0.1-1-0.1s-1.7-0.1-2.7,1.1c-0.6,0.8-0.8,1.9-0.8,2c-0.1,0.5-0.1,1.6-0.1,2.9v5.5H177
		L177,48.4z M192.6,48.4v-2.3c-0.2,0.6-0.6,1.1-0.8,1.3c-0.4,0.4-1,0.9-2,1.1c-0.4,0.1-0.7,0.1-1.1,0.1c-0.6,0-3-0.1-4.4-2.6
		c-0.1-0.3-0.4-0.9-0.6-1.6c-0.3-1.1-0.3-2.1-0.3-2.5c0-2.1,0.7-5,3.4-6.2c0.3-0.2,1.2-0.5,2.2-0.4c1.4,0,2.3,0.5,2.8,1.1
		c0.6,0.6,0.7,0.9,0.8,1.2v-8.2h1.6v18.9h-1.6L192.6,48.4z M192.7,41.9c0-1.8-0.3-3-0.8-3.8c-0.4-0.5-0.8-0.8-1-0.9
		c-0.8-0.5-1.6-0.5-1.9-0.5c-1,0-2,0.4-2.8,1.5c-0.8,1.2-1,2.6-1,3.7c0,1.9,0.5,3.3,1.2,4c0.6,0.7,1.3,0.9,1.4,1
		c0.4,0.2,0.9,0.2,1.3,0.2c1.2,0,1.9-0.4,2.4-0.9C192.7,45,192.7,43.2,192.7,41.9L192.7,41.9L192.7,41.9z M204.5,40.2v-0.7
		c0-1.2-0.2-1.9-0.9-2.4c-0.5-0.3-1.1-0.6-2.1-0.6c-0.7,0-1.9,0.1-2.6,0.8c-0.5,0.5-0.6,1.1-0.6,1.2c-0.1,0.5-0.1,0.9-0.1,1.1
		l-1.7-0.3c0.3-1.8,0.9-2.7,1.9-3.4s2.1-0.8,3.1-0.8c1.8,0,3.2,0.6,3.9,1.3c0.2,0.2,0.4,0.6,0.6,1.1c0.2,0.5,0.2,1,0.2,2v4.7
		c0,2-0.1,2.8,1.6,2.8h0.3v1.3h-0.2c-0.4,0-0.7,0-1-0.1c-1.2-0.1-1.8-0.6-2-1.3c-0.1-0.2-0.1-0.7-0.1-1c-0.2,0.5-0.6,1.3-1.9,2
		c-0.5,0.3-1.4,0.6-2.7,0.6c-3.1,0-4-2.1-4-3.5c0-0.7,0.2-2.2,2.3-3.2c0.9-0.4,2.5-0.8,4.7-1.4C203.2,40.4,204.5,40.2,204.5,40.2z
		 M203.8,41.8c-2,0.5-3.6,0.9-4.3,1.2c-0.5,0.2-0.9,0.4-1.1,0.5c-0.6,0.5-0.8,1-0.8,1.5c0,0.2,0,1.2,1,1.8c0.1,0.1,0.3,0.2,0.5,0.2
		c0.2,0.1,0.6,0.2,1.1,0.2c0.7,0,1.2-0.2,1.4-0.2c1.6-0.6,2.4-1.5,2.7-2.3c0.3-0.7,0.3-1.5,0.3-2.1v-1L203.8,41.8L203.8,41.8z
		 M224.4,48.4v-6.9c0-1.7,0-2.8-0.3-3.5c-0.1-0.3-0.3-0.6-0.7-0.8c-0.6-0.4-1.2-0.4-1.4-0.4c-2.2-0.1-3,1.7-3.3,2.6
		c-0.1,0.2-0.1,0.6-0.1,0.6c-0.2,0.9-0.1,1.4-0.2,3.1v5.3h-1.6v-7.1c0-1.7,0-2.8-0.4-3.5c-0.2-0.3-0.4-0.5-0.5-0.6
		c-0.3-0.2-0.8-0.5-1.6-0.5c-0.2,0-1.2,0-2,0.8c-1.3,1.2-1.3,3-1.4,4.2v6.7h-1.6V35.6h1.6v2.7c0.1-0.2,0.2-0.7,0.5-1.3
		c1.1-1.7,3.2-1.6,3.4-1.6c1.3,0,2.8,0.6,3.3,2.3c0.1,0.4,0.1,0.7,0.1,0.9c0-0.1,0.2-0.8,0.5-1.3c0.9-1.6,2.4-1.9,3.6-1.9
		c0.7,0,1.2,0.1,1.9,0.4c1.4,0.8,1.6,2.2,1.7,3.3c0,0.4,0,0.6,0.1,1v8.3H224.4z"/>
</g>
</svg>
